<svg width="24" height="24" viewBox="0 0 24 24" fill="none" xmlns="http://www.w3.org/2000/svg"><path d="M18.22 6.372l.137-.058a7.23 7.23 0 00-.934-1.56 8.247 8.247 0 00-.532-.621l-.009-.009-.002-.002h0V4.12l-.107.106.106-.106a7.256 7.256 0 00-1.453-1.097 8.234 8.234 0 00-.724-.375l-.012-.005h-.003v-.001h0l-.06.138.06-.138a7.204 7.204 0 00-1.824-.475 8.28 8.28 0 00-.845-.068H12h0v.151-.15c-.704 0-1.375.136-1.868.27a8.183 8.183 0 00-.802.266l-.012.005-.003.001h0-.001l.058.139-.058-.138a7.233 7.233 0 00-1.56.934 8.273 8.273 0 00-.621.532l-.009.009-.002.002h0-.001l.106.107-.106-.106a7.256 7.256 0 00-1.097 1.453 8.22 8.22 0 00-.375.724l-.005.012v.003h-.001 0l.138.06-.138-.06a7.203 7.203 0 00-.475 1.824 8.277 8.277 0 00-.068.845V9h.15-.15c0 .704.136 1.375.27 1.868a8.18 8.18 0 00.266.802l.005.012.001.003h0v.001l.139-.058-.138.058a7.21 7.21 0 00.934 1.56 8.257 8.257 0 00.532.621l.009.009.002.002h0v.001l.107-.105-.106.105a6.92 6.92 0 001.127.897 13.545 13.545 0 00-1.916.833l-.024.013-.006.003-.002.001h0l.074.13-.074-.13c-1.326.766-2.369 1.81-3.078 2.659a13.583 13.583 0 00-1.023 1.395 6.31 6.31 0 00-.053.088l-.014.023-.004.006v.002h0l.115.067-.005-.002-.111-.064h0a.902.902 0 00-.12.45v.016a.9.9 0 001.679.434c.641-1.111 1.52-1.99 2.24-2.593a11.499 11.499 0 011.178-.863l.072-.044.018-.011.004-.003H7.2s0 0 0 0c1.111-.642 2.312-.964 3.238-1.126a11.49 11.49 0 011.451-.158 4.456 4.456 0 01.094-.002H12v0h.074c1.255.011 2.427.326 3.293.643a11.506 11.506 0 011.337.589c.032.017.057.03.073.04l.019.01.004.003h.001c1.111.642 1.99 1.52 2.593 2.241a11.512 11.512 0 01.863 1.179c.02.03.035.055.044.071l.011.018.003.005h0a.9.9 0 101.56-.899c-.766-1.326-1.81-2.369-2.659-3.078a13.58 13.58 0 00-1.395-1.023 7.181 7.181 0 00-.088-.053l-.023-.014-.006-.004H17.7v-.001h0l-.076.13.076-.13a10.547 10.547 0 00-1.934-.86 8.266 8.266 0 001.1-.876l.009-.009.002-.002h.001l-.106-.107.106.106c.48-.48.848-1.027 1.097-1.453a8.275 8.275 0 00.375-.724l.005-.012v-.003h.001l-.138-.06.138.06a7.205 7.205 0 00.475-1.824 8.318 8.318 0 00.068-.845V9h0v0h-.149.15c0-.704-.136-1.375-.27-1.868a8.19 8.19 0 00-.248-.758l-.018-.044-.005-.012-.001-.003h0v-.001l-.139.058zM17.1 9v0h0v0c0 1.052-.372 1.954-.748 2.596a6.101 6.101 0 01-.685.945l-.046.05-.011.012-.003.003h0c-.745.744-1.646 1.119-2.365 1.307a6.109 6.109 0 01-1.153.184 2.919 2.919 0 01-.06.003h-.028 0s0 0 0 0H12h0-.07c-1.022-.017-1.898-.38-2.526-.748a6.105 6.105 0 01-.945-.685 2.713 2.713 0 01-.05-.046l-.012-.011-.003-.003h0c-.744-.745-1.119-1.646-1.307-2.365a6.102 6.102 0 01-.184-1.153 2.693 2.693 0 01-.003-.068V9s0 0 0 0 0 0 0 0c0-1.052.372-1.954.748-2.596a6.103 6.103 0 01.685-.945l.046-.05.012-.012.002-.003h0c.745-.744 1.646-1.119 2.365-1.307a6.1 6.1 0 011.153-.184 2.75 2.75 0 01.068-.003H12c1.052 0 1.954.372 2.596.748a6.098 6.098 0 01.945.685l.05.046.012.012.003.002h0c.744.745 1.119 1.646 1.307 2.365a6.11 6.11 0 01.184 1.153l.003.068v.02z" fill="#0099A1" stroke="#0099A1" stroke-width=".3"/></svg>