<svg width="180" height="51" viewBox="0 0 180 51" fill="none" xmlns="http://www.w3.org/2000/svg"><g clip-path="url(#clip0_74_71)"><path d="M158.754 13.982h-1.18v10.616h1.18V13.982z" fill="#C8D4DB" stroke="#4D4D4D" stroke-width="2"/><path d="M156.689 38.065V24.598h2.95V38.1c0 .602-.174 1.123-.448 1.485-.273.36-.629.549-1.013.549-.381 0-.746-.194-1.028-.566-.281-.373-.461-.903-.461-1.503z" fill="#DB9300" stroke="#4D4D4D" stroke-width="2"/><path d="M158.459 26.152c0-.143-.132-.26-.295-.26-.163 0-.295.117-.295.26 0 .143.132.259.295.259.163 0 .295-.116.295-.26zm0 5.696c0-.143-.132-.259-.295-.259-.163 0-.295.116-.295.26 0 .142.132.258.295.258.163 0 .295-.116.295-.259zm0 5.697c0-.143-.132-.26-.295-.26-.163 0-.295.117-.295.26 0 .143.132.259.295.259.163 0 .295-.116.295-.26z" fill="#4D4D4D"/><path d="M159.402 8.063h.295V.983c0-.129.065-.248.163-.337a.452.452 0 01.264-.128c.052 0 .142.03.232.125a.51.51 0 01.141.34v9.371l.028 2.754v.001a1.167 1.167 0 01-.238.728c-.141.175-.31.253-.469.253h-3.197c-.167 0-.368-.086-.537-.267a1.053 1.053 0 01-.281-.715v-2.721 0-.001 0-.001 0-.001 0-.001 0-.001 0-.001 0-.001 0-.001 0-.001 0-.001 0-.001 0-.001 0-.001 0-.001 0-.001 0-.001 0-.001 0-.001 0-.001 0-.001 0-.001 0-.001 0-.001 0-.001 0-.001 0-.001 0-.001 0-.001 0-.001 0-.001 0-.001 0-.001 0-.001 0-.001 0-.001 0-.001 0-.001 0-.001 0-.001 0-.001 0-.001 0-.001 0-.001 0-.001 0-.001 0-.001 0-.001 0-.001 0-.001 0-.001 0-.001 0-.001 0-.001 0-.001 0-.001 0-.001 0-.001 0-.001 0-.001 0-.001 0-.001 0-.001 0-.001 0-.001 0-.001 0-.001 0-.001 0-.001 0-.001 0-.001 0-.001 0-.001 0-.001 0-.001 0-.001 0-.001 0-.001 0-.001 0-.001 0-.001 0-.001 0-.001 0-.001 0-.001 0-.001 0-.001 0-.001 0-.001 0-.001 0-.001 0-.001 0-.001 0-.001 0-.001 0-.001 0-.001 0-.001 0-.001 0-.001 0-.001 0-.001 0-.001 0-.001 0-.001 0-.001 0-.001 0-.001 0-.001 0-.001 0-.001 0-.001 0-.001 0-.001 0-.001 0-.001 0-.001 0-.001 0-.001 0-.001 0-.001 0-.001 0-.001 0-.001 0-.001 0-.001 0-.001 0-.001 0-.001 0-.001 0-.001 0-.001 0-.001 0-.001 0-.001 0-.001 0-.001 0-.001 0-.001 0-.001 0-.001 0-.001 0-.001 0-.001 0-.001 0-.001 0-.001 0-.001 0-.001 0-.001 0-.001 0-.001 0-.001 0-.001 0-.001 0-.001 0-.001 0-.001 0-.001 0-.001 0-.001 0-.001 0-.001 0-.001 0-.001 0-.001 0-.001 0-.001 0-.001 0-.001 0-.001 0-.001 0-.001 0V.981a.51.51 0 01.138-.351c.083-.088.166-.113.207-.113.114 0 .227.03.306.09.072.056.15.16.15.374v7.081h1.146V.989c.024-.375.262-.471.372-.471.041 0 .149.033.261.138a.47.47 0 01.167.326v7.081h.852z" fill="#C8D4DB" stroke="#4D4D4D" stroke-width="2"/><path d="M160.23 24.598h-4.132v-1.035h4.132v1.035z" fill="#EFE5C6" stroke="#4D4D4D" stroke-width="2"/><path d="M164.066 18.446h-29.804s3.142 3.104 10.458 3.24c7.317.157 9.875-.023 9.875-.023l4.129-2.07h4.264l.763-.9" fill="#C8D4DB"/><mask id="mask0_74_71" style="mask-type:luminance" maskUnits="userSpaceOnUse" x="134" y="18" width="31" height="4"><path d="M164.066 18.446h-29.804s3.142 3.104 10.458 3.24c7.317.157 9.875-.023 9.875-.023l4.129-2.07h4.264l.763-.9" fill="#4D4D4D"/></mask><g mask="url(#mask0_74_71)"><path d="M134.262 18.446l-.441.344-.872-.862h1.313v.518zm10.458 3.24l.013-.518h.002l-.015.517zm9.875-.023l.293.45-.115.057-.131.01-.047-.517zm4.129-2.07l-.292-.45.136-.068h.156v.518zm4.264 0l.474.31-.177.208h-.297v-.518zm1.078-.63h-29.804v-1.035h29.804v1.036zm-29.804-.517l.441-.344-.001-.001.004.003.02.02.096.084c.089.075.228.187.419.324.382.274.971.647 1.784 1.026 1.623.757 4.147 1.544 7.708 1.61l-.025 1.035c-3.755-.07-6.46-.902-8.237-1.73a12.349 12.349 0 01-1.977-1.139 7.507 7.507 0 01-.621-.495l-.036-.033-.01-.01-.004-.004-.001-.001h-.001l.441-.345zm10.473 2.722c3.651.078 6.111.073 7.655.047a69.23 69.23 0 002.044-.061 8.98 8.98 0 00.109-.007h.005l.047.516.047.516h-.01l-.026.003c-.022 0-.055.003-.098.005l-.4.019c-.36.015-.914.032-1.696.045-1.564.025-4.041.031-7.706-.048l.029-1.035zm9.567.045l4.13-2.07.585.9-4.129 2.07-.586-.9zm4.422-2.138h4.264v1.036h-4.264v-1.036zm3.791.21l.763-.9.947.618-.763.9-.947-.619z" fill="#4D4D4D"/></g><path d="M177.347 20.455H162v-2.589h15.386c.687 0 1.281.153 1.693.393.411.24.626.553.626.89 0 .334-.221.654-.645.901-.425.247-1.029.405-1.713.405z" fill="#DB9300" stroke="#4D4D4D" stroke-width="2"/><path d="M162 17.348v3.625h-1.18v-3.625H162z" fill="#EFE5C6" stroke="#4D4D4D" stroke-width="2"/><path d="M154.483 19.878l-2.555 1.294c-.141.072-.19.23-.108.354.081.124.262.166.403.095l2.555-1.295c.141-.072.19-.23.108-.354-.081-.124-.262-.166-.403-.095zm-2.951 0l-2.555 1.294c-.141.072-.19.23-.108.354.081.124.262.166.403.095l2.555-1.295c.142-.072.19-.23.108-.354-.081-.124-.262-.166-.403-.095zm-2.95 0l-2.556 1.294c-.141.072-.189.23-.108.354.082.124.262.166.403.095l2.556-1.295c.141-.072.189-.23.108-.354-.082-.124-.262-.166-.403-.095zm15.188-.976c-.162 0-.295.116-.295.259 0 .143.133.259.295.259.163 0 .296-.116.296-.26 0-.142-.133-.258-.296-.258zm6.492 0c-.163 0-.295.116-.295.259 0 .143.132.259.295.259.163 0 .295-.116.295-.26 0-.142-.132-.258-.295-.258zm6.492 0c-.163 0-.295.116-.295.259 0 .143.132.259.295.259.163 0 .295-.116.295-.26 0-.142-.132-.258-.295-.258z" fill="#4D4D4D"/><path d="M137.243 48.976c-.402 0-.765-.08-1.089-.24a1.968 1.968 0 01-.779-.707c-.189-.311-.284-.69-.284-1.134 0-.446.095-.821.284-1.127.189-.31.445-.546.77-.707.325-.16.69-.24 1.098-.24.442 0 .838.088 1.186.264.354.17.631.414.832.73.201.31.301.67.301 1.08 0 .414-.1.776-.301 1.087-.201.31-.478.554-.832.73a2.592 2.592 0 01-1.186.264zm-2.399 1.468V44.86h.602v1.228l-.062.815.088.824v2.718h-.628zm2.354-1.957c.331 0 .626-.065.886-.194.259-.135.466-.321.619-.56.154-.243.23-.523.23-.838a1.5 1.5 0 00-.23-.832 1.597 1.597 0 00-.619-.559 1.898 1.898 0 00-.886-.202c-.33 0-.628.068-.894.202a1.597 1.597 0 00-.619.56 1.542 1.542 0 00-.222.83c0 .316.074.596.222.84a1.6 1.6 0 00.619.559c.266.13.564.194.894.194zm3.645.45v-5.763h.629v5.764h-.629zm4.299.04a2.55 2.55 0 01-1.036-.195 1.529 1.529 0 01-.691-.582c-.159-.26-.239-.583-.239-.971v-2.37h.629v2.307c0 .435.121.764.363.987.248.217.593.326 1.036.326.324 0 .605-.057.841-.17.242-.12.425-.29.548-.513.13-.223.195-.49.195-.8v-2.137h.629v4.078h-.602V47.82l.097.202c-.147.3-.378.536-.69.707-.307.166-.667.248-1.08.248zm5.275 0c-.384 0-.747-.047-1.089-.14-.343-.099-.611-.22-.806-.366l.283-.435c.189.125.431.233.726.327.295.088.605.132.93.132.442 0 .761-.06.956-.179.195-.124.292-.287.292-.49a.41.41 0 00-.168-.349 1.022 1.022 0 00-.425-.194 5.26 5.26 0 00-.593-.117 14.1 14.1 0 01-.655-.108 2.781 2.781 0 01-.585-.179 1.19 1.19 0 01-.433-.334c-.107-.14-.16-.326-.16-.56 0-.222.071-.421.213-.597.141-.176.348-.314.619-.412.278-.104.614-.155 1.01-.155.301 0 .602.036.903.108.301.068.548.158.743.272l-.274.443a2.195 2.195 0 00-.664-.264 3.011 3.011 0 00-.708-.086c-.419 0-.729.065-.93.195-.195.124-.292.284-.292.481 0 .156.053.277.159.365.112.088.257.158.434.21.183.047.381.085.593.116.219.032.434.07.646.117.219.041.417.101.594.179a.982.982 0 01.433.318c.112.135.169.314.169.536a.914.914 0 01-.231.622c-.147.17-.366.305-.655.404-.283.093-.628.14-1.035.14z" fill="#43AB66"/><path d="M59.205 40.548c-1.935 0-3.635-.352-5.099-1.056-1.463-.725-2.608-1.71-3.434-2.952-.827-1.264-1.24-2.703-1.24-4.319s.39-3.045 1.169-4.288c.802-1.243 1.888-2.216 3.257-2.92 1.393-.726 2.951-1.088 4.675-1.088 1.746 0 3.293.352 4.638 1.056 1.37.684 2.443 1.658 3.222 2.921.78 1.243 1.169 2.683 1.169 4.32 0 .103-.012.217-.035.34v.343H51.344v-1.647h14.837l-.992.652c0-1.18-.295-2.226-.885-3.138a5.843 5.843 0 00-2.337-2.175c-.991-.518-2.136-.777-3.434-.777-1.275 0-2.42.26-3.435.777-1.015.518-1.806 1.243-2.373 2.175-.566.932-.85 2-.85 3.2v.342c0 1.243.307 2.341.921 3.294.637.932 1.51 1.667 2.62 2.206 1.134.518 2.42.777 3.86.777 1.133 0 2.184-.176 3.151-.529a6.595 6.595 0 002.55-1.615l1.416 1.43c-.826.87-1.865 1.532-3.116 1.988-1.227.455-2.584.683-4.072.683zm19.777 0c-1.841 0-3.493-.352-4.957-1.056-1.44-.725-2.573-1.71-3.4-2.952-.826-1.264-1.239-2.703-1.239-4.319 0-1.636.413-3.076 1.24-4.319.826-1.243 1.959-2.216 3.399-2.92 1.463-.705 3.116-1.057 4.957-1.057 1.582 0 3.01.27 4.285.808 1.275.538 2.278 1.346 3.01 2.423L84.4 28.275a5.733 5.733 0 00-2.373-1.833c-.944-.394-1.97-.59-3.08-.59-1.322 0-2.514.269-3.577.807-1.062.518-1.9 1.254-2.514 2.206-.613.953-.92 2.072-.92 3.356 0 1.284.307 2.403.92 3.356.614.953 1.452 1.698 2.514 2.237 1.063.518 2.255.777 3.577.777 1.11 0 2.136-.197 3.08-.59a5.836 5.836 0 002.373-1.803l1.877 1.119c-.732 1.056-1.735 1.864-3.01 2.423-1.275.539-2.703.808-4.285.808zm10.54-.155V24.08h2.515v16.313h-2.514zm1.275-19.917c-.519 0-.956-.155-1.31-.466-.354-.31-.531-.684-.531-1.119 0-.435.177-.797.531-1.087.354-.31.791-.466 1.31-.466.52 0 .956.145 1.31.435.355.29.532.652.532 1.087 0 .456-.177.84-.531 1.15-.331.31-.768.466-1.31.466zm16.415 20.072c-1.606 0-3.058-.32-4.356-.963a7.878 7.878 0 01-3.116-2.828c-.755-1.242-1.133-2.755-1.133-4.536 0-1.781.378-3.283 1.133-4.505a7.345 7.345 0 013.081-2.828c1.298-.642 2.762-.963 4.391-.963 1.77 0 3.352.352 4.744 1.056 1.417.684 2.526 1.658 3.329 2.921.803 1.243 1.204 2.683 1.204 4.32 0 1.656-.401 3.106-1.204 4.35-.803 1.242-1.912 2.215-3.329 2.92-1.392.704-2.974 1.056-4.744 1.056zm-9.597 5.873V24.08h2.408v4.909l-.248 3.262.355 3.294V46.42h-2.514zm9.419-7.83c1.322 0 2.503-.26 3.541-.777a6.386 6.386 0 002.479-2.237c.614-.974.921-2.092.921-3.356 0-1.263-.307-2.372-.921-3.325a6.386 6.386 0 00-2.479-2.237c-1.038-.538-2.219-.808-3.541-.808-1.321 0-2.514.27-3.576.808a6.386 6.386 0 00-2.479 2.237c-.59.953-.885 2.061-.885 3.325 0 1.264.295 2.382.885 3.356a6.386 6.386 0 002.479 2.237c1.062.518 2.255.777 3.576.777zm21.06 1.957c-1.936 0-3.636-.352-5.099-1.056-1.464-.725-2.609-1.71-3.435-2.952-.826-1.264-1.239-2.703-1.239-4.319s.389-3.045 1.168-4.288c.803-1.243 1.889-2.216 3.258-2.92 1.393-.726 2.951-1.088 4.674-1.088 1.747 0 3.293.352 4.639 1.056 1.369.684 2.443 1.658 3.222 2.921.779 1.243 1.169 2.683 1.169 4.32 0 .103-.012.217-.036.34v.343h-16.182v-1.647h14.837l-.992.652c0-1.18-.295-2.226-.885-3.138a5.849 5.849 0 00-2.337-2.175c-.992-.518-2.137-.777-3.435-.777-1.275 0-2.42.26-3.435.777-1.015.518-1.806 1.243-2.372 2.175-.567.932-.85 2-.85 3.2v.342c0 1.243.307 2.341.921 3.294.637.932 1.511 1.667 2.62 2.206 1.133.518 2.42.777 3.86.777 1.133 0 2.183-.176 3.151-.529a6.592 6.592 0 002.55-1.615l1.416 1.43c-.826.87-1.865 1.532-3.116 1.988-1.228.455-2.585.683-4.072.683zm17.05 0c-1.534 0-2.986-.186-4.355-.56-1.369-.393-2.443-.88-3.222-1.46l1.133-1.74c.755.498 1.723.933 2.903 1.306 1.181.352 2.42.528 3.718.528 1.771 0 3.046-.238 3.825-.715.779-.497 1.168-1.15 1.168-1.957 0-.601-.224-1.067-.673-1.399-.425-.352-.991-.61-1.699-.776a20.95 20.95 0 00-2.373-.466 57.577 57.577 0 01-2.62-.435 11.073 11.073 0 01-2.337-.715 4.772 4.772 0 01-1.735-1.336c-.425-.56-.638-1.305-.638-2.237 0-.891.284-1.688.85-2.393.567-.704 1.393-1.253 2.479-1.647 1.109-.414 2.455-.621 4.037-.621 1.204 0 2.408.145 3.611.435 1.204.27 2.196.632 2.975 1.088l-1.098 1.77a8.748 8.748 0 00-2.656-1.056 12.035 12.035 0 00-2.832-.342c-1.676 0-2.916.26-3.718.777-.779.497-1.169 1.14-1.169 1.927 0 .621.213 1.108.637 1.46.449.352 1.027.632 1.736.839.731.186 1.522.342 2.372.466.873.124 1.735.28 2.585.466.873.166 1.664.404 2.372.715.732.29 1.311.714 1.735 1.274.449.538.673 1.253.673 2.144 0 .952-.307 1.78-.92 2.485-.591.684-1.464 1.222-2.621 1.616-1.133.373-2.514.56-4.143.56z" fill="#4D4D4D"/><path d="M92.715 18.98c0-.93-.859-1.684-1.918-1.684-1.06 0-1.918.754-1.918 1.684 0 .929.858 1.683 1.918 1.683 1.059 0 1.918-.754 1.918-1.683zM27.324.105c5.748 0 10.133.899 13.155 2.698 3.043 1.78 4.564 4.339 4.564 7.676 0 1.632-.221 3.032-.665 4.2-.423 1.15-1.025 2.133-1.807 2.949-.761.797-1.68 1.465-2.758 2.003a22.12 22.12 0 01-3.455 1.335c.866.204 1.733.75 2.599 1.64.888.89 1.786 1.994 2.694 3.31a62.2 62.2 0 012.758 4.34c.93 1.594 1.86 3.208 2.79 4.84a215.027 215.027 0 002.852 4.756 48.253 48.253 0 002.885 4.116c.972 1.206 1.944 2.17 2.916 2.893.994.723 1.976 1.085 2.948 1.085.423 0 .835-.075 1.236-.223.423-.148.75-.296.983-.445l.666 1.085c-.423.204-.94.426-1.553.668-.613.26-1.332.5-2.156.723-.824.222-1.754.408-2.79.556-1.014.167-2.144.25-3.391.25-2.05 0-3.9-.5-5.547-1.502-1.648-.983-3.064-2.373-4.248-4.172a117.624 117.624 0 01-3.55-5.84l-3.487-6.12a246.013 246.013 0 00-3.455-5.98 95.526 95.526 0 00-3.455-5.48l.253-1.14c1.247.278 2.325.213 3.234-.195.93-.408 1.69-1.066 2.282-1.975.592-.927 1.025-2.058 1.3-3.393.295-1.335.443-2.781.443-4.34 0-1.112-.137-2.15-.412-3.114-.274-.983-.665-1.836-1.172-2.56-.486-.741-1.078-1.316-1.776-1.724-.697-.426-1.479-.64-2.345-.64-.677 0-1.236.093-1.68.279-.423.166-.761.389-1.015.667-.253.26-.433.547-.538.862a3.143 3.143 0 00-.127.863v32.988c0 1.428-.433 2.466-1.3 3.115-.845.649-2.145.974-3.899.974-1.775 0-3.085-.325-3.93-.974-.846-.65-1.268-1.687-1.268-3.115V4.778c0-1.02-.803-1.53-2.41-1.53-1.162 0-2.345.157-3.55.473A13.358 13.358 0 006.91 4.972c-.95.52-1.733 1.15-2.345 1.892-.613.723-.92 1.51-.92 2.364 0 .593.085 1.066.254 1.418.19.353.401.622.634.807a2 2 0 00.697.334c.254.037.433.055.54.055.527 0 .96-.074 1.299-.222.338-.167.644-.334.919-.5.275-.186.528-.353.76-.501.254-.167.54-.25.857-.25.253 0 .517.055.792.166.296.093.56.25.793.473.253.223.464.52.633.89.17.352.254.788.254 1.307 0 .742-.169 1.382-.507 1.92-.317.537-.74.992-1.268 1.363a5.746 5.746 0 01-1.775.806c-.655.167-1.31.25-1.965.25-1.015 0-1.934-.148-2.758-.445a6.345 6.345 0 01-2.06-1.28 5.358 5.358 0 01-1.3-1.89A6.037 6.037 0 010 11.618c0-1.538.328-2.892.983-4.06.655-1.187 1.574-2.207 2.757-3.06 1.205-.853 2.642-1.557 4.311-2.114 1.67-.574 3.519-1.029 5.548-1.362a61.342 61.342 0 016.498-.696C22.42.18 24.83.105 27.324.105z" fill="#43AB66"/></g><defs><clipPath id="clip0_74_71"><path fill="#fff" d="M0 0h180v50.75H0z"/></clipPath></defs></svg>