<?xml version="1.0" standalone="no"?>
<!DOCTYPE svg PUBLIC "-//W3C//DTD SVG 1.1//EN" "http://www.w3.org/Graphics/SVG/1.1/DTD/svg11.dtd" >
<svg xmlns="http://www.w3.org/2000/svg" xmlns:xlink="http://www.w3.org/1999/xlink" version="1.1">
<metadata>
Created by FontForge 20230101 at Wed May 18 19:30:18 2022
 By Webmaster
Copyright 2022 The Spline Sans Mono Project Authors (https://github.com/SorkinType/SplineSansMono)
</metadata>
<defs>
<font id="SplineSansMono-Light" horiz-adv-x="1200" >
  <font-face 
    font-family="Spline Sans Mono Light"
    font-weight="300"
    font-stretch="normal"
    units-per-em="2000"
    panose-1="2 6 6 9 3 5 2 8 1 4"
    ascent="1600"
    descent="-400"
    x-height="1091"
    cap-height="1454"
    bbox="-120 -512 2347 1993"
    underline-thickness="50"
    underline-position="-125"
    unicode-range="U+000D-FB02"
  />
<missing-glyph 
d="M59 -241v1769h1083v-1769h-1083zM169 -129h863v1557h-863v-1557z" />
    <glyph glyph-name=".notdef" 
d="M59 -241v1769h1083v-1769h-1083zM169 -129h863v1557h-863v-1557z" />
    <glyph glyph-name="A" unicode="A" 
d="M20 0l479 1454h203l478 -1454h-132l-146 446l72 -54h-772l62 116h671l-40 -41l-220 684l-75 226h-2l-73 -226l-373 -1151h-132z" />
    <glyph glyph-name="Aacute" unicode="&#xc1;" 
d="M20 0l479 1454h203l478 -1454h-132l-146 446l72 -54h-772l62 116h671l-40 -41l-220 684l-75 226h-2l-73 -226l-373 -1151h-132zM682 1591h-146l211 319h173z" />
    <glyph glyph-name="Abreve" unicode="&#x102;" 
d="M20 0l479 1454h203l478 -1454h-132l-146 446l72 -54h-772l62 116h671l-40 -41l-220 684l-75 226h-2l-73 -226l-373 -1151h-132zM598 1591q-151 0 -221.5 92.5t-50.5 228.5h121q-12 -113 31.5 -163.5t119.5 -50.5q75 0 120 49.5t33 164.5h121q14 -90 -14 -163
t-93.5 -115.5t-166.5 -42.5z" />
    <glyph glyph-name="Acircumflex" unicode="&#xc2;" 
d="M20 0l479 1454h203l478 -1454h-132l-146 446l72 -54h-772l62 116h671l-40 -41l-220 684l-75 226h-2l-73 -226l-373 -1151h-132zM308 1591l214 321h156l214 -321h-141l-151 226l-151 -226h-141z" />
    <glyph glyph-name="Adieresis" unicode="&#xc4;" 
d="M20 0l479 1454h203l478 -1454h-132l-146 446l72 -54h-772l62 116h671l-40 -41l-220 684l-75 226h-2l-73 -226l-373 -1151h-132zM398 1590q-46 0 -76 38t-30 85q0 55 30 88.5t76 33.5q42 0 74 -33.5t32 -88.5q0 -47 -32 -85t-74 -38zM801 1590q-45 0 -75.5 37.5
t-30.5 85.5q0 56 30.5 89t75.5 33q42 0 74.5 -33.5t32.5 -88.5q0 -48 -32.5 -85.5t-74.5 -37.5z" />
    <glyph glyph-name="Agrave" unicode="&#xc0;" 
d="M20 0l479 1454h203l478 -1454h-132l-146 446l72 -54h-772l62 116h671l-40 -41l-220 684l-75 226h-2l-73 -226l-373 -1151h-132zM524 1591l-238 319h173l211 -319h-146z" />
    <glyph glyph-name="Amacron" unicode="&#x100;" 
d="M20 0l479 1454h203l478 -1454h-132l-146 446l72 -54h-772l62 116h671l-40 -41l-220 684l-75 226h-2l-73 -226l-373 -1151h-132zM301 1613v112h598l-3 -112h-595z" />
    <glyph glyph-name="Aogonek" unicode="&#x104;" 
d="M20 0l479 1454h203l478 -1454h-132l-146 446l72 -54h-772l62 116h671l-40 -41l-220 684l-75 226h-2l-73 -226l-373 -1151h-132zM1053 -390q-47 0 -92 20t-74 57.5t-29 90.5q0 67 57.5 132.5t136.5 90.5l123 -1q-97 -52 -139.5 -96t-42.5 -98q0 -40 20.5 -59.5t60.5 -19.5
q41 0 98 22l1 -116q-25 -10 -53.5 -16.5t-66.5 -6.5z" />
    <glyph glyph-name="Aring" unicode="&#xc5;" 
d="M20 0l479 1454h203l478 -1454h-132l-146 446l72 -54h-772l62 116h671l-40 -41l-220 684l-75 226h-2l-73 -226l-373 -1151h-132zM600 1434q-109 0 -172.5 62t-63.5 167q0 104 63.5 165t172.5 61q108 0 171 -60.5t63 -165.5t-63.5 -167t-170.5 -62zM600 1527
q59 0 93.5 36.5t34.5 98.5t-34.5 98t-93.5 36t-94 -36t-35 -98t35 -98.5t94 -36.5z" />
    <glyph glyph-name="Aringacute" unicode="&#x1fa;" 
d="M20 0l479 1454h203l478 -1454h-132l-146 446l72 -54h-772l62 116h671l-40 -41l-220 684l-75 226h-2l-73 -226l-373 -1151h-132zM600 1384q-109 0 -172.5 62t-63.5 167q0 104 63.5 165t172.5 61q108 0 171 -60.5t63 -165.5t-63.5 -167t-170.5 -62zM600 1477
q59 0 93.5 36.5t34.5 98.5t-34.5 98t-93.5 36t-94 -36t-35 -98t35 -98.5t94 -36.5zM652 1744l118 169h150l-176 -219z" />
    <glyph glyph-name="Atilde" unicode="&#xc3;" 
d="M20 0l479 1454h203l478 -1454h-132l-146 446l72 -54h-772l62 116h671l-40 -41l-220 684l-75 226h-2l-73 -226l-373 -1151h-132zM750 1580q-70 0 -110 31t-66.5 72t-52.5 72t-67 31q-52 0 -73.5 -46.5t-9.5 -159.5h-108q-24 155 31.5 227t155.5 72q70 0 110 -31t66.5 -72
t52.5 -72t67 -31q52 0 73 46.5t9 159.5h109q24 -155 -31.5 -227t-155.5 -72z" />
    <glyph glyph-name="AE" unicode="&#xc6;" 
d="M-120 0l596 1454h95l3 -27v-61h-11l-84 -225l-465 -1141h-134zM571 0v1454h609v-118h-540l48 51v-598l-48 29h502v-116h-494l40 27v-671l-48 61h554v-119h-623zM95 392l49 118h468v-118h-517z" />
    <glyph glyph-name="AEacute" unicode="&#x1fc;" 
d="M-120 0l596 1454h95l3 -27v-61h-11l-84 -225l-465 -1141h-134zM571 0v1454h609v-118h-540l48 51v-598l-48 29h502v-116h-494l40 27v-671l-48 61h554v-119h-623zM95 392l49 118h468v-118h-517zM719 1591h-146l211 319h173z" />
    <glyph glyph-name="B" unicode="B" 
d="M154 0v1454h448q166 0 268.5 -48t150 -130t47.5 -185q0 -129 -71.5 -212t-188.5 -106q81 -1 155 -37.5t121.5 -109t47.5 -181.5q0 -163 -67.5 -261t-183.5 -141t-263 -43h-464zM279 111h343q195 0 287.5 81.5t92.5 238.5q0 106 -46 165t-124.5 83.5t-178.5 24.5h-374
v-593zM279 815h356q72 0 141.5 25t115.5 84t46 160q1 114 -73.5 186.5t-239.5 72.5h-346v-528z" />
    <glyph glyph-name="C" unicode="C" 
d="M618 -26q-174 0 -291.5 93.5t-177 267t-59.5 414.5q0 214 61.5 379t177 259t277.5 94q154 0 256.5 -71.5t156 -194t58.5 -276.5h-140q-4 111 -36 208t-102.5 157.5t-191.5 60.5q-124 0 -210 -77t-131.5 -214.5t-45.5 -320.5q0 -325 103 -494t293 -169q98 0 166 53.5
t106.5 129t46.5 140.5h131q-7 -76 -40.5 -153.5t-91 -142t-137 -104t-179.5 -39.5z" />
    <glyph glyph-name="Cacute" unicode="&#x106;" 
d="M618 -26q-174 0 -291.5 93.5t-177 267t-59.5 414.5q0 214 61.5 379t177 259t277.5 94q154 0 256.5 -71.5t156 -194t58.5 -276.5h-140q-4 111 -36 208t-102.5 157.5t-191.5 60.5q-124 0 -210 -77t-131.5 -214.5t-45.5 -320.5q0 -325 103 -494t293 -169q98 0 166 53.5
t106.5 129t46.5 140.5h131q-7 -76 -40.5 -153.5t-91 -142t-137 -104t-179.5 -39.5zM712 1591h-146l211 319h173z" />
    <glyph glyph-name="Ccaron" unicode="&#x10c;" 
d="M618 -26q-174 0 -291.5 93.5t-177 267t-59.5 414.5q0 214 61.5 379t177 259t277.5 94q154 0 256.5 -71.5t156 -194t58.5 -276.5h-140q-4 111 -36 208t-102.5 157.5t-191.5 60.5q-124 0 -210 -77t-131.5 -214.5t-45.5 -320.5q0 -325 103 -494t293 -169q98 0 166 53.5
t106.5 129t46.5 140.5h131q-7 -76 -40.5 -153.5t-91 -142t-137 -104t-179.5 -39.5zM552 1591l-214 321h141l151 -226l151 226h141l-214 -321h-156z" />
    <glyph glyph-name="Ccedilla" unicode="&#xc7;" 
d="M618 -26q-174 0 -291.5 93.5t-177 267t-59.5 414.5q0 214 61.5 379t177 259t277.5 94q154 0 256.5 -71.5t156 -194t58.5 -276.5h-140q-4 111 -36 208t-102.5 157.5t-191.5 60.5q-124 0 -210 -77t-131.5 -214.5t-45.5 -320.5q0 -325 103 -494t293 -169q98 0 166 53.5
t106.5 129t46.5 140.5h131q-7 -76 -40.5 -153.5t-91 -142t-137 -104t-179.5 -39.5zM605 -406q-38 0 -73.5 8t-61.5 19l1 113q27 -14 56.5 -21.5t52.5 -7.5q45 0 66.5 26.5t21.5 66.5q0 59 -39.5 113.5t-103.5 88.5h116q80 -34 123.5 -90.5t43.5 -127.5q0 -78 -52 -133
t-151 -55z" />
    <glyph glyph-name="Cdotaccent" unicode="&#x10a;" 
d="M618 -26q-174 0 -291.5 93.5t-177 267t-59.5 414.5q0 214 61.5 379t177 259t277.5 94q154 0 256.5 -71.5t156 -194t58.5 -276.5h-140q-4 111 -36 208t-102.5 157.5t-191.5 60.5q-124 0 -210 -77t-131.5 -214.5t-45.5 -320.5q0 -325 103 -494t293 -169q98 0 166 53.5
t106.5 129t46.5 140.5h131q-7 -76 -40.5 -153.5t-91 -142t-137 -104t-179.5 -39.5zM625 1590q-48 0 -79.5 35t-31.5 88t32 87.5t79 34.5q44 0 77 -34.5t33 -87.5t-33 -88t-77 -35z" />
    <glyph glyph-name="D" unicode="D" 
d="M276 0l-44 118h267q164 0 270 78t158 217t52 321q0 191 -52 325.5t-158.5 205.5t-270.5 71h-274l52 118h188q301 0 472.5 -173.5t171.5 -544.5q0 -241 -77.5 -405t-221.5 -247.5t-344 -83.5h-189zM151 0v1454h125v-1454h-125z" />
    <glyph glyph-name="Eth" unicode="&#xd0;" 
d="M276 0l-44 118h267q164 0 270 78t158 217t52 321q0 191 -52 325.5t-158.5 205.5t-270.5 71h-274l52 118h188q301 0 472.5 -173.5t171.5 -544.5q0 -241 -77.5 -405t-221.5 -247.5t-344 -83.5h-189zM151 0v1454h125v-1454h-125zM4 672v114h574l-3 -114h-571z" />
    <glyph glyph-name="Dcaron" unicode="&#x10e;" 
d="M276 0l-44 118h267q164 0 270 78t158 217t52 321q0 191 -52 325.5t-158.5 205.5t-270.5 71h-274l52 118h188q301 0 472.5 -173.5t171.5 -544.5q0 -241 -77.5 -405t-221.5 -247.5t-344 -83.5h-189zM151 0v1454h125v-1454h-125zM518 1591l-214 321h141l151 -226l151 226
h141l-214 -321h-156z" />
    <glyph glyph-name="Dcroat" unicode="&#x110;" 
d="M276 0l-44 118h267q164 0 270 78t158 217t52 321q0 191 -52 325.5t-158.5 205.5t-270.5 71h-274l52 118h188q301 0 472.5 -173.5t171.5 -544.5q0 -241 -77.5 -405t-221.5 -247.5t-344 -83.5h-189zM151 0v1454h125v-1454h-125zM4 672v114h574l-3 -114h-571z" />
    <glyph glyph-name="E" unicode="E" 
d="M220 0v1454h797v-114h-721l49 51v-602l-49 29h659v-113h-659l49 27v-680l-49 61h774v-113h-850z" />
    <glyph glyph-name="Eacute" unicode="&#xc9;" 
d="M220 0v1454h797v-114h-721l49 51v-602l-49 29h659v-113h-659l49 27v-680l-49 61h774v-113h-850zM710 1591h-146l211 319h173z" />
    <glyph glyph-name="Ebreve" unicode="&#x114;" 
d="M220 0v1454h797v-114h-721l49 51v-602l-49 29h659v-113h-659l49 27v-680l-49 61h774v-113h-850zM626 1591q-151 0 -221.5 92.5t-50.5 228.5h121q-12 -113 31.5 -163.5t119.5 -50.5q75 0 120 49.5t33 164.5h121q14 -90 -14 -163t-93.5 -115.5t-166.5 -42.5z" />
    <glyph glyph-name="Ecaron" unicode="&#x11a;" 
d="M220 0v1454h797v-114h-721l49 51v-602l-49 29h659v-113h-659l49 27v-680l-49 61h774v-113h-850zM550 1591l-214 321h141l151 -226l151 226h141l-214 -321h-156z" />
    <glyph glyph-name="Ecircumflex" unicode="&#xca;" 
d="M220 0v1454h797v-114h-721l49 51v-602l-49 29h659v-113h-659l49 27v-680l-49 61h774v-113h-850zM336 1591l214 321h156l214 -321h-141l-151 226l-151 -226h-141z" />
    <glyph glyph-name="Edieresis" unicode="&#xcb;" 
d="M220 0v1454h797v-114h-721l49 51v-602l-49 29h659v-113h-659l49 27v-680l-49 61h774v-113h-850zM426 1590q-46 0 -76 38t-30 85q0 55 30 88.5t76 33.5q42 0 74 -33.5t32 -88.5q0 -47 -32 -85t-74 -38zM829 1590q-45 0 -75.5 37.5t-30.5 85.5q0 56 30.5 89t75.5 33
q42 0 74.5 -33.5t32.5 -88.5q0 -48 -32.5 -85.5t-74.5 -37.5z" />
    <glyph glyph-name="Edotaccent" unicode="&#x116;" 
d="M220 0v1454h797v-114h-721l49 51v-602l-49 29h659v-113h-659l49 27v-680l-49 61h774v-113h-850zM623 1590q-48 0 -79.5 35t-31.5 88t32 87.5t79 34.5q44 0 77 -34.5t33 -87.5t-33 -88t-77 -35z" />
    <glyph glyph-name="Egrave" unicode="&#xc8;" 
d="M220 0v1454h797v-114h-721l49 51v-602l-49 29h659v-113h-659l49 27v-680l-49 61h774v-113h-850zM552 1591l-238 319h173l211 -319h-146z" />
    <glyph glyph-name="Emacron" unicode="&#x112;" 
d="M220 0v1454h797v-114h-721l49 51v-602l-49 29h659v-113h-659l49 27v-680l-49 61h774v-113h-850zM329 1613v112h598l-3 -112h-595z" />
    <glyph glyph-name="Eogonek" unicode="&#x118;" 
d="M220 0v1454h797v-114h-721l49 51v-602l-49 29h659v-113h-659l49 27v-680l-49 61h774v-113h-850zM948 -390q-47 0 -92 20t-74 57.5t-29 90.5q0 67 57.5 132.5t136.5 90.5l123 -1q-97 -52 -139.5 -96t-42.5 -98q0 -40 20.5 -59.5t60.5 -19.5q41 0 98 22l1 -116
q-25 -10 -53.5 -16.5t-66.5 -6.5z" />
    <glyph glyph-name="F" unicode="F" 
d="M181 0v1454h876v-114h-790l40 54v-619l-29 23h694v-113h-696l31 22v-707h-126z" />
    <glyph glyph-name="G" unicode="G" 
d="M606 -30q-160 0 -275 90.5t-176 261t-61 409.5q0 244 63 411t188.5 253t312.5 86q111 0 195.5 -45.5t139.5 -141.5t74 -247h-125q-9 65 -38.5 138t-91.5 124.5t-167 51.5q-139 0 -233 -70.5t-142.5 -210.5t-48.5 -349q0 -205 50 -348.5t137 -218t197 -74.5
q140 0 216.5 35t128.5 75l2 411h-300v123h425l-2 -599q-64 -45 -127 -82.5t-144 -60t-198 -22.5z" />
    <glyph glyph-name="uni01F4" unicode="&#x1f4;" 
d="M606 -30q-160 0 -275 90.5t-176 261t-61 409.5q0 244 63 411t188.5 253t312.5 86q111 0 195.5 -45.5t139.5 -141.5t74 -247h-125q-9 65 -38.5 138t-91.5 124.5t-167 51.5q-139 0 -233 -70.5t-142.5 -210.5t-48.5 -349q0 -205 50 -348.5t137 -218t197 -74.5
q140 0 216.5 35t128.5 75l2 411h-300v123h425l-2 -599q-64 -45 -127 -82.5t-144 -60t-198 -22.5zM709 1591h-146l211 319h173z" />
    <glyph glyph-name="Gbreve" unicode="&#x11e;" 
d="M606 -30q-160 0 -275 90.5t-176 261t-61 409.5q0 244 63 411t188.5 253t312.5 86q111 0 195.5 -45.5t139.5 -141.5t74 -247h-125q-9 65 -38.5 138t-91.5 124.5t-167 51.5q-139 0 -233 -70.5t-142.5 -210.5t-48.5 -349q0 -205 50 -348.5t137 -218t197 -74.5
q140 0 216.5 35t128.5 75l2 411h-300v123h425l-2 -599q-64 -45 -127 -82.5t-144 -60t-198 -22.5zM625 1591q-151 0 -221.5 92.5t-50.5 228.5h121q-12 -113 31.5 -163.5t119.5 -50.5q75 0 120 49.5t33 164.5h121q14 -90 -14 -163t-93.5 -115.5t-166.5 -42.5z" />
    <glyph glyph-name="Gcaron" unicode="&#x1e6;" 
d="M606 -30q-160 0 -275 90.5t-176 261t-61 409.5q0 244 63 411t188.5 253t312.5 86q111 0 195.5 -45.5t139.5 -141.5t74 -247h-125q-9 65 -38.5 138t-91.5 124.5t-167 51.5q-139 0 -233 -70.5t-142.5 -210.5t-48.5 -349q0 -205 50 -348.5t137 -218t197 -74.5
q140 0 216.5 35t128.5 75l2 411h-300v123h425l-2 -599q-64 -45 -127 -82.5t-144 -60t-198 -22.5zM549 1591l-214 321h141l151 -226l151 226h141l-214 -321h-156z" />
    <glyph glyph-name="uni0122" unicode="&#x122;" 
d="M606 -30q-160 0 -275 90.5t-176 261t-61 409.5q0 244 63 411t188.5 253t312.5 86q111 0 195.5 -45.5t139.5 -141.5t74 -247h-125q-9 65 -38.5 138t-91.5 124.5t-167 51.5q-139 0 -233 -70.5t-142.5 -210.5t-48.5 -349q0 -205 50 -348.5t137 -218t197 -74.5
q140 0 216.5 35t128.5 75l2 411h-300v123h425l-2 -599q-64 -45 -127 -82.5t-144 -60t-198 -22.5zM539 -512q11 44 18.5 106t12 123.5t4.5 103.5v45h135v-49q0 -52 -8 -115.5t-19.5 -120.5t-23.5 -93h-119z" />
    <glyph glyph-name="Gdotaccent" unicode="&#x120;" 
d="M606 -30q-160 0 -275 90.5t-176 261t-61 409.5q0 244 63 411t188.5 253t312.5 86q111 0 195.5 -45.5t139.5 -141.5t74 -247h-125q-9 65 -38.5 138t-91.5 124.5t-167 51.5q-139 0 -233 -70.5t-142.5 -210.5t-48.5 -349q0 -205 50 -348.5t137 -218t197 -74.5
q140 0 216.5 35t128.5 75l2 411h-300v123h425l-2 -599q-64 -45 -127 -82.5t-144 -60t-198 -22.5zM622 1590q-48 0 -79.5 35t-31.5 88t32 87.5t79 34.5q44 0 77 -34.5t33 -87.5t-33 -88t-77 -35z" />
    <glyph glyph-name="H" unicode="H" 
d="M934 0v1454h125v-1454h-125zM141 0v1454h125v-1454h-125zM238 686v118h726v-118h-726z" />
    <glyph glyph-name="Hbar" unicode="&#x126;" 
d="M935 0v1454h124v-1454h-124zM141 0v1454h124v-1454h-124zM216 581v115h770l-3 -115h-767zM-6 979v113h1212l-3 -113h-1209z" />
    <glyph glyph-name="I" unicode="I" 
d="M162 0v116h374v1123q0 41 15 66t36 33h-425v116h876v-116h-375v-1123q0 -40 -15 -65.5t-36 -33.5h426v-116h-876z" />
    <glyph glyph-name="IJ" unicode="&#x132;" 
d="M55 562v114h184v565q0 41 15 66t36 33h-235v114h496v-114h-185v-565q0 -40 -15 -65.5t-36 -33.5h236v-114h-496zM647 -30q-197 0 -308 116t-116 309h127q6 -131 83.5 -218.5t225.5 -87.5q83 0 152 35t110 121.5t41 238.5v970h127v-993q0 -261 -119.5 -376t-322.5 -115z
" />
    <glyph glyph-name="Iacute" unicode="&#xcd;" 
d="M162 0v116h374v1123q0 41 15 66t36 33h-425v116h876v-116h-375v-1123q0 -40 -15 -65.5t-36 -33.5h426v-116h-876zM682 1591h-146l211 319h173z" />
    <glyph glyph-name="Ibreve" unicode="&#x12c;" 
d="M162 0v116h374v1123q0 41 15 66t36 33h-425v116h876v-116h-375v-1123q0 -40 -15 -65.5t-36 -33.5h426v-116h-876zM598 1591q-151 0 -221.5 92.5t-50.5 228.5h121q-12 -113 31.5 -163.5t119.5 -50.5q75 0 120 49.5t33 164.5h121q14 -90 -14 -163t-93.5 -115.5
t-166.5 -42.5z" />
    <glyph glyph-name="Icircumflex" unicode="&#xce;" 
d="M162 0v116h374v1123q0 41 15 66t36 33h-425v116h876v-116h-375v-1123q0 -40 -15 -65.5t-36 -33.5h426v-116h-876zM308 1591l214 321h156l214 -321h-141l-151 226l-151 -226h-141z" />
    <glyph glyph-name="Idieresis" unicode="&#xcf;" 
d="M162 0v116h374v1123q0 41 15 66t36 33h-425v116h876v-116h-375v-1123q0 -40 -15 -65.5t-36 -33.5h426v-116h-876zM398 1590q-46 0 -76 38t-30 85q0 55 30 88.5t76 33.5q42 0 74 -33.5t32 -88.5q0 -47 -32 -85t-74 -38zM801 1590q-45 0 -75.5 37.5t-30.5 85.5
q0 56 30.5 89t75.5 33q42 0 74.5 -33.5t32.5 -88.5q0 -48 -32.5 -85.5t-74.5 -37.5z" />
    <glyph glyph-name="Idotaccent" unicode="&#x130;" 
d="M162 0v116h374v1123q0 41 15 66t36 33h-425v116h876v-116h-375v-1123q0 -40 -15 -65.5t-36 -33.5h426v-116h-876zM595 1590q-48 0 -79.5 35t-31.5 88t32 87.5t79 34.5q44 0 77 -34.5t33 -87.5t-33 -88t-77 -35z" />
    <glyph glyph-name="uni1ECA" unicode="&#x1eca;" 
d="M162 0v116h374v1123q0 41 15 66t36 33h-425v116h876v-116h-375v-1123q0 -40 -15 -65.5t-36 -33.5h426v-116h-876zM600 -417q-49 0 -82.5 34.5t-33.5 88.5t33.5 88t82.5 34t82.5 -34t33.5 -88t-33.5 -88.5t-82.5 -34.5z" />
    <glyph glyph-name="Igrave" unicode="&#xcc;" 
d="M162 0v116h374v1123q0 41 15 66t36 33h-425v116h876v-116h-375v-1123q0 -40 -15 -65.5t-36 -33.5h426v-116h-876zM524 1591l-238 319h173l211 -319h-146z" />
    <glyph glyph-name="Imacron" unicode="&#x12a;" 
d="M162 0v116h374v1123q0 41 15 66t36 33h-425v116h876v-116h-375v-1123q0 -40 -15 -65.5t-36 -33.5h426v-116h-876zM301 1613v112h598l-3 -112h-595z" />
    <glyph glyph-name="Iogonek" unicode="&#x12e;" 
d="M162 0v116h374v1123q0 41 15 66t36 33h-425v116h876v-116h-375v-1123q0 -40 -15 -65.5t-36 -33.5h426v-116h-876zM916 -390q-47 0 -92 20t-74 57.5t-29 90.5q0 67 57.5 132.5t136.5 90.5l123 -1q-97 -52 -139.5 -96t-42.5 -98q0 -40 20.5 -59.5t60.5 -19.5q41 0 98 22
l1 -116q-25 -10 -53.5 -16.5t-66.5 -6.5z" />
    <glyph glyph-name="Itilde" unicode="&#x128;" 
d="M162 0v116h374v1123q0 41 15 66t36 33h-425v116h876v-116h-375v-1123q0 -40 -15 -65.5t-36 -33.5h426v-116h-876zM750 1580q-70 0 -110 31t-66.5 72t-52.5 72t-67 31q-52 0 -73.5 -46.5t-9.5 -159.5h-108q-24 155 31.5 227t155.5 72q70 0 110 -31t66.5 -72t52.5 -72
t67 -31q52 0 73 46.5t9 159.5h109q24 -155 -31.5 -227t-155.5 -72z" />
    <glyph glyph-name="J" unicode="J" 
d="M546 -30q-99 0 -189.5 32t-157.5 99t-98.5 170t-11.5 244h128q-20 -118 3.5 -200t75.5 -132t118.5 -73t130.5 -23q114 0 193 44.5t119.5 140t40.5 249.5v933h127v-953q0 -194 -65.5 -310.5t-174 -168.5t-239.5 -52z" />
    <glyph glyph-name="uni004A0301" 
d="M546 -30q-99 0 -189.5 32t-157.5 99t-98.5 170t-11.5 244h128q-20 -118 3.5 -200t75.5 -132t118.5 -73t130.5 -23q114 0 193 44.5t119.5 140t40.5 249.5v933h127v-953q0 -194 -65.5 -310.5t-174 -168.5t-239.5 -52zM1045 1591h-146l211 319h173z" />
    <glyph glyph-name="K" unicode="K" 
d="M294 423l-37 114l283 354l434 563h154l-518 -664l-49 -48zM172 0v1454h125v-1454h-125zM1014 0l-501 780l87 85l558 -865h-144z" />
    <glyph glyph-name="uni0136" unicode="&#x136;" 
d="M294 423l-37 114l283 354l434 563h154l-518 -664l-49 -48zM172 0v1454h125v-1454h-125zM1014 0l-501 780l87 85l558 -865h-144zM543 -512q11 44 18.5 106t12 123.5t4.5 103.5v45h135v-49q0 -52 -8 -115.5t-19.5 -120.5t-23.5 -93h-119z" />
    <glyph glyph-name="L" unicode="L" 
d="M171 0v1454h126v-1396l-85 59h865v-117h-906z" />
    <glyph glyph-name="Lacute" unicode="&#x139;" 
d="M171 0v1454h126v-1396l-85 59h865v-117h-906zM300 1591h-146l211 319h173z" />
    <glyph glyph-name="Lcaron" unicode="&#x13d;" 
d="M171 0v1454h126v-1396l-85 59h865v-117h-906zM592 1185l23 380h127l-40 -380h-110z" />
    <glyph glyph-name="uni013B" unicode="&#x13b;" 
d="M171 0v1454h126v-1396l-85 59h865v-117h-906zM511 -512q11 44 18.5 106t12 123.5t4.5 103.5v45h135v-49q0 -52 -8 -115.5t-19.5 -120.5t-23.5 -93h-119z" />
    <glyph glyph-name="Ldot" unicode="&#x13f;" 
d="M215 0v1454h126v-1396l-85 59h865v-117h-906zM883 612q-59 0 -95 38.5t-36 106.5t36 106t95 38q58 0 93.5 -38t35.5 -106t-35.5 -106.5t-93.5 -38.5z" />
    <glyph glyph-name="Lslash" unicode="&#x141;" 
d="M171 0v1454h126v-1396l-85 59h865v-117h-906zM9 677l-2 138l194 97l95 -13q-1 24 8.5 47t52.5 45l210 110l-4 -141l-285 -148l-76 -30z" />
    <glyph glyph-name="M" unicode="M" 
d="M100 0l36 1454h196l194 -612l75 -264h3l75 264l189 612h196l36 -1454h-121l-20 849l-2 515h-5l-104 -348l-206 -600h-75l-215 600l-103 348h-6l-2 -515l-20 -849h-121z" />
    <glyph glyph-name="N" unicode="N" 
d="M141 0v1454h193l427 -952l190 -423h5l-18 423v952h121v-1454h-193l-426 950l-188 425h-8l18 -425v-950h-121z" />
    <glyph glyph-name="Nacute" unicode="&#x143;" 
d="M141 0v1454h193l427 -952l190 -423h5l-18 423v952h121v-1454h-193l-426 950l-188 425h-8l18 -425v-950h-121zM683 1591h-146l211 319h173z" />
    <glyph glyph-name="Ncaron" unicode="&#x147;" 
d="M141 0v1454h193l427 -952l190 -423h5l-18 423v952h121v-1454h-193l-426 950l-188 425h-8l18 -425v-950h-121zM523 1591l-214 321h141l151 -226l151 226h141l-214 -321h-156z" />
    <glyph glyph-name="uni0145" unicode="&#x145;" 
d="M141 0v1454h193l427 -952l190 -423h5l-18 423v952h121v-1454h-193l-426 950l-188 425h-8l18 -425v-950h-121zM471 -512q11 44 18.5 106t12 123.5t4.5 103.5v45h135v-49q0 -52 -8 -115.5t-19.5 -120.5t-23.5 -93h-119z" />
    <glyph glyph-name="Eng" unicode="&#x14a;" 
d="M683 -454q-17 0 -33 1t-33 3v123q17 -4 36.5 -6t38.5 -2q64 0 111.5 33.5t73.5 85t25 108.5t-34 104l-428 953l-187 426h-9l19 -426l-1 -949h-121v1454h194l426 -952l195 -444h4l-22 444v952h122l-1 -1454q0 -216 -100 -335t-276 -119z" />
    <glyph glyph-name="Ntilde" unicode="&#xd1;" 
d="M141 0v1454h193l427 -952l190 -423h5l-18 423v952h121v-1454h-193l-426 950l-188 425h-8l18 -425v-950h-121zM751 1580q-70 0 -110 31t-66.5 72t-52.5 72t-67 31q-52 0 -73.5 -46.5t-9.5 -159.5h-108q-24 155 31.5 227t155.5 72q70 0 110 -31t66.5 -72t52.5 -72t67 -31
q52 0 73 46.5t9 159.5h109q24 -155 -31.5 -227t-155.5 -72z" />
    <glyph glyph-name="O" unicode="O" 
d="M600 -30q-157 0 -271 91t-175.5 262t-61.5 412q0 363 136.5 555.5t371.5 192.5q234 0 371 -192.5t137 -555.5q0 -241 -62 -412t-176 -262t-270 -91zM600 90q173 0 275.5 169t102.5 476q0 305 -102.5 466.5t-275.5 161.5q-174 0 -276 -161.5t-102 -466.5
q0 -307 101.5 -476t276.5 -169z" />
    <glyph glyph-name="Oacute" unicode="&#xd3;" 
d="M600 -30q-157 0 -271 91t-175.5 262t-61.5 412q0 363 136.5 555.5t371.5 192.5q234 0 371 -192.5t137 -555.5q0 -241 -62 -412t-176 -262t-270 -91zM600 90q173 0 275.5 169t102.5 476q0 305 -102.5 466.5t-275.5 161.5q-174 0 -276 -161.5t-102 -466.5
q0 -307 101.5 -476t276.5 -169zM683 1591h-146l211 319h173z" />
    <glyph glyph-name="Obreve" unicode="&#x14e;" 
d="M600 -30q-157 0 -271 91t-175.5 262t-61.5 412q0 363 136.5 555.5t371.5 192.5q234 0 371 -192.5t137 -555.5q0 -241 -62 -412t-176 -262t-270 -91zM600 90q173 0 275.5 169t102.5 476q0 305 -102.5 466.5t-275.5 161.5q-174 0 -276 -161.5t-102 -466.5
q0 -307 101.5 -476t276.5 -169zM599 1591q-151 0 -221.5 92.5t-50.5 228.5h121q-12 -113 31.5 -163.5t119.5 -50.5q75 0 120 49.5t33 164.5h121q14 -90 -14 -163t-93.5 -115.5t-166.5 -42.5z" />
    <glyph glyph-name="Ocircumflex" unicode="&#xd4;" 
d="M600 -30q-157 0 -271 91t-175.5 262t-61.5 412q0 363 136.5 555.5t371.5 192.5q234 0 371 -192.5t137 -555.5q0 -241 -62 -412t-176 -262t-270 -91zM600 90q173 0 275.5 169t102.5 476q0 305 -102.5 466.5t-275.5 161.5q-174 0 -276 -161.5t-102 -466.5
q0 -307 101.5 -476t276.5 -169zM309 1591l214 321h156l214 -321h-141l-151 226l-151 -226h-141z" />
    <glyph glyph-name="Odieresis" unicode="&#xd6;" 
d="M600 -30q-157 0 -271 91t-175.5 262t-61.5 412q0 363 136.5 555.5t371.5 192.5q234 0 371 -192.5t137 -555.5q0 -241 -62 -412t-176 -262t-270 -91zM600 90q173 0 275.5 169t102.5 476q0 305 -102.5 466.5t-275.5 161.5q-174 0 -276 -161.5t-102 -466.5
q0 -307 101.5 -476t276.5 -169zM399 1590q-46 0 -76 38t-30 85q0 55 30 88.5t76 33.5q42 0 74 -33.5t32 -88.5q0 -47 -32 -85t-74 -38zM802 1590q-45 0 -75.5 37.5t-30.5 85.5q0 56 30.5 89t75.5 33q42 0 74.5 -33.5t32.5 -88.5q0 -48 -32.5 -85.5t-74.5 -37.5z" />
    <glyph glyph-name="uni1ECC" unicode="&#x1ecc;" 
d="M600 -30q-157 0 -271 91t-175.5 262t-61.5 412q0 363 136.5 555.5t371.5 192.5q234 0 371 -192.5t137 -555.5q0 -241 -62 -412t-176 -262t-270 -91zM600 90q173 0 275.5 169t102.5 476q0 305 -102.5 466.5t-275.5 161.5q-174 0 -276 -161.5t-102 -466.5
q0 -307 101.5 -476t276.5 -169zM601 -417q-49 0 -82.5 34.5t-33.5 88.5t33.5 88t82.5 34t82.5 -34t33.5 -88t-33.5 -88.5t-82.5 -34.5z" />
    <glyph glyph-name="Ograve" unicode="&#xd2;" 
d="M600 -30q-157 0 -271 91t-175.5 262t-61.5 412q0 363 136.5 555.5t371.5 192.5q234 0 371 -192.5t137 -555.5q0 -241 -62 -412t-176 -262t-270 -91zM600 90q173 0 275.5 169t102.5 476q0 305 -102.5 466.5t-275.5 161.5q-174 0 -276 -161.5t-102 -466.5
q0 -307 101.5 -476t276.5 -169zM525 1591l-238 319h173l211 -319h-146z" />
    <glyph glyph-name="Ohungarumlaut" unicode="&#x150;" 
d="M600 -30q-157 0 -271 91t-175.5 262t-61.5 412q0 363 136.5 555.5t371.5 192.5q234 0 371 -192.5t137 -555.5q0 -241 -62 -412t-176 -262t-270 -91zM600 90q173 0 275.5 169t102.5 476q0 305 -102.5 466.5t-275.5 161.5q-174 0 -276 -161.5t-102 -466.5
q0 -307 101.5 -476t276.5 -169zM681 1591l175 321h157l-198 -321h-134zM365 1591l176 321h156l-197 -321h-135z" />
    <glyph glyph-name="Omacron" unicode="&#x14c;" 
d="M600 -30q-157 0 -271 91t-175.5 262t-61.5 412q0 363 136.5 555.5t371.5 192.5q234 0 371 -192.5t137 -555.5q0 -241 -62 -412t-176 -262t-270 -91zM600 90q173 0 275.5 169t102.5 476q0 305 -102.5 466.5t-275.5 161.5q-174 0 -276 -161.5t-102 -466.5
q0 -307 101.5 -476t276.5 -169zM302 1613v112h598l-3 -112h-595z" />
    <glyph glyph-name="Oslash" unicode="&#xd8;" 
d="M600 -30q-157 0 -271 91t-175.5 262t-61.5 412q0 363 136.5 555.5t371.5 192.5q234 0 371 -192.5t137 -555.5q0 -241 -62 -412t-176 -262t-270 -91zM600 90q173 0 275.5 169t102.5 476q0 305 -102.5 466.5t-275.5 161.5q-174 0 -276 -161.5t-102 -466.5
q0 -307 101.5 -476t276.5 -169zM119 -77l119 236l42 42l549 1107l8 44l86 172h166l-105 -209l-44 -47l-559 -1128l-6 -40l-90 -177h-166z" />
    <glyph glyph-name="Oslashacute" unicode="&#x1fe;" 
d="M600 -30q-157 0 -271 91t-175.5 262t-61.5 412q0 363 136.5 555.5t371.5 192.5q234 0 371 -192.5t137 -555.5q0 -241 -62 -412t-176 -262t-270 -91zM600 90q173 0 275.5 169t102.5 476q0 305 -102.5 466.5t-275.5 161.5q-174 0 -276 -161.5t-102 -466.5
q0 -307 101.5 -476t276.5 -169zM119 -77l119 236l42 42l549 1107l8 44l86 172h166l-105 -209l-44 -47l-559 -1128l-6 -40l-90 -177h-166zM683 1591h-146l211 319h173z" />
    <glyph glyph-name="Otilde" unicode="&#xd5;" 
d="M600 -30q-157 0 -271 91t-175.5 262t-61.5 412q0 363 136.5 555.5t371.5 192.5q234 0 371 -192.5t137 -555.5q0 -241 -62 -412t-176 -262t-270 -91zM600 90q173 0 275.5 169t102.5 476q0 305 -102.5 466.5t-275.5 161.5q-174 0 -276 -161.5t-102 -466.5
q0 -307 101.5 -476t276.5 -169zM751 1580q-70 0 -110 31t-66.5 72t-52.5 72t-67 31q-52 0 -73.5 -46.5t-9.5 -159.5h-108q-24 155 31.5 227t155.5 72q70 0 110 -31t66.5 -72t52.5 -72t67 -31q52 0 73 46.5t9 159.5h109q24 -155 -31.5 -227t-155.5 -72z" />
    <glyph glyph-name="OE" unicode="&#x152;" 
d="M393 -20q-113 0 -193.5 98t-123 268.5t-42.5 387.5q0 222 41 391t121.5 263.5t196.5 94.5q67 0 122.5 -39t94 -108t56.5 -160.5t9 -195.5l-19 1l2 473h515v-118h-417v-518h388v-116h-387l-1 -583h426v-119h-524l-2 449l13 9q12 -126 -23 -235t-102 -176t-151 -67zM399 99
q79 0 136.5 77.5t89.5 219.5t32 333q0 192 -32 334.5t-90 221.5t-136 79q-88 0 -146 -79t-86.5 -221.5t-28.5 -333.5q0 -190 28.5 -332t86.5 -220.5t146 -78.5z" />
    <glyph glyph-name="P" unicode="P" 
d="M375 574q-40 0 -60 16.5t-20 36.5l-70 29l71 35h335q137 0 215 44.5t110.5 120.5t32.5 171q0 90 -32 159.5t-108.5 109.5t-212.5 40h-346l-87 118h91.5h119h118h88.5q270 0 387 -110t117 -296q0 -108 -30.5 -195t-92.5 -149.5t-157 -96t-224 -33.5h-245zM171 0v1454h125
v-1454h-125z" />
    <glyph glyph-name="Thorn" unicode="&#xde;" 
d="M375 286q-39 0 -59.5 16.5t-20.5 36.5l-70 29l71 36h386q97 0 166.5 44t107 120t37.5 171q0 142 -84.5 225.5t-242.5 83.5h-376l-87 118h97.5h131.5h128.5h88.5q226 0 350.5 -106t124.5 -300q0 -108 -34 -195t-96.5 -149.5t-150 -96t-194.5 -33.5h-274zM171 0v1454h125
v-1454h-125z" />
    <glyph glyph-name="Q" unicode="Q" 
d="M600 -30q-157 0 -271 91t-175.5 262t-61.5 412q0 363 136.5 555.5t371.5 192.5q234 0 371 -192.5t137 -555.5q0 -241 -62 -412t-176 -262t-270 -91zM600 90q173 0 275.5 169t102.5 476q0 305 -102.5 466.5t-275.5 161.5q-174 0 -276 -161.5t-102 -466.5
q0 -307 101.5 -476t276.5 -169zM813 -323l-188 369h96q18 0 36.5 -16t37.5 -49l173 -304h-155z" />
    <glyph glyph-name="R" unicode="R" 
d="M988 0l-358 624h-356l-68 15l30 71v32h399q99 0 158.5 49.5t86.5 125t27 151.5q0 72 -24.5 133t-90.5 98t-193 37h-307v52l-87 66h119h144h119q219 0 334.5 -103.5t115.5 -263.5q0 -76 -13.5 -149t-52.5 -135t-113.5 -105.5t-195.5 -60.5l48 14q20 2 35 -6t26.5 -21
t20.5 -29l346 -595h-150zM173 0v1454h125v-1454h-125z" />
    <glyph glyph-name="Racute" unicode="&#x154;" 
d="M988 0l-358 624h-356l-68 15l30 71v32h399q99 0 158.5 49.5t86.5 125t27 151.5q0 72 -24.5 133t-90.5 98t-193 37h-307v52l-87 66h119h144h119q219 0 334.5 -103.5t115.5 -263.5q0 -76 -13.5 -149t-52.5 -135t-113.5 -105.5t-195.5 -60.5l48 14q20 2 35 -6t26.5 -21
t20.5 -29l346 -595h-150zM173 0v1454h125v-1454h-125zM625 1591h-146l211 319h173z" />
    <glyph glyph-name="Rcaron" unicode="&#x158;" 
d="M988 0l-358 624h-356l-68 15l30 71v32h399q99 0 158.5 49.5t86.5 125t27 151.5q0 72 -24.5 133t-90.5 98t-193 37h-307v52l-87 66h119h144h119q219 0 334.5 -103.5t115.5 -263.5q0 -76 -13.5 -149t-52.5 -135t-113.5 -105.5t-195.5 -60.5l48 14q20 2 35 -6t26.5 -21
t20.5 -29l346 -595h-150zM173 0v1454h125v-1454h-125zM465 1591l-214 321h141l151 -226l151 226h141l-214 -321h-156z" />
    <glyph glyph-name="uni0156" unicode="&#x156;" 
d="M988 0l-358 624h-356l-68 15l30 71v32h399q99 0 158.5 49.5t86.5 125t27 151.5q0 72 -24.5 133t-90.5 98t-193 37h-307v52l-87 66h119h144h119q219 0 334.5 -103.5t115.5 -263.5q0 -76 -13.5 -149t-52.5 -135t-113.5 -105.5t-195.5 -60.5l48 14q20 2 35 -6t26.5 -21
t20.5 -29l346 -595h-150zM173 0v1454h125v-1454h-125zM502 -512q11 44 18.5 106t12 123.5t4.5 103.5v45h135v-49q0 -52 -8 -115.5t-19.5 -120.5t-23.5 -93h-119z" />
    <glyph glyph-name="S" unicode="S" 
d="M603 -20q-144 0 -260.5 49.5t-184.5 147t-68 240.5h126q0 -111 53.5 -182.5t142 -105.5t193.5 -34q126 0 205 37t116 97t37 127q0 96 -55.5 154.5t-143.5 96.5t-185 72q-112 40 -208 92.5t-155 131.5t-59 196q0 122 58.5 206.5t159.5 128t231 43.5q190 0 306 -96
t139 -290h-126q-8 66 -37.5 128.5t-96 103t-186.5 40.5q-157 0 -241 -72.5t-84 -185.5q0 -83 38.5 -138t115.5 -97t193 -85q82 -30 163.5 -63.5t148.5 -79.5t107 -114t40 -169q0 -120 -54.5 -204.5t-162 -129.5t-266.5 -45z" />
    <glyph glyph-name="Sacute" unicode="&#x15a;" 
d="M603 -20q-144 0 -260.5 49.5t-184.5 147t-68 240.5h126q0 -111 53.5 -182.5t142 -105.5t193.5 -34q126 0 205 37t116 97t37 127q0 96 -55.5 154.5t-143.5 96.5t-185 72q-112 40 -208 92.5t-155 131.5t-59 196q0 122 58.5 206.5t159.5 128t231 43.5q190 0 306 -96
t139 -290h-126q-8 66 -37.5 128.5t-96 103t-186.5 40.5q-157 0 -241 -72.5t-84 -185.5q0 -83 38.5 -138t115.5 -97t193 -85q82 -30 163.5 -63.5t148.5 -79.5t107 -114t40 -169q0 -120 -54.5 -204.5t-162 -129.5t-266.5 -45zM683 1591h-146l211 319h173z" />
    <glyph glyph-name="Scaron" unicode="&#x160;" 
d="M603 -20q-144 0 -260.5 49.5t-184.5 147t-68 240.5h126q0 -111 53.5 -182.5t142 -105.5t193.5 -34q126 0 205 37t116 97t37 127q0 96 -55.5 154.5t-143.5 96.5t-185 72q-112 40 -208 92.5t-155 131.5t-59 196q0 122 58.5 206.5t159.5 128t231 43.5q190 0 306 -96
t139 -290h-126q-8 66 -37.5 128.5t-96 103t-186.5 40.5q-157 0 -241 -72.5t-84 -185.5q0 -83 38.5 -138t115.5 -97t193 -85q82 -30 163.5 -63.5t148.5 -79.5t107 -114t40 -169q0 -120 -54.5 -204.5t-162 -129.5t-266.5 -45zM523 1591l-214 321h141l151 -226l151 226h141
l-214 -321h-156z" />
    <glyph glyph-name="Scedilla" unicode="&#x15e;" 
d="M603 -20q-144 0 -260.5 49.5t-184.5 147t-68 240.5h126q0 -111 53.5 -182.5t142 -105.5t193.5 -34q126 0 205 37t116 97t37 127q0 96 -55.5 154.5t-143.5 96.5t-185 72q-112 40 -208 92.5t-155 131.5t-59 196q0 122 58.5 206.5t159.5 128t231 43.5q190 0 306 -96
t139 -290h-126q-8 66 -37.5 128.5t-96 103t-186.5 40.5q-157 0 -241 -72.5t-84 -185.5q0 -83 38.5 -138t115.5 -97t193 -85q82 -30 163.5 -63.5t148.5 -79.5t107 -114t40 -169q0 -120 -54.5 -204.5t-162 -129.5t-266.5 -45zM617 -406q-38 0 -73.5 8t-61.5 19l1 113
q27 -14 56.5 -21.5t52.5 -7.5q45 0 66.5 26.5t21.5 66.5q0 59 -39.5 113.5t-103.5 88.5h116q80 -34 123.5 -90.5t43.5 -127.5q0 -78 -52 -133t-151 -55z" />
    <glyph glyph-name="uni0218" unicode="&#x218;" 
d="M603 -20q-144 0 -260.5 49.5t-184.5 147t-68 240.5h126q0 -111 53.5 -182.5t142 -105.5t193.5 -34q126 0 205 37t116 97t37 127q0 96 -55.5 154.5t-143.5 96.5t-185 72q-112 40 -208 92.5t-155 131.5t-59 196q0 122 58.5 206.5t159.5 128t231 43.5q190 0 306 -96
t139 -290h-126q-8 66 -37.5 128.5t-96 103t-186.5 40.5q-157 0 -241 -72.5t-84 -185.5q0 -83 38.5 -138t115.5 -97t193 -85q82 -30 163.5 -63.5t148.5 -79.5t107 -114t40 -169q0 -120 -54.5 -204.5t-162 -129.5t-266.5 -45zM528 -512q11 44 18.5 106t12 123.5t4.5 103.5v45
h135v-49q0 -52 -8 -115.5t-19.5 -120.5t-23.5 -93h-119z" />
    <glyph glyph-name="uni1E9E" unicode="&#x1e9e;" 
d="M442 2v118q45 -4 90.5 -8.5t108.5 -4.5q110 0 190.5 30.5t125 99.5t44.5 183q0 88 -33.5 154t-107.5 103.5t-195 37.5h-150l331 556l54 73l-83 -8h-550v-1336h-125v1454h953l-343 -578q-10 -15 -24.5 -31.5t-43.5 -27.5q133 0 220 -35t136.5 -93.5t70 -129t20.5 -139.5
q0 -148 -65.5 -243.5t-179.5 -141t-260 -45.5q-61 0 -102.5 4t-81.5 8z" />
    <glyph glyph-name="uni018F" unicode="&#x18f;" 
d="M603 -30q-117 0 -211 49t-160 136.5t-101.5 206t-35.5 257.5l-2 111l138 -38v-67q0 -256 98.5 -395.5t274.5 -139.5q124 0 207.5 77t126 220.5t42.5 343.5q0 208 -44 349t-128 213t-204 72q-127 0 -204 -50.5t-115.5 -124t-48.5 -143.5h-131q16 110 59.5 191.5t109.5 135
t149.5 80.5t177.5 27q241 0 374.5 -193t133.5 -557q0 -161 -26.5 -299.5t-86 -242t-156 -161.5t-237.5 -58zM125 614l-32 116h938v-116h-906z" />
    <glyph glyph-name="T" unicode="T" 
d="M533 0v1236q0 41 15 66t35 33h-484v119h1002v-119h-435v-1335h-133z" />
    <glyph glyph-name="Tbar" unicode="&#x166;" 
d="M533 0v1236q0 41 15 66t35 33h-484v119h1002v-119h-435v-1335h-133zM228 675v114h746l-4 -114h-742z" />
    <glyph glyph-name="Tcaron" unicode="&#x164;" 
d="M533 0v1236q0 41 15 66t35 33h-484v119h1002v-119h-435v-1335h-133zM521 1591l-214 321h141l151 -226l151 226h141l-214 -321h-156z" />
    <glyph glyph-name="uni0162" unicode="&#x162;" 
d="M533 0v1236q0 41 15 66t35 33h-484v119h1002v-119h-435v-1335h-133zM620 -406q-38 0 -73.5 8t-61.5 19l1 113q27 -14 56.5 -21.5t52.5 -7.5q45 0 66.5 26.5t21.5 66.5q0 59 -39.5 113.5t-103.5 88.5h116q80 -34 123.5 -90.5t43.5 -127.5q0 -78 -52 -133t-151 -55z" />
    <glyph glyph-name="uni021A" unicode="&#x21a;" 
d="M533 0v1236q0 41 15 66t35 33h-484v119h1002v-119h-435v-1335h-133zM497 -512q11 44 18.5 106t12 123.5t4.5 103.5v45h135v-49q0 -52 -8 -115.5t-19.5 -120.5t-23.5 -93h-119z" />
    <glyph glyph-name="U" unicode="U" 
d="M599 -20q-129 0 -239 62.5t-177.5 184t-67.5 299.5v930h125v-932q0 -120 33.5 -201.5t88 -130.5t118 -70.5t123.5 -21.5q59 0 121.5 21.5t116 70.5t86.5 130.5t33 201.5v930h125v-928q0 -178 -67.5 -299.5t-178.5 -184t-240 -62.5z" />
    <glyph glyph-name="Uacute" unicode="&#xda;" 
d="M599 -20q-129 0 -239 62.5t-177.5 184t-67.5 299.5v930h125v-932q0 -120 33.5 -201.5t88 -130.5t118 -70.5t123.5 -21.5q59 0 121.5 21.5t116 70.5t86.5 130.5t33 201.5v930h125v-928q0 -178 -67.5 -299.5t-178.5 -184t-240 -62.5zM682 1591h-146l211 319h173z" />
    <glyph glyph-name="Ubreve" unicode="&#x16c;" 
d="M599 -20q-129 0 -239 62.5t-177.5 184t-67.5 299.5v930h125v-932q0 -120 33.5 -201.5t88 -130.5t118 -70.5t123.5 -21.5q59 0 121.5 21.5t116 70.5t86.5 130.5t33 201.5v930h125v-928q0 -178 -67.5 -299.5t-178.5 -184t-240 -62.5zM598 1591q-151 0 -221.5 92.5
t-50.5 228.5h121q-12 -113 31.5 -163.5t119.5 -50.5q75 0 120 49.5t33 164.5h121q14 -90 -14 -163t-93.5 -115.5t-166.5 -42.5z" />
    <glyph glyph-name="Ucircumflex" unicode="&#xdb;" 
d="M599 -20q-129 0 -239 62.5t-177.5 184t-67.5 299.5v930h125v-932q0 -120 33.5 -201.5t88 -130.5t118 -70.5t123.5 -21.5q59 0 121.5 21.5t116 70.5t86.5 130.5t33 201.5v930h125v-928q0 -178 -67.5 -299.5t-178.5 -184t-240 -62.5zM308 1591l214 321h156l214 -321h-141
l-151 226l-151 -226h-141z" />
    <glyph glyph-name="Udieresis" unicode="&#xdc;" 
d="M599 -20q-129 0 -239 62.5t-177.5 184t-67.5 299.5v930h125v-932q0 -120 33.5 -201.5t88 -130.5t118 -70.5t123.5 -21.5q59 0 121.5 21.5t116 70.5t86.5 130.5t33 201.5v930h125v-928q0 -178 -67.5 -299.5t-178.5 -184t-240 -62.5zM398 1590q-46 0 -76 38t-30 85
q0 55 30 88.5t76 33.5q42 0 74 -33.5t32 -88.5q0 -47 -32 -85t-74 -38zM801 1590q-45 0 -75.5 37.5t-30.5 85.5q0 56 30.5 89t75.5 33q42 0 74.5 -33.5t32.5 -88.5q0 -48 -32.5 -85.5t-74.5 -37.5z" />
    <glyph glyph-name="uni1EE4" unicode="&#x1ee4;" 
d="M599 -20q-129 0 -239 62.5t-177.5 184t-67.5 299.5v930h125v-932q0 -120 33.5 -201.5t88 -130.5t118 -70.5t123.5 -21.5q59 0 121.5 21.5t116 70.5t86.5 130.5t33 201.5v930h125v-928q0 -178 -67.5 -299.5t-178.5 -184t-240 -62.5zM600 -417q-49 0 -82.5 34.5t-33.5 88.5
t33.5 88t82.5 34t82.5 -34t33.5 -88t-33.5 -88.5t-82.5 -34.5z" />
    <glyph glyph-name="Ugrave" unicode="&#xd9;" 
d="M599 -20q-129 0 -239 62.5t-177.5 184t-67.5 299.5v930h125v-932q0 -120 33.5 -201.5t88 -130.5t118 -70.5t123.5 -21.5q59 0 121.5 21.5t116 70.5t86.5 130.5t33 201.5v930h125v-928q0 -178 -67.5 -299.5t-178.5 -184t-240 -62.5zM524 1591l-238 319h173l211 -319h-146z
" />
    <glyph glyph-name="Uhungarumlaut" unicode="&#x170;" 
d="M599 -20q-129 0 -239 62.5t-177.5 184t-67.5 299.5v930h125v-932q0 -120 33.5 -201.5t88 -130.5t118 -70.5t123.5 -21.5q59 0 121.5 21.5t116 70.5t86.5 130.5t33 201.5v930h125v-928q0 -178 -67.5 -299.5t-178.5 -184t-240 -62.5zM680 1591l175 321h157l-198 -321h-134z
M364 1591l176 321h156l-197 -321h-135z" />
    <glyph glyph-name="Umacron" unicode="&#x16a;" 
d="M599 -20q-129 0 -239 62.5t-177.5 184t-67.5 299.5v930h125v-932q0 -120 33.5 -201.5t88 -130.5t118 -70.5t123.5 -21.5q59 0 121.5 21.5t116 70.5t86.5 130.5t33 201.5v930h125v-928q0 -178 -67.5 -299.5t-178.5 -184t-240 -62.5zM301 1613v112h598l-3 -112h-595z" />
    <glyph glyph-name="Uogonek" unicode="&#x172;" 
d="M641 -20q-137 0 -253.5 64t-187 194t-70.5 328v890h125v-892q0 -135 35.5 -225t93.5 -142t126.5 -74.5t134.5 -22.5t133.5 22.5t124 74.5t91.5 142t35 225v890h125v-888q0 -198 -71 -328t-187.5 -194t-254.5 -64zM693 -326q-76 0 -120 41.5t-44 102.5q0 38 21 79t71 74
t137 47l50 -8q-88 -45 -126 -82t-38 -84q0 -71 73 -71q37 0 88 19l1 -98q-19 -9 -48 -14.5t-65 -5.5z" />
    <glyph glyph-name="Uring" unicode="&#x16e;" 
d="M599 -20q-129 0 -239 62.5t-177.5 184t-67.5 299.5v930h125v-932q0 -120 33.5 -201.5t88 -130.5t118 -70.5t123.5 -21.5q59 0 121.5 21.5t116 70.5t86.5 130.5t33 201.5v930h125v-928q0 -178 -67.5 -299.5t-178.5 -184t-240 -62.5zM599 1581q-88 0 -147.5 63t-59.5 145
q0 89 59.5 146.5t147.5 57.5q87 0 146 -57.5t59 -146.5q0 -54 -27 -101.5t-73.5 -77t-104.5 -29.5zM599 1678q43 0 69.5 34t26.5 77q0 53 -26.5 81.5t-69.5 28.5t-70 -28.5t-27 -81.5q0 -43 27 -77t70 -34z" />
    <glyph glyph-name="Utilde" unicode="&#x168;" 
d="M599 -20q-129 0 -239 62.5t-177.5 184t-67.5 299.5v930h125v-932q0 -120 33.5 -201.5t88 -130.5t118 -70.5t123.5 -21.5q59 0 121.5 21.5t116 70.5t86.5 130.5t33 201.5v930h125v-928q0 -178 -67.5 -299.5t-178.5 -184t-240 -62.5zM750 1580q-70 0 -110 31t-66.5 72
t-52.5 72t-67 31q-52 0 -73.5 -46.5t-9.5 -159.5h-108q-24 155 31.5 227t155.5 72q70 0 110 -31t66.5 -72t52.5 -72t67 -31q52 0 73 46.5t9 159.5h109q24 -155 -31.5 -227t-155.5 -72z" />
    <glyph glyph-name="V" unicode="V" 
d="M519 0l-482 1454h133l353 -1107l74 -223h7l74 223l352 1107h133l-481 -1454h-163z" />
    <glyph glyph-name="W" unicode="W" 
d="M232 0l-237 1454h124l111 -685q26 -164 42 -329t37 -329h8l96 486l102 506h171l101 -506l91 -486h9q19 164 38 329.5t45 328.5l111 685h124l-237 -1454h-160l-132 582q-26 114 -40.5 214.5t-33.5 215.5h-4q-19 -115 -33.5 -215.5t-40.5 -214.5l-132 -582h-160z" />
    <glyph glyph-name="Wacute" unicode="&#x1e82;" 
d="M232 0l-237 1454h124l111 -685q26 -164 42 -329t37 -329h8l96 486l102 506h171l101 -506l91 -486h9q19 164 38 329.5t45 328.5l111 685h124l-237 -1454h-160l-132 582q-26 114 -40.5 214.5t-33.5 215.5h-4q-19 -115 -33.5 -215.5t-40.5 -214.5l-132 -582h-160zM682 1591
h-146l211 319h173z" />
    <glyph glyph-name="Wcircumflex" unicode="&#x174;" 
d="M232 0l-237 1454h124l111 -685q26 -164 42 -329t37 -329h8l96 486l102 506h171l101 -506l91 -486h9q19 164 38 329.5t45 328.5l111 685h124l-237 -1454h-160l-132 582q-26 114 -40.5 214.5t-33.5 215.5h-4q-19 -115 -33.5 -215.5t-40.5 -214.5l-132 -582h-160zM308 1591
l214 321h156l214 -321h-141l-151 226l-151 -226h-141z" />
    <glyph glyph-name="Wdieresis" unicode="&#x1e84;" 
d="M232 0l-237 1454h124l111 -685q26 -164 42 -329t37 -329h8l96 486l102 506h171l101 -506l91 -486h9q19 164 38 329.5t45 328.5l111 685h124l-237 -1454h-160l-132 582q-26 114 -40.5 214.5t-33.5 215.5h-4q-19 -115 -33.5 -215.5t-40.5 -214.5l-132 -582h-160zM398 1590
q-46 0 -76 38t-30 85q0 55 30 88.5t76 33.5q42 0 74 -33.5t32 -88.5q0 -47 -32 -85t-74 -38zM801 1590q-45 0 -75.5 37.5t-30.5 85.5q0 56 30.5 89t75.5 33q42 0 74.5 -33.5t32.5 -88.5q0 -48 -32.5 -85.5t-74.5 -37.5z" />
    <glyph glyph-name="Wgrave" unicode="&#x1e80;" 
d="M232 0l-237 1454h124l111 -685q26 -164 42 -329t37 -329h8l96 486l102 506h171l101 -506l91 -486h9q19 164 38 329.5t45 328.5l111 685h124l-237 -1454h-160l-132 582q-26 114 -40.5 214.5t-33.5 215.5h-4q-19 -115 -33.5 -215.5t-40.5 -214.5l-132 -582h-160zM524 1591
l-238 319h173l211 -319h-146z" />
    <glyph glyph-name="X" unicode="X" 
d="M55 0l446 724l-453 730h153l184 -306l216 -367l214 367l184 306h153l-453 -730l446 -724h-152l-177 296l-216 370l-215 -370l-177 -296h-153z" />
    <glyph glyph-name="Y" unicode="Y" 
d="M545 520l-493 934h146l203 -416l193 -374h10l195 374l203 416h146l-493 -934h-110zM540 0v573h119v-573h-119z" />
    <glyph glyph-name="Yacute" unicode="&#xdd;" 
d="M545 520l-493 934h146l203 -416l193 -374h10l195 374l203 416h146l-493 -934h-110zM540 0v573h119v-573h-119zM682 1591h-146l211 319h173z" />
    <glyph glyph-name="Ycircumflex" unicode="&#x176;" 
d="M545 520l-493 934h146l203 -416l193 -374h10l195 374l203 416h146l-493 -934h-110zM540 0v573h119v-573h-119zM308 1591l214 321h156l214 -321h-141l-151 226l-151 -226h-141z" />
    <glyph glyph-name="Ydieresis" unicode="&#x178;" 
d="M545 520l-493 934h146l203 -416l193 -374h10l195 374l203 416h146l-493 -934h-110zM540 0v573h119v-573h-119zM398 1590q-46 0 -76 38t-30 85q0 55 30 88.5t76 33.5q42 0 74 -33.5t32 -88.5q0 -47 -32 -85t-74 -38zM801 1590q-45 0 -75.5 37.5t-30.5 85.5q0 56 30.5 89
t75.5 33q42 0 74.5 -33.5t32.5 -88.5q0 -48 -32.5 -85.5t-74.5 -37.5z" />
    <glyph glyph-name="Ygrave" unicode="&#x1ef2;" 
d="M545 520l-493 934h146l203 -416l193 -374h10l195 374l203 416h146l-493 -934h-110zM540 0v573h119v-573h-119zM524 1591l-238 319h173l211 -319h-146z" />
    <glyph glyph-name="uni0232" unicode="&#x232;" 
d="M545 520l-493 934h146l203 -416l193 -374h10l195 374l203 416h146l-493 -934h-110zM540 0v573h119v-573h-119zM301 1613v112h598l-3 -112h-595z" />
    <glyph glyph-name="uni1EF8" unicode="&#x1ef8;" 
d="M545 520l-493 934h146l203 -416l193 -374h10l195 374l203 416h146l-493 -934h-110zM540 0v573h119v-573h-119zM750 1580q-70 0 -110 31t-66.5 72t-52.5 72t-67 31q-52 0 -73.5 -46.5t-9.5 -159.5h-108q-24 155 31.5 227t155.5 72q70 0 110 -31t66.5 -72t52.5 -72t67 -31
q52 0 73 46.5t9 159.5h109q24 -155 -31.5 -227t-155.5 -72z" />
    <glyph glyph-name="Z" unicode="Z" 
d="M124 0l697 1203l96 137l-225 -5h-487v119h901l-630 -1083l-162 -261l227 9h535v-119h-952z" />
    <glyph glyph-name="Zacute" unicode="&#x179;" 
d="M124 0l697 1203l96 137l-225 -5h-487v119h901l-630 -1083l-162 -261l227 9h535v-119h-952zM722 1591h-146l211 319h173z" />
    <glyph glyph-name="Zcaron" unicode="&#x17d;" 
d="M124 0l697 1203l96 137l-225 -5h-487v119h901l-630 -1083l-162 -261l227 9h535v-119h-952zM562 1591l-214 321h141l151 -226l151 226h141l-214 -321h-156z" />
    <glyph glyph-name="Zdotaccent" unicode="&#x17b;" 
d="M124 0l697 1203l96 137l-225 -5h-487v119h901l-630 -1083l-162 -261l227 9h535v-119h-952zM635 1590q-48 0 -79.5 35t-31.5 88t32 87.5t79 34.5q44 0 77 -34.5t33 -87.5t-33 -88t-77 -35z" />
    <glyph glyph-name="G.ss06" 
d="M970 145l107 589l-2 -734h-93zM606 -30q-160 0 -275 90.5t-176 261t-61 409.5q0 244 63 411t188.5 253t312.5 86q111 0 195.5 -45.5t139.5 -141.5t74 -247h-125q-9 65 -38.5 138t-91.5 124.5t-167 51.5q-139 0 -233 -70.5t-142.5 -210.5t-48.5 -349q0 -205 51 -348.5
t139 -218t200 -74.5q118 0 196.5 26t142.5 85l2 410h-300v123h425l-107 -589q-43 -79 -142.5 -127t-221.5 -48z" />
    <glyph glyph-name="uni01F4.ss06" 
d="M970 145l107 589l-2 -734h-93zM606 -30q-160 0 -275 90.5t-176 261t-61 409.5q0 244 63 411t188.5 253t312.5 86q111 0 195.5 -45.5t139.5 -141.5t74 -247h-125q-9 65 -38.5 138t-91.5 124.5t-167 51.5q-139 0 -233 -70.5t-142.5 -210.5t-48.5 -349q0 -205 51 -348.5
t139 -218t200 -74.5q118 0 196.5 26t142.5 85l2 410h-300v123h425l-107 -589q-43 -79 -142.5 -127t-221.5 -48zM728 1591h-146l211 319h173z" />
    <glyph glyph-name="Gbreve.ss06" 
d="M970 145l107 589l-2 -734h-93zM606 -30q-160 0 -275 90.5t-176 261t-61 409.5q0 244 63 411t188.5 253t312.5 86q111 0 195.5 -45.5t139.5 -141.5t74 -247h-125q-9 65 -38.5 138t-91.5 124.5t-167 51.5q-139 0 -233 -70.5t-142.5 -210.5t-48.5 -349q0 -205 51 -348.5
t139 -218t200 -74.5q118 0 196.5 26t142.5 85l2 410h-300v123h425l-107 -589q-43 -79 -142.5 -127t-221.5 -48zM644 1591q-151 0 -221.5 92.5t-50.5 228.5h121q-12 -113 31.5 -163.5t119.5 -50.5q75 0 120 49.5t33 164.5h121q14 -90 -14 -163t-93.5 -115.5t-166.5 -42.5z
" />
    <glyph glyph-name="Gcaron.ss06" 
d="M970 145l107 589l-2 -734h-93zM606 -30q-160 0 -275 90.5t-176 261t-61 409.5q0 244 63 411t188.5 253t312.5 86q111 0 195.5 -45.5t139.5 -141.5t74 -247h-125q-9 65 -38.5 138t-91.5 124.5t-167 51.5q-139 0 -233 -70.5t-142.5 -210.5t-48.5 -349q0 -205 51 -348.5
t139 -218t200 -74.5q118 0 196.5 26t142.5 85l2 410h-300v123h425l-107 -589q-43 -79 -142.5 -127t-221.5 -48zM568 1591l-214 321h141l151 -226l151 226h141l-214 -321h-156z" />
    <glyph glyph-name="uni0122.ss06" 
d="M970 145l107 589l-2 -734h-93zM606 -30q-160 0 -275 90.5t-176 261t-61 409.5q0 244 63 411t188.5 253t312.5 86q111 0 195.5 -45.5t139.5 -141.5t74 -247h-125q-9 65 -38.5 138t-91.5 124.5t-167 51.5q-139 0 -233 -70.5t-142.5 -210.5t-48.5 -349q0 -205 51 -348.5
t139 -218t200 -74.5q118 0 196.5 26t142.5 85l2 410h-300v123h425l-107 -589q-43 -79 -142.5 -127t-221.5 -48zM570 -512q11 44 18.5 106t12 123.5t4.5 103.5v45h135v-49q0 -52 -8 -115.5t-19.5 -120.5t-23.5 -93h-119z" />
    <glyph glyph-name="Gdotaccent.ss06" 
d="M970 145l107 589l-2 -734h-93zM606 -30q-160 0 -275 90.5t-176 261t-61 409.5q0 244 63 411t188.5 253t312.5 86q111 0 195.5 -45.5t139.5 -141.5t74 -247h-125q-9 65 -38.5 138t-91.5 124.5t-167 51.5q-139 0 -233 -70.5t-142.5 -210.5t-48.5 -349q0 -205 51 -348.5
t139 -218t200 -74.5q118 0 196.5 26t142.5 85l2 410h-300v123h425l-107 -589q-43 -79 -142.5 -127t-221.5 -48zM641 1590q-48 0 -79.5 35t-31.5 88t32 87.5t79 34.5q44 0 77 -34.5t33 -87.5t-33 -88t-77 -35z" />
    <glyph glyph-name="J.ss07" 
d="M546 -30q-99 0 -189.5 32t-157.5 99t-98.5 170t-11.5 244h128q-20 -118 3.5 -200t75.5 -132t118.5 -73t130.5 -23q114 0 193 44.5t119.5 140t40.5 249.5v812h-413v121h540v-953q0 -194 -65.5 -310.5t-174 -168.5t-239.5 -52z" />
    <glyph glyph-name="uni004A0301.ss07" 
d="M546 -30q-99 0 -189.5 32t-157.5 99t-98.5 170t-11.5 244h128q-20 -118 3.5 -200t75.5 -132t118.5 -73t130.5 -23q114 0 193 44.5t119.5 140t40.5 249.5v812h-413v121h540v-953q0 -194 -65.5 -310.5t-174 -168.5t-239.5 -52zM846 1591h-146l211 319h173z" />
    <glyph glyph-name="IJ.ss08" 
d="M267 0h-127v1454h127v-1454zM713 -29q-58 0 -143 12t-154 38v128q71 -29 148 -40t154 -11q46 0 97 24t87.5 90t36.5 192v814q0 45 16 75.5t53 39.5l-69 59v62h121v-1071q0 -144 -44 -235t-122 -134t-181 -43zM509 1333v121h551l-38 -121h-513z" />
    <glyph glyph-name="J.ss08" 
d="M549 -30q-77 0 -152 9.5t-135 26.5t-92 39v139q37 -24 92.5 -44.5t126.5 -32.5t151 -12q105 0 184.5 33.5t124 122.5t44.5 257v640q0 92 9 137t62 49l-110 98l-80 22h246v-966q0 -192 -63 -305.5t-169.5 -163t-238.5 -49.5zM468 1334v120h552l-40 -120h-512z" />
    <glyph glyph-name="uni004A0301.ss08" 
d="M549 -30q-77 0 -152 9.5t-135 26.5t-92 39v139q37 -24 92.5 -44.5t126.5 -32.5t151 -12q105 0 184.5 33.5t124 122.5t44.5 257v640q0 92 9 137t62 49l-110 98l-80 22h246v-966q0 -192 -63 -305.5t-169.5 -163t-238.5 -49.5zM468 1334v120h552l-40 -120h-512zM832 1591
h-146l211 319h173z" />
    <glyph glyph-name="M.ss09" 
d="M100 0l36 1454h196l193 -884l76 -380h3l76 380l188 884h196l36 -1454h-121l-20 849l-2 515h-5l-104 -501l-206 -863h-75l-215 863l-103 501h-6l-2 -515l-20 -849h-121z" />
    <glyph glyph-name="W.ss10" 
d="M232 0l-237 1454h124l111 -685q26 -164 42 -329t37 -329h8l96 658l102 685h171l101 -685l91 -658h9q19 164 38 329.5t45 328.5l111 685h124l-237 -1454h-160l-132 749q-27 155 -41 311t-33 311h-4q-19 -155 -33 -311t-41 -311l-132 -749h-160z" />
    <glyph glyph-name="Wacute.ss10" 
d="M232 0l-237 1454h124l111 -685q26 -164 42 -329t37 -329h8l96 658l102 685h171l101 -685l91 -658h9q19 164 38 329.5t45 328.5l111 685h124l-237 -1454h-160l-132 749q-27 155 -41 311t-33 311h-4q-19 -155 -33 -311t-41 -311l-132 -749h-160zM682 1591h-146l211 319h173
z" />
    <glyph glyph-name="Wcircumflex.ss10" 
d="M232 0l-237 1454h124l111 -685q26 -164 42 -329t37 -329h8l96 658l102 685h171l101 -685l91 -658h9q19 164 38 329.5t45 328.5l111 685h124l-237 -1454h-160l-132 749q-27 155 -41 311t-33 311h-4q-19 -155 -33 -311t-41 -311l-132 -749h-160zM308 1591l214 321h156
l214 -321h-141l-151 226l-151 -226h-141z" />
    <glyph glyph-name="Wdieresis.ss10" 
d="M232 0l-237 1454h124l111 -685q26 -164 42 -329t37 -329h8l96 658l102 685h171l101 -685l91 -658h9q19 164 38 329.5t45 328.5l111 685h124l-237 -1454h-160l-132 749q-27 155 -41 311t-33 311h-4q-19 -155 -33 -311t-41 -311l-132 -749h-160zM398 1590q-46 0 -76 38
t-30 85q0 55 30 88.5t76 33.5q42 0 74 -33.5t32 -88.5q0 -47 -32 -85t-74 -38zM801 1590q-45 0 -75.5 37.5t-30.5 85.5q0 56 30.5 89t75.5 33q42 0 74.5 -33.5t32.5 -88.5q0 -48 -32.5 -85.5t-74.5 -37.5z" />
    <glyph glyph-name="Wgrave.ss10" 
d="M232 0l-237 1454h124l111 -685q26 -164 42 -329t37 -329h8l96 658l102 685h171l101 -685l91 -658h9q19 164 38 329.5t45 328.5l111 685h124l-237 -1454h-160l-132 749q-27 155 -41 311t-33 311h-4q-19 -155 -33 -311t-41 -311l-132 -749h-160zM524 1591l-238 319h173
l211 -319h-146z" />
    <glyph glyph-name="a" unicode="a" 
d="M517 -12q-160 0 -249.5 82.5t-89.5 218.5q0 123 80 198t257 110q44 9 96.5 16t121.5 12.5t161 8.5v84q0 148 -67.5 214.5t-211.5 66.5q-159 0 -229.5 -68t-61.5 -193h-128q-12 107 35 191.5t145 133.5t240 49q203 0 301 -96.5t98 -272.5v-743h-120l-1 227
q-24 -74 -77 -127.5t-129 -82.5t-171 -29zM532 91q88 0 163.5 32t128.5 85t70 116v226q-74 -3 -138 -10t-117.5 -16t-94.5 -19q-132 -31 -184 -83.5t-52 -133.5q0 -94 58.5 -145t165.5 -52z" />
    <glyph glyph-name="aacute" unicode="&#xe1;" 
d="M517 -12q-160 0 -249.5 82.5t-89.5 218.5q0 123 80 198t257 110q44 9 96.5 16t121.5 12.5t161 8.5v84q0 148 -67.5 214.5t-211.5 66.5q-159 0 -229.5 -68t-61.5 -193h-128q-12 107 35 191.5t145 133.5t240 49q203 0 301 -96.5t98 -272.5v-743h-120l-1 227
q-24 -74 -77 -127.5t-129 -82.5t-171 -29zM532 91q88 0 163.5 32t128.5 85t70 116v226q-74 -3 -138 -10t-117.5 -16t-94.5 -19q-132 -31 -184 -83.5t-52 -133.5q0 -94 58.5 -145t165.5 -52zM541 1284l210 309h164l-227 -309h-147z" />
    <glyph glyph-name="abreve" unicode="&#x103;" 
d="M517 -12q-160 0 -249.5 82.5t-89.5 218.5q0 123 80 198t257 110q44 9 96.5 16t121.5 12.5t161 8.5v84q0 148 -67.5 214.5t-211.5 66.5q-159 0 -229.5 -68t-61.5 -193h-128q-12 107 35 191.5t145 133.5t240 49q203 0 301 -96.5t98 -272.5v-743h-120l-1 227
q-24 -74 -77 -127.5t-129 -82.5t-171 -29zM532 91q88 0 163.5 32t128.5 85t70 116v226q-74 -3 -138 -10t-117.5 -16t-94.5 -19q-132 -31 -184 -83.5t-52 -133.5q0 -94 58.5 -145t165.5 -52zM608 1274q-138 0 -217.5 83.5t-66.5 225.5h119q-3 -82 19.5 -128.5t61.5 -65.5
t84 -19q47 0 85.5 19.5t60.5 66t19 127.5h120q13 -141 -66 -225t-219 -84z" />
    <glyph glyph-name="acircumflex" unicode="&#xe2;" 
d="M517 -12q-160 0 -249.5 82.5t-89.5 218.5q0 123 80 198t257 110q44 9 96.5 16t121.5 12.5t161 8.5v84q0 148 -67.5 214.5t-211.5 66.5q-159 0 -229.5 -68t-61.5 -193h-128q-12 107 35 191.5t145 133.5t240 49q203 0 301 -96.5t98 -272.5v-743h-120l-1 227
q-24 -74 -77 -127.5t-129 -82.5t-171 -29zM532 91q88 0 163.5 32t128.5 85t70 116v226q-74 -3 -138 -10t-117.5 -16t-94.5 -19q-132 -31 -184 -83.5t-52 -133.5q0 -94 58.5 -145t165.5 -52zM317 1282l206 309h171l205 -309h-140l-150 210l-151 -210h-141z" />
    <glyph glyph-name="adieresis" unicode="&#xe4;" 
d="M517 -12q-160 0 -249.5 82.5t-89.5 218.5q0 123 80 198t257 110q44 9 96.5 16t121.5 12.5t161 8.5v84q0 148 -67.5 214.5t-211.5 66.5q-159 0 -229.5 -68t-61.5 -193h-128q-12 107 35 191.5t145 133.5t240 49q203 0 301 -96.5t98 -272.5v-743h-120l-1 227
q-24 -74 -77 -127.5t-129 -82.5t-171 -29zM532 91q88 0 163.5 32t128.5 85t70 116v226q-74 -3 -138 -10t-117.5 -16t-94.5 -19q-132 -31 -184 -83.5t-52 -133.5q0 -94 58.5 -145t165.5 -52zM408 1284q-46 0 -76 38t-30 85q0 55 30 88.5t76 33.5q42 0 74 -33.5t32 -88.5
q0 -47 -32 -85t-74 -38zM807 1284q-45 0 -75.5 37.5t-30.5 85.5q0 56 30.5 89t75.5 33q42 0 74.5 -33.5t32.5 -88.5q0 -48 -32.5 -85.5t-74.5 -37.5z" />
    <glyph glyph-name="agrave" unicode="&#xe0;" 
d="M517 -12q-160 0 -249.5 82.5t-89.5 218.5q0 123 80 198t257 110q44 9 96.5 16t121.5 12.5t161 8.5v84q0 148 -67.5 214.5t-211.5 66.5q-159 0 -229.5 -68t-61.5 -193h-128q-12 107 35 191.5t145 133.5t240 49q203 0 301 -96.5t98 -272.5v-743h-120l-1 227
q-24 -74 -77 -127.5t-129 -82.5t-171 -29zM532 91q88 0 163.5 32t128.5 85t70 116v226q-74 -3 -138 -10t-117.5 -16t-94.5 -19q-132 -31 -184 -83.5t-52 -133.5q0 -94 58.5 -145t165.5 -52zM674 1284h-147l-227 309h164z" />
    <glyph glyph-name="amacron" unicode="&#x101;" 
d="M517 -12q-160 0 -249.5 82.5t-89.5 218.5q0 123 80 198t257 110q44 9 96.5 16t121.5 12.5t161 8.5v84q0 148 -67.5 214.5t-211.5 66.5q-159 0 -229.5 -68t-61.5 -193h-128q-12 107 35 191.5t145 133.5t240 49q203 0 301 -96.5t98 -272.5v-743h-120l-1 227
q-24 -74 -77 -127.5t-129 -82.5t-171 -29zM532 91q88 0 163.5 32t128.5 85t70 116v226q-74 -3 -138 -10t-117.5 -16t-94.5 -19q-132 -31 -184 -83.5t-52 -133.5q0 -94 58.5 -145t165.5 -52zM352 1314v112h512l-3 -112h-509z" />
    <glyph glyph-name="aogonek" unicode="&#x105;" 
d="M517 -12q-160 0 -249.5 82.5t-89.5 218.5q0 123 80 198t257 110q44 9 96.5 16t121.5 12.5t161 8.5v84q0 148 -67.5 214.5t-211.5 66.5q-159 0 -229.5 -68t-61.5 -193h-128q-12 107 35 191.5t145 133.5t240 49q203 0 301 -96.5t98 -272.5v-743h-120l-1 227
q-24 -74 -77 -127.5t-129 -82.5t-171 -29zM532 91q88 0 163.5 32t128.5 85t70 116v226q-74 -3 -138 -10t-117.5 -16t-94.5 -19q-132 -31 -184 -83.5t-52 -133.5q0 -94 58.5 -145t165.5 -52zM883 -390q-86 0 -135.5 45.5t-49.5 117.5q0 82 52.5 141t169.5 86h95
q-97 -52 -139.5 -97t-42.5 -99q0 -40 22.5 -58.5t62.5 -18.5q41 0 98 22l1 -116q-25 -10 -56.5 -16.5t-77.5 -6.5z" />
    <glyph glyph-name="aring" unicode="&#xe5;" 
d="M517 -12q-160 0 -249.5 82.5t-89.5 218.5q0 123 80 198t257 110q44 9 96.5 16t121.5 12.5t161 8.5v84q0 148 -67.5 214.5t-211.5 66.5q-159 0 -229.5 -68t-61.5 -193h-128q-12 107 35 191.5t145 133.5t240 49q203 0 301 -96.5t98 -272.5v-743h-120l-1 227
q-24 -74 -77 -127.5t-129 -82.5t-171 -29zM532 91q88 0 163.5 32t128.5 85t70 116v226q-74 -3 -138 -10t-117.5 -16t-94.5 -19q-132 -31 -184 -83.5t-52 -133.5q0 -94 58.5 -145t165.5 -52zM608 1266q-109 0 -172.5 62t-63.5 167q0 104 63.5 165t172.5 61q107 0 170.5 -61
t63.5 -165q0 -105 -63.5 -167t-170.5 -62zM608 1359q59 0 93.5 36.5t34.5 98.5t-34.5 98t-93.5 36t-94 -36t-35 -98t35 -98.5t94 -36.5z" />
    <glyph glyph-name="aringacute" unicode="&#x1fb;" 
d="M517 -12q-160 0 -249.5 82.5t-89.5 218.5q0 123 80 198t257 110q44 9 96.5 16t121.5 12.5t161 8.5v84q0 148 -67.5 214.5t-211.5 66.5q-159 0 -229.5 -68t-61.5 -193h-128q-12 107 35 191.5t145 133.5t240 49q203 0 301 -96.5t98 -272.5v-743h-120l-1 227
q-24 -74 -77 -127.5t-129 -82.5t-171 -29zM532 91q88 0 163.5 32t128.5 85t70 116v226q-74 -3 -138 -10t-117.5 -16t-94.5 -19q-132 -31 -184 -83.5t-52 -133.5q0 -94 58.5 -145t165.5 -52zM594 1709l130 203h152l-183 -226zM608 1266q-109 0 -172.5 62t-63.5 167
q0 104 63.5 165t172.5 61q107 0 170.5 -61t63.5 -165q0 -105 -63.5 -167t-170.5 -62zM608 1359q59 0 93.5 36.5t34.5 98.5t-34.5 98t-93.5 36t-94 -36t-35 -98t35 -98.5t94 -36.5z" />
    <glyph glyph-name="atilde" unicode="&#xe3;" 
d="M517 -12q-160 0 -249.5 82.5t-89.5 218.5q0 123 80 198t257 110q44 9 96.5 16t121.5 12.5t161 8.5v84q0 148 -67.5 214.5t-211.5 66.5q-159 0 -229.5 -68t-61.5 -193h-128q-12 107 35 191.5t145 133.5t240 49q203 0 301 -96.5t98 -272.5v-743h-120l-1 227
q-24 -74 -77 -127.5t-129 -82.5t-171 -29zM532 91q88 0 163.5 32t128.5 85t70 116v226q-74 -3 -138 -10t-117.5 -16t-94.5 -19q-132 -31 -184 -83.5t-52 -133.5q0 -94 58.5 -145t165.5 -52zM754 1293q-70 0 -110 31t-66.5 72t-52.5 72t-67 31q-52 0 -73.5 -46.5t-9.5 -159.5
h-111q-24 155 32 227t158 72q70 0 110 -31t66.5 -72t52.5 -72t67 -31q52 0 73 46.5t9 159.5h113q24 -155 -32 -227t-159 -72z" />
    <glyph glyph-name="ae" unicode="&#xe6;" 
d="M296 -12q-106 0 -175 85.5t-69 219.5q0 115 54 193.5t156 110.5q61 19 133 26.5t126 10.5v84q0 161 -43 219t-132 58q-45 0 -85 -18t-62.5 -73.5t-16.5 -167.5h-113q-14 123 21.5 206.5t105 126.5t155.5 43q107 0 165.5 -58.5t82.5 -146.5q29 84 96 145t171 61
q145 0 223.5 -130t78.5 -369q0 -19 -1 -38.5l-3 -58.5h-526q5 -135 32.5 -228t79 -141t125.5 -48q81 0 117 55t44 155h115q-2 -98 -35.5 -170.5t-94.5 -112t-147 -39.5q-77 0 -137.5 33.5t-103.5 98t-69 157.5q-34 -137 -102 -213t-166 -76zM309 91q59 0 104 41t73 94t35 87
v238q-46 -4 -101.5 -16t-99.5 -30q-75 -31 -109 -84.5t-34 -132.5q0 -74 31 -135.5t101 -61.5zM638 563q5 33 21 47.5t47 14.5h344q0 185 -44 279t-140 94q-109 0 -165.5 -114.5t-62.5 -320.5z" />
    <glyph glyph-name="aeacute" unicode="&#x1fd;" 
d="M296 -12q-106 0 -175 85.5t-69 219.5q0 115 54 193.5t156 110.5q61 19 133 26.5t126 10.5v84q0 161 -43 219t-132 58q-45 0 -85 -18t-62.5 -73.5t-16.5 -167.5h-113q-14 123 21.5 206.5t105 126.5t155.5 43q107 0 165.5 -58.5t82.5 -146.5q29 84 96 145t171 61
q145 0 223.5 -130t78.5 -369q0 -19 -1 -38.5l-3 -58.5h-526q5 -135 32.5 -228t79 -141t125.5 -48q81 0 117 55t44 155h115q-2 -98 -35.5 -170.5t-94.5 -112t-147 -39.5q-77 0 -137.5 33.5t-103.5 98t-69 157.5q-34 -137 -102 -213t-166 -76zM309 91q59 0 104 41t73 94t35 87
v238q-46 -4 -101.5 -16t-99.5 -30q-75 -31 -109 -84.5t-34 -132.5q0 -74 31 -135.5t101 -61.5zM638 563q5 33 21 47.5t47 14.5h344q0 185 -44 279t-140 94q-109 0 -165.5 -114.5t-62.5 -320.5zM540 1284l210 309h164l-227 -309h-147z" />
    <glyph glyph-name="b" unicode="b" 
d="M593 -12q-56 0 -121.5 25.5t-115.5 72.5t-60 110l-34 25l47 22q21 -48 64 -79t98.5 -45.5t113.5 -14.5q95 0 174.5 56t127 162t47.5 256q0 199 -72.5 308.5t-212.5 109.5q-76 0 -144.5 -24.5t-119.5 -74.5t-76 -127l-10 34l10 45q16 85 69.5 143.5t130.5 89t161 30.5
q120 0 208.5 -62.5t136.5 -182.5t48 -292q0 -178 -65 -310t-171.5 -204.5t-233.5 -72.5zM190 0l-1 1556h120v-488v-864l18 -36l-19 -4l-6 -164h-112z" />
    <glyph glyph-name="c" unicode="c" 
d="M610 -15q-134 0 -239 65t-165 189.5t-60 300.5q0 187 62 314t169.5 192.5t246.5 65.5q127 0 217.5 -56.5t141.5 -151t61 -208.5h-130q-4 43 -20 94.5t-50 98.5t-90.5 77t-140.5 30q-160 0 -250 -113.5t-90 -333.5q0 -210 90 -329t253 -119q109 0 167 30.5t83 77t35 94.5
h130q-11 -77 -58 -150.5t-136 -120.5t-227 -47z" />
    <glyph glyph-name="cacute" unicode="&#x107;" 
d="M610 -15q-134 0 -239 65t-165 189.5t-60 300.5q0 187 62 314t169.5 192.5t246.5 65.5q127 0 217.5 -56.5t141.5 -151t61 -208.5h-130q-4 43 -20 94.5t-50 98.5t-90.5 77t-140.5 30q-160 0 -250 -113.5t-90 -333.5q0 -210 90 -329t253 -119q109 0 167 30.5t83 77t35 94.5
h130q-11 -77 -58 -150.5t-136 -120.5t-227 -47zM534 1284l210 309h164l-227 -309h-147z" />
    <glyph glyph-name="ccaron" unicode="&#x10d;" 
d="M610 -15q-134 0 -239 65t-165 189.5t-60 300.5q0 187 62 314t169.5 192.5t246.5 65.5q127 0 217.5 -56.5t141.5 -151t61 -208.5h-130q-4 43 -20 94.5t-50 98.5t-90.5 77t-140.5 30q-160 0 -250 -113.5t-90 -333.5q0 -210 90 -329t253 -119q109 0 167 30.5t83 77t35 94.5
h130q-11 -77 -58 -150.5t-136 -120.5t-227 -47zM516 1272l-206 309h141l151 -212l150 212h140l-205 -309h-171z" />
    <glyph glyph-name="ccedilla" unicode="&#xe7;" 
d="M610 -15q-134 0 -239 65t-165 189.5t-60 300.5q0 187 62 314t169.5 192.5t246.5 65.5q127 0 217.5 -56.5t141.5 -151t61 -208.5h-130q-4 43 -20 94.5t-50 98.5t-90.5 77t-140.5 30q-160 0 -250 -113.5t-90 -333.5q0 -210 90 -329t253 -119q109 0 167 30.5t83 77t35 94.5
h130q-11 -77 -58 -150.5t-136 -120.5t-227 -47zM588 -407q-61 0 -98 8t-62 21l1 115q26 -11 57.5 -19.5t80.5 -8.5q57 0 74.5 26.5t17.5 63.5q0 52 -28.5 100.5t-102.5 100.5h107q51 -22 84.5 -59t50.5 -80t17 -83q0 -85 -49 -135t-150 -50z" />
    <glyph glyph-name="cdotaccent" unicode="&#x10b;" 
d="M610 -15q-134 0 -239 65t-165 189.5t-60 300.5q0 187 62 314t169.5 192.5t246.5 65.5q127 0 217.5 -56.5t141.5 -151t61 -208.5h-130q-4 43 -20 94.5t-50 98.5t-90.5 77t-140.5 30q-160 0 -250 -113.5t-90 -333.5q0 -210 90 -329t253 -119q109 0 167 30.5t83 77t35 94.5
h130q-11 -77 -58 -150.5t-136 -120.5t-227 -47zM601 1299q-49 0 -82.5 34.5t-33.5 88.5t33.5 88t82.5 34t82.5 -34t33.5 -88t-33.5 -88.5t-82.5 -34.5z" />
    <glyph glyph-name="d" unicode="d" 
d="M583 -12q-127 0 -223.5 71t-150.5 195.5t-54 286.5q0 179 59 306.5t163.5 196t240.5 68.5q67 0 130.5 -28t108.5 -77t55 -113l34 -35l-47 -22q-21 49 -60.5 84.5t-91.5 55t-111 19.5q-157 0 -254.5 -116.5t-97.5 -341.5q0 -122 38 -220.5t110 -156t172 -57.5q66 0 124 29
t102.5 80t68.5 117l10 -34l-10 -45q-15 -85 -62 -143.5t-113 -89t-141 -30.5zM899 0v330v1226h120l2 -1556h-122z" />
    <glyph glyph-name="eth" unicode="&#xf0;" 
d="M599 -15q-127 0 -233.5 59.5t-170 176.5t-63.5 287q0 163 65 275.5t170 171t223 58.5q99 0 185.5 -47t141.5 -158q-22 161 -86 297t-150 251l-204 -163v124l150 108q-46 56 -93.5 105.5t-95.5 94.5l149 21q39 -36 75 -73t69 -76l210 163l-5 -124l-149 -108
q130 -172 198 -371t68 -431q0 -186 -39 -309.5t-104 -196.5t-146 -104t-165 -31zM599 101q126 0 198 56.5t101.5 160.5t29.5 245q0 29 -2.5 56t-5.5 46t-6 24q-14 33 -50 82t-100.5 87.5t-167.5 38.5q-94 0 -170 -41t-121 -127t-45 -221q0 -195 95.5 -301t243.5 -106z" />
    <glyph glyph-name="dcaron" unicode="&#x10f;" 
d="M583 -12q-127 0 -223.5 71t-150.5 195.5t-54 286.5q0 179 59 306.5t163.5 196t240.5 68.5q67 0 130.5 -28t108.5 -77t55 -113l34 -35l-47 -22q-21 49 -60.5 84.5t-91.5 55t-111 19.5q-157 0 -254.5 -116.5t-97.5 -341.5q0 -122 38 -220.5t110 -156t172 -57.5q66 0 124 29
t102.5 80t68.5 117l10 -34l-10 -45q-15 -85 -62 -143.5t-113 -89t-141 -30.5zM899 0v330v1226h120l2 -1556h-122zM1113 1185l23 380h127l-40 -380h-110z" />
    <glyph glyph-name="dcroat" unicode="&#x111;" 
d="M603 1288v111h535v-111h-535zM583 -12q-127 0 -223.5 71t-150.5 195.5t-54 286.5q0 179 59 306.5t163.5 196t240.5 68.5q67 0 130.5 -28t108.5 -77t55 -113l34 -35l-47 -22q-21 49 -60.5 84.5t-91.5 55t-111 19.5q-157 0 -254.5 -116.5t-97.5 -341.5q0 -122 38 -220.5
t110 -156t172 -57.5q66 0 124 29t102.5 80t68.5 117l10 -34l-10 -45q-15 -85 -62 -143.5t-113 -89t-141 -30.5zM899 0v330v1226h120l2 -1556h-122z" />
    <glyph glyph-name="e" unicode="e" 
d="M624 -15q-122 0 -229 65.5t-173.5 192.5t-66.5 310q0 174 61 299.5t170 193t252 67.5q197 0 309 -135.5t112 -371.5q0 -29 -2 -53l-3 -36h-778q4 -129 51 -222.5t124.5 -144t172.5 -50.5q135 0 207 56.5t83 153.5h127q-9 -97 -61.5 -170.5t-143 -114t-212.5 -40.5z
M276 563q8 39 32 50.5t60 11.5h568q0 187 -80.5 280t-224.5 93q-172 0 -261.5 -115t-93.5 -320z" />
    <glyph glyph-name="eacute" unicode="&#xe9;" 
d="M624 -15q-122 0 -229 65.5t-173.5 192.5t-66.5 310q0 174 61 299.5t170 193t252 67.5q197 0 309 -135.5t112 -371.5q0 -29 -2 -53l-3 -36h-778q4 -129 51 -222.5t124.5 -144t172.5 -50.5q135 0 207 56.5t83 153.5h127q-9 -97 -61.5 -170.5t-143 -114t-212.5 -40.5z
M276 563q8 39 32 50.5t60 11.5h568q0 187 -80.5 280t-224.5 93q-172 0 -261.5 -115t-93.5 -320zM567 1284l210 309h164l-227 -309h-147z" />
    <glyph glyph-name="ebreve" unicode="&#x115;" 
d="M624 -15q-122 0 -229 65.5t-173.5 192.5t-66.5 310q0 174 61 299.5t170 193t252 67.5q197 0 309 -135.5t112 -371.5q0 -29 -2 -53l-3 -36h-778q4 -129 51 -222.5t124.5 -144t172.5 -50.5q135 0 207 56.5t83 153.5h127q-9 -97 -61.5 -170.5t-143 -114t-212.5 -40.5z
M276 563q8 39 32 50.5t60 11.5h568q0 187 -80.5 280t-224.5 93q-172 0 -261.5 -115t-93.5 -320zM634 1274q-138 0 -217.5 83.5t-66.5 225.5h119q-3 -82 19.5 -128.5t61.5 -65.5t84 -19q47 0 85.5 19.5t60.5 66t19 127.5h120q13 -141 -66 -225t-219 -84z" />
    <glyph glyph-name="ecaron" unicode="&#x11b;" 
d="M624 -15q-122 0 -229 65.5t-173.5 192.5t-66.5 310q0 174 61 299.5t170 193t252 67.5q197 0 309 -135.5t112 -371.5q0 -29 -2 -53l-3 -36h-778q4 -129 51 -222.5t124.5 -144t172.5 -50.5q135 0 207 56.5t83 153.5h127q-9 -97 -61.5 -170.5t-143 -114t-212.5 -40.5z
M276 563q8 39 32 50.5t60 11.5h568q0 187 -80.5 280t-224.5 93q-172 0 -261.5 -115t-93.5 -320zM549 1272l-206 309h141l151 -212l150 212h140l-205 -309h-171z" />
    <glyph glyph-name="ecircumflex" unicode="&#xea;" 
d="M624 -15q-122 0 -229 65.5t-173.5 192.5t-66.5 310q0 174 61 299.5t170 193t252 67.5q197 0 309 -135.5t112 -371.5q0 -29 -2 -53l-3 -36h-778q4 -129 51 -222.5t124.5 -144t172.5 -50.5q135 0 207 56.5t83 153.5h127q-9 -97 -61.5 -170.5t-143 -114t-212.5 -40.5z
M276 563q8 39 32 50.5t60 11.5h568q0 187 -80.5 280t-224.5 93q-172 0 -261.5 -115t-93.5 -320zM343 1282l206 309h171l205 -309h-140l-150 210l-151 -210h-141z" />
    <glyph glyph-name="edieresis" unicode="&#xeb;" 
d="M624 -15q-122 0 -229 65.5t-173.5 192.5t-66.5 310q0 174 61 299.5t170 193t252 67.5q197 0 309 -135.5t112 -371.5q0 -29 -2 -53l-3 -36h-778q4 -129 51 -222.5t124.5 -144t172.5 -50.5q135 0 207 56.5t83 153.5h127q-9 -97 -61.5 -170.5t-143 -114t-212.5 -40.5z
M276 563q8 39 32 50.5t60 11.5h568q0 187 -80.5 280t-224.5 93q-172 0 -261.5 -115t-93.5 -320zM434 1284q-46 0 -76 38t-30 85q0 55 30 88.5t76 33.5q42 0 74 -33.5t32 -88.5q0 -47 -32 -85t-74 -38zM833 1284q-45 0 -75.5 37.5t-30.5 85.5q0 56 30.5 89t75.5 33
q42 0 74.5 -33.5t32.5 -88.5q0 -48 -32.5 -85.5t-74.5 -37.5z" />
    <glyph glyph-name="edotaccent" unicode="&#x117;" 
d="M624 -15q-122 0 -229 65.5t-173.5 192.5t-66.5 310q0 174 61 299.5t170 193t252 67.5q197 0 309 -135.5t112 -371.5q0 -29 -2 -53l-3 -36h-778q4 -129 51 -222.5t124.5 -144t172.5 -50.5q135 0 207 56.5t83 153.5h127q-9 -97 -61.5 -170.5t-143 -114t-212.5 -40.5z
M276 563q8 39 32 50.5t60 11.5h568q0 187 -80.5 280t-224.5 93q-172 0 -261.5 -115t-93.5 -320zM634 1299q-49 0 -82.5 34.5t-33.5 88.5t33.5 88t82.5 34t82.5 -34t33.5 -88t-33.5 -88.5t-82.5 -34.5z" />
    <glyph glyph-name="egrave" unicode="&#xe8;" 
d="M624 -15q-122 0 -229 65.5t-173.5 192.5t-66.5 310q0 174 61 299.5t170 193t252 67.5q197 0 309 -135.5t112 -371.5q0 -29 -2 -53l-3 -36h-778q4 -129 51 -222.5t124.5 -144t172.5 -50.5q135 0 207 56.5t83 153.5h127q-9 -97 -61.5 -170.5t-143 -114t-212.5 -40.5z
M276 563q8 39 32 50.5t60 11.5h568q0 187 -80.5 280t-224.5 93q-172 0 -261.5 -115t-93.5 -320zM700 1284h-147l-227 309h164z" />
    <glyph glyph-name="emacron" unicode="&#x113;" 
d="M624 -15q-122 0 -229 65.5t-173.5 192.5t-66.5 310q0 174 61 299.5t170 193t252 67.5q197 0 309 -135.5t112 -371.5q0 -29 -2 -53l-3 -36h-778q4 -129 51 -222.5t124.5 -144t172.5 -50.5q135 0 207 56.5t83 153.5h127q-9 -97 -61.5 -170.5t-143 -114t-212.5 -40.5z
M276 563q8 39 32 50.5t60 11.5h568q0 187 -80.5 280t-224.5 93q-172 0 -261.5 -115t-93.5 -320zM378 1314v112h512l-3 -112h-509z" />
    <glyph glyph-name="eogonek" unicode="&#x119;" 
d="M702 -346q-76 0 -120 48t-44 109q0 62 32.5 105.5t78.5 70t86 38.5l67 10q-69 -44 -100.5 -79.5t-40.5 -64.5t-9 -56q0 -35 19 -54t55 -19q18 0 41 6.5t47 17.5l1 -110q-19 -9 -51.5 -15.5t-61.5 -6.5zM571 -15q-141 0 -249 65.5t-168.5 192.5t-60.5 310q0 174 62 299.5
t170.5 193t246.5 67.5q135 0 232.5 -65.5t150.5 -179.5t52 -262q0 -29 -2 -53l-3 -36l-118 108q0 172 -84.5 272.5t-234.5 100.5q-169 0 -259.5 -120t-91.5 -334q-1 -206 99 -325t267 -119q127 0 198 50t87 160h122q-4 -104 -59.5 -177t-147.5 -110.5t-209 -37.5zM179 517
l35 44q6 41 30.5 52.5t58.5 11.5h636l63 -108h-823z" />
    <glyph glyph-name="uni0259" unicode="&#x259;" 
d="M576 1106q122 0 229 -65.5t173.5 -192t66.5 -310.5q0 -174 -61 -299.5t-169.5 -193t-252.5 -67.5q-196 0 -308.5 135.5t-112.5 371.5q0 29 2 53l3 36h778q-4 130 -51 223t-124 143.5t-173 50.5q-135 0 -207 -56.5t-83 -153.5h-127q9 98 61.5 171t143 113.5t212.5 40.5z
M924 528q-7 -39 -31.5 -50.5t-60.5 -11.5h-568q0 -187 80.5 -280t224.5 -93q173 0 262 115t93 320z" />
    <glyph glyph-name="f" unicode="f" 
d="M460 0v858q0 47 17 77.5t48 40.5l-65 71v231q0 128 52 212.5t139 126t193 41.5q59 0 107.5 -4.5t85 -11t56.5 -13.5v-122q-18 7 -53.5 14t-81.5 12.5t-96 5.5q-73 0 -136.5 -24t-102.5 -87t-39 -180v-1248h-124zM222 0v108h730v-108h-730zM220 976v116h727v-116h-727z
" />
    <glyph glyph-name="g" unicode="g" 
d="M618 -451q-140 0 -257.5 38t-188 111.5t-70.5 180.5q0 57 20.5 111t76.5 92t163 46l26 -6q-42 -16 -79 -41t-59.5 -70t-22.5 -123q0 -57 37.5 -109.5t124 -85.5t232.5 -33q195 0 283.5 67.5t87.5 178.5q-1 65 -46 99t-185 51l-257 31q-137 17 -202.5 50t-85 72.5
t-19.5 73.5q0 38 16 66t45 46.5t68 26.5t85 6q-41 -14 -67.5 -43t-26.5 -75q0 -49 52.5 -74.5t173.5 -39.5l265 -31q124 -14 191 -53t93 -91.5t26 -109.5q0 -97 -42 -165.5t-113 -112t-160.5 -64t-184.5 -20.5zM601 384q-190 0 -296.5 98t-106.5 262q0 168 109 268t296 98
q126 -1 216 -45.5t137.5 -125t47.5 -190.5q0 -169 -106.5 -267t-296.5 -98zM604 496q137 0 211 65t74 188q0 118 -75.5 183.5t-215.5 65.5q-145 0 -215 -64t-70 -189q0 -118 76 -183.5t215 -65.5zM721 1071l-12 10q9 64 43.5 113.5t86.5 78t110 28.5q49 0 69 -2t32 -7v-125
q-28 4 -61.5 6.5t-59.5 2.5q-60 0 -93.5 -13t-57.5 -36.5t-57 -55.5z" />
    <glyph glyph-name="uni01F5" unicode="&#x1f5;" 
d="M618 -451q-140 0 -257.5 38t-188 111.5t-70.5 180.5q0 57 20.5 111t76.5 92t163 46l26 -6q-42 -16 -79 -41t-59.5 -70t-22.5 -123q0 -57 37.5 -109.5t124 -85.5t232.5 -33q195 0 283.5 67.5t87.5 178.5q-1 65 -46 99t-185 51l-257 31q-137 17 -202.5 50t-85 72.5
t-19.5 73.5q0 38 16 66t45 46.5t68 26.5t85 6q-41 -14 -67.5 -43t-26.5 -75q0 -49 52.5 -74.5t173.5 -39.5l265 -31q124 -14 191 -53t93 -91.5t26 -109.5q0 -97 -42 -165.5t-113 -112t-160.5 -64t-184.5 -20.5zM601 384q-190 0 -296.5 98t-106.5 262q0 168 109 268t296 98
q131 -1 222 -45.5t137.5 -125t41.5 -190.5q-7 -169 -110 -267t-293 -98zM604 496q137 0 211 65t74 188q0 118 -72 183.5t-219 65.5q-145 0 -215 -64t-70 -189q0 -118 76 -183.5t215 -65.5zM811 1041l-14 10q9 64 45 121t89 93t111 36q49 0 64.5 -2t27.5 -7v-125
q-28 4 -57 6.5t-55 2.5q-60 0 -94 -20.5t-59 -51.5t-58 -63zM527 1284l210 309h164l-227 -309h-147z" />
    <glyph glyph-name="gbreve" unicode="&#x11f;" 
d="M600 1274q-138 0 -217.5 83.5t-66.5 225.5h119q-3 -82 19.5 -128.5t61.5 -65.5t84 -19q47 0 85.5 19.5t60.5 66t19 127.5h120q13 -141 -66 -225t-219 -84zM618 -451q-140 0 -257.5 38t-188 111.5t-70.5 180.5q0 57 20.5 111t76.5 92t163 46l26 -6q-42 -16 -79 -41
t-59.5 -70t-22.5 -123q0 -57 37.5 -109.5t124 -85.5t232.5 -33q195 0 283.5 67.5t87.5 178.5q-1 65 -46 99t-185 51l-257 31q-137 17 -202.5 50t-85 72.5t-19.5 73.5q0 38 16 66t45 46.5t68 26.5t85 6q-41 -14 -67.5 -43t-26.5 -75q0 -49 52.5 -74.5t173.5 -39.5l265 -31
q124 -14 191 -53t93 -91.5t26 -109.5q0 -97 -42 -165.5t-113 -112t-160.5 -64t-184.5 -20.5zM601 384q-190 0 -296.5 98t-106.5 262q0 168 109 268t296 98q131 -1 222 -45.5t137.5 -125t41.5 -190.5q-7 -169 -110 -267t-293 -98zM604 496q137 0 211 65t74 188
q0 118 -72 183.5t-219 65.5q-145 0 -215 -64t-70 -189q0 -118 76 -183.5t215 -65.5zM811 1041l-14 10q9 64 45 121t89 93t111 36q49 0 64.5 -2t27.5 -7v-125q-28 4 -57 6.5t-55 2.5q-60 0 -94 -20.5t-59 -51.5t-58 -63z" />
    <glyph glyph-name="gcaron" unicode="&#x1e7;" 
d="M618 -451q-140 0 -257.5 38t-188 111.5t-70.5 180.5q0 57 20.5 111t76.5 92t163 46l26 -6q-42 -16 -79 -41t-59.5 -70t-22.5 -123q0 -57 37.5 -109.5t124 -85.5t232.5 -33q195 0 283.5 67.5t87.5 178.5q-1 65 -46 99t-185 51l-257 31q-137 17 -202.5 50t-85 72.5
t-19.5 73.5q0 38 16 66t45 46.5t68 26.5t85 6q-41 -14 -67.5 -43t-26.5 -75q0 -49 52.5 -74.5t173.5 -39.5l265 -31q124 -14 191 -53t93 -91.5t26 -109.5q0 -97 -42 -165.5t-113 -112t-160.5 -64t-184.5 -20.5zM601 384q-190 0 -296.5 98t-106.5 262q0 168 109 268t296 98
q131 -1 222 -45.5t137.5 -125t41.5 -190.5q-7 -169 -110 -267t-293 -98zM604 496q137 0 211 65t74 188q0 118 -72 183.5t-219 65.5q-145 0 -215 -64t-70 -189q0 -118 76 -183.5t215 -65.5zM811 1041l-14 10q9 64 45 121t89 93t111 36q49 0 64.5 -2t27.5 -7v-125
q-28 4 -57 6.5t-55 2.5q-60 0 -94 -20.5t-59 -51.5t-58 -63zM509 1272l-206 309h141l151 -212l150 212h140l-205 -309h-171z" />
    <glyph glyph-name="uni0123" unicode="&#x123;" 
d="M618 -451q-140 0 -257.5 38t-188 111.5t-70.5 180.5q0 57 20.5 111t76.5 92t163 46l26 -6q-42 -16 -79 -41t-59.5 -70t-22.5 -123q0 -57 37.5 -109.5t124 -85.5t232.5 -33q195 0 283.5 67.5t87.5 178.5q-1 65 -46 99t-185 51l-257 31q-137 17 -202.5 50t-85 72.5
t-19.5 73.5q0 38 16 66t45 46.5t68 26.5t85 6q-41 -14 -67.5 -43t-26.5 -75q0 -49 52.5 -74.5t173.5 -39.5l265 -31q124 -14 191 -53t93 -91.5t26 -109.5q0 -97 -42 -165.5t-113 -112t-160.5 -64t-184.5 -20.5zM601 384q-190 0 -296.5 98t-106.5 262q0 168 109 268t296 98
q131 -1 222 -45.5t137.5 -125t41.5 -190.5q-7 -169 -110 -267t-293 -98zM604 496q137 0 211 65t74 188q0 118 -72 183.5t-219 65.5q-145 0 -215 -64t-70 -189q0 -118 76 -183.5t215 -65.5zM811 1041l-14 10q9 64 45 121t89 93t111 36q49 0 64.5 -2t27.5 -7v-125
q-28 4 -57 6.5t-55 2.5q-60 0 -94 -20.5t-59 -51.5t-58 -63zM502 1272v38q0 46 7.5 100.5t21.5 103t32 75.5h123q-19 -55 -27 -132t-8 -140v-45h-149z" />
    <glyph glyph-name="gdotaccent" unicode="&#x121;" 
d="M618 -451q-140 0 -257.5 38t-188 111.5t-70.5 180.5q0 57 20.5 111t76.5 92t163 46l26 -6q-42 -16 -79 -41t-59.5 -70t-22.5 -123q0 -57 37.5 -109.5t124 -85.5t232.5 -33q195 0 283.5 67.5t87.5 178.5q-1 65 -46 99t-185 51l-257 31q-137 17 -202.5 50t-85 72.5
t-19.5 73.5q0 38 16 66t45 46.5t68 26.5t85 6q-41 -14 -67.5 -43t-26.5 -75q0 -49 52.5 -74.5t173.5 -39.5l265 -31q124 -14 191 -53t93 -91.5t26 -109.5q0 -97 -42 -165.5t-113 -112t-160.5 -64t-184.5 -20.5zM601 384q-190 0 -296.5 98t-106.5 262q0 168 109 268t296 98
q131 -1 222 -45.5t137.5 -125t41.5 -190.5q-7 -169 -110 -267t-293 -98zM604 496q137 0 211 65t74 188q0 118 -72 183.5t-219 65.5q-145 0 -215 -64t-70 -189q0 -118 76 -183.5t215 -65.5zM811 1041l-14 10q9 64 45 121t89 93t111 36q49 0 64.5 -2t27.5 -7v-125
q-28 4 -57 6.5t-55 2.5q-60 0 -94 -20.5t-59 -51.5t-58 -63zM594 1299q-49 0 -82.5 34.5t-33.5 88.5t33.5 88t82.5 34t82.5 -34t33.5 -88t-33.5 -88.5t-82.5 -34.5z" />
    <glyph glyph-name="h" unicode="h" 
d="M185 0v1556h120v-465l-16 -311l9 -87l-20 70q12 93 57.5 173t126.5 129t199 49q155 0 240.5 -85.5t85.5 -255.5v-773h-120v739q0 122 -46 189.5t-176 67.5q-112 0 -189 -56.5t-151 -194.5v-745h-120z" />
    <glyph glyph-name="hbar" unicode="&#x127;" 
d="M191 0v1555h120v-464l-16 -311l9 -87l-20 70q12 93 57 173t125.5 129t197.5 49q154 0 239 -88.5t85 -252.5v-773h-120v739q0 122 -44 189.5t-176 67.5q-111 0 -187.5 -56.5t-149.5 -194.5v-745h-120zM61 1288v111h585v-111h-585z" />
    <glyph glyph-name="i" unicode="i" 
d="M590 20v835q0 58 17 87.5t48 34.5l-65 14v83l120 17v-1071h-120zM212 0v108h847v-108h-847zM215 977v114h495v-114h-495zM650 1299q-49 0 -82.5 34.5t-33.5 88.5t33.5 88t82.5 34t82.5 -34t33.5 -88t-33.5 -88.5t-82.5 -34.5z" />
    <glyph glyph-name="dotlessi" unicode="&#x131;" 
d="M590 20v835q0 58 17 87.5t48 34.5l-65 14v83l120 17v-1071h-120zM212 0v108h847v-108h-847zM215 977v114h495v-114h-495z" />
    <glyph glyph-name="iacute" unicode="&#xed;" 
d="M590 20v835q0 58 17 87.5t48 34.5l-65 14v83l120 17v-1071h-120zM212 0v108h847v-108h-847zM215 977v114h495v-114h-495zM588 1284l210 309h164l-227 -309h-147z" />
    <glyph glyph-name="ibreve" unicode="&#x12d;" 
d="M590 20v835q0 58 17 87.5t48 34.5l-65 14v83l120 17v-1071h-120zM212 0v108h847v-108h-847zM215 977v114h495v-114h-495zM655 1274q-138 0 -217.5 83.5t-66.5 225.5h119q-3 -82 19.5 -128.5t61.5 -65.5t84 -19q47 0 85.5 19.5t60.5 66t19 127.5h120q13 -141 -66 -225
t-219 -84z" />
    <glyph glyph-name="icircumflex" unicode="&#xee;" 
d="M590 20v835q0 58 17 87.5t48 34.5l-65 14v83l120 17v-1071h-120zM212 0v108h847v-108h-847zM215 977v114h495v-114h-495zM364 1282l206 309h171l205 -309h-140l-150 210l-151 -210h-141z" />
    <glyph glyph-name="idieresis" unicode="&#xef;" 
d="M590 20v835q0 58 17 87.5t48 34.5l-65 14v83l120 17v-1071h-120zM212 0v108h847v-108h-847zM215 977v114h495v-114h-495zM455 1284q-46 0 -76 38t-30 85q0 55 30 88.5t76 33.5q42 0 74 -33.5t32 -88.5q0 -47 -32 -85t-74 -38zM854 1284q-45 0 -75.5 37.5t-30.5 85.5
q0 56 30.5 89t75.5 33q42 0 74.5 -33.5t32.5 -88.5q0 -48 -32.5 -85.5t-74.5 -37.5z" />
    <glyph glyph-name="i.loclTRK" 
d="M590 20v835q0 58 17 87.5t48 34.5l-65 14v83l120 17v-1071h-120zM212 0v108h847v-108h-847zM215 977v114h495v-114h-495zM655 1299q-49 0 -82.5 34.5t-33.5 88.5t33.5 88t82.5 34t82.5 -34t33.5 -88t-33.5 -88.5t-82.5 -34.5z" />
    <glyph glyph-name="uni1ECB" unicode="&#x1ecb;" 
d="M590 20v835q0 58 17 87.5t48 34.5l-65 14v83l120 17v-1071h-120zM212 0v108h847v-108h-847zM215 977v114h495v-114h-495zM650 1299q-49 0 -82.5 34.5t-33.5 88.5t33.5 88t82.5 34t82.5 -34t33.5 -88t-33.5 -88.5t-82.5 -34.5zM644 -417q-49 0 -82.5 34.5t-33.5 88.5
t33.5 88t82.5 34t82.5 -34t33.5 -88t-33.5 -88.5t-82.5 -34.5z" />
    <glyph glyph-name="igrave" unicode="&#xec;" 
d="M590 20v835q0 58 17 87.5t48 34.5l-65 14v83l120 17v-1071h-120zM212 0v108h847v-108h-847zM215 977v114h495v-114h-495zM721 1284h-147l-227 309h164z" />
    <glyph glyph-name="ij" unicode="&#x133;" 
d="M385 0v1074l124 17v-1091h-124zM35 1091h474v-114h-474v114zM47 98h798v-98h-798v98zM924 -462q-60 0 -100.5 9t-87.5 20v128q29 -7 68.5 -18.5t101.5 -11.5q51 0 73.5 23t22.5 93v1277l122 33v-1145q0 -25 1 -51.5t1 -66.5q0 -88 -16 -153t-59.5 -101t-126.5 -36z
M670 1091h454v-114h-454v114zM446 1341q-46 0 -78 35t-32 88q0 59 35 90.5t81 31.5q45 0 76.5 -31.5t31.5 -90.5q0 -53 -34 -88t-80 -35zM1062 1341q-46 0 -78 35t-32 88q0 59 35 90.5t81 31.5q45 0 76.5 -31.5t31.5 -90.5q0 -53 -34 -88t-80 -35z" />
    <glyph glyph-name="imacron" unicode="&#x12b;" 
d="M590 20v835q0 58 17 87.5t48 34.5l-65 14v83l120 17v-1071h-120zM212 0v108h847v-108h-847zM215 977v114h495v-114h-495zM399 1314v112h512l-3 -112h-509z" />
    <glyph glyph-name="iogonek" unicode="&#x12f;" 
d="M590 20v835q0 58 17 87.5t48 34.5l-65 14v83l120 17v-1071h-120zM212 0v108h847v-108h-847zM215 977v114h495v-114h-495zM655 1299q-49 0 -82.5 34.5t-33.5 88.5t33.5 88t82.5 34t82.5 -34t33.5 -88t-33.5 -88.5t-82.5 -34.5zM948 -380q-86 0 -135.5 45.5t-49.5 117.5
q0 82 52.5 141t169.5 86h95q-97 -52 -139.5 -97t-42.5 -99q0 -40 22.5 -58.5t62.5 -18.5q41 0 98 22l1 -116q-25 -10 -56.5 -16.5t-77.5 -6.5z" />
    <glyph glyph-name="itilde" unicode="&#x129;" 
d="M590 20v835q0 58 17 87.5t48 34.5l-65 14v83l120 17v-1071h-120zM212 0v108h847v-108h-847zM215 977v114h495v-114h-495zM801 1293q-70 0 -110 31t-66.5 72t-52.5 72t-67 31q-52 0 -73.5 -46.5t-9.5 -159.5h-111q-24 155 32 227t158 72q70 0 110 -31t66.5 -72t52.5 -72
t67 -31q52 0 73 46.5t9 159.5h113q24 -155 -32 -227t-159 -72z" />
    <glyph glyph-name="j" unicode="j" 
d="M512 -462q-58 0 -143 12t-154 38v128q71 -29 148 -40t154 -11q66 0 115.5 21t77.5 72.5t28 142.5v959q0 45 16 75.5t53 39.5l-69 54v62h121v-1211q0 -109 -35.5 -185.5t-112 -116.5t-199.5 -40zM348 975v116h511l-38 -116h-473zM796 1299q-49 0 -82.5 34.5t-33.5 88.5
t33.5 88t82.5 34t82.5 -34t33.5 -88t-33.5 -88.5t-82.5 -34.5z" />
    <glyph glyph-name="uni0237" unicode="&#x237;" 
d="M512 -462q-58 0 -143 12t-154 38v128q71 -29 148 -40t154 -11q66 0 115.5 21t77.5 72.5t28 142.5v959q0 45 16 75.5t53 39.5l-69 54v62h121v-1211q0 -109 -35.5 -185.5t-112 -116.5t-199.5 -40zM358 975v116h501l-38 -116h-463z" />
    <glyph glyph-name="uni006A0301" 
d="M512 -462q-58 0 -143 12t-154 38v128q71 -29 148 -40t154 -11q66 0 115.5 21t77.5 72.5t28 142.5v959q0 45 16 75.5t53 39.5l-69 54v62h121v-1211q0 -109 -35.5 -185.5t-112 -116.5t-199.5 -40zM358 975v116h501l-38 -116h-463zM733 1284l210 309h164l-227 -309h-147z
" />
    <glyph glyph-name="k" unicode="k" 
d="M961 0l-590 595l119 22l133 -109l503 -508h-165zM260 0v1556h121v-812l-5 -146v-8l5 -152v-438h-121zM491 566l-120 29l292 277l230 219h179l-421 -387z" />
    <glyph glyph-name="uni0137" unicode="&#x137;" 
d="M961 0l-590 595l119 22l133 -109l503 -508h-165zM260 0v1556h121v-812l-5 -146v-8l5 -152v-438h-121zM491 566l-120 29l292 277l230 219h179l-421 -387zM521 -512q11 44 18.5 106t12 123.5t4.5 103.5v45h135v-49q0 -52 -8 -115.5t-19.5 -120.5t-23.5 -93h-119z" />
    <glyph glyph-name="l" unicode="l" 
d="M749 -12q-129 0 -192 41t-83 115t-20 173v1004q0 57 20 87t54 36h-425v112h478v-1250q0 -115 36.5 -159t145.5 -44q98 0 167.5 18t142.5 49v-121q-51 -25 -132 -43t-192 -18z" />
    <glyph glyph-name="lacute" unicode="&#x13a;" 
d="M707 1673h-146l211 319h173zM749 -12q-129 0 -192 41t-83 115t-20 173v1004q0 57 20 87t54 36h-425v112h478v-1250q0 -115 36.5 -159t145.5 -44q98 0 167.5 18t142.5 49v-121q-51 -25 -132 -43t-192 -18z" />
    <glyph glyph-name="lcaron" unicode="&#x13e;" 
d="M896 1185l23 380h127l-40 -380h-110zM749 -12q-129 0 -192 41t-83 115t-20 173v1004q0 57 20 87t54 36h-425v112h478v-1250q0 -115 36.5 -159t145.5 -44q98 0 167.5 18t142.5 49v-121q-51 -25 -132 -43t-192 -18z" />
    <glyph glyph-name="uni013C" unicode="&#x13c;" 
d="M749 -12q-129 0 -192 41t-83 115t-20 173v1004q0 57 20 87t54 36h-425v112h478v-1250q0 -115 36.5 -159t145.5 -44q98 0 167.5 18t142.5 49v-121q-51 -25 -132 -43t-192 -18zM626 -512q11 44 18.5 106t12 123.5t4.5 103.5v45h135v-49q0 -52 -8 -115.5t-19.5 -120.5
t-23.5 -93h-119z" />
    <glyph glyph-name="ldot" unicode="&#x140;" 
d="M1027 612q-59 0 -95 38.5t-36 106.5t36 106t95 38q58 0 93.5 -38t35.5 -106t-35.5 -106.5t-93.5 -38.5zM749 -12q-129 0 -192 41t-83 115t-20 173v1004q0 57 20 87t54 36h-425v112h478v-1250q0 -115 36.5 -159t145.5 -44q98 0 167.5 18t142.5 49v-121q-51 -25 -132 -43
t-192 -18z" />
    <glyph glyph-name="lslash" unicode="&#x142;" 
d="M285 579v144l476 368l-4 -144zM749 -12q-129 0 -192 41t-83 115t-20 173v1004q0 57 20 87t54 36h-425v112h478v-1250q0 -115 36.5 -159t145.5 -44q98 0 167.5 18t142.5 49v-121q-51 -25 -132 -43t-192 -18z" />
    <glyph glyph-name="m" unicode="m" 
d="M94 0l10 1092h104l13 -362l-15 23q14 171 82 266t184 95q63 0 103 -23.5t62.5 -84.5t30.5 -172l3 -23v-811h-117v737q0 137 -32.5 198t-95.5 61q-52 0 -104.5 -45t-95.5 -158l-10 -793h-122zM999 0v758q0 122 -28 180t-89 58q-71 0 -121 -55.5t-90 -149.5l-5 -33l-13 13
q30 179 95 261t168 82q104 0 154.5 -83.5t50.5 -237.5v-793h-122z" />
    <glyph glyph-name="n" unicode="n" 
d="M207 0v1092h113l6 -371l-20 40q20 161 122.5 257t251.5 96t233 -96.5t84 -264.5v-753h-123v719q0 137 -54.5 207t-161.5 70q-103 0 -186 -63.5t-142 -188.5v-744h-123z" />
    <glyph glyph-name="nacute" unicode="&#x144;" 
d="M207 0v1092h113l6 -371l-20 40q20 161 122.5 257t251.5 96t233 -96.5t84 -264.5v-753h-123v719q0 137 -54.5 207t-161.5 70q-103 0 -186 -63.5t-142 -188.5v-744h-123zM541 1284l210 309h164l-227 -309h-147z" />
    <glyph glyph-name="ncaron" unicode="&#x148;" 
d="M207 0v1092h113l6 -371l-20 40q20 161 122.5 257t251.5 96t233 -96.5t84 -264.5v-753h-123v719q0 137 -54.5 207t-161.5 70q-103 0 -186 -63.5t-142 -188.5v-744h-123zM523 1272l-206 309h141l151 -212l150 212h140l-205 -309h-171z" />
    <glyph glyph-name="uni0146" unicode="&#x146;" 
d="M207 0v1092h113l6 -371l-20 40q20 161 122.5 257t251.5 96t233 -96.5t84 -264.5v-753h-123v719q0 137 -54.5 207t-161.5 70q-103 0 -186 -63.5t-142 -188.5v-744h-123zM497 -512q11 44 18.5 106t12 123.5t4.5 103.5v45h135v-49q0 -52 -8 -115.5t-19.5 -120.5t-23.5 -93
h-119z" />
    <glyph glyph-name="eng" unicode="&#x14b;" 
d="M815 -462q-37 0 -71 9t-66 20v128q15 -7 46.5 -18.5t71.5 -11.5q36 0 55.5 23.5t19.5 92.5v958q0 93 -23 149.5t-72.5 82t-131.5 25.5q-111 0 -189.5 -57.5t-151.5 -194.5v-744h-120v1092h101l7 -259q25 88 77.5 151t129.5 96.5t173 33.5q148 0 234 -91.5t86 -249.5v-827
q0 -25 1 -51.5t1 -66.5q0 -88 -15 -153t-53.5 -101t-109.5 -36z" />
    <glyph glyph-name="ntilde" unicode="&#xf1;" 
d="M207 0v1092h113l6 -371l-20 40q20 161 122.5 257t251.5 96t233 -96.5t84 -264.5v-753h-123v719q0 137 -54.5 207t-161.5 70q-103 0 -186 -63.5t-142 -188.5v-744h-123zM754 1293q-70 0 -110 31t-66.5 72t-52.5 72t-67 31q-52 0 -73.5 -46.5t-9.5 -159.5h-111
q-24 155 32 227t158 72q70 0 110 -31t66.5 -72t52.5 -72t67 -31q52 0 73 46.5t9 159.5h113q24 -155 -32 -227t-159 -72z" />
    <glyph glyph-name="o" unicode="o" 
d="M600 -15q-131 0 -237 66.5t-168.5 193t-62.5 306.5q0 177 62.5 302.5t168.5 192t237 66.5t237 -66.5t168.5 -192t62.5 -302.5q0 -183 -62.5 -309.5t-168.5 -191.5t-237 -65zM600 101q152 0 246 118t94 332t-94.5 329.5t-245.5 115.5t-245.5 -117.5t-94.5 -327.5
q0 -213 94.5 -331.5t245.5 -118.5z" />
    <glyph glyph-name="oacute" unicode="&#xf3;" 
d="M600 -15q-131 0 -237 66.5t-168.5 193t-62.5 306.5q0 177 62.5 302.5t168.5 192t237 66.5t237 -66.5t168.5 -192t62.5 -302.5q0 -183 -62.5 -309.5t-168.5 -191.5t-237 -65zM600 101q152 0 246 118t94 332t-94.5 329.5t-245.5 115.5t-245.5 -117.5t-94.5 -327.5
q0 -213 94.5 -331.5t245.5 -118.5zM533 1284l210 309h164l-227 -309h-147z" />
    <glyph glyph-name="obreve" unicode="&#x14f;" 
d="M600 -15q-131 0 -237 66.5t-168.5 193t-62.5 306.5q0 177 62.5 302.5t168.5 192t237 66.5t237 -66.5t168.5 -192t62.5 -302.5q0 -183 -62.5 -309.5t-168.5 -191.5t-237 -65zM600 101q152 0 246 118t94 332t-94.5 329.5t-245.5 115.5t-245.5 -117.5t-94.5 -327.5
q0 -213 94.5 -331.5t245.5 -118.5zM600 1274q-138 0 -217.5 83.5t-66.5 225.5h119q-3 -82 19.5 -128.5t61.5 -65.5t84 -19q47 0 85.5 19.5t60.5 66t19 127.5h120q13 -141 -66 -225t-219 -84z" />
    <glyph glyph-name="ocircumflex" unicode="&#xf4;" 
d="M600 -15q-131 0 -237 66.5t-168.5 193t-62.5 306.5q0 177 62.5 302.5t168.5 192t237 66.5t237 -66.5t168.5 -192t62.5 -302.5q0 -183 -62.5 -309.5t-168.5 -191.5t-237 -65zM600 101q152 0 246 118t94 332t-94.5 329.5t-245.5 115.5t-245.5 -117.5t-94.5 -327.5
q0 -213 94.5 -331.5t245.5 -118.5zM309 1282l206 309h171l205 -309h-140l-150 210l-151 -210h-141z" />
    <glyph glyph-name="odieresis" unicode="&#xf6;" 
d="M600 -15q-131 0 -237 66.5t-168.5 193t-62.5 306.5q0 177 62.5 302.5t168.5 192t237 66.5t237 -66.5t168.5 -192t62.5 -302.5q0 -183 -62.5 -309.5t-168.5 -191.5t-237 -65zM600 101q152 0 246 118t94 332t-94.5 329.5t-245.5 115.5t-245.5 -117.5t-94.5 -327.5
q0 -213 94.5 -331.5t245.5 -118.5zM400 1284q-46 0 -76 38t-30 85q0 55 30 88.5t76 33.5q42 0 74 -33.5t32 -88.5q0 -47 -32 -85t-74 -38zM799 1284q-45 0 -75.5 37.5t-30.5 85.5q0 56 30.5 89t75.5 33q42 0 74.5 -33.5t32.5 -88.5q0 -48 -32.5 -85.5t-74.5 -37.5z" />
    <glyph glyph-name="uni1ECD" unicode="&#x1ecd;" 
d="M600 -15q-131 0 -237 66.5t-168.5 193t-62.5 306.5q0 177 62.5 302.5t168.5 192t237 66.5t237 -66.5t168.5 -192t62.5 -302.5q0 -183 -62.5 -309.5t-168.5 -191.5t-237 -65zM600 101q152 0 246 118t94 332t-94.5 329.5t-245.5 115.5t-245.5 -117.5t-94.5 -327.5
q0 -213 94.5 -331.5t245.5 -118.5zM599 -417q-49 0 -82.5 34.5t-33.5 88.5t33.5 88t82.5 34t82.5 -34t33.5 -88t-33.5 -88.5t-82.5 -34.5z" />
    <glyph glyph-name="ograve" unicode="&#xf2;" 
d="M600 -15q-131 0 -237 66.5t-168.5 193t-62.5 306.5q0 177 62.5 302.5t168.5 192t237 66.5t237 -66.5t168.5 -192t62.5 -302.5q0 -183 -62.5 -309.5t-168.5 -191.5t-237 -65zM600 101q152 0 246 118t94 332t-94.5 329.5t-245.5 115.5t-245.5 -117.5t-94.5 -327.5
q0 -213 94.5 -331.5t245.5 -118.5zM666 1284h-147l-227 309h164z" />
    <glyph glyph-name="ohungarumlaut" unicode="&#x151;" 
d="M600 -15q-131 0 -237 66.5t-168.5 193t-62.5 306.5q0 177 62.5 302.5t168.5 192t237 66.5t237 -66.5t168.5 -192t62.5 -302.5q0 -183 -62.5 -309.5t-168.5 -191.5t-237 -65zM600 101q152 0 246 118t94 332t-94.5 329.5t-245.5 115.5t-245.5 -117.5t-94.5 -327.5
q0 -213 94.5 -331.5t245.5 -118.5zM702 1284l192 307h156l-219 -307h-129zM376 1284l161 307h157l-189 -307h-129z" />
    <glyph glyph-name="omacron" unicode="&#x14d;" 
d="M600 -15q-131 0 -237 66.5t-168.5 193t-62.5 306.5q0 177 62.5 302.5t168.5 192t237 66.5t237 -66.5t168.5 -192t62.5 -302.5q0 -183 -62.5 -309.5t-168.5 -191.5t-237 -65zM600 101q152 0 246 118t94 332t-94.5 329.5t-245.5 115.5t-245.5 -117.5t-94.5 -327.5
q0 -213 94.5 -331.5t245.5 -118.5zM344 1314v112h512l-3 -112h-509z" />
    <glyph glyph-name="oslash" unicode="&#xf8;" 
d="M600 -15q-131 0 -237 66.5t-168.5 193t-62.5 306.5q0 177 62.5 302.5t168.5 192t237 66.5t237 -66.5t168.5 -192t62.5 -302.5q0 -183 -62.5 -309.5t-168.5 -191.5t-237 -65zM600 101q152 0 246 118t94 332t-94.5 329.5t-245.5 115.5t-245.5 -117.5t-94.5 -327.5
q0 -213 94.5 -331.5t245.5 -118.5zM161 -44l144 228l32 34l431 713l7 35l104 168h122l-123 -197l-36 -38l-439 -730l-5 -31l-115 -182h-122z" />
    <glyph glyph-name="oslashacute" unicode="&#x1ff;" 
d="M600 -15q-131 0 -237 66.5t-168.5 193t-62.5 306.5q0 177 62.5 302.5t168.5 192t237 66.5t237 -66.5t168.5 -192t62.5 -302.5q0 -183 -62.5 -309.5t-168.5 -191.5t-237 -65zM600 101q152 0 246 118t94 332t-94.5 329.5t-245.5 115.5t-245.5 -117.5t-94.5 -327.5
q0 -213 94.5 -331.5t245.5 -118.5zM161 -44l144 228l32 34l431 713l7 35l104 168h122l-123 -197l-36 -38l-439 -730l-5 -31l-115 -182h-122zM533 1284l210 309h164l-227 -309h-147z" />
    <glyph glyph-name="otilde" unicode="&#xf5;" 
d="M600 -15q-131 0 -237 66.5t-168.5 193t-62.5 306.5q0 177 62.5 302.5t168.5 192t237 66.5t237 -66.5t168.5 -192t62.5 -302.5q0 -183 -62.5 -309.5t-168.5 -191.5t-237 -65zM600 101q152 0 246 118t94 332t-94.5 329.5t-245.5 115.5t-245.5 -117.5t-94.5 -327.5
q0 -213 94.5 -331.5t245.5 -118.5zM746 1293q-70 0 -110 31t-66.5 72t-52.5 72t-67 31q-52 0 -73.5 -46.5t-9.5 -159.5h-111q-24 155 32 227t158 72q70 0 110 -31t66.5 -72t52.5 -72t67 -31q52 0 73 46.5t9 159.5h113q24 -155 -32 -227t-159 -72z" />
    <glyph glyph-name="oe" unicode="&#x153;" 
d="M306 -15q-152 0 -250.5 145.5t-98.5 421.5q0 174 47.5 299.5t128 193t179.5 67.5q110 0 186.5 -78.5t114.5 -221.5q42 143 122 222t184 79q96 0 171 -65.5t118 -180t43 -261.5q0 -29 -1.5 -53t-2.5 -36h-577q5 -189 71.5 -303t177.5 -114q83 0 133.5 47.5t63.5 162.5h116
q-7 -157 -94.5 -241t-218.5 -84q-111 0 -190.5 77t-118.5 225q-43 -148 -122 -225t-182 -77zM313 101q110 0 173 119t63 332q0 212 -62.5 328t-175.5 116q-108 0 -170.5 -118t-62.5 -326q0 -213 63 -332t172 -119zM671 563q5 39 24.5 50.5t45.5 11.5h391q0 171 -60.5 272
t-156.5 101q-110 0 -174.5 -115t-69.5 -320z" />
    <glyph glyph-name="p" unicode="p" 
d="M189 -403v1494h120v-147v-699l-10 -54l11 -191l1 -403h-122zM670 1112q120 0 208.5 -62.5t136.5 -182.5t48 -292q0 -178 -65 -310t-171.5 -204.5t-233.5 -72.5q-56 0 -121.5 25.5t-115.5 72.5t-60 110l-34 25l47 22q21 -48 64 -79t98.5 -45.5t113.5 -14.5q95 0 174.5 56
t127 162t47.5 256q0 199 -72.5 308.5t-212.5 109.5q-76 0 -144.5 -24.5t-119.5 -74.5t-76 -127l-10 34l10 45q16 85 69.5 143.5t130.5 89t161 30.5z" />
    <glyph glyph-name="thorn" unicode="&#xfe;" 
d="M594 -11q-57 0 -122.5 25t-114.5 71t-59 109l-34 35l45 12q32 -70 110.5 -103.5t166.5 -33.5q94 0 173 56t127 161.5t48 254.5q0 199 -72 310t-212 111q-75 0 -144 -24.5t-120.5 -75t-76.5 -128.5v78q16 86 70 145.5t130.5 90t158.5 30.5q121 0 209.5 -63t137 -183.5
t48.5 -293.5q0 -178 -64.5 -309t-171.5 -203t-233 -72zM189 -403v1959h120v-612v-703l-11 -47l12 -194l1 -403h-122z" />
    <glyph glyph-name="q" unicode="q" 
d="M901 -403l-2 1313l5 181h117v-1494h-120zM583 -12q-122 0 -219 64.5t-153 188t-56 300.5q0 179 59 306.5t163.5 196t240.5 68.5q67 0 130.5 -28t108.5 -77t55 -113l34 -35l-47 -22q-21 49 -60.5 84.5t-91.5 55t-111 19.5q-157 0 -256 -116.5t-99 -341.5q0 -206 90 -320
t233 -114q107 0 182.5 53t112.5 153l10 -34l-10 -45q-15 -75 -60 -129.5t-110.5 -84t-145.5 -29.5z" />
    <glyph glyph-name="r" unicode="r" 
d="M109 0v108h731v-108h-731zM90 976v116h305l20 -116h-325zM344 20v833q0 63 16 89t49 34l-65 18v98h113l4 -292q29 89 84 160t127 112.5t150 41.5q141 0 223.5 -101t79.5 -300h-122q-1 156 -56.5 220t-145.5 64q-100 0 -189.5 -82.5t-144.5 -210.5v-522q0 -25 -12.5 -45.5
t-47.5 -28.5l60 -25v-63h-123z" />
    <glyph glyph-name="racute" unicode="&#x155;" 
d="M109 0v108h731v-108h-731zM90 976v116h305l20 -116h-325zM344 20v833q0 63 16 89t49 34l-65 18v98h113l4 -292q29 89 84 160t127 112.5t150 41.5q141 0 223.5 -101t79.5 -300h-122q-1 156 -56.5 220t-145.5 64q-100 0 -189.5 -82.5t-144.5 -210.5v-522q0 -25 -12.5 -45.5
t-47.5 -28.5l60 -25v-63h-123zM524 1284l210 309h164l-227 -309h-147z" />
    <glyph glyph-name="rcaron" unicode="&#x159;" 
d="M109 0v108h731v-108h-731zM90 976v116h305l20 -116h-325zM344 20v833q0 63 16 89t49 34l-65 18v98h113l4 -292q29 89 84 160t127 112.5t150 41.5q141 0 223.5 -101t79.5 -300h-122q-1 156 -56.5 220t-145.5 64q-100 0 -189.5 -82.5t-144.5 -210.5v-522q0 -25 -12.5 -45.5
t-47.5 -28.5l60 -25v-63h-123zM506 1272l-206 309h141l151 -212l150 212h140l-205 -309h-171z" />
    <glyph glyph-name="uni0157" unicode="&#x157;" 
d="M109 0v108h731v-108h-731zM90 976v116h305l20 -116h-325zM344 20v833q0 63 16 89t49 34l-65 18v98h113l4 -292q29 89 84 160t127 112.5t150 41.5q141 0 223.5 -101t79.5 -300h-122q-1 156 -56.5 220t-145.5 64q-100 0 -189.5 -82.5t-144.5 -210.5v-522q0 -25 -12.5 -45.5
t-47.5 -28.5l60 -25v-63h-123zM318 -512q11 44 18.5 106t12 123.5t4.5 103.5v45h135v-49q0 -52 -8 -115.5t-19.5 -120.5t-23.5 -93h-119z" />
    <glyph glyph-name="s" unicode="s" 
d="M600 -16q-70 0 -144 18.5t-136.5 57t-101.5 100.5t-39 149h124q11 -109 97 -163.5t201 -55.5q129 -1 208 37t80 154q1 69 -38 106.5t-105 60t-146 45.5q-66 20 -132.5 43t-121.5 58t-88 90t-33 138q0 80 43 145.5t127.5 104.5t206.5 39q103 0 187 -33t136 -102.5
t58 -181.5h-130q0 48 -21.5 96.5t-76 81.5t-154.5 33q-66 0 -122 -15.5t-90.5 -54.5t-34.5 -112q0 -74 38 -114t95.5 -60.5t113.5 -35.5q85 -23 160.5 -48t133.5 -61t90.5 -89.5t32.5 -132.5q-1 -127 -102.5 -213t-315.5 -85z" />
    <glyph glyph-name="sacute" unicode="&#x15b;" 
d="M600 -16q-70 0 -144 18.5t-136.5 57t-101.5 100.5t-39 149h124q11 -109 97 -163.5t201 -55.5q129 -1 208 37t80 154q1 69 -38 106.5t-105 60t-146 45.5q-66 20 -132.5 43t-121.5 58t-88 90t-33 138q0 80 43 145.5t127.5 104.5t206.5 39q103 0 187 -33t136 -102.5
t58 -181.5h-130q0 48 -21.5 96.5t-76 81.5t-154.5 33q-66 0 -122 -15.5t-90.5 -54.5t-34.5 -112q0 -74 38 -114t95.5 -60.5t113.5 -35.5q85 -23 160.5 -48t133.5 -61t90.5 -89.5t32.5 -132.5q-1 -127 -102.5 -213t-315.5 -85zM553 1284l210 309h164l-227 -309h-147z" />
    <glyph glyph-name="scaron" unicode="&#x161;" 
d="M600 -16q-70 0 -144 18.5t-136.5 57t-101.5 100.5t-39 149h124q11 -109 97 -163.5t201 -55.5q129 -1 208 37t80 154q1 69 -38 106.5t-105 60t-146 45.5q-66 20 -132.5 43t-121.5 58t-88 90t-33 138q0 80 43 145.5t127.5 104.5t206.5 39q103 0 187 -33t136 -102.5
t58 -181.5h-130q0 48 -21.5 96.5t-76 81.5t-154.5 33q-66 0 -122 -15.5t-90.5 -54.5t-34.5 -112q0 -74 38 -114t95.5 -60.5t113.5 -35.5q85 -23 160.5 -48t133.5 -61t90.5 -89.5t32.5 -132.5q-1 -127 -102.5 -213t-315.5 -85zM535 1272l-206 309h141l151 -212l150 212h140
l-205 -309h-171z" />
    <glyph glyph-name="scedilla" unicode="&#x15f;" 
d="M600 -16q-70 0 -144 18.5t-136.5 57t-101.5 100.5t-39 149h124q11 -109 97 -163.5t201 -55.5q129 -1 208 37t80 154q1 69 -38 106.5t-105 60t-146 45.5q-66 20 -132.5 43t-121.5 58t-88 90t-33 138q0 80 43 145.5t127.5 104.5t206.5 39q103 0 187 -33t136 -102.5
t58 -181.5h-130q0 48 -21.5 96.5t-76 81.5t-154.5 33q-66 0 -122 -15.5t-90.5 -54.5t-34.5 -112q0 -74 38 -114t95.5 -60.5t113.5 -35.5q85 -23 160.5 -48t133.5 -61t90.5 -89.5t32.5 -132.5q-1 -127 -102.5 -213t-315.5 -85zM589 -407q-61 0 -98 8t-62 21l1 115
q26 -11 57.5 -19.5t80.5 -8.5q57 0 74.5 26.5t17.5 63.5q0 52 -28.5 100.5t-102.5 100.5h107q51 -22 84.5 -59t50.5 -80t17 -83q0 -85 -49 -135t-150 -50z" />
    <glyph glyph-name="uni0219" unicode="&#x219;" 
d="M600 -16q-70 0 -144 18.5t-136.5 57t-101.5 100.5t-39 149h124q11 -109 97 -163.5t201 -55.5q129 -1 208 37t80 154q1 69 -38 106.5t-105 60t-146 45.5q-66 20 -132.5 43t-121.5 58t-88 90t-33 138q0 80 43 145.5t127.5 104.5t206.5 39q103 0 187 -33t136 -102.5
t58 -181.5h-130q0 48 -21.5 96.5t-76 81.5t-154.5 33q-66 0 -122 -15.5t-90.5 -54.5t-34.5 -112q0 -74 38 -114t95.5 -60.5t113.5 -35.5q85 -23 160.5 -48t133.5 -61t90.5 -89.5t32.5 -132.5q-1 -127 -102.5 -213t-315.5 -85zM478 -512q11 44 18.5 106t12 123.5t4.5 103.5
v45h135v-49q0 -52 -8 -115.5t-19.5 -120.5t-23.5 -93h-119z" />
    <glyph glyph-name="germandbls" unicode="&#xdf;" 
d="M175 0v1135q0 166 62.5 264.5t161 142.5t207.5 44q135 0 220 -53.5t123 -136t32 -171.5q-5 -73 -40 -138.5t-103 -117.5t-173 -87q116 -15 193.5 -57t122.5 -102.5t64.5 -132t19.5 -145.5q0 -136 -56.5 -239t-163.5 -159.5t-261 -55.5q-39 0 -73.5 1t-70.5 4v115
q28 -4 55 -6t53 -2q197 0 294 86t97 261q0 199 -114 279.5t-301 75.5h-37v116h37q140 0 233.5 84.5t98.5 221.5q4 101 -51.5 172.5t-197.5 71.5q-79 0 -150 -30t-116 -102.5t-45 -200.5v-1138h-121z" />
    <glyph glyph-name="t" unicode="t" 
d="M725 -12q-139 0 -207.5 41t-90.5 115t-22 173v552q0 36 8 57.5t23.5 33t36.5 16.5l-69 72v43l33 383h94v-1168q0 -113 44.5 -158t159.5 -45q93 0 153.5 10t104 25.5t83.5 31.5v-121q-44 -20 -127.5 -40.5t-223.5 -20.5zM117 976v116h846v-116h-846z" />
    <glyph glyph-name="tbar" unicode="&#x167;" 
d="M117 583v116h846v-116h-846zM745 -12q-149 0 -221.5 41t-94.5 115t-22 173v552q0 36 7.5 57.5t22.5 33t36 16.5l-66 72v43l37 383h87v-1168q0 -113 47 -158t177 -45q94 0 167.5 18t153.5 49v-121q-63 -28 -149.5 -44.5t-181.5 -16.5zM117 976v116h846v-116h-846z" />
    <glyph glyph-name="tcaron" unicode="&#x165;" 
d="M725 -12q-139 0 -207.5 41t-90.5 115t-22 173v552q0 36 8 57.5t23.5 33t36.5 16.5l-69 72v43l33 383h94v-1168q0 -113 44.5 -158t159.5 -45q93 0 153.5 10t104 25.5t83.5 31.5v-121q-44 -20 -127.5 -40.5t-223.5 -20.5zM117 976v116h846v-116h-846zM853 1185l23 380h127
l-40 -380h-110z" />
    <glyph glyph-name="uni0163" unicode="&#x163;" 
d="M725 -12q-139 0 -207.5 41t-90.5 115t-22 173v552q0 36 8 57.5t23.5 33t36.5 16.5l-69 72v43l33 383h94v-1168q0 -113 44.5 -158t159.5 -45q93 0 153.5 10t104 25.5t83.5 31.5v-121q-44 -20 -127.5 -40.5t-223.5 -20.5zM117 976v116h846v-116h-846zM736 -407q-61 0 -98 8
t-62 21l1 115q26 -11 57.5 -19.5t80.5 -8.5q57 0 74.5 26.5t17.5 63.5q0 52 -28.5 100.5t-102.5 100.5h107q51 -22 84.5 -59t50.5 -80t17 -83q0 -85 -49 -135t-150 -50z" />
    <glyph glyph-name="uni021B" unicode="&#x21b;" 
d="M725 -12q-139 0 -207.5 41t-90.5 115t-22 173v552q0 36 8 57.5t23.5 33t36.5 16.5l-69 72v43l33 383h94v-1168q0 -113 44.5 -158t159.5 -45q93 0 153.5 10t104 25.5t83.5 31.5v-121q-44 -20 -127.5 -40.5t-223.5 -20.5zM117 976v116h846v-116h-846zM625 -512
q11 44 18.5 106t12 123.5t4.5 103.5v45h135v-49q0 -52 -8 -115.5t-19.5 -120.5t-23.5 -93h-119z" />
    <glyph glyph-name="u" unicode="u" 
d="M508 -22q-151 0 -240 90.5t-89 244.5v778h123v-738q0 -112 49.5 -184.5t161.5 -72.5q109 0 183.5 55.5t151.5 194.5v745h123v-1091h-108l-13 323l24 6q-14 -105 -66 -184t-129.5 -123t-170.5 -44z" />
    <glyph glyph-name="uacute" unicode="&#xfa;" 
d="M508 -22q-151 0 -240 90.5t-89 244.5v778h123v-738q0 -112 49.5 -184.5t161.5 -72.5q109 0 183.5 55.5t151.5 194.5v745h123v-1091h-108l-13 323l24 6q-14 -105 -66 -184t-129.5 -123t-170.5 -44zM508 1284l210 309h164l-227 -309h-147z" />
    <glyph glyph-name="ubreve" unicode="&#x16d;" 
d="M508 -22q-151 0 -240 90.5t-89 244.5v778h123v-738q0 -112 49.5 -184.5t161.5 -72.5q109 0 183.5 55.5t151.5 194.5v745h123v-1091h-108l-13 323l24 6q-14 -105 -66 -184t-129.5 -123t-170.5 -44zM575 1274q-138 0 -217.5 83.5t-66.5 225.5h119q-3 -82 19.5 -128.5
t61.5 -65.5t84 -19q47 0 85.5 19.5t60.5 66t19 127.5h120q13 -141 -66 -225t-219 -84z" />
    <glyph glyph-name="ucircumflex" unicode="&#xfb;" 
d="M508 -22q-151 0 -240 90.5t-89 244.5v778h123v-738q0 -112 49.5 -184.5t161.5 -72.5q109 0 183.5 55.5t151.5 194.5v745h123v-1091h-108l-13 323l24 6q-14 -105 -66 -184t-129.5 -123t-170.5 -44zM284 1282l206 309h171l205 -309h-140l-150 210l-151 -210h-141z" />
    <glyph glyph-name="udieresis" unicode="&#xfc;" 
d="M508 -22q-151 0 -240 90.5t-89 244.5v778h123v-738q0 -112 49.5 -184.5t161.5 -72.5q109 0 183.5 55.5t151.5 194.5v745h123v-1091h-108l-13 323l24 6q-14 -105 -66 -184t-129.5 -123t-170.5 -44zM375 1284q-46 0 -76 38t-30 85q0 55 30 88.5t76 33.5q42 0 74 -33.5
t32 -88.5q0 -47 -32 -85t-74 -38zM774 1284q-45 0 -75.5 37.5t-30.5 85.5q0 56 30.5 89t75.5 33q42 0 74.5 -33.5t32.5 -88.5q0 -48 -32.5 -85.5t-74.5 -37.5z" />
    <glyph glyph-name="uni1EE5" unicode="&#x1ee5;" 
d="M508 -22q-151 0 -240 90.5t-89 244.5v778h123v-738q0 -112 49.5 -184.5t161.5 -72.5q109 0 183.5 55.5t151.5 194.5v745h123v-1091h-108l-13 323l24 6q-14 -105 -66 -184t-129.5 -123t-170.5 -44zM577 -417q-49 0 -82.5 34.5t-33.5 88.5t33.5 88t82.5 34t82.5 -34
t33.5 -88t-33.5 -88.5t-82.5 -34.5z" />
    <glyph glyph-name="ugrave" unicode="&#xf9;" 
d="M508 -22q-151 0 -240 90.5t-89 244.5v778h123v-738q0 -112 49.5 -184.5t161.5 -72.5q109 0 183.5 55.5t151.5 194.5v745h123v-1091h-108l-13 323l24 6q-14 -105 -66 -184t-129.5 -123t-170.5 -44zM641 1284h-147l-227 309h164z" />
    <glyph glyph-name="uhungarumlaut" unicode="&#x171;" 
d="M508 -22q-151 0 -240 90.5t-89 244.5v778h123v-738q0 -112 49.5 -184.5t161.5 -72.5q109 0 183.5 55.5t151.5 194.5v745h123v-1091h-108l-13 323l24 6q-14 -105 -66 -184t-129.5 -123t-170.5 -44zM677 1284l192 307h156l-219 -307h-129zM351 1284l161 307h157l-189 -307
h-129z" />
    <glyph glyph-name="umacron" unicode="&#x16b;" 
d="M508 -22q-151 0 -240 90.5t-89 244.5v778h123v-738q0 -112 49.5 -184.5t161.5 -72.5q109 0 183.5 55.5t151.5 194.5v745h123v-1091h-108l-13 323l24 6q-14 -105 -66 -184t-129.5 -123t-170.5 -44zM319 1314v112h512l-3 -112h-509z" />
    <glyph glyph-name="uogonek" unicode="&#x173;" 
d="M508 -22q-151 0 -240 90.5t-89 244.5v778h123v-738q0 -112 49.5 -184.5t161.5 -72.5q109 0 183.5 55.5t151.5 194.5v745h123v-1091h-108l-13 323l24 6q-14 -105 -66 -184t-129.5 -123t-170.5 -44zM837 -390q-86 0 -135.5 45.5t-49.5 117.5q0 82 52.5 141t169.5 86h95
q-97 -52 -139.5 -97t-42.5 -99q0 -40 22.5 -58.5t62.5 -18.5q41 0 98 22l1 -116q-25 -10 -56.5 -16.5t-77.5 -6.5z" />
    <glyph glyph-name="uring" unicode="&#x16f;" 
d="M508 -22q-151 0 -240 90.5t-89 244.5v778h123v-738q0 -112 49.5 -184.5t161.5 -72.5q109 0 183.5 55.5t151.5 194.5v745h123v-1091h-108l-13 323l24 6q-14 -105 -66 -184t-129.5 -123t-170.5 -44zM575 1266q-109 0 -172.5 62t-63.5 167q0 104 63.5 165t172.5 61
q107 0 170.5 -61t63.5 -165q0 -105 -63.5 -167t-170.5 -62zM575 1359q59 0 93.5 36.5t34.5 98.5t-34.5 98t-93.5 36t-94 -36t-35 -98t35 -98.5t94 -36.5z" />
    <glyph glyph-name="utilde" unicode="&#x169;" 
d="M508 -22q-151 0 -240 90.5t-89 244.5v778h123v-738q0 -112 49.5 -184.5t161.5 -72.5q109 0 183.5 55.5t151.5 194.5v745h123v-1091h-108l-13 323l24 6q-14 -105 -66 -184t-129.5 -123t-170.5 -44zM721 1293q-70 0 -110 31t-66.5 72t-52.5 72t-67 31q-52 0 -73.5 -46.5
t-9.5 -159.5h-111q-24 155 32 227t158 72q70 0 110 -31t66.5 -72t52.5 -72t67 -31q52 0 73 46.5t9 159.5h113q24 -155 -32 -227t-159 -72z" />
    <glyph glyph-name="v" unicode="v" 
d="M524 0l-428 1091h142l266 -740l92 -243h8l92 243l266 740h142l-428 -1091h-152z" />
    <glyph glyph-name="w" unicode="w" 
d="M267 0l-267 1091h127l97 -495l106 -487h4l81 375l110 466h150l109 -465l81 -376h5l106 487l98 495h126l-267 -1091h-137l-121 512l-72 340h-5l-73 -340l-121 -512h-137z" />
    <glyph glyph-name="wacute" unicode="&#x1e83;" 
d="M267 0l-267 1091h127l97 -495l106 -487h4l81 375l110 466h150l109 -465l81 -376h5l106 487l98 495h126l-267 -1091h-137l-121 512l-72 340h-5l-73 -340l-121 -512h-137zM533 1284l210 309h164l-227 -309h-147z" />
    <glyph glyph-name="wcircumflex" unicode="&#x175;" 
d="M267 0l-267 1091h127l97 -495l106 -487h4l81 375l110 466h150l109 -465l81 -376h5l106 487l98 495h126l-267 -1091h-137l-121 512l-72 340h-5l-73 -340l-121 -512h-137zM309 1282l206 309h171l205 -309h-140l-150 210l-151 -210h-141z" />
    <glyph glyph-name="wdieresis" unicode="&#x1e85;" 
d="M267 0l-267 1091h127l97 -495l106 -487h4l81 375l110 466h150l109 -465l81 -376h5l106 487l98 495h126l-267 -1091h-137l-121 512l-72 340h-5l-73 -340l-121 -512h-137zM400 1284q-46 0 -76 38t-30 85q0 55 30 88.5t76 33.5q42 0 74 -33.5t32 -88.5q0 -47 -32 -85
t-74 -38zM799 1284q-45 0 -75.5 37.5t-30.5 85.5q0 56 30.5 89t75.5 33q42 0 74.5 -33.5t32.5 -88.5q0 -48 -32.5 -85.5t-74.5 -37.5z" />
    <glyph glyph-name="wgrave" unicode="&#x1e81;" 
d="M267 0l-267 1091h127l97 -495l106 -487h4l81 375l110 466h150l109 -465l81 -376h5l106 487l98 495h126l-267 -1091h-137l-121 512l-72 340h-5l-73 -340l-121 -512h-137zM666 1284h-147l-227 309h164z" />
    <glyph glyph-name="x" unicode="x" 
d="M122 0l426 590v-90l-426 591h149l261 -369l68 -102l60 101l266 370h152l-436 -591v90l436 -590h-149l-269 368l-66 101l-63 -102l-258 -367h-151z" />
    <glyph glyph-name="y" unicode="y" 
d="M235 -431v111h88q78 0 119.5 25.5t64.5 69.5t43 98q25 68 33 92.5t31 34.5h-43l-430 1091h138l182 -495l175 -463h5l170 463l177 495h138l-420 -1091q-38 -99 -63.5 -178.5t-59 -136t-93.5 -86.5t-167 -30h-88z" />
    <glyph glyph-name="yacute" unicode="&#xfd;" 
d="M235 -431v111h88q78 0 119.5 25.5t64.5 69.5t43 98q25 68 33 92.5t31 34.5h-43l-430 1091h138l182 -495l175 -463h5l170 463l177 495h138l-420 -1091q-38 -99 -63.5 -178.5t-59 -136t-93.5 -86.5t-167 -30h-88zM567 1284l210 309h164l-227 -309h-147z" />
    <glyph glyph-name="ycircumflex" unicode="&#x177;" 
d="M235 -431v111h88q78 0 119.5 25.5t64.5 69.5t43 98q25 68 33 92.5t31 34.5h-43l-430 1091h138l182 -495l175 -463h5l170 463l177 495h138l-420 -1091q-38 -99 -63.5 -178.5t-59 -136t-93.5 -86.5t-167 -30h-88zM343 1282l206 309h171l205 -309h-140l-150 210l-151 -210
h-141z" />
    <glyph glyph-name="ydieresis" unicode="&#xff;" 
d="M235 -431v111h88q78 0 119.5 25.5t64.5 69.5t43 98q25 68 33 92.5t31 34.5h-43l-430 1091h138l182 -495l175 -463h5l170 463l177 495h138l-420 -1091q-38 -99 -63.5 -178.5t-59 -136t-93.5 -86.5t-167 -30h-88zM434 1284q-46 0 -76 38t-30 85q0 55 30 88.5t76 33.5
q42 0 74 -33.5t32 -88.5q0 -47 -32 -85t-74 -38zM833 1284q-45 0 -75.5 37.5t-30.5 85.5q0 56 30.5 89t75.5 33q42 0 74.5 -33.5t32.5 -88.5q0 -48 -32.5 -85.5t-74.5 -37.5z" />
    <glyph glyph-name="ygrave" unicode="&#x1ef3;" 
d="M235 -431v111h88q78 0 119.5 25.5t64.5 69.5t43 98q25 68 33 92.5t31 34.5h-43l-430 1091h138l182 -495l175 -463h5l170 463l177 495h138l-420 -1091q-38 -99 -63.5 -178.5t-59 -136t-93.5 -86.5t-167 -30h-88zM700 1284h-147l-227 309h164z" />
    <glyph glyph-name="uni0233" unicode="&#x233;" 
d="M235 -431v111h88q78 0 119.5 25.5t64.5 69.5t43 98q25 68 33 92.5t31 34.5h-43l-430 1091h138l182 -495l175 -463h5l170 463l177 495h138l-420 -1091q-38 -99 -63.5 -178.5t-59 -136t-93.5 -86.5t-167 -30h-88zM378 1314v112h512l-3 -112h-509z" />
    <glyph glyph-name="uni1EF9" unicode="&#x1ef9;" 
d="M235 -431v111h88q78 0 119.5 25.5t64.5 69.5t43 98q25 68 33 92.5t31 34.5h-43l-430 1091h138l182 -495l175 -463h5l170 463l177 495h138l-420 -1091q-38 -99 -63.5 -178.5t-59 -136t-93.5 -86.5t-167 -30h-88zM780 1293q-70 0 -110 31t-66.5 72t-52.5 72t-67 31
q-52 0 -73.5 -46.5t-9.5 -159.5h-111q-24 155 32 227t158 72q70 0 110 -31t66.5 -72t52.5 -72t67 -31q52 0 73 46.5t9 159.5h113q24 -155 -32 -227t-159 -72z" />
    <glyph glyph-name="z" unicode="z" 
d="M148 0l590 832q56 78 91.5 119t78.5 65l10 -13q-58 -4 -115 -8t-115 -4h-476v100h852l-606 -843q-42 -58 -74 -106t-71 -65l-3 9q53 5 104 11.5t103 6.5h542v-104h-911z" />
    <glyph glyph-name="zacute" unicode="&#x17a;" 
d="M148 0l590 832q56 78 91.5 119t78.5 65l10 -13q-58 -4 -115 -8t-115 -4h-476v100h852l-606 -843q-42 -58 -74 -106t-71 -65l-3 9q53 5 104 11.5t103 6.5h542v-104h-911zM552 1284l210 309h164l-227 -309h-147z" />
    <glyph glyph-name="zcaron" unicode="&#x17e;" 
d="M148 0l590 832q56 78 91.5 119t78.5 65l10 -13q-58 -4 -115 -8t-115 -4h-476v100h852l-606 -843q-42 -58 -74 -106t-71 -65l-3 9q53 5 104 11.5t103 6.5h542v-104h-911zM534 1272l-206 309h141l151 -212l150 212h140l-205 -309h-171z" />
    <glyph glyph-name="zdotaccent" unicode="&#x17c;" 
d="M148 0l590 832q56 78 91.5 119t78.5 65l10 -13q-58 -4 -115 -8t-115 -4h-476v100h852l-606 -843q-42 -58 -74 -106t-71 -65l-3 9q53 5 104 11.5t103 6.5h542v-104h-911zM619 1299q-49 0 -82.5 34.5t-33.5 88.5t33.5 88t82.5 34t82.5 -34t33.5 -88t-33.5 -88.5
t-82.5 -34.5z" />
    <glyph glyph-name="g.alt" 
d="M618 -451q-140 0 -257.5 38t-188 111.5t-70.5 180.5q0 57 20.5 111t76.5 92t163 46l26 -6q-42 -16 -79 -41t-59.5 -70t-22.5 -123q0 -57 37.5 -109.5t124 -85.5t232.5 -33q195 0 283.5 67.5t87.5 178.5q-1 65 -46 99t-185 51l-257 31q-137 17 -202.5 50t-85 72.5
t-19.5 73.5q0 38 16 66t45 46.5t68 26.5t85 6q-41 -14 -67.5 -43t-26.5 -75q0 -49 52.5 -74.5t173.5 -39.5l265 -31q124 -14 191 -53t93 -91.5t26 -109.5q0 -97 -42 -165.5t-113 -112t-160.5 -64t-184.5 -20.5zM601 384q-190 0 -296.5 98t-106.5 262q0 168 109 268t296 98
q131 -1 222 -45.5t137.5 -125t41.5 -190.5q-7 -169 -110 -267t-293 -98zM604 496q137 0 211 65t74 188q0 118 -72 183.5t-219 65.5q-145 0 -215 -64t-70 -189q0 -118 76 -183.5t215 -65.5zM811 1041l-14 10q9 64 45 121t89 93t111 36q49 0 64.5 -2t27.5 -7v-125
q-28 4 -57 6.5t-55 2.5q-60 0 -94 -20.5t-59 -51.5t-58 -63z" />
    <glyph glyph-name="r.ss01" 
d="M119 0v108h811v-108h-811zM100 976v116h345l20 -116h-365zM1067 1109v-143q-18 8 -44 11t-55 3q-131 0 -218 -28t-141.5 -83t-91.5 -135v-552q0 -25 -12.5 -45.5t-47.5 -28.5l60 -25v-63h-123v833q0 63 16 89t49 34l-65 18v98h113l6 -381l-15 42q17 102 78 184t165 129.5
t248 47.5q23 0 44 -1.5t34 -3.5z" />
    <glyph glyph-name="racute.ss01" 
d="M119 0v108h811v-108h-811zM100 976v116h345l20 -116h-365zM1067 1109v-143q-18 8 -44 11t-55 3q-131 0 -218 -28t-141.5 -83t-91.5 -135v-552q0 -25 -12.5 -45.5t-47.5 -28.5l60 -25v-63h-123v833q0 63 16 89t49 34l-65 18v98h113l6 -381l-15 42q17 102 78 184t165 129.5
t248 47.5q23 0 44 -1.5t34 -3.5zM524 1284l210 309h164l-227 -309h-147z" />
    <glyph glyph-name="rcaron.ss01" 
d="M119 0v108h811v-108h-811zM100 976v116h345l20 -116h-365zM1067 1109v-143q-18 8 -44 11t-55 3q-131 0 -218 -28t-141.5 -83t-91.5 -135v-552q0 -25 -12.5 -45.5t-47.5 -28.5l60 -25v-63h-123v833q0 63 16 89t49 34l-65 18v98h113l6 -381l-15 42q17 102 78 184t165 129.5
t248 47.5q23 0 44 -1.5t34 -3.5zM506 1272l-206 309h141l151 -212l150 212h140l-205 -309h-171z" />
    <glyph glyph-name="uni0157.ss01" 
d="M119 0v108h811v-108h-811zM100 976v116h345l20 -116h-365zM1067 1109v-143q-18 8 -44 11t-55 3q-131 0 -218 -28t-141.5 -83t-91.5 -135v-552q0 -25 -12.5 -45.5t-47.5 -28.5l60 -25v-63h-123v833q0 63 16 89t49 34l-65 18v98h113l6 -381l-15 42q17 102 78 184t165 129.5
t248 47.5q23 0 44 -1.5t34 -3.5zM318 -512q11 44 18.5 106t12 123.5t4.5 103.5v45h135v-49q0 -52 -8 -115.5t-19.5 -120.5t-23.5 -93h-119z" />
    <glyph glyph-name="i.ss02" 
d="M770 -12q-120 0 -178.5 41t-76.5 115t-18 173v563q0 49 19 70t56 27h-441v114h488l1 -785q0 -115 34.5 -159t129.5 -44q58 0 106.5 8t94 23t93.5 36v-121q-51 -25 -130 -43t-178 -18zM599 1286q-49 0 -82.5 34t-33.5 86t33.5 85.5t82.5 33.5t82.5 -33.5t33.5 -85.5
t-33.5 -86t-82.5 -34z" />
    <glyph glyph-name="dotlessi.ss02" 
d="M770 -12q-120 0 -178.5 41t-76.5 115t-18 173v563q0 49 19 70t56 27h-441v114h488l1 -785q0 -115 34.5 -159t129.5 -44q58 0 106.5 8t94 23t93.5 36v-121q-51 -25 -130 -43t-178 -18z" />
    <glyph glyph-name="iacute.ss02" 
d="M770 -12q-120 0 -178.5 41t-76.5 115t-18 173v563q0 49 19 70t56 27h-441v114h488l1 -785q0 -115 34.5 -159t129.5 -44q58 0 106.5 8t94 23t93.5 36v-121q-51 -25 -130 -43t-178 -18zM530 1284l210 309h164l-227 -309h-147z" />
    <glyph glyph-name="ibreve.ss02" 
d="M770 -12q-120 0 -178.5 41t-76.5 115t-18 173v563q0 49 19 70t56 27h-441v114h488l1 -785q0 -115 34.5 -159t129.5 -44q58 0 106.5 8t94 23t93.5 36v-121q-51 -25 -130 -43t-178 -18zM597 1274q-138 0 -217.5 83.5t-66.5 225.5h119q-3 -82 19.5 -128.5t61.5 -65.5t84 -19
q47 0 85.5 19.5t60.5 66t19 127.5h120q13 -141 -66 -225t-219 -84z" />
    <glyph glyph-name="icircumflex.ss02" 
d="M770 -12q-120 0 -178.5 41t-76.5 115t-18 173v563q0 49 19 70t56 27h-441v114h488l1 -785q0 -115 34.5 -159t129.5 -44q58 0 106.5 8t94 23t93.5 36v-121q-51 -25 -130 -43t-178 -18zM306 1282l206 309h171l205 -309h-140l-150 210l-151 -210h-141z" />
    <glyph glyph-name="idieresis.ss02" 
d="M770 -12q-120 0 -178.5 41t-76.5 115t-18 173v563q0 49 19 70t56 27h-441v114h488l1 -785q0 -115 34.5 -159t129.5 -44q58 0 106.5 8t94 23t93.5 36v-121q-51 -25 -130 -43t-178 -18zM397 1284q-46 0 -76 38t-30 85q0 55 30 88.5t76 33.5q42 0 74 -33.5t32 -88.5
q0 -47 -32 -85t-74 -38zM796 1284q-45 0 -75.5 37.5t-30.5 85.5q0 56 30.5 89t75.5 33q42 0 74.5 -33.5t32.5 -88.5q0 -48 -32.5 -85.5t-74.5 -37.5z" />
    <glyph glyph-name="i.loclTRK.ss02" 
d="M770 -12q-120 0 -178.5 41t-76.5 115t-18 173v563q0 49 19 70t56 27h-441v114h488l1 -785q0 -115 34.5 -159t129.5 -44q58 0 106.5 8t94 23t93.5 36v-121q-51 -25 -130 -43t-178 -18zM597 1299q-49 0 -82.5 34.5t-33.5 88.5t33.5 88t82.5 34t82.5 -34t33.5 -88
t-33.5 -88.5t-82.5 -34.5z" />
    <glyph glyph-name="uni1ECB.ss02" 
d="M590 20v835q0 58 17 87.5t48 34.5l-65 14v83l120 17v-1071h-120zM212 0v108h847v-108h-847zM215 977v114h495v-114h-495zM650 1299q-49 0 -82.5 34.5t-33.5 88.5t33.5 88t82.5 34t82.5 -34t33.5 -88t-33.5 -88.5t-82.5 -34.5zM644 -417q-49 0 -82.5 34.5t-33.5 88.5
t33.5 88t82.5 34t82.5 -34t33.5 -88t-33.5 -88.5t-82.5 -34.5z" />
    <glyph glyph-name="igrave.ss02" 
d="M770 -12q-120 0 -178.5 41t-76.5 115t-18 173v563q0 49 19 70t56 27h-441v114h488l1 -785q0 -115 34.5 -159t129.5 -44q58 0 106.5 8t94 23t93.5 36v-121q-51 -25 -130 -43t-178 -18zM663 1284h-147l-227 309h164z" />
    <glyph glyph-name="imacron.ss02" 
d="M770 -12q-120 0 -178.5 41t-76.5 115t-18 173v563q0 49 19 70t56 27h-441v114h488l1 -785q0 -115 34.5 -159t129.5 -44q58 0 106.5 8t94 23t93.5 36v-121q-51 -25 -130 -43t-178 -18zM341 1314v112h512l-3 -112h-509z" />
    <glyph glyph-name="iogonek.ss02" 
d="M770 -12q-120 0 -178.5 41t-76.5 115t-18 173v563q0 49 19 70t56 27h-441v114h488l1 -785q0 -115 34.5 -159t129.5 -44q58 0 106.5 8t94 23t93.5 36v-121q-51 -25 -130 -43t-178 -18zM597 1299q-49 0 -82.5 34.5t-33.5 88.5t33.5 88t82.5 34t82.5 -34t33.5 -88
t-33.5 -88.5t-82.5 -34.5zM745 -390q-86 0 -135.5 45.5t-49.5 117.5q0 82 52.5 141t169.5 86h95q-97 -52 -139.5 -97t-42.5 -99q0 -40 22.5 -58.5t62.5 -18.5q41 0 98 22l1 -116q-25 -10 -56.5 -16.5t-77.5 -6.5z" />
    <glyph glyph-name="itilde.ss02" 
d="M770 -12q-120 0 -178.5 41t-76.5 115t-18 173v563q0 49 19 70t56 27h-441v114h488l1 -785q0 -115 34.5 -159t129.5 -44q58 0 106.5 8t94 23t93.5 36v-121q-51 -25 -130 -43t-178 -18zM743 1293q-70 0 -110 31t-66.5 72t-52.5 72t-67 31q-52 0 -73.5 -46.5t-9.5 -159.5
h-111q-24 155 32 227t158 72q70 0 110 -31t66.5 -72t52.5 -72t67 -31q52 0 73 46.5t9 159.5h113q24 -155 -32 -227t-159 -72z" />
    <glyph glyph-name="l.ss03" 
d="M564 0v1324q0 57 20 87t54 36l-74 26v65h124l1 -1538h-125zM152 0v116h920v-116h-920zM148 1447v108h540v-108h-540z" />
    <glyph glyph-name="lacute.ss03" 
d="M707 1673h-146l211 319h173zM564 0v1324q0 57 20 87t54 36l-74 26v65h124l1 -1538h-125zM152 0v116h920v-116h-920zM148 1447v108h540v-108h-540z" />
    <glyph glyph-name="lcaron.ss03" 
d="M896 1185l23 380h127l-40 -380h-110zM564 0v1324q0 57 20 87t54 36l-74 26v65h124l1 -1538h-125zM152 0v116h920v-116h-920zM148 1447v108h540v-108h-540z" />
    <glyph glyph-name="uni013C.ss03" 
d="M564 0v1324q0 57 20 87t54 36l-74 26v65h124l1 -1538h-125zM152 0v116h920v-116h-920zM148 1447v108h540v-108h-540zM530 -512q11 44 18.5 106t12 123.5t4.5 103.5v45h135v-49q0 -52 -8 -115.5t-19.5 -120.5t-23.5 -93h-119z" />
    <glyph glyph-name="ldot.ss03" 
d="M1027 612q-59 0 -95 38.5t-36 106.5t36 106t95 38q58 0 93.5 -38t35.5 -106t-35.5 -106.5t-93.5 -38.5zM564 0v1324q0 57 20 87t54 36l-74 26v65h124l1 -1538h-125zM152 0v116h920v-116h-920zM148 1447v108h540v-108h-540z" />
    <glyph glyph-name="lslash.ss03" 
d="M385 589v144l476 368l-4 -144zM564 0v1324q0 57 20 87t54 36l-74 26v65h124l1 -1538h-125zM152 0v116h920v-116h-920zM148 1447v108h540v-108h-540z" />
    <glyph glyph-name="r.ss04" 
d="M129 0v108h245v745q0 63 16 89t49 34h-329v116h383v-282q32 88 109.5 156.5t183.5 108t223 39.5q23 0 39 -1.5t29 -3.5v-531h-114v402q-83 -2 -155 -19t-131 -48.5t-104.5 -76t-75.5 -102.5v-552q0 -25 -12.5 -45.5t-47.5 -28.5h390v-108h-698z" />
    <glyph glyph-name="racute.ss04" 
d="M129 0v108h245v745q0 63 16 89t49 34h-329v116h383v-282q32 88 109.5 156.5t183.5 108t223 39.5q23 0 39 -1.5t29 -3.5v-531h-114v402q-83 -2 -155 -19t-131 -48.5t-104.5 -76t-75.5 -102.5v-552q0 -25 -12.5 -45.5t-47.5 -28.5h390v-108h-698zM524 1284l210 309h164
l-227 -309h-147z" />
    <glyph glyph-name="rcaron.ss04" 
d="M563 1272l-206 309h141l151 -212l150 212h140l-205 -309h-171zM129 0v108h245v745q0 63 16 89t49 34h-329v116h383v-282q32 88 109.5 156.5t183.5 108t223 39.5q23 0 39 -1.5t29 -3.5v-531h-114v402q-83 -2 -155 -19t-131 -48.5t-104.5 -76t-75.5 -102.5v-552
q0 -25 -12.5 -45.5t-47.5 -28.5h390v-108h-698z" />
    <glyph glyph-name="uni0157.ss04" 
d="M129 0v108h245v745q0 63 16 89t49 34h-329v116h383v-282q32 88 109.5 156.5t183.5 108t223 39.5q23 0 39 -1.5t29 -3.5v-531h-114v402q-83 -2 -155 -19t-131 -48.5t-104.5 -76t-75.5 -102.5v-552q0 -25 -12.5 -45.5t-47.5 -28.5h390v-108h-698zM318 -512q11 44 18.5 106
t12 123.5t4.5 103.5v45h135v-49q0 -52 -8 -115.5t-19.5 -120.5t-23.5 -93h-119z" />
    <glyph glyph-name="g.ss05" 
d="M579 -492q-127 0 -215 43.5t-130.5 118.5t-34.5 166h119q-9 -88 61.5 -151.5t209.5 -63.5q160 0 225.5 113t65.5 299l1 935l1 123h118v-1088q0 -144 -39 -255.5t-131 -175t-251 -64.5zM565 28q-122 0 -214 68.5t-143 191t-51 284.5q0 164 58.5 285.5t163 188t241.5 66.5
q66 0 129.5 -28t108 -77t54.5 -113l33 -35l-46 -22q-21 49 -61 84.5t-92 55t-111 19.5q-157 0 -254.5 -112t-97.5 -315q0 -194 80 -309.5t223 -115.5q107 0 182.5 53t112.5 153l10 -34l-10 -45q-15 -75 -60 -129.5t-110.5 -84t-145.5 -29.5z" />
    <glyph glyph-name="uni01F5.ss05" 
d="M579 -492q-127 0 -215 43.5t-130.5 118.5t-34.5 166h119q-9 -88 61.5 -151.5t209.5 -63.5q160 0 225.5 113t65.5 299l1 935l1 123h118v-1088q0 -144 -39 -255.5t-131 -175t-251 -64.5zM565 28q-122 0 -214 68.5t-143 191t-51 284.5q0 164 58.5 285.5t163 188t241.5 66.5
q66 0 129.5 -28t108 -77t54.5 -113l33 -35l-46 -22q-21 49 -61 84.5t-92 55t-111 19.5q-157 0 -254.5 -112t-97.5 -315q0 -194 80 -309.5t223 -115.5q107 0 182.5 53t112.5 153l10 -34l-10 -45q-15 -75 -60 -129.5t-110.5 -84t-145.5 -29.5zM557 1284l210 309h164l-227 -309
h-147z" />
    <glyph glyph-name="gbreve.ss05" 
d="M579 -492q-127 0 -215 43.5t-130.5 118.5t-34.5 166h119q-9 -88 61.5 -151.5t209.5 -63.5q160 0 225.5 113t65.5 299l1 935l1 123h118v-1088q0 -144 -39 -255.5t-131 -175t-251 -64.5zM565 28q-122 0 -214 68.5t-143 191t-51 284.5q0 164 58.5 285.5t163 188t241.5 66.5
q66 0 129.5 -28t108 -77t54.5 -113l33 -35l-46 -22q-21 49 -61 84.5t-92 55t-111 19.5q-157 0 -254.5 -112t-97.5 -315q0 -194 80 -309.5t223 -115.5q107 0 182.5 53t112.5 153l10 -34l-10 -45q-15 -75 -60 -129.5t-110.5 -84t-145.5 -29.5zM624 1274q-138 0 -217.5 83.5
t-66.5 225.5h119q-3 -82 19.5 -128.5t61.5 -65.5t84 -19q47 0 85.5 19.5t60.5 66t19 127.5h120q13 -141 -66 -225t-219 -84z" />
    <glyph glyph-name="gcaron.ss05" 
d="M579 -492q-127 0 -215 43.5t-130.5 118.5t-34.5 166h119q-9 -88 61.5 -151.5t209.5 -63.5q160 0 225.5 113t65.5 299l1 935l1 123h118v-1088q0 -144 -39 -255.5t-131 -175t-251 -64.5zM565 28q-122 0 -214 68.5t-143 191t-51 284.5q0 164 58.5 285.5t163 188t241.5 66.5
q66 0 129.5 -28t108 -77t54.5 -113l33 -35l-46 -22q-21 49 -61 84.5t-92 55t-111 19.5q-157 0 -254.5 -112t-97.5 -315q0 -194 80 -309.5t223 -115.5q107 0 182.5 53t112.5 153l10 -34l-10 -45q-15 -75 -60 -129.5t-110.5 -84t-145.5 -29.5zM539 1272l-206 309h141l151 -212
l150 212h140l-205 -309h-171z" />
    <glyph glyph-name="uni0123.ss05" 
d="M579 -492q-127 0 -215 43.5t-130.5 118.5t-34.5 166h119q-9 -88 61.5 -151.5t209.5 -63.5q160 0 225.5 113t65.5 299l1 935l1 123h118v-1088q0 -144 -39 -255.5t-131 -175t-251 -64.5zM565 28q-122 0 -214 68.5t-143 191t-51 284.5q0 164 58.5 285.5t163 188t241.5 66.5
q66 0 129.5 -28t108 -77t54.5 -113l33 -35l-46 -22q-21 49 -61 84.5t-92 55t-111 19.5q-157 0 -254.5 -112t-97.5 -315q0 -194 80 -309.5t223 -115.5q107 0 182.5 53t112.5 153l10 -34l-10 -45q-15 -75 -60 -129.5t-110.5 -84t-145.5 -29.5zM532 1272v38q0 46 7.5 100.5
t21.5 103t32 75.5h123q-19 -55 -27 -132t-8 -140v-45h-149z" />
    <glyph glyph-name="gdotaccent.ss05" 
d="M579 -492q-127 0 -215 43.5t-130.5 118.5t-34.5 166h119q-9 -88 61.5 -151.5t209.5 -63.5q160 0 225.5 113t65.5 299l1 935l1 123h118v-1088q0 -144 -39 -255.5t-131 -175t-251 -64.5zM565 28q-122 0 -214 68.5t-143 191t-51 284.5q0 164 58.5 285.5t163 188t241.5 66.5
q66 0 129.5 -28t108 -77t54.5 -113l33 -35l-46 -22q-21 49 -61 84.5t-92 55t-111 19.5q-157 0 -254.5 -112t-97.5 -315q0 -194 80 -309.5t223 -115.5q107 0 182.5 53t112.5 153l10 -34l-10 -45q-15 -75 -60 -129.5t-110.5 -84t-145.5 -29.5zM624 1299q-49 0 -82.5 34.5
t-33.5 88.5t33.5 88t82.5 34t82.5 -34t33.5 -88t-33.5 -88.5t-82.5 -34.5z" />
    <glyph glyph-name="fi" unicode="&#xfb01;" 
d="M117 0v878q0 32 12.5 61t34.5 37l-47 71v174q0 128 43.5 212t118 126t166.5 42q50 0 80 -3t52 -6v-119q-19 10 -48 11t-73 1q-64 0 -115 -24.5t-80.5 -88.5t-29.5 -181v-1191h-114zM-49 976v116h531v-116h-531zM872 0v1074h114v-1074h-114zM561 1091h425v-108h-425v108z
M575 98h707v-98h-707v98zM930 1299q-49 0 -82.5 34.5t-33.5 88.5t33.5 88t82.5 34t82.5 -34t33.5 -88t-33.5 -88.5t-82.5 -34.5z" />
    <glyph glyph-name="fl" unicode="&#xfb02;" 
d="M996 -12q-97 0 -146 23.5t-66 67t-17.5 104t-0.5 134.5v1017q0 57 20 87t54 36h-145q-47 0 -90.5 7t-81.5 14t-71 7q-64 0 -115 -24.5t-80.5 -88.5t-29.5 -181v-1191h-113v878q0 32 12 61t34 37l-46 71v174q0 128 43.5 212.5t118 126t166.5 41.5q47 0 83 -3.5t64.5 -9
t52.5 -11t47 -9t48 -3.5h154v-1259q0 -115 23 -159t90 -44q61 0 106 10t90 37v-121q-31 -18 -83.5 -29.5t-120.5 -11.5zM-52 976v116h531v-116h-531z" />
    <glyph glyph-name="ordfeminine" unicode="&#xaa;" 
d="M528 630q-139 0 -207.5 67t-68.5 165t59 151t191 77q46 9 106.5 14.5t121.5 9t110 5.5v61q0 110 -55.5 155.5t-171.5 45.5q-59 0 -112 -16t-85.5 -60.5t-30.5 -129.5h-110q-10 102 29 171t120 103.5t197 34.5q93 0 167 -25t117.5 -87.5t43.5 -173.5v-559h-109v178
q-26 -86 -109.5 -136.5t-202.5 -50.5zM555 721q86 0 146 28t95 64.5t44 63.5v171q-65 -4 -146 -13t-139 -21q-92 -19 -137 -53.5t-45 -91.5q0 -58 37.5 -103t144.5 -45z" />
    <glyph glyph-name="ordmasculine" unicode="&#xba;" 
d="M598 632q-187 0 -285.5 111t-98.5 320q0 132 47 227.5t134 146.5t206 51q192 0 288.5 -113.5t96.5 -311.5q0 -140 -48 -236t-135.5 -145.5t-204.5 -49.5zM601 734q129 0 200 84.5t71 244.5q0 155 -69 239t-205 84q-127 0 -198 -85t-71 -238q0 -157 69.5 -243t202.5 -86z
" />
    <glyph glyph-name="zero" unicode="0" 
d="M600 -30q-159 0 -269 78.5t-167 247t-57 439.5q0 272 57 436.5t167 238t269 73.5q160 0 269.5 -73.5t166.5 -238t57 -436.5q0 -271 -57 -439.5t-166.5 -247t-269.5 -78.5zM600 90q89 0 157 35t114 111.5t69 199.5t23 299q0 175 -23.5 295.5t-69.5 193.5t-113.5 106
t-156.5 33t-156.5 -33t-113.5 -106t-69.5 -193.5t-23.5 -295.5q0 -176 23 -299t69 -199.5t114 -111.5t157 -35zM600 617q-42 0 -60.5 28.5t-18.5 85.5q0 56 18.5 84.5t60.5 28.5t60.5 -28.5t18.5 -84.5q0 -57 -18.5 -85.5t-60.5 -28.5z" />
    <glyph glyph-name="one" unicode="1" 
d="M576 72l-1 1061q0 56 2.5 107t7.5 103l2 111h120v-1382h-131zM147 0v117h962v-117h-962zM69 1145v127q89 -27 167 -26t144 26.5t118 71.5t89 110l-2 -111q-24 -94 -83.5 -144.5t-136.5 -67t-155.5 -10.5t-140.5 24z" />
    <glyph glyph-name="two" unicode="2" 
d="M110 0q29 36 61.5 72t69 74.5t77 80.5t85 88t95 98t105.5 111q86 91 155.5 176.5t111 176t41.5 197.5q0 128 -72 209.5t-235 81.5q-85 0 -159.5 -27.5t-122.5 -96.5t-55 -193q-1 -14 -0.5 -28.5t1.5 -30.5h-128q-1 11 -2 21.5t-1 20.5q0 126 40.5 213t109.5 139.5
t154 76.5t175 24q210 0 319 -111t109 -293q0 -130 -51 -238.5t-129.5 -202.5t-163.5 -183q-84 -88 -149 -153.5t-110 -110.5t-70 -70.5t-29 -31.5q25 17 49 22t57 5h642v-117h-980z" />
    <glyph glyph-name="three" unicode="3" 
d="M610 -30q-111 0 -201.5 31t-156.5 90.5t-102 147.5t-36 202h133q6 -176 100.5 -264.5t268.5 -86.5q167 2 260 84t93 206q0 166 -98.5 240.5t-268.5 74.5h-156v118h164q88 0 156 39t107.5 103t39.5 140q0 123 -74.5 195.5t-228.5 73.5q-148 1 -232 -83t-74 -244h-133
q-5 150 53 249t160 148.5t227 49.5q131 0 228 -46.5t151 -132.5t54 -205q0 -75 -27 -147t-89 -123.5t-167 -68.5q172 -17 256 -119t84 -259q0 -130 -65.5 -222.5t-177 -141.5t-248.5 -49z" />
    <glyph glyph-name="four" unicode="4" 
d="M71 275l511 1179h141l-438 -1010l-31 -55h856l-1 -114h-1038zM798 0l1 320l65 69q-32 0 -46 16.5t-16.5 45t-2.5 64.5l-1 364h132v-879h-132z" />
    <glyph glyph-name="five" unicode="5" 
d="M600 -30q-156 0 -269.5 61t-170.5 159t-47 208h131q-3 -74 33.5 -145t117 -117.5t208.5 -46.5q115 0 198 42.5t128 124t45 198.5q0 167 -87 262t-247 95q-125 0 -219.5 -44t-163.5 -121l-117 44l98 764h788v-122h-673l-98 -600q50 98 152 146t240 48q79 0 160 -22.5
t148.5 -75.5t109 -143.5t41.5 -226.5q0 -143 -60 -253t-173 -172.5t-273 -62.5z" />
    <glyph glyph-name="six" unicode="6" 
d="M604 -30q-127 0 -239.5 62t-183 190.5t-70.5 328.5q0 159 52 297.5t133 254t168.5 204.5t157.5 147h216q-67 -49 -145.5 -114t-156.5 -144t-142.5 -169t-104 -189.5t-41.5 -205.5l-21 -8q16 85 58 145.5t101 99t125.5 57t131.5 18.5q144 0 248 -56.5t160.5 -161
t56.5 -249.5q0 -133 -45 -229.5t-119.5 -157.5t-163.5 -90.5t-176 -29.5zM617 90q92 0 174 39.5t133 125.5t50 223q0 113 -41 190t-113.5 116.5t-168.5 39.5q-116 0 -194.5 -32t-127.5 -77.5t-76 -86.5q-4 -8 -7 -28.5t-3 -42.5q0 -157 45.5 -261t129.5 -155t199 -51z" />
    <glyph glyph-name="seven" unicode="7" 
d="M336 0l542 1209q30 68 65.5 102.5t99.5 34.5l-2 -14h-953v122h926h105l-641 -1454h-142z" />
    <glyph glyph-name="eight" unicode="8" 
d="M598 -30q-129 0 -242.5 46.5t-184.5 138.5t-71 227q0 152 87 253.5t271 121.5q-110 17 -176 71t-95 126t-29 141q0 183 120.5 286t319.5 103q204 0 324 -103.5t120 -285.5q0 -70 -29.5 -142t-95 -126.5t-173.5 -71.5q179 -19 267.5 -120.5t88.5 -252.5q0 -135 -71.5 -227
t-186 -138.5t-244.5 -46.5zM598 90q172 0 270.5 81t98.5 209q0 143 -101 227.5t-268 84.5q-163 0 -264 -83t-101 -229q0 -128 97 -209t268 -81zM598 813q91 0 162 39t112 102t41 136q0 127 -77 200.5t-238 73.5q-153 0 -232 -73.5t-79 -200.5q0 -73 36 -136t105.5 -102
t169.5 -39z" />
    <glyph glyph-name="nine" unicode="9" 
d="M359 0q65 49 144 115t158 146t144.5 172.5t105.5 194t40 210.5l22 -6q-16 -84 -58 -144.5t-100 -100t-124.5 -58.5t-133.5 -19q-135 0 -239.5 60t-163.5 168.5t-60 252.5q0 128 44.5 221.5t118 153.5t161.5 89t175 29q137 0 249 -62.5t179 -193t67 -335.5
q0 -154 -52.5 -291t-133.5 -251.5t-168.5 -203t-158.5 -147.5h-216zM575 630q100 0 171 29t120 74t80 93q5 8 8 33.5t3 47.5q0 152 -46 253.5t-130 152.5t-199 51q-93 0 -174 -40.5t-130.5 -123t-49.5 -210.5q1 -169 93.5 -264.5t253.5 -95.5z" />
    <glyph glyph-name="zero.zero" 
d="M600 -30q-159 0 -269 78.5t-167 247t-57 439.5q0 272 57 436.5t167 238t269 73.5q160 0 269.5 -73.5t166.5 -238t57 -436.5q0 -271 -57 -439.5t-166.5 -247t-269.5 -78.5zM600 90q89 0 157 35t114 111.5t69 199.5t23 299q0 175 -23.5 295.5t-69.5 193.5t-113.5 106
t-156.5 33t-156.5 -33t-113.5 -106t-69.5 -193.5t-23.5 -295.5q0 -176 23 -299t69 -199.5t114 -111.5t157 -35zM939 202l-101 -61l-559 1128l111 40z" />
    <glyph glyph-name="zero.ss01" 
d="M600 -30q-159 0 -269 78.5t-167 247t-57 439.5q0 272 57 436.5t167 238t269 73.5q160 0 269.5 -73.5t166.5 -238t57 -436.5q0 -271 -57 -439.5t-166.5 -247t-269.5 -78.5zM600 90q89 0 157 35t114 111.5t69 199.5t23 299q0 175 -23.5 295.5t-69.5 193.5t-113.5 106
t-156.5 33t-156.5 -33t-113.5 -106t-69.5 -193.5t-23.5 -295.5q0 -176 23 -299t69 -199.5t114 -111.5t157 -35z" />
    <glyph glyph-name="one.ss11" 
d="M561 40v1192v222h129v-1414h-129zM167 0v117h952v-117h-952zM561 1447l46 -238h-312v125l136 -3q35 -1 64.5 13.5t47.5 41t18 61.5z" />
    <glyph glyph-name="two.ss12" 
d="M154 0l-3 127q-2 97 47.5 193t146.5 185t236 164q157 85 244 176t87 233q0 83 -31 147.5t-97.5 101.5t-173.5 37q-120 0 -198.5 -46t-115 -132t-30.5 -207h-127q-8 154 46 267t165.5 175.5t274.5 62.5q203 0 310 -112t107 -295q0 -121 -52.5 -212t-140.5 -160.5
t-193 -126.5q-99 -54 -172 -109t-120.5 -112t-70.5 -115.5t-22 -119.5l1 -83q0 29 16.5 56t79.5 27h650v-122h-864z" />
    <glyph glyph-name="four.ss14" 
d="M797 0l-2 337h-771l726 1117h174l-4 -4l3 -994h199v-119h-199l1 -337h-127zM194 411q26 22 52.5 33.5t49.5 11.5h577q-37 0 -57 20t-20 58l-2 577l8 219l-127 -219l-393 -597z" />
    <glyph glyph-name="seven.ss17" 
d="M410 0q-10 315 48.5 566t156.5 431.5t206 283.5q26 24 45 34.5t50 16.5h-834v122h858l56 -171q-151 -104 -254 -296.5t-153 -446t-43 -540.5h-136z" />
    <glyph glyph-name="uni2080" unicode="&#x2080;" 
d="M601 -453q-212 0 -321.5 117.5t-109.5 362.5q0 244 108 357t323 113q214 0 322 -113.5t108 -356.5q0 -247 -109 -363.5t-321 -116.5zM601 -343q155 0 230.5 88t75.5 282q0 191 -75 275t-231 84t-231.5 -84.5t-75.5 -274.5q0 -193 76.5 -281.5t230.5 -88.5z" />
    <glyph glyph-name="uni2081" unicode="&#x2081;" 
d="M591 -399v635q0 34 2.5 78t7.5 84l3 87h116v-884h-129zM217 -444v106h814v-106h-814zM169 253v115q66 -13 130 -12t121.5 16.5t104.5 44t79 68.5l-3 -96q-18 -60 -83.5 -98.5t-157.5 -49t-191 11.5z" />
    <glyph glyph-name="uni2082" unicode="&#x2082;" 
d="M202 -445q38 37 70 67t71.5 64.5t97.5 84.5t147 127q88 76 137.5 125.5t71.5 83t27 59.5t5 54q0 83 -59 127t-171 44q-127 0 -193 -59t-60 -169h-125q-14 149 91 241t292 92q165 0 258.5 -73t93.5 -198q0 -58 -18 -109t-69.5 -110.5t-150.5 -145.5q-34 -30 -73 -63
t-78 -65t-73 -59t-57 -45q29 22 51.5 28t64.5 6h445v-107h-796z" />
    <glyph glyph-name="uni2083" unicode="&#x2083;" 
d="M601 -453q-198 0 -312.5 77.5t-111.5 209.5h132q1 -90 79 -135.5t217 -44.5q131 1 207 45t76 132q0 71 -73.5 112t-219.5 41h-134v94h139q103 0 171 46.5t68 113.5q0 82 -61 115.5t-177 33.5q-130 0 -194 -42.5t-57 -138.5h-135q-5 141 96.5 216t290.5 75q172 0 272 -67
t100 -189q0 -83 -62.5 -134t-168.5 -63q129 -8 204.5 -66t75.5 -146q0 -133 -114 -209t-308 -76z" />
    <glyph glyph-name="uni2084" unicode="&#x2084;" 
d="M154 -280l403 776h158l-342 -643l-27 -37h700v-96h-892zM759 -444l1 216l56 44q-31 0 -44 21.5t-13 73.5v204l136 2v-561h-136z" />
    <glyph glyph-name="uni2085" unicode="&#x2085;" 
d="M594 -455q-126 0 -223.5 37.5t-150 101t-43.5 141.5h128q-4 -64 75 -119t217 -55q142 0 217.5 57.5t75.5 140.5q0 98 -71 147.5t-204 49.5q-87 0 -165.5 -17.5t-137.5 -58.5l-112 33l83 483h676v-106h-560l-83 -345q39 53 123.5 84.5t199.5 31.5q177 0 281 -80t104 -214
q0 -142 -116.5 -227t-313.5 -85z" />
    <glyph glyph-name="uni2086" unicode="&#x2086;" 
d="M598 -453q-127 0 -222 46t-148 129.5t-53 195.5q0 80 28.5 156t82.5 147t131 137.5t174 127.5h205q-119 -68 -209 -133.5t-151 -129.5t-92 -126.5t-33 -125.5l-14 9q25 85 123 137t226 52q182 0 281 -82t99 -222q0 -89 -57 -161.5t-154 -114.5t-217 -42zM606 -346
q131 0 208.5 56t77.5 154t-76.5 148.5t-182.5 50.5q-101 0 -183.5 -22.5t-133.5 -74.5q-3 -4 -5 -21.5t-2 -37.5q0 -121 79.5 -187t217.5 -66z" />
    <glyph glyph-name="uni2087" unicode="&#x2087;" 
d="M364 -443l447 744q28 46 64.5 66.5t89.5 20.5l4 -9h-808v106h878l-510 -928h-165z" />
    <glyph glyph-name="uni2088" unicode="&#x2088;" 
d="M599 -454q-188 0 -306 72.5t-118 192.5q0 98 76 155.5t224 68.5q-115 10 -183.5 69t-68.5 144q0 77 45.5 133t130 86t200.5 30q119 0 203 -30t129 -85.5t45 -133.5q0 -88 -68.5 -146t-181.5 -68q149 -12 224 -70t75 -153q0 -80 -54 -139.5t-150 -92.5t-222 -33zM599 -350
q136 0 214 43.5t78 118.5q0 79 -77 125.5t-215 46.5t-214 -46.5t-76 -125.5q0 -75 77 -118.5t213 -43.5zM599 80q104 0 174 47.5t70 120.5q0 75 -62.5 109.5t-181.5 34.5t-180.5 -35t-61.5 -109q0 -77 66 -122.5t176 -45.5z" />
    <glyph glyph-name="uni2089" unicode="&#x2089;" 
d="M400 -443q114 67 204.5 133.5t154 132t97 129t34.5 124.5l17 -2q-28 -91 -123 -149t-217 -58q-172 0 -282 82.5t-111 227.5q0 91 53 163t149.5 114t224.5 42q126 0 222 -46t149.5 -131t53.5 -202q0 -72 -28.5 -147.5t-82 -148.5t-128.5 -140t-168 -124h-219zM588 -33
q92 0 170.5 28.5t128.5 86.5q3 4 5 21t2 36q0 117 -82 185.5t-219 68.5q-128 0 -207 -57.5t-78 -151.5q1 -100 76 -158.5t204 -58.5z" />
    <glyph glyph-name="zero.dnom" 
d="M601 -273q-201 0 -304.5 110.5t-103.5 342.5q0 230 102 336.5t306 106.5q202 0 304 -106.5t102 -336.5q0 -232 -103 -342.5t-303 -110.5zM601 -167q140 0 209 82.5t69 264.5q0 179 -68 258t-210 79t-211 -79t-69 -258q0 -182 69.5 -264.5t210.5 -82.5z" />
    <glyph glyph-name="one.dnom" 
d="M571 -221v597q0 33 2.5 74t7.5 79l2 84h117v-834h-129zM227 -264v102h769v-102h-769zM174 392v110q85 -17 163.5 -9t142.5 39t103 81l-2 -93q-17 -56 -78.5 -92.5t-148.5 -46.5t-180 11z" />
    <glyph glyph-name="two.dnom" 
d="M201 -265q37 35 70 64.5t73 63t97 80t142 116.5q86 71 135 117t71.5 77.5t28 56t5.5 52.5q0 78 -58.5 116t-168.5 38q-126 0 -191 -53t-58 -156h-127q-13 142 90.5 228.5t290.5 86.5q164 0 257 -68t93 -187q0 -53 -17 -100t-67.5 -104t-151.5 -140q-52 -43 -92.5 -75
t-72 -57t-58.5 -45.5t-53 -40.5q28 20 50 26t67 6h435v-102h-790z" />
    <glyph glyph-name="three.dnom" 
d="M589 -273q-192 0 -298 72.5t-103 199.5h130q2 -86 73 -126.5t201 -39.5q123 1 194.5 37.5t71.5 119.5q0 68 -69 108t-206 40h-126v91h130q98 0 161.5 43t63.5 107q0 77 -57.5 107.5t-165.5 30.5q-115 0 -174 -39t-52 -129h-130q-4 133 90 203.5t267 70.5q163 0 257 -62.5
t94 -177.5q0 -80 -60 -128t-158 -59q126 -8 195 -66t69 -139q0 -126 -108 -195t-290 -69z" />
    <glyph glyph-name="four.dnom" 
d="M152 -110l398 733h152l-341 -605l-25 -34h659v-94h-843zM722 -264l1 205l54 43q-31 0 -43 20t-12 69v192l131 2v-531h-131z" />
    <glyph glyph-name="five.dnom" 
d="M600 -275q-119 0 -211 35.5t-141.5 95.5t-40.5 134h126q-4 -60 71.5 -109.5t199.5 -49.5q134 0 204 51.5t70 130.5q0 92 -66.5 138t-191.5 46q-84 0 -156 -16.5t-128 -54.5l-107 31l78 456h639v-102h-528l-78 -324q37 51 116 81t188 30q168 0 265.5 -76t97.5 -202
q0 -135 -110 -215t-297 -80z" />
    <glyph glyph-name="six.dnom" 
d="M590 -273q-181 0 -290.5 96t-109.5 255q0 75 27 146.5t78 138.5t123 130t163 120h197q-151 -86 -252 -167.5t-152 -160.5t-54 -157l-12 8q23 80 115 129.5t213 49.5q171 0 264.5 -77.5t93.5 -209.5q0 -85 -53.5 -153t-145 -108t-205.5 -40zM597 -167q122 0 195 50.5
t73 143.5q0 92 -71.5 139.5t-170.5 47.5q-96 0 -173 -21.5t-124 -69.5q-3 -4 -5 -20t-2 -36q0 -114 74 -174t204 -60z" />
    <glyph glyph-name="seven.dnom" 
d="M361 -263l419 699q26 44 61 63.5t87 19.5l4 -8h-762v102h829l-480 -876h-158z" />
    <glyph glyph-name="eight.dnom" 
d="M599 -274q-179 0 -290 68.5t-111 181.5q0 92 71.5 146.5t211.5 64.5q-106 9 -172 64t-66 137q0 110 95 172.5t261 62.5q167 0 262 -62.5t95 -172.5q0 -83 -65 -137.5t-171 -64.5q138 -10 210 -64.5t72 -145.5q0 -113 -111.5 -181.5t-291.5 -68.5zM599 -171
q128 0 201 39.5t73 109.5q0 74 -72 117t-202 43t-201 -43t-71 -117q0 -70 72 -109.5t200 -39.5zM599 231q98 0 163 44t65 113q0 70 -57.5 101t-170.5 31q-111 0 -169 -31.5t-58 -100.5q0 -73 62 -115t165 -42z" />
    <glyph glyph-name="nine.dnom" 
d="M407 -263q143 83 246 166.5t159 165t57 157.5l15 -2q-27 -85 -116 -139.5t-204 -54.5q-162 0 -265.5 77.5t-104.5 213.5q0 87 52 155t143 107.5t208 39.5q188 0 295 -95.5t107 -261.5q0 -69 -27 -140t-77.5 -140t-121 -132.5t-157.5 -116.5h-209zM585 125q90 0 162 27.5
t118 79.5q3 4 4.5 20t1.5 34q0 110 -76 172.5t-205 62.5q-120 0 -194 -52t-73 -141q1 -94 71 -148.5t191 -54.5z" />
    <glyph glyph-name="zero.numr" 
d="M601 817q-201 0 -304.5 110.5t-103.5 342.5q0 230 102 336.5t306 106.5q202 0 304 -106.5t102 -336.5q0 -232 -103 -342.5t-303 -110.5zM601 923q140 0 209 82.5t69 264.5q0 179 -68 258t-210 79t-211 -79t-69 -258q0 -182 69.5 -264.5t210.5 -82.5z" />
    <glyph glyph-name="one.numr" 
d="M571 869v597q0 33 2.5 74t7.5 79l2 84h117v-834h-129zM227 826v102h769v-102h-769zM174 1482v110q85 -17 163.5 -9t142.5 39t103 81l-2 -93q-17 -56 -78.5 -92.5t-148.5 -46.5t-180 11z" />
    <glyph glyph-name="two.numr" 
d="M201 825q37 35 70 64.5t73 63t97 80t142 116.5q86 71 135 117t71.5 77.5t28 56t5.5 52.5q0 78 -58.5 116t-168.5 38q-126 0 -191 -53t-58 -156h-127q-13 142 90.5 228.5t290.5 86.5q164 0 257 -68t93 -187q0 -53 -17 -100t-67.5 -104t-151.5 -140q-52 -43 -92.5 -75
t-72 -57t-58.5 -45.5t-53 -40.5q28 20 50 26t67 6h435v-102h-790z" />
    <glyph glyph-name="three.numr" 
d="M589 817q-192 0 -298 72.5t-103 199.5h130q2 -86 73 -126.5t201 -39.5q123 1 194.5 37.5t71.5 119.5q0 68 -69 108t-206 40h-126v91h130q98 0 161.5 43t63.5 107q0 77 -57.5 107.5t-165.5 30.5q-115 0 -174 -39t-52 -129h-130q-4 133 90 203.5t267 70.5q163 0 257 -62.5
t94 -177.5q0 -80 -60 -128t-158 -59q126 -8 195 -66t69 -139q0 -126 -108 -195t-290 -69z" />
    <glyph glyph-name="four.numr" 
d="M152 980l398 733h152l-341 -605l-25 -34h659v-94h-843zM722 826l1 205l54 43q-31 0 -43 20t-12 69v192l131 2v-531h-131z" />
    <glyph glyph-name="five.numr" 
d="M600 815q-119 0 -211 35.5t-141.5 95.5t-40.5 134h126q-4 -60 71.5 -109.5t199.5 -49.5q134 0 204 51.5t70 130.5q0 92 -66.5 138t-191.5 46q-84 0 -156 -16.5t-128 -54.5l-107 31l78 456h639v-102h-528l-78 -324q37 51 116 81t188 30q168 0 265.5 -76t97.5 -202
q0 -135 -110 -215t-297 -80z" />
    <glyph glyph-name="six.numr" 
d="M590 817q-181 0 -290.5 96t-109.5 255q0 75 27 146.5t78 138.5t123 130t163 120h197q-151 -86 -252 -167.5t-152 -160.5t-54 -157l-12 8q23 80 115 129.5t213 49.5q171 0 264.5 -77.5t93.5 -209.5q0 -85 -53.5 -153t-145 -108t-205.5 -40zM597 923q122 0 195 50.5
t73 143.5q0 92 -71.5 139.5t-170.5 47.5q-96 0 -173 -21.5t-124 -69.5q-3 -4 -5 -20t-2 -36q0 -114 74 -174t204 -60z" />
    <glyph glyph-name="seven.numr" 
d="M361 827l419 699q26 44 61 63.5t87 19.5l4 -8h-762v102h829l-480 -876h-158z" />
    <glyph glyph-name="eight.numr" 
d="M599 816q-179 0 -290 68.5t-111 181.5q0 92 71.5 146.5t211.5 64.5q-106 9 -172 64t-66 137q0 110 95 172.5t261 62.5q167 0 262 -62.5t95 -172.5q0 -83 -65 -137.5t-171 -64.5q138 -10 210 -64.5t72 -145.5q0 -113 -111.5 -181.5t-291.5 -68.5zM599 919q128 0 201 39.5
t73 109.5q0 74 -72 117t-202 43t-201 -43t-71 -117q0 -70 72 -109.5t200 -39.5zM599 1321q98 0 163 44t65 113q0 70 -57.5 101t-170.5 31q-111 0 -169 -31.5t-58 -100.5q0 -73 62 -115t165 -42z" />
    <glyph glyph-name="nine.numr" 
d="M407 827q143 83 246 166.5t159 165t57 157.5l15 -2q-27 -85 -116 -139.5t-204 -54.5q-162 0 -265.5 77.5t-104.5 213.5q0 87 52 155t143 107.5t208 39.5q188 0 295 -95.5t107 -261.5q0 -69 -27 -140t-77.5 -140t-121 -132.5t-157.5 -116.5h-209zM585 1215q90 0 162 27.5
t118 79.5q3 4 4.5 20t1.5 34q0 110 -76 172.5t-205 62.5q-120 0 -194 -52t-73 -141q1 -94 71 -148.5t191 -54.5z" />
    <glyph glyph-name="uni2070" unicode="&#x2070;" 
d="M601 847q-212 0 -321.5 117.5t-109.5 362.5q0 244 108 357t323 113q214 0 322 -113.5t108 -356.5q0 -247 -109 -363.5t-321 -116.5zM601 957q155 0 230.5 88t75.5 282q0 191 -75 275t-231 84t-231.5 -84.5t-75.5 -274.5q0 -193 76.5 -281.5t230.5 -88.5z" />
    <glyph glyph-name="uni00B9" unicode="&#xb9;" 
d="M591 901v635q0 34 2.5 78t7.5 84l3 87h116v-884h-129zM217 856v106h814v-106h-814zM169 1553v115q66 -13 130 -12t121.5 16.5t104.5 44t79 68.5l-3 -96q-18 -60 -83.5 -98.5t-157.5 -49t-191 11.5z" />
    <glyph glyph-name="uni00B2" unicode="&#xb2;" 
d="M202 855q38 37 70 67t71.5 64.5t97.5 84.5t147 127q88 76 137.5 125.5t71.5 83t27 59.5t5 54q0 83 -59 127t-171 44q-127 0 -193 -59t-60 -169h-125q-14 149 91 241t292 92q165 0 258.5 -73t93.5 -198q0 -58 -18 -109t-69.5 -110.5t-150.5 -145.5q-34 -30 -73 -63
t-78 -65t-73 -59t-57 -45q29 22 51.5 28t64.5 6h445v-107h-796z" />
    <glyph glyph-name="uni00B3" unicode="&#xb3;" 
d="M601 847q-198 0 -312.5 77.5t-111.5 209.5h132q1 -90 79 -135.5t217 -44.5q131 1 207 45t76 132q0 71 -73.5 112t-219.5 41h-134v94h139q103 0 171 46.5t68 113.5q0 82 -61 115.5t-177 33.5q-130 0 -194 -42.5t-57 -138.5h-135q-5 141 96.5 216t290.5 75q172 0 272 -67
t100 -189q0 -83 -62.5 -134t-168.5 -63q129 -8 204.5 -66t75.5 -146q0 -133 -114 -209t-308 -76z" />
    <glyph glyph-name="uni2074" unicode="&#x2074;" 
d="M154 1020l403 776h158l-342 -643l-27 -37h700v-96h-892zM759 856l1 216l56 44q-31 0 -44 21.5t-13 73.5v204l136 2v-561h-136z" />
    <glyph glyph-name="uni2075" unicode="&#x2075;" 
d="M594 845q-126 0 -223.5 37.5t-150 101t-43.5 141.5h128q-4 -64 75 -119t217 -55q142 0 217.5 57.5t75.5 140.5q0 98 -71 147.5t-204 49.5q-87 0 -165.5 -17.5t-137.5 -58.5l-112 33l83 483h676v-106h-560l-83 -345q39 53 123.5 84.5t199.5 31.5q177 0 281 -80t104 -214
q0 -142 -116.5 -227t-313.5 -85z" />
    <glyph glyph-name="uni2076" unicode="&#x2076;" 
d="M598 847q-127 0 -222 46t-148 129.5t-53 195.5q0 80 28.5 156t82.5 147t131 137.5t174 127.5h205q-119 -68 -209 -133.5t-151 -129.5t-92 -126.5t-33 -125.5l-14 9q25 85 123 137t226 52q182 0 281 -82t99 -222q0 -89 -57 -161.5t-154 -114.5t-217 -42zM606 954
q131 0 208.5 56t77.5 154t-76.5 148.5t-182.5 50.5q-101 0 -183.5 -22.5t-133.5 -74.5q-3 -4 -5 -21.5t-2 -37.5q0 -121 79.5 -187t217.5 -66z" />
    <glyph glyph-name="uni2077" unicode="&#x2077;" 
d="M364 857l447 744q28 46 64.5 66.5t89.5 20.5l4 -9h-808v106h878l-510 -928h-165z" />
    <glyph glyph-name="uni2078" unicode="&#x2078;" 
d="M599 846q-188 0 -306 72.5t-118 192.5q0 98 76 155.5t224 68.5q-115 10 -183.5 69t-68.5 144q0 77 45.5 133t130 86t200.5 30q119 0 203 -30t129 -85.5t45 -133.5q0 -88 -68.5 -146t-181.5 -68q149 -12 224 -70t75 -153q0 -80 -54 -139.5t-150 -92.5t-222 -33zM599 950
q136 0 214 43.5t78 118.5q0 79 -77 125.5t-215 46.5t-214 -46.5t-76 -125.5q0 -75 77 -118.5t213 -43.5zM599 1380q104 0 174 47.5t70 120.5q0 75 -62.5 109.5t-181.5 34.5t-180.5 -35t-61.5 -109q0 -77 66 -122.5t176 -45.5z" />
    <glyph glyph-name="uni2079" unicode="&#x2079;" 
d="M400 857q114 67 204.5 133.5t154 132t97 129t34.5 124.5l17 -2q-28 -91 -123 -149t-217 -58q-172 0 -282 82.5t-111 227.5q0 91 53 163t149.5 114t224.5 42q126 0 222 -46t149.5 -131t53.5 -202q0 -72 -28.5 -147.5t-82 -148.5t-128.5 -140t-168 -124h-219zM588 1267
q92 0 170.5 28.5t128.5 86.5q3 4 5 21t2 36q0 117 -82 185.5t-219 68.5q-128 0 -207 -57.5t-78 -151.5q1 -100 76 -158.5t204 -58.5z" />
    <glyph glyph-name="fraction" unicode="&#x2044;" 
d="M166 0l744 1454h124l-744 -1454h-124z" />
    <glyph glyph-name="onehalf" unicode="&#xbd;" 
d="M571 869v597q0 33 2.5 74t7.5 79l2 84h117v-834h-129zM227 826v102h769v-102h-769zM174 1482v110q85 -17 163.5 -9t142.5 39t103 81l-2 -93q-17 -56 -78.5 -92.5t-148.5 -46.5t-180 11zM201 -265q37 35 70 64.5t73 63t97 80t142 116.5q86 71 135 117t71.5 77.5t28 56
t5.5 52.5q0 78 -58.5 116t-168.5 38q-126 0 -191 -53t-58 -156h-127q-13 142 90.5 228.5t290.5 86.5q164 0 257 -68t93 -187q0 -53 -17 -100t-67.5 -104t-151.5 -140q-52 -43 -92.5 -75t-72 -57t-58.5 -45.5t-53 -40.5q28 20 50 26t67 6h435v-102h-790z" />
    <glyph glyph-name="onequarter" unicode="&#xbc;" 
d="M571 869v597q0 33 2.5 74t7.5 79l2 84h117v-834h-129zM227 826v102h769v-102h-769zM174 1482v110q85 -17 163.5 -9t142.5 39t103 81l-2 -93q-17 -56 -78.5 -92.5t-148.5 -46.5t-180 11zM152 -110l398 733h152l-341 -605l-25 -34h659v-94h-843zM722 -264l1 205l54 43
q-31 0 -43 20t-12 69v192l131 2v-531h-131z" />
    <glyph glyph-name="threequarters" unicode="&#xbe;" 
d="M589 817q-192 0 -298 72.5t-103 199.5h130q2 -86 73 -126.5t201 -39.5q123 1 194.5 37.5t71.5 119.5q0 68 -69 108t-206 40h-126v91h130q98 0 161.5 43t63.5 107q0 77 -57.5 107.5t-165.5 30.5q-115 0 -174 -39t-52 -129h-130q-4 133 90 203.5t267 70.5q163 0 257 -62.5
t94 -177.5q0 -80 -60 -128t-158 -59q126 -8 195 -66t69 -139q0 -126 -108 -195t-290 -69zM152 -110l398 733h152l-341 -605l-25 -34h659v-94h-843zM722 -264l1 205l54 43q-31 0 -43 20t-12 69v192l131 2v-531h-131z" />
    <glyph glyph-name="onehalf.ss18" 
d="M571 869v597q0 33 2.5 74t7.5 79l2 84h117v-834h-129zM227 826v102h769v-102h-769zM174 1482v110q85 -17 163.5 -9t142.5 39t103 81l-2 -93q-17 -56 -78.5 -92.5t-148.5 -46.5t-180 11zM201 -265q37 35 70 64.5t73 63t97 80t142 116.5q86 71 135 117t71.5 77.5t28 56
t5.5 52.5q0 78 -58.5 116t-168.5 38q-126 0 -191 -53t-58 -156h-127q-13 142 90.5 228.5t290.5 86.5q164 0 257 -68t93 -187q0 -53 -17 -100t-67.5 -104t-151.5 -140q-52 -43 -92.5 -75t-72 -57t-58.5 -45.5t-53 -40.5q28 20 50 26t67 6h435v-102h-790z" />
    <glyph glyph-name="uni2153.ss18" 
d="M571 869v597q0 33 2.5 74t7.5 79l2 84h117v-834h-129zM227 826v102h769v-102h-769zM174 1482v110q85 -17 163.5 -9t142.5 39t103 81l-2 -93q-17 -56 -78.5 -92.5t-148.5 -46.5t-180 11zM589 -273q-192 0 -298 72.5t-103 199.5h130q2 -86 73 -126.5t201 -39.5
q123 1 194.5 37.5t71.5 119.5q0 68 -69 108t-206 40h-126v91h130q98 0 161.5 43t63.5 107q0 77 -57.5 107.5t-165.5 30.5q-115 0 -174 -39t-52 -129h-130q-4 133 90 203.5t267 70.5q163 0 257 -62.5t94 -177.5q0 -80 -60 -128t-158 -59q126 -8 195 -66t69 -139
q0 -126 -108 -195t-290 -69z" />
    <glyph glyph-name="uni2154.ss18" 
d="M201 825q37 35 70 64.5t73 63t97 80t142 116.5q86 71 135 117t71.5 77.5t28 56t5.5 52.5q0 78 -58.5 116t-168.5 38q-126 0 -191 -53t-58 -156h-127q-13 142 90.5 228.5t290.5 86.5q164 0 257 -68t93 -187q0 -53 -17 -100t-67.5 -104t-151.5 -140q-52 -43 -92.5 -75
t-72 -57t-58.5 -45.5t-53 -40.5q28 20 50 26t67 6h435v-102h-790zM589 -273q-192 0 -298 72.5t-103 199.5h130q2 -86 73 -126.5t201 -39.5q123 1 194.5 37.5t71.5 119.5q0 68 -69 108t-206 40h-126v91h130q98 0 161.5 43t63.5 107q0 77 -57.5 107.5t-165.5 30.5
q-115 0 -174 -39t-52 -129h-130q-4 133 90 203.5t267 70.5q163 0 257 -62.5t94 -177.5q0 -80 -60 -128t-158 -59q126 -8 195 -66t69 -139q0 -126 -108 -195t-290 -69z" />
    <glyph glyph-name="onequarter.ss18" 
d="M571 869v597q0 33 2.5 74t7.5 79l2 84h117v-834h-129zM227 826v102h769v-102h-769zM174 1482v110q85 -17 163.5 -9t142.5 39t103 81l-2 -93q-17 -56 -78.5 -92.5t-148.5 -46.5t-180 11zM152 -110l398 733h152l-341 -605l-25 -34h659v-94h-843zM722 -264l1 205l54 43
q-31 0 -43 20t-12 69v192l131 2v-531h-131z" />
    <glyph glyph-name="threequarters.ss18" 
d="M589 817q-192 0 -298 72.5t-103 199.5h130q2 -86 73 -126.5t201 -39.5q123 1 194.5 37.5t71.5 119.5q0 68 -69 108t-206 40h-126v91h130q98 0 161.5 43t63.5 107q0 77 -57.5 107.5t-165.5 30.5q-115 0 -174 -39t-52 -129h-130q-4 133 90 203.5t267 70.5q163 0 257 -62.5
t94 -177.5q0 -80 -60 -128t-158 -59q126 -8 195 -66t69 -139q0 -126 -108 -195t-290 -69zM152 -110l398 733h152l-341 -605l-25 -34h659v-94h-843zM722 -264l1 205l54 43q-31 0 -43 20t-12 69v192l131 2v-531h-131z" />
    <glyph glyph-name="uni2155.ss18" horiz-adv-x="1211" 
d="M571 869v597q0 33 2.5 74t7.5 79l2 84h117v-834h-129zM227 826v102h769v-102h-769zM174 1482v110q85 -17 163.5 -9t142.5 39t103 81l-2 -93q-17 -56 -78.5 -92.5t-148.5 -46.5t-180 11zM600 -275q-119 0 -211 35.5t-141.5 95.5t-40.5 134h126q-4 -60 71.5 -109.5
t199.5 -49.5q134 0 204 51.5t70 130.5q0 92 -66.5 138t-191.5 46q-84 0 -156 -16.5t-128 -54.5l-107 31l78 456h639v-102h-528l-78 -324q37 51 116 81t188 30q168 0 265.5 -76t97.5 -202q0 -135 -110 -215t-297 -80z" />
    <glyph glyph-name="uni2159.ss18" 
d="M571 869v597q0 33 2.5 74t7.5 79l2 84h117v-834h-129zM227 826v102h769v-102h-769zM174 1482v110q85 -17 163.5 -9t142.5 39t103 81l-2 -93q-17 -56 -78.5 -92.5t-148.5 -46.5t-180 11zM590 -273q-181 0 -290.5 96t-109.5 255q0 75 27 146.5t78 138.5t123 130t163 120
h197q-151 -86 -252 -167.5t-152 -160.5t-54 -157l-12 8q23 80 115 129.5t213 49.5q171 0 264.5 -77.5t93.5 -209.5q0 -85 -53.5 -153t-145 -108t-205.5 -40zM597 -167q122 0 195 50.5t73 143.5q0 92 -71.5 139.5t-170.5 47.5q-96 0 -173 -21.5t-124 -69.5q-3 -4 -5 -20
t-2 -36q0 -114 74 -174t204 -60z" />
    <glyph glyph-name="oneeighth.ss18" 
d="M571 869v597q0 33 2.5 74t7.5 79l2 84h117v-834h-129zM227 826v102h769v-102h-769zM174 1482v110q85 -17 163.5 -9t142.5 39t103 81l-2 -93q-17 -56 -78.5 -92.5t-148.5 -46.5t-180 11zM599 -274q-179 0 -290 68.5t-111 181.5q0 92 71.5 146.5t211.5 64.5q-106 9 -172 64
t-66 137q0 110 95 172.5t261 62.5q167 0 262 -62.5t95 -172.5q0 -83 -65 -137.5t-171 -64.5q138 -10 210 -64.5t72 -145.5q0 -113 -111.5 -181.5t-291.5 -68.5zM599 -171q128 0 201 39.5t73 109.5q0 74 -72 117t-202 43t-201 -43t-71 -117q0 -70 72 -109.5t200 -39.5z
M599 231q98 0 163 44t65 113q0 70 -57.5 101t-170.5 31q-111 0 -169 -31.5t-58 -100.5q0 -73 62 -115t165 -42z" />
    <glyph glyph-name="threeeighths.ss18" 
d="M589 817q-192 0 -298 72.5t-103 199.5h130q2 -86 73 -126.5t201 -39.5q123 1 194.5 37.5t71.5 119.5q0 68 -69 108t-206 40h-126v91h130q98 0 161.5 43t63.5 107q0 77 -57.5 107.5t-165.5 30.5q-115 0 -174 -39t-52 -129h-130q-4 133 90 203.5t267 70.5q163 0 257 -62.5
t94 -177.5q0 -80 -60 -128t-158 -59q126 -8 195 -66t69 -139q0 -126 -108 -195t-290 -69zM599 -274q-179 0 -290 68.5t-111 181.5q0 92 71.5 146.5t211.5 64.5q-106 9 -172 64t-66 137q0 110 95 172.5t261 62.5q167 0 262 -62.5t95 -172.5q0 -83 -65 -137.5t-171 -64.5
q138 -10 210 -64.5t72 -145.5q0 -113 -111.5 -181.5t-291.5 -68.5zM599 -171q128 0 201 39.5t73 109.5q0 74 -72 117t-202 43t-201 -43t-71 -117q0 -70 72 -109.5t200 -39.5zM599 231q98 0 163 44t65 113q0 70 -57.5 101t-170.5 31q-111 0 -169 -31.5t-58 -100.5
q0 -73 62 -115t165 -42z" />
    <glyph glyph-name="fiveeighths.ss18" 
d="M600 815q-119 0 -211 35.5t-141.5 95.5t-40.5 134h126q-4 -60 71.5 -109.5t199.5 -49.5q134 0 204 51.5t70 130.5q0 92 -66.5 138t-191.5 46q-84 0 -156 -16.5t-128 -54.5l-107 31l78 456h639v-102h-528l-78 -324q37 51 116 81t188 30q168 0 265.5 -76t97.5 -202
q0 -135 -110 -215t-297 -80zM599 -274q-179 0 -290 68.5t-111 181.5q0 92 71.5 146.5t211.5 64.5q-106 9 -172 64t-66 137q0 110 95 172.5t261 62.5q167 0 262 -62.5t95 -172.5q0 -83 -65 -137.5t-171 -64.5q138 -10 210 -64.5t72 -145.5q0 -113 -111.5 -181.5t-291.5 -68.5
zM599 -171q128 0 201 39.5t73 109.5q0 74 -72 117t-202 43t-201 -43t-71 -117q0 -70 72 -109.5t200 -39.5zM599 231q98 0 163 44t65 113q0 70 -57.5 101t-170.5 31q-111 0 -169 -31.5t-58 -100.5q0 -73 62 -115t165 -42z" />
    <glyph glyph-name="seveneighths.ss18" 
d="M361 827l419 699q26 44 61 63.5t87 19.5l4 -8h-762v102h829l-480 -876h-158zM599 -274q-179 0 -290 68.5t-111 181.5q0 92 71.5 146.5t211.5 64.5q-106 9 -172 64t-66 137q0 110 95 172.5t261 62.5q167 0 262 -62.5t95 -172.5q0 -83 -65 -137.5t-171 -64.5
q138 -10 210 -64.5t72 -145.5q0 -113 -111.5 -181.5t-291.5 -68.5zM599 -171q128 0 201 39.5t73 109.5q0 74 -72 117t-202 43t-201 -43t-71 -117q0 -70 72 -109.5t200 -39.5zM599 231q98 0 163 44t65 113q0 70 -57.5 101t-170.5 31q-111 0 -169 -31.5t-58 -100.5
q0 -73 62 -115t165 -42z" />
    <glyph glyph-name="onehalf.ss19" 
d="M248 743v862l26 98h77v-960h-103zM103 1500v119q24 0 48 2t45 9q27 9 46 28t32 45l-23 -94q-7 -33 -16.5 -54t-33.5 -37q-17 -11 -38.5 -14.5t-59.5 -3.5zM177 0l417 939l294 782h121l-367 -809l-345 -912h-120zM708 0q20 43 48 91t59.5 96.5t61 94t51.5 82.5
q41 68 71.5 123.5t47.5 108.5t17 113q0 77 -28 120.5t-84 43.5q-57 0 -93 -48.5t-27 -179.5h-99q-9 119 17.5 192.5t80.5 107.5t125 34q101 0 156 -70.5t55 -190.5q0 -122 -43.5 -211.5t-87.5 -166.5q-20 -35 -48 -88t-54.5 -100.5t-40.5 -68.5q16 21 37 24.5t52 3.5h187
v-111h-461z" />
    <glyph glyph-name="uni2153.ss19" 
d="M177 0l417 939l294 782h121l-367 -809l-345 -912h-120zM897 -31q-91 0 -156 72.5t-60 238.5h98q-1 -101 31 -152t88 -50q47 1 80.5 45t33.5 123q0 100 -33 143.5t-82 43.5h-65v106h63q47 0 71.5 50.5t24.5 117.5q0 73 -26 114t-66 41q-47 0 -73 -48.5t-23 -140.5h-100
q-1 149 49 222t147 73q94 0 143.5 -70.5t49.5 -185.5q0 -70 -29 -138t-92 -85q68 -10 106 -72.5t38 -169.5q0 -89 -27 -151.5t-76 -94.5t-115 -32zM248 743v862l26 98h77v-960h-103zM103 1500v119q24 0 48 2t45 9q27 9 46 28t32 45l-23 -94q-7 -33 -16.5 -54t-33.5 -37
q-17 -11 -38.5 -14.5t-59.5 -3.5z" />
    <glyph glyph-name="uni2154.ss19" 
d="M217 0l417 939l294 782h121l-367 -809l-345 -912h-120zM917 -31q-91 0 -156 72.5t-60 238.5h98q-1 -101 31 -152t88 -50q47 1 80.5 45t33.5 123q0 100 -33 143.5t-82 43.5h-65v106h63q47 0 71.5 50.5t24.5 117.5q0 73 -26 114t-66 41q-47 0 -73 -48.5t-23 -140.5h-100
q-1 149 49 222t147 73q94 0 143.5 -70.5t49.5 -185.5q0 -70 -29 -138t-92 -85q68 -10 106 -72.5t38 -169.5q0 -89 -27 -151.5t-76 -94.5t-115 -32zM31 743q19 43 47 91t58.5 96.5t60 94t51.5 82.5q41 68 71.5 123.5t47.5 108.5t17 113q0 77 -28 120.5t-84 43.5
q-57 0 -93 -48.5t-27 -179.5h-99q-9 119 17.5 192.5t80.5 107.5t125 34q101 0 156 -70.5t55 -190.5q0 -122 -43.5 -211.5t-87.5 -166.5q-20 -36 -51 -89.5t-59.5 -101.5t-43.5 -69q16 21 38.5 26t54.5 5h194v-111h-458z" />
    <glyph glyph-name="onequarter.ss19" 
d="M248 743v862l26 98h77v-960h-103zM103 1500v119q24 0 48 2t45 9q27 9 46 28t32 45l-23 -94q-7 -33 -16.5 -54t-33.5 -37q-17 -11 -38.5 -14.5t-59.5 -3.5zM915 0v198h-328l275 762h152l-2 -3l1 -651h87v-108h-86v-198h-99zM724 286q9 9 20.5 14.5t23.5 5.5h182
q-22 0 -28.5 21.5t-6.5 45.5v311l4 152l-54 -143l-110 -343zM177 0l417 939l294 782h121l-367 -809l-345 -912h-120z" />
    <glyph glyph-name="threequarters.ss19" 
d="M277 714q-91 0 -156 72.5t-60 238.5h98q-1 -101 31 -152t88 -50q47 1 80.5 45t33.5 123q0 100 -33 143.5t-82 43.5h-65v106h63q47 0 71.5 50.5t24.5 117.5q0 73 -26 114t-66 41q-47 0 -73 -48.5t-23 -140.5h-100q-1 149 49 222t147 73q94 0 143.5 -70.5t49.5 -185.5
q0 -70 -29 -138t-92 -85q68 -10 106 -72.5t38 -169.5q0 -89 -27 -151.5t-76 -94.5t-115 -32zM217 0l417 939l294 782h121l-367 -809l-345 -912h-120zM939 0v198h-328l275 762h152l-2 -3l1 -651h87v-108h-86v-198h-99zM748 286q9 9 20.5 14.5t23.5 5.5h182q-22 0 -28.5 21.5
t-6.5 45.5v311l4 152l-54 -143l-110 -343z" />
    <glyph glyph-name="uni2155.ss19" 
d="M248 743v862l26 98h77v-960h-103zM103 1500v119q24 0 48 2t45 9q27 9 46 28t32 45l-23 -94q-7 -33 -16.5 -54t-33.5 -37q-17 -11 -38.5 -14.5t-59.5 -3.5zM945 0q-67 0 -115.5 42t-73 110t-20.5 145h99q2 -75 30 -130t84 -55q50 0 80 48t30 158q0 108 -27.5 158.5
t-80.5 50.5q-40 0 -69.5 -21.5t-48.5 -56.5l-86 36l39 495h344v-113h-261l-38 -354q8 26 18 41t27 34q19 20 43 33t55 13q47 0 91 -28t72 -96t28 -190q0 -136 -59.5 -228t-160.5 -92zM177 0l417 939l294 782h121l-367 -809l-345 -912h-120z" />
    <glyph glyph-name="uni2159.ss19" 
d="M177 0l417 939l294 782h121l-367 -809l-345 -912h-120zM890 96q69 0 109 56.5t39 153.5q-1 89 -34.5 138.5t-94.5 49.5q-51 0 -100 -32.5t-63 -75.5q-3 -9 -4.5 -21t-1.5 -31q0 -112 40 -175t110 -63zM887 -13q-109 0 -174.5 98.5t-65.5 260.5q0 111 29.5 223.5
t85.5 217.5t134 193h114q-77 -82 -134 -173t-91 -183t-41 -178q21 71 68 109t113 38q95 0 151 -76t56 -203q1 -94 -31 -168t-87.5 -116.5t-126.5 -42.5zM248 743v852q-4 -22 -15.5 -43.5t-30.5 -33.5q-16 -11 -40.5 -14.5t-58.5 -3.5v119q24 0 48 2t45 9q27 9 46 28t32 45
h77v-960h-103z" />
    <glyph glyph-name="oneeighth.ss19" 
d="M177 0l417 939l294 782h121l-367 -809l-345 -912h-120zM893 89q52 0 87 44.5t35 124.5q0 93 -34.5 139t-87.5 46q-52 0 -86.5 -45.5t-34.5 -139.5q0 -80 34.5 -124.5t86.5 -44.5zM248 743v852q-6 -27 -16 -45t-31 -32q-17 -11 -38.5 -14.5t-59.5 -3.5v119q24 0 48 2t45 9
q27 9 46 28t32 45h77v-960h-103zM893 -20q-92 0 -156.5 70.5t-64.5 205.5q0 108 40 170t114 74q-67 13 -98.5 79.5t-31.5 135.5q0 123 50 193.5t147 70.5q98 0 148 -71t50 -193q0 -69 -31.5 -136t-97.5 -81q75 -10 114 -75t39 -167q0 -90 -29.5 -151.5t-80 -93t-112.5 -31.5
zM893 550q48 0 74 50.5t26 115.5q0 75 -27 116t-73 41t-72.5 -41t-26.5 -116q0 -64 23.5 -115t75.5 -51z" />
    <glyph glyph-name="threeeighths.ss19" 
d="M277 714q-91 0 -156 72.5t-60 238.5h98q-1 -101 31 -152t88 -50q47 1 80.5 45t33.5 123q0 100 -33 143.5t-82 43.5h-65v106h63q47 0 71.5 50.5t24.5 117.5q0 73 -26 114t-66 41q-47 0 -73 -48.5t-23 -140.5h-100q-1 149 49 222t147 73q94 0 143.5 -70.5t49.5 -185.5
q0 -70 -29 -138t-92 -85q68 -10 106 -72.5t38 -169.5q0 -89 -27 -151.5t-76 -94.5t-115 -32zM177 0l417 939l294 782h121l-367 -809l-345 -912h-120zM893 -20q-92 0 -156.5 70.5t-64.5 205.5q0 108 40 170t114 74q-67 13 -98.5 79.5t-31.5 135.5q0 123 50 193.5t147 70.5
q98 0 148 -71t50 -193q0 -69 -31.5 -136t-97.5 -81q75 -10 114 -75t39 -167q0 -90 -29.5 -151.5t-80 -93t-112.5 -31.5zM893 89q52 0 87 44.5t35 124.5q0 93 -34.5 139t-87.5 46q-52 0 -86.5 -45.5t-34.5 -139.5q0 -80 34.5 -124.5t86.5 -44.5zM893 550q48 0 74 50.5
t26 115.5q0 75 -27 116t-73 41t-72.5 -41t-26.5 -116q0 -64 23.5 -115t75.5 -51z" />
    <glyph glyph-name="fiveeighths.ss19" 
d="M276 723q-67 0 -115.5 42t-73 110t-20.5 145h99q2 -75 30 -130t84 -55q50 0 80 48t30 158q0 108 -27.5 158.5t-80.5 50.5q-40 0 -69.5 -21.5t-48.5 -56.5l-86 36l39 495h344v-113h-261l-38 -354q8 26 18 41t27 34q19 20 43 33t55 13q47 0 91 -28t72 -96t28 -190
q0 -136 -59.5 -228t-160.5 -92zM177 0l417 939l294 782h121l-367 -809l-345 -912h-120zM893 -20q-92 0 -156.5 70.5t-64.5 205.5q0 108 40 170t114 74q-67 13 -98.5 79.5t-31.5 135.5q0 123 50 193.5t147 70.5q98 0 148 -71t50 -193q0 -69 -31.5 -136t-97.5 -81
q75 -10 114 -75t39 -167q0 -90 -29.5 -151.5t-80 -93t-112.5 -31.5zM893 89q52 0 87 44.5t35 124.5q0 93 -34.5 139t-87.5 46q-52 0 -86.5 -45.5t-34.5 -139.5q0 -80 34.5 -124.5t86.5 -44.5zM893 550q48 0 74 50.5t26 115.5q0 75 -27 116t-73 41t-72.5 -41t-26.5 -116
q0 -64 23.5 -115t75.5 -51z" />
    <glyph glyph-name="seveneighths.ss19" 
d="M177 0l417 939l294 782h121l-367 -809l-345 -912h-120zM893 89q52 0 87 44.5t35 124.5q0 93 -34.5 139t-87.5 46q-52 0 -86.5 -45.5t-34.5 -139.5q0 -80 34.5 -124.5t86.5 -44.5zM893 -20q-92 0 -156.5 70.5t-64.5 205.5q0 108 40 170t114 74q-67 13 -98.5 79.5
t-31.5 135.5q0 123 50 193.5t147 70.5q98 0 148 -71t50 -193q0 -69 -31.5 -136t-97.5 -81q75 -10 114 -75t39 -167q0 -90 -29.5 -151.5t-80 -93t-112.5 -31.5zM202 743l193 764q9 32 24.5 52.5t35.5 30.5h-338v113h433l-235 -960h-113zM893 550q48 0 74 50.5t26 115.5
q0 75 -27 116t-73 41t-72.5 -41t-26.5 -116q0 -64 23.5 -115t75.5 -51z" />
    <glyph glyph-name="zero_part." 
d="M600 -30q-159 0 -269 78.5t-167 247t-57 439.5q0 272 57 436.5t167 238t269 73.5q160 0 269.5 -73.5t166.5 -238t57 -436.5q0 -271 -57 -439.5t-166.5 -247t-269.5 -78.5zM600 90q89 0 157 35t114 111.5t69 199.5t23 299q0 175 -23.5 295.5t-69.5 193.5t-113.5 106
t-156.5 33t-156.5 -33t-113.5 -106t-69.5 -193.5t-23.5 -295.5q0 -176 23 -299t69 -199.5t114 -111.5t157 -35z" />
    <glyph glyph-name="period" unicode="." 
d="M601 -30q-59 0 -95 38.5t-36 106.5t36 106t95 38q58 0 93.5 -38t35.5 -106t-35.5 -106.5t-93.5 -38.5z" />
    <glyph glyph-name="comma" unicode="," 
d="M492 -510v146h29q21 0 36 31t23 86.5t8 129.5q0 36 13.5 71.5t69.5 45.5h-162v264h223v-358q0 -111 -16.5 -206t-63 -152.5t-136.5 -57.5h-24z" />
    <glyph glyph-name="colon" unicode=":" 
d="M601 -30q-59 0 -95 38.5t-36 106.5t36 106t95 38q58 0 93.5 -38t35.5 -106t-35.5 -106.5t-93.5 -38.5zM601 707q-59 0 -95 38.5t-36 106.5t36 106t95 38q58 0 93.5 -38t35.5 -106t-35.5 -106.5t-93.5 -38.5z" />
    <glyph glyph-name="semicolon" unicode=";" 
d="M611 707q-59 0 -95 38.5t-36 106.5t36 106t95 38q58 0 93.5 -38t35.5 -106t-35.5 -106.5t-93.5 -38.5zM492 -510v146h29q21 0 36 31t23 86.5t8 129.5q0 36 13.5 71.5t69.5 45.5h-162v264h223v-358q0 -111 -16.5 -206t-63 -152.5t-136.5 -57.5h-24z" />
    <glyph glyph-name="ellipsis" unicode="&#x2026;" 
d="M190 -30q-60 0 -88 35.5t-28 109.5t28 109t88 35q59 0 87 -35t28 -109t-28 -109.5t-87 -35.5zM1010 -30q-59 0 -87 35.5t-28 109.5t28 109t87 35q60 0 88 -35t28 -109t-28 -109.5t-88 -35.5zM600 -30q-60 0 -88 35.5t-28 109.5t28 109t88 35t88 -35t28 -109t-28 -109.5
t-88 -35.5z" />
    <glyph glyph-name="exclam" unicode="!" 
d="M553 479l-26 682l-14 539h171l-14 -539l-26 -682h-91zM600 -30q-58 0 -94 38.5t-36 106.5t36 106t94 38q59 0 94.5 -38t35.5 -106t-35.5 -106.5t-94.5 -38.5z" />
    <glyph glyph-name="exclamdown" unicode="&#xa1;" 
d="M553 1188h91l26 -682l14 -539h-171l14 539zM600 1697q59 0 94.5 -38.5t35.5 -106.5t-35.5 -106t-94.5 -38q-58 0 -94 38t-36 106t36 106.5t94 38.5z" />
    <glyph glyph-name="question" unicode="?" 
d="M529 479q-10 35 -12.5 74.5t-2.5 70.5q0 81 28 142t73 110t94.5 94t94.5 92.5t73 104.5t28 132q0 65 -30.5 133t-99 114.5t-183.5 46.5q-144 0 -223.5 -62t-104.5 -166.5t-6 -232.5l-132 1q-16 115 -1 219t68.5 184.5t152 127t248.5 46.5q132 0 219.5 -39t137.5 -100.5
t71 -131t21 -130.5q0 -93 -29 -161.5t-74.5 -121t-97 -98t-97 -92t-74.5 -103t-29 -131.5q0 -26 1.5 -56t5.5 -67h-120zM600 -31q-57 0 -92 36.5t-35 95.5t35 95t92 36t92 -36t35 -95t-35 -95.5t-92 -36.5z" />
    <glyph glyph-name="questiondown" unicode="&#xbf;" 
d="M677 1172q10 -34 12.5 -74t2.5 -71q0 -80 -28 -141.5t-73 -110.5t-94.5 -94t-94.5 -92.5t-73 -104.5t-28 -132q0 -65 30.5 -133t99 -114.5t183.5 -46.5q144 0 223.5 62t104.5 166.5t6 232.5l132 -1q16 -115 1 -219t-68.5 -184.5t-152 -127t-248.5 -46.5q-132 0 -219.5 39
t-137.5 100.5t-71 131t-21 130.5q0 93 29 161.5t74.5 121t97 98t97 92t74.5 103t29 131.5q0 26 -1.5 56t-5.5 67h120zM606 1682q57 0 92 -36.5t35 -95.5t-35 -95t-92 -36t-92 36t-35 95t35 95.5t92 36.5z" />
    <glyph glyph-name="periodcentered" unicode="&#xb7;" 
d="M601 612q-59 0 -95 38.5t-36 106.5t36 106t95 38q58 0 93.5 -38t35.5 -106t-35.5 -106.5t-93.5 -38.5z" />
    <glyph glyph-name="bullet" unicode="&#x2022;" 
d="M600 596q-66 0 -111.5 45.5t-45.5 117.5q0 71 45.5 116.5t111.5 45.5t111.5 -45.5t45.5 -116.5q0 -72 -45.5 -117.5t-111.5 -45.5z" />
    <glyph glyph-name="asterisk" unicode="*" 
d="M363 415l-163 118l350 363l-496 88l62 191l453 -220l-69 499h200l-69 -499l453 220l62 -191l-496 -88l350 -363l-163 -118l-237 444z" />
    <glyph glyph-name="numbersign" unicode="#" 
d="M577 20l323 1404h133l-323 -1404h-133zM74 353v120h946v-120h-946zM167 20l323 1404h133l-323 -1404h-133zM181 941v120h945v-120h-945z" />
    <glyph glyph-name="slash" unicode="/" 
d="M206 -196l644 1886h144l-644 -1886h-144z" />
    <glyph glyph-name="backslash" unicode="\" 
d="M994 -196h-144l-644 1886h144z" />
    <glyph glyph-name="asterisk.ss15" 
d="M501 419l70 459l-355 -254l-102 151l420 162l-419 192l101 150l355 -287l-57 462h186l-67 -462l356 287l98 -150l-413 -192l416 -163l-98 -150l-359 254l69 -459h-201z" />
    <glyph glyph-name="asterisk.ss16" 
d="M500 437l69 499l-453 -220l-62 191l496 88l-350 363l163 118l237 -444l237 444l163 -118l-350 -363l496 -88l-62 -191l-453 220l69 -499h-200z" />
    <glyph glyph-name="parenleft" unicode="(" 
d="M736 -250q-106 70 -188 175.5t-138.5 233.5t-85 268.5t-28.5 280.5q0 137 28.5 277t85 269t138.5 235.5t188 176.5h156q-111 -87 -196.5 -193.5t-144.5 -229.5t-89 -257.5t-30 -277.5q0 -200 53 -377t155.5 -323.5t251.5 -257.5h-156z" />
    <glyph glyph-name="parenright" unicode=")" 
d="M296 -250q149 111 251.5 257.5t155.5 323.5t53 377q0 143 -30 277.5t-89 257.5t-144.5 229.5t-196.5 193.5h156q107 -70 188.5 -176.5t138 -235.5t85 -269t28.5 -277q0 -140 -28.5 -280.5t-85 -268.5t-138 -233.5t-188.5 -175.5h-156z" />
    <glyph glyph-name="braceleft" unicode="{" 
d="M648 -250q-81 0 -140 22.5t-93 65t-41 104t14 139.5l99 363q22 80 9 115t-69 61q-27 13 -50.5 20t-59 11t-100.5 9v112q71 6 104.5 9.5t54 9.5t50.5 18q50 20 67.5 53.5t-5.5 113.5l-100 358q-21 77 -13.5 138t42 104.5t93 66.5t138.5 23h292v-108h-238
q-148 0 -180.5 -58t-1.5 -172l98 -366q19 -68 8 -117t-62 -81t-153 -51q102 -15 153 -44t63 -74.5t-5 -112.5l-102 -395q-20 -77 -14.5 -128t51 -76t145.5 -25h238v-108h-292z" />
    <glyph glyph-name="braceright" unicode="}" 
d="M552 -250h-292v108h238q100 0 145.5 25t51 76t-14.5 128l-102 395q-17 67 -5 112.5t63.5 74.5t152.5 44q-102 19 -153 51t-61.5 81t7.5 117l98 366q31 114 -1 172t-181 58h-238v108h292q80 0 138.5 -23t93 -66.5t42 -104.5t-13.5 -138l-100 -358q-22 -80 -5 -113.5
t67 -53.5q30 -12 50.5 -18t54.5 -9.5t104 -9.5v-112q-64 -5 -100 -9t-59.5 -11t-50.5 -20q-56 -26 -69 -61t9 -115l99 -363q21 -78 14 -139.5t-41 -104t-93 -65t-140 -22.5z" />
    <glyph glyph-name="bracketleft" unicode="[" 
d="M266 -241v1897h654v-107h-584l61 34v-1752l-61 35h584v-107h-654z" />
    <glyph glyph-name="bracketright" unicode="]" 
d="M934 -241h-654v107h584l-61 -35v1752l61 -34h-584v107h654v-1897z" />
    <glyph glyph-name="hyphen" unicode="-" 
d="M220 641v118h760v-118h-760z" />
    <glyph glyph-name="uni00AD" unicode="&#xad;" 
d="M220 641v118h760v-118h-760z" />
    <glyph glyph-name="endash" unicode="&#x2013;" 
d="M120 651v100h960v-100h-960z" />
    <glyph glyph-name="emdash" unicode="&#x2014;" 
d="M0 651v100h1200l-2 -100h-1198z" />
    <glyph glyph-name="underscore" unicode="_" 
d="M-4 -167v116h1208v-116h-1208z" />
    <glyph glyph-name="quotesinglbase" unicode="&#x201a;" 
d="M480 -457v146h43q28 0 43.5 19.5t22.5 61t8 106.5q1 71 11.5 94.5t50.5 29.5h-168v284h229v-395q0 -181 -42 -263.5t-134 -82.5h-64z" />
    <glyph glyph-name="quotedblbase" unicode="&#x201e;" 
d="M270 -457v146h43q28 0 44 19.5t22.5 61t7.5 106.5q1 71 11.5 94.5t50.5 29.5h-168v284h229v-395q0 -120 -18.5 -196.5t-57 -113t-100.5 -36.5h-64zM691 -457v146h43q28 0 43.5 19.5t22.5 61t8 106.5q1 71 11.5 94.5t50.5 29.5h-168v284h229v-395q0 -120 -18.5 -196.5
t-57 -113t-100.5 -36.5h-64z" />
    <glyph glyph-name="quotedblleft" unicode="&#x201c;" 
d="M930 1555v-146h-43q-28 0 -44 -19.5t-22.5 -60.5t-7.5 -107q-1 -70 -11 -94t-51 -30h168v-284h-229v395q0 121 18.5 197t57.5 112.5t100 36.5h64zM509 1555v-146h-43q-28 0 -43.5 -19.5t-22.5 -60.5t-8 -107q-1 -70 -11 -94t-51 -30h168v-284h-229v395q0 121 18.5 197
t57.5 112.5t100 36.5h64z" />
    <glyph glyph-name="quotedblright" unicode="&#x201d;" 
d="M270 814v146h43q28 0 44 19.5t22.5 61t7.5 106.5q1 71 11.5 94.5t50.5 29.5h-168v284h229v-395q0 -120 -18.5 -196.5t-57 -113t-100.5 -36.5h-64zM691 814v146h43q28 0 43.5 19.5t22.5 61t8 106.5q1 71 11.5 94.5t50.5 29.5h-168v284h229v-395q0 -120 -18.5 -196.5
t-57 -113t-100.5 -36.5h-64z" />
    <glyph glyph-name="quoteleft" unicode="&#x2018;" 
d="M720 1555v-146h-43q-28 0 -44 -19.5t-22.5 -60.5t-7.5 -107q-1 -70 -11 -94t-51 -30h168v-284h-229v395q0 181 42 263.5t134 82.5h64z" />
    <glyph glyph-name="quoteright" unicode="&#x2019;" 
d="M480 814v146h43q28 0 43.5 19.5t22.5 61t8 106.5q1 71 11.5 94.5t50.5 29.5h-168v284h229v-395q0 -181 -42 -263.5t-134 -82.5h-64z" />
    <glyph glyph-name="guillemotleft" unicode="&#xab;" 
d="M460 170l-295 378v10l295 378h160l-213 -275q-37 -49 -62.5 -72t-76.5 -36q51 -13 76.5 -36.5t62.5 -70.5l213 -276h-160zM838 170l-295 378v10l295 378h160l-213 -275q-37 -49 -62.5 -72t-76.5 -36q51 -13 76.5 -36.5t62.5 -70.5l213 -276h-160z" />
    <glyph glyph-name="guillemotright" unicode="&#xbb;" 
d="M202 170l213 276q37 47 62.5 70.5t76.5 36.5q-51 13 -76 36t-63 72l-213 275h160l295 -378v-10l-295 -378h-160zM580 170l213 276q37 47 62.5 70.5t76.5 36.5q-51 13 -76 36t-63 72l-213 275h160l295 -378v-10l-295 -378h-160z" />
    <glyph glyph-name="guilsinglleft" unicode="&#x2039;" 
d="M665 170l-295 378v10l295 378h160l-213 -275q-37 -49 -62.5 -72t-76.5 -36q51 -13 76.5 -36.5t62.5 -70.5l213 -276h-160z" />
    <glyph glyph-name="guilsinglright" unicode="&#x203a;" 
d="M375 170l213 276q37 47 62.5 70.5t76.5 36.5q-51 13 -76 36t-63 72l-213 275h160l295 -378v-10l-295 -378h-160z" />
    <glyph glyph-name="quotedbl" unicode="&#x22;" 
d="M311 736l-31 819h190l-31 -819h-128zM761 736l-31 819h190l-31 -819h-128z" />
    <glyph glyph-name="quotesingle" unicode="'" 
d="M536 736l-31 819h190l-31 -819h-128z" />
    <glyph glyph-name="space" unicode=" " 
 />
    <glyph glyph-name="uni00A0" unicode="&#xa0;" 
 />
    <glyph glyph-name="uni200B" unicode="&#x200b;" horiz-adv-x="0" 
 />
    <glyph glyph-name="CR" unicode="&#xd;" 
 />
    <glyph glyph-name="cent" unicode="&#xa2;" 
d="M610 -15q-134 0 -239 65t-165 189.5t-60 300.5q0 187 62 314t169.5 192.5t246.5 65.5q127 0 217.5 -56.5t141.5 -151t61 -208.5h-130q-4 43 -20 94.5t-50 98.5t-90.5 77t-140.5 30q-160 0 -250 -113.5t-90 -333.5q0 -210 90 -329t253 -119q109 0 167 30.5t83 77t35 94.5
h130q-11 -77 -58 -150.5t-136 -120.5t-227 -47zM552 1051v176h129v-176h-129zM552 -134v176h129v-176h-129z" />
    <glyph glyph-name="currency" unicode="&#xa4;" 
d="M599 396q-100 0 -180 47t-127 127t-47 179q0 102 45.5 181.5t125.5 125t183 45.5t183 -46.5t126.5 -126t46.5 -179.5q0 -102 -45.5 -182t-125.5 -125.5t-185 -45.5zM599 508q110 0 168.5 70.5t58.5 170.5q0 99 -58.5 169.5t-168.5 70.5q-109 0 -167.5 -70t-58.5 -170
q0 -97 60 -169t166 -72zM296 332l-100 98l163 157l101 -97zM904 331l-164 158l101 97l163 -157zM361 907l-164 158l100 97l164 -158zM841 908l-101 97l164 157l100 -96z" />
    <glyph glyph-name="dollar" unicode="$" 
d="M560 -209v231h125v-231h-125zM560 1430v226h125v-226h-125zM635 2q-133 0 -238.5 48t-166.5 142.5t-61 233.5h121q0 -108 47.5 -176t125.5 -100.5t169 -32.5q120 0 189.5 38t98.5 99t29 130q0 91 -47 142t-124.5 84t-170.5 67q-118 44 -211.5 96.5t-147.5 128.5t-54 191
q0 120 54.5 200.5t151 121t223.5 40.5q184 0 290.5 -96.5t128.5 -278.5h-120q-8 64 -35 123.5t-90 98t-181 38.5q-142 0 -221.5 -61t-79.5 -186q0 -77 37 -129t112 -92.5t188 -84.5q87 -34 164 -66t135.5 -74.5t91.5 -105.5t33 -159q0 -174 -113 -277t-328 -103z" />
    <glyph glyph-name="Euro" unicode="&#x20ac;" 
d="M663 -25q-149 0 -266 86.5t-184.5 256.5t-67.5 420q0 244 66 409t184 249.5t273 84.5q137 0 237 -59t156 -161t60 -232h-126q-4 92 -44.5 168t-112 121t-168.5 45q-178 0 -289 -152.5t-111 -470.5q0 -226 54 -369.5t145.5 -211t201.5 -67.5q97 0 168 47t111 114t43 127
h124q-8 -106 -64 -198.5t-154.5 -149.5t-235.5 -57zM15 504v114h721v-114h-721zM42 821v114h736v-114h-736z" />
    <glyph glyph-name="sterling" unicode="&#xa3;" 
d="M99 0v118q85 34 148.5 102t99.5 160.5t36 201.5q0 46 -18.5 88.5t-45 86t-53.5 92.5t-45.5 108t-18.5 133q0 95 43.5 184t145 146t274.5 57q119 0 213 -48.5t148.5 -142t54.5 -228.5q0 -11 -1 -21t-3 -38h-124q1 11 1 21v20q0 85 -29.5 158t-93 117.5t-165.5 44.5
q-133 0 -206.5 -41.5t-102 -104t-28.5 -124.5q0 -79 26 -144t60 -123t60 -116.5t26 -125.5q0 -139 -42.5 -232t-126.5 -164q-19 -16 -59 -36.5t-90 -30.5zM99 0v118h1006v-118h-1006zM163 601v114h749v-114h-749z" />
    <glyph glyph-name="yen" unicode="&#xa5;" 
d="M542 631l-479 823h145l314 -576l72 -141h11l73 141l314 576h145l-479 -823h-116zM538 0v651h123v-651h-123zM184 623v107h836v-107h-836zM184 261v107h836v-107h-836z" />
    <glyph glyph-name="uni2215" unicode="&#x2215;" 
d="M206 -196l644 1886h144l-644 -1886h-144z" />
    <glyph glyph-name="plus" unicode="+" 
d="M530 253v330q0 36 11 60t35 31l-46 36v87v417h141v-961h-141zM139 674v125h922v-125h-922z" />
    <glyph glyph-name="minus" unicode="&#x2212;" 
d="M177 673v127h846v-127h-846z" />
    <glyph glyph-name="multiply" unicode="&#xd7;" 
d="M341 361l-96 99l292 290l55 55l277 300l96 -100l-295 -292l-45 -48zM873 359l-280 302l-57 60l-286 284l95 100l275 -298l53 -53l295 -294z" />
    <glyph glyph-name="divide" unicode="&#xf7;" 
d="M163 673v127h874v-127h-874zM600 957q-49 0 -84 35t-35 90q0 53 35 87.5t84 34.5t84 -34.5t35 -87.5q0 -55 -35 -90t-84 -35zM600 274q-49 0 -84 34.5t-35 88.5q0 55 35 89.5t84 34.5t84 -34.5t35 -89.5q0 -54 -35 -88.5t-84 -34.5z" />
    <glyph glyph-name="equal" unicode="=" 
d="M127 419v126h946v-126h-946zM127 881v126h946v-126h-946z" />
    <glyph glyph-name="greater" unicode="&#x3e;" 
d="M250 210v139l470 259l196 102v8l-196 102l-470 259v139l780 -440v-128z" />
    <glyph glyph-name="less" unicode="&#x3c;" 
d="M950 210l-780 440v128l780 440v-139l-470 -259l-196 -102v-8l196 -102l470 -259v-139z" />
    <glyph glyph-name="plusminus" unicode="&#xb1;" 
d="M192 128v127h846v-127h-846zM530 254v330q0 36 11 60t35 31l-46 36v87v417h141v-961h-141zM139 675v125h922v-125h-922z" />
    <glyph glyph-name="approxequal" unicode="&#x2248;" 
d="M831 244q-85 0 -138 34.5t-87 85.5t-62.5 102t-65 86t-94.5 36q-76 1 -112 -50.5t-44 -129t-1 -153.5h-114q-6 76 2 155t37 146t84.5 108t143.5 41q82 0 132.5 -34.5t83.5 -86t61.5 -103t65 -86.5t94.5 -36q76 -1 111.5 51t43.5 129.5t0 151.5h115q6 -73 -1.5 -151
t-35.5 -145.5t-81.5 -109t-137.5 -41.5zM831 747q-85 0 -138 34.5t-87 85.5t-62.5 102t-65 86t-94.5 36q-76 1 -112 -50.5t-44 -129t-1 -153.5h-114q-6 76 2 155t37 146t84.5 108t143.5 41q82 0 132.5 -34.5t83.5 -86t61.5 -103t65 -86.5t94.5 -36q76 -1 111.5 51
t43.5 129.5t0 151.5h115q6 -73 -1.5 -151t-35.5 -145.5t-81.5 -109t-137.5 -41.5z" />
    <glyph glyph-name="asciitilde" unicode="~" 
d="M831 494q-85 0 -138 34.5t-87 85.5t-62.5 102t-65 86t-94.5 36q-76 1 -112 -50.5t-44 -129t-1 -153.5h-114q-6 76 2 155t37 146t84.5 108t143.5 41q82 0 132.5 -34.5t83.5 -86t61.5 -103t65 -86.5t94.5 -36q76 -1 111.5 51t43.5 129.5t0 151.5h115q6 -73 -1.5 -151
t-35.5 -145.5t-81.5 -109t-137.5 -41.5z" />
    <glyph glyph-name="logicalnot" unicode="&#xac;" 
d="M872 393v190q0 50 15 69t67 25h-756v130h804v-414h-130z" />
    <glyph glyph-name="asciicircum" unicode="^" 
d="M185 545l360 909h111l359 -909h-142l-111 344l-159 410h-5l-161 -411l-110 -343h-142z" />
    <glyph glyph-name="infinity" unicode="&#x221e;" 
d="M286 381q-125 0 -205 88t-80 234q0 96 34.5 171.5t94.5 119t137 43.5q63 0 119.5 -28t108 -77t99.5 -112l20 -31q30 101 76.5 160.5t104 86t118.5 26.5q126 0 206 -87.5t80 -235.5q0 -96 -34.5 -171.5t-94.5 -119t-137 -43.5q-94 0 -174.5 61.5t-152.5 156.5l-20 30
q-30 -100 -77 -159.5t-104 -86t-119 -26.5zM317 504q61 0 110.5 19.5t87.5 59t61 97.5l-31 40q-72 94 -133 143t-150 49q-82 0 -123.5 -57t-41.5 -154q0 -107 63 -152t157 -45zM938 530q82 0 123 57.5t41 154.5q0 107 -62.5 152.5t-157.5 45.5q-63 0 -114 -21.5t-87.5 -61.5
t-56.5 -94l31 -40q73 -96 133 -144.5t150 -48.5z" />
    <glyph glyph-name="uni00B5" unicode="&#xb5;" 
d="M578 -29q-84 0 -139.5 29.5t-87.5 74.5t-45 92.5t-13 82.5l-114 63v778h121v-672q0 -36 10.5 -90t41.5 -107.5t91 -90t158 -36.5q61 0 118 42.5t94 106t36 126.5v721h121v-1091h-106l-13 213h1q-19 -100 -90 -171t-184 -71zM180 -324l-1 637l121 106l-2 -743h-118z" />
    <glyph glyph-name="percent" unicode="%" 
d="M264 0l576 1454h94l-577 -1454h-93zM279 829q75 0 114.5 68.5t39.5 196.5t-40 195t-117 67q-74 0 -113.5 -67t-39.5 -195t40 -196.5t116 -68.5zM276 720q-128 0 -196.5 96.5t-68.5 278.5q0 179 69 274.5t199 95.5t198.5 -95.5t68.5 -274.5q0 -182 -69.5 -278.5
t-200.5 -96.5zM923 98q75 0 114.5 68.5t39.5 196.5t-40.5 195t-117.5 67q-73 0 -112.5 -67t-39.5 -195t40 -196.5t116 -68.5zM919 -11q-128 0 -196.5 96.5t-68.5 278.5q0 179 69.5 274.5t199.5 95.5q129 0 197.5 -95.5t68.5 -274.5q0 -182 -69.5 -278.5t-200.5 -96.5z" />
    <glyph glyph-name="plus.alt" horiz-adv-x="2400" 
d="M1871 799h390v-125h-390v-421h-141v330q0 36 11 60t35 31h-1105v-421h-141v330q0 36 11 60t35 31h-437v125h391v415h141v-415h1059v415h141v-415z" />
    <glyph glyph-name="equal.alt" horiz-adv-x="2400" 
d="M2264 1001v-123h-2124v123h2124zM140 548h2124v-123h-2124v123z" />
    <glyph glyph-name="at" unicode="@" 
d="M620 -217q-298 0 -440.5 189t-142.5 583q0 434 147.5 642t455.5 208q267 0 395 -165.5t128 -512.5q0 -298 -74.5 -441t-230.5 -143q-70 0 -103.5 56.5t-32.5 174.5q1 27 3.5 53t6.5 53h-5q-27 -168 -76.5 -248.5t-125.5 -80.5q-103 0 -153 89.5t-50 276.5
q0 257 78.5 379.5t241.5 122.5q45 0 78.5 -11.5t57.5 -34.5h82q-24 -274 -35.5 -417t-11.5 -169q0 -124 62 -124q95 0 140 110.5t45 341.5q0 297 -101 439t-313 142q-259 0 -382.5 -182t-123.5 -563q0 -337 118 -498t365 -161q161 0 259 79l5 -108q-87 -80 -267 -80z
M544 269q99 0 147.5 139t50.5 428q-26 67 -106 67q-101 0 -149.5 -92.5t-48.5 -286.5q0 -255 106 -255z" />
    <glyph glyph-name="ampersand" unicode="&#x26;" 
d="M554 -19q-97 0 -179 27t-142.5 77.5t-94 120.5t-33.5 155q0 104 41.5 183t120 129.5t190.5 65.5l86 16q93 28 145 89.5t73 138.5t21 151t-24 124t-69 75.5t-109 25.5t-109.5 -25t-69.5 -76.5t-24 -130.5q0 -78 31.5 -146.5t119.5 -175.5l35 -43l368 -458l45 -54l204 -250
h-155l-120 151l-28 36l-418 532l-38 38q-58 71 -95.5 136t-55.5 126t-18 119q0 103 44.5 179.5t118.5 119t165 42.5q95 0 169 -41.5t116.5 -115.5t42.5 -173q0 -90 -32.5 -173.5t-106 -145t-198.5 -88.5l-94 -22q-74 -22 -128 -69t-83.5 -114.5t-29.5 -151.5t43.5 -148
t118.5 -100t169 -36q53 0 110.5 10t108 39t81.5 86l49 66q22 46 32.5 91t14 104t2.5 145l115 1q0 -84 -8 -157.5t-29 -140.5t-59 -133l-47 -52q-60 -86 -154.5 -132.5t-228.5 -46.5z" />
    <glyph glyph-name="paragraph" unicode="&#xb6;" 
d="M614 0v411q0 52 11 86t34.5 52.5t60.5 24.5h-153q-141 0 -246 59t-163.5 166t-58.5 249q0 193 110 299.5t309 106.5h222v-1454h-126zM886 0v1454h125v-1454h-125z" />
    <glyph glyph-name="section" unicode="&#xa7;" 
d="M607 -17q-109 0 -205.5 33t-160.5 105t-74 188h134q23 -125 101 -168t201 -43q81 0 149 17t109.5 58.5t41.5 115.5q0 76 -42 112.5t-109 54.5t-141 35q-53 12 -117.5 33t-123 55.5t-96.5 88.5t-38 132q0 116 85 174t213 58l78 -11q-59 0 -115.5 -22t-93.5 -67t-37 -115
q0 -77 44 -119t108.5 -62.5t125.5 -35.5q44 -10 109.5 -26.5t129.5 -48t107 -87t43 -144.5q0 -97 -56 -166.5t-152 -107t-218 -37.5zM679 571l-34 12q92 0 149.5 61t57.5 158q0 75 -34 111t-88.5 53t-116.5 32q-96 24 -180 61.5t-135.5 100.5t-51.5 162q0 78 37.5 145.5
t118.5 109t212 41.5q105 0 189 -32t135 -102t58 -183h-131q-1 56 -24.5 101.5t-78.5 73t-152 27.5t-165.5 -36.5t-68.5 -137.5q0 -73 37.5 -114.5t99 -64.5t133.5 -43q38 -10 94 -26t111.5 -46t93 -81.5t37.5 -134.5q0 -77 -37 -133t-105 -85.5t-161 -29.5z" />
    <glyph glyph-name="copyright" unicode="&#xa9;" 
d="M600 266q-273 0 -418 155.5t-145 448.5q0 288 145 441t419 153q273 0 418 -153t145 -441q0 -293 -145 -448.5t-419 -155.5zM600 362q222 0 340 130.5t118 375.5q0 243 -117.5 371.5t-339.5 128.5t-340 -128.5t-118 -371.5q0 -245 117.5 -375.5t339.5 -130.5zM609 524
q-134 0 -203 91t-69 246q0 159 71.5 247.5t200.5 88.5q117 0 181.5 -64t68.5 -170h-116q-3 54 -33.5 94.5t-103.5 40.5q-81 0 -118.5 -61t-37.5 -171q0 -114 39 -177t126 -65q56 -1 90.5 38.5t35.5 81.5h116q-4 -93 -74 -156.5t-174 -63.5z" />
    <glyph glyph-name="registered" unicode="&#xae;" 
d="M398 537v646h106l1 -646h-107zM744 537l-130 245h-121l-30 7l13 71v15h129q62 0 88.5 32t26.5 78q0 59 -31.5 82t-81.5 23h-104l-3 27l-37 66h48h55.5h61.5q93 0 148 -46t55 -138q0 -49 -17.5 -92t-53 -72t-90.5 -37l-3 13q12 0 24.5 -2.5t22.5 -8t16 -16.5l141 -247
h-127zM600 266q-273 0 -418 155.5t-145 448.5q0 288 145 441t419 153q273 0 418 -153t145 -441q0 -293 -145 -448.5t-419 -155.5zM600 362q222 0 340 130.5t118 375.5q0 243 -117.5 371.5t-339.5 128.5t-340 -128.5t-118 -371.5q0 -245 117.5 -375.5t339.5 -130.5z" />
    <glyph glyph-name="trademark" unicode="&#x2122;" 
d="M581 911v543h148l112 -256l33 -84l35 84l109 256h149v-543h-94v297l5 164h-3l-51 -133l-126 -268h-44l-131 268l-51 133h-3l5 -164v-297h-93zM215 911v523h95v-523h-95zM42 1352v102h440v-102h-440z" />
    <glyph glyph-name="degree" unicode="&#xb0;" 
d="M600 963q-136 0 -215.5 80t-79.5 216q0 135 80.5 214.5t216.5 79.5q135 0 214.5 -79.5t79.5 -214.5q0 -136 -80 -216t-216 -80zM600 1067q81 0 128.5 52t47.5 140q0 89 -47.5 140.5t-128.5 50.5q-80 1 -127.5 -50.5t-47.5 -140.5q0 -88 47.5 -140t127.5 -52z" />
    <glyph glyph-name="bar" unicode="|" 
d="M540 -260v1960h120v-1960h-120z" />
    <glyph glyph-name="brokenbar" unicode="&#xa6;" 
d="M540 884v816h120v-816h-120zM540 -260v866h120v-866h-120z" />
    <glyph glyph-name="dagger" unicode="&#x2020;" 
d="M546 153l-10 1454h126l-10 -1454h-106zM271 1244h658v-116h-658v116z" />
    <glyph glyph-name="daggerdbl" unicode="&#x2021;" 
d="M550 153l-10 1454h118l-10 -1454h-98zM271 1264h658v-114h-658v114zM271 855h658v-114h-658v114z" />
    <glyph glyph-name="estimated" unicode="&#x212e;" 
d="M600 0q-163 0 -288.5 90t-197 253.5t-71.5 386.5q0 220 71.5 384.5t197 256.5t288.5 92q246 0 396 -193.5t160 -558.5h-885q-10 0 -16 -5.5t-6 -32.5v-358q0 -28 25 -71t71.5 -86t111 -72t143.5 -29q105 0 198.5 53t153.5 180h104q-66 -104 -131 -168t-143 -93t-182 -29z
M271 756h654q16 0 20 7.5t4 26.5v351q0 78 -54.5 139t-135.5 96.5t-161 35.5q-100 0 -179 -42.5t-124.5 -102t-45.5 -111.5v-381q0 -19 22 -19z" />
    <glyph glyph-name="uni0308" unicode="&#x308;" horiz-adv-x="0" 
d="M400 1284q-46 0 -76 38t-30 85q0 55 30 88.5t76 33.5q42 0 74 -33.5t32 -88.5q0 -47 -32 -85t-74 -38zM799 1284q-45 0 -75.5 37.5t-30.5 85.5q0 56 30.5 89t75.5 33q42 0 74.5 -33.5t32.5 -88.5q0 -48 -32.5 -85.5t-74.5 -37.5z" />
    <glyph glyph-name="uni0307" unicode="&#x307;" horiz-adv-x="0" 
d="M600 1299q-49 0 -82.5 34.5t-33.5 88.5t33.5 88t82.5 34t82.5 -34t33.5 -88t-33.5 -88.5t-82.5 -34.5z" />
    <glyph glyph-name="gravecomb" unicode="&#x300;" horiz-adv-x="0" 
d="M644 1284h-147l-227 309h164z" />
    <glyph glyph-name="acutecomb" unicode="&#x301;" horiz-adv-x="0" 
d="M511 1284l210 309h164l-227 -309h-147z" />
    <glyph glyph-name="uni030B" unicode="&#x30b;" horiz-adv-x="0" 
d="M702 1284l192 307h156l-219 -307h-129zM376 1284l161 307h157l-189 -307h-129z" />
    <glyph glyph-name="uni030C.alt" horiz-adv-x="0" 
d="M202 1185l23 380h127l-40 -380h-110z" />
    <glyph glyph-name="uni0302" unicode="&#x302;" horiz-adv-x="0" 
d="M309 1282l206 309h171l205 -309h-140l-150 210l-151 -210h-141z" />
    <glyph glyph-name="uni030C" unicode="&#x30c;" horiz-adv-x="0" 
d="M515 1272l-206 309h141l151 -212l150 212h140l-205 -309h-171z" />
    <glyph glyph-name="uni0306" unicode="&#x306;" horiz-adv-x="0" 
d="M600 1274q-138 0 -217.5 83.5t-66.5 225.5h119q-3 -82 19.5 -128.5t61.5 -65.5t84 -19q47 0 85.5 19.5t60.5 66t19 127.5h120q13 -141 -66 -225t-219 -84z" />
    <glyph glyph-name="uni030A" unicode="&#x30a;" horiz-adv-x="0" 
d="M601 1266q-109 0 -172.5 62t-63.5 167q0 104 63.5 165t172.5 61q107 0 170.5 -61t63.5 -165q0 -105 -63.5 -167t-170.5 -62zM601 1359q59 0 93.5 36.5t34.5 98.5t-34.5 98t-93.5 36t-94 -36t-35 -98t35 -98.5t94 -36.5z" />
    <glyph glyph-name="tildecomb" unicode="&#x303;" horiz-adv-x="0" 
d="M746 1293q-70 0 -110 31t-66.5 72t-52.5 72t-67 31q-52 0 -73.5 -46.5t-9.5 -159.5h-111q-24 155 32 227t158 72q70 0 110 -31t66.5 -72t52.5 -72t67 -31q52 0 73 46.5t9 159.5h113q24 -155 -32 -227t-159 -72z" />
    <glyph glyph-name="uni0304" unicode="&#x304;" horiz-adv-x="0" 
d="M344 1314v112h512l-3 -112h-509z" />
    <glyph glyph-name="uni0312" unicode="&#x312;" horiz-adv-x="0" 
d="M165 1272v38q0 46 7.5 100.5t21.5 103t32 75.5h123q-19 -55 -27 -132t-8 -140v-45h-149z" />
    <glyph glyph-name="dotbelowcomb" unicode="&#x323;" horiz-adv-x="0" 
d="M600 -417q-49 0 -82.5 34.5t-33.5 88.5t33.5 88t82.5 34t82.5 -34t33.5 -88t-33.5 -88.5t-82.5 -34.5z" />
    <glyph glyph-name="uni0326" unicode="&#x326;" horiz-adv-x="0" 
d="M497 -512q11 44 18.5 106t12 123.5t4.5 103.5v45h135v-49q0 -52 -8 -115.5t-19.5 -120.5t-23.5 -93h-119z" />
    <glyph glyph-name="uni0327" unicode="&#x327;" horiz-adv-x="0" 
d="M633 -407q-61 0 -98 8t-62 21l1 115q26 -11 57.5 -19.5t80.5 -8.5q57 0 74.5 26.5t17.5 63.5q0 52 -28.5 100.5t-102.5 100.5h107q51 -22 84.5 -59t50.5 -80t17 -83q0 -85 -49 -135t-150 -50z" />
    <glyph glyph-name="uni0328" unicode="&#x328;" horiz-adv-x="0" 
d="M615 -390q-86 0 -135.5 45.5t-49.5 117.5q0 82 52.5 141t169.5 86h95q-97 -52 -139.5 -97t-42.5 -99q0 -40 22.5 -58.5t62.5 -18.5q41 0 98 22l1 -116q-25 -10 -56.5 -16.5t-77.5 -6.5z" />
    <glyph glyph-name="uni032D" unicode="&#x32d;" horiz-adv-x="0" 
d="M323 -418l192 319h171l192 -319h-146l-132 215l-131 -215h-146z" />
    <glyph glyph-name="uni0331" unicode="&#x331;" horiz-adv-x="0" 
d="M323 -269v144h554l-3 -144h-551z" />
    <glyph glyph-name="dotaccent" unicode="&#x2d9;" 
d="M600 1299q-49 0 -82.5 34.5t-33.5 88.5t33.5 88t82.5 34t82.5 -34t33.5 -88t-33.5 -88.5t-82.5 -34.5z" />
    <glyph glyph-name="dieresis" unicode="&#xa8;" 
d="M400 1284q-46 0 -76 38t-30 85q0 55 30 88.5t76 33.5q42 0 74 -33.5t32 -88.5q0 -47 -32 -85t-74 -38zM799 1284q-45 0 -75.5 37.5t-30.5 85.5q0 56 30.5 89t75.5 33q42 0 74.5 -33.5t32.5 -88.5q0 -48 -32.5 -85.5t-74.5 -37.5z" />
    <glyph glyph-name="grave" unicode="`" 
d="M702 1192l-334 631h154l310 -631h-130z" />
    <glyph glyph-name="acute" unicode="&#xb4;" 
d="M539 1192h-130l310 631h154z" />
    <glyph glyph-name="hungarumlaut" unicode="&#x2dd;" 
d="M629 1284l192 307h156l-219 -307h-129zM303 1284l161 307h157l-189 -307h-129z" />
    <glyph glyph-name="circumflex" unicode="&#x2c6;" 
d="M309 1282l206 309h171l205 -309h-140l-150 210l-151 -210h-141z" />
    <glyph glyph-name="caron" unicode="&#x2c7;" 
d="M515 1272l-206 309h141l151 -212l150 212h140l-205 -309h-171z" />
    <glyph glyph-name="breve" unicode="&#x2d8;" 
d="M599 1274q-138 0 -217.5 83.5t-66.5 225.5h119q-3 -82 19.5 -128.5t61.5 -65.5t84 -19q47 0 85.5 19.5t60.5 66t19 127.5h120q13 -141 -66 -225t-219 -84z" />
    <glyph glyph-name="ring" unicode="&#x2da;" 
d="M601 1266q-109 0 -172.5 62t-63.5 167q0 104 63.5 165t172.5 61q107 0 170.5 -61t63.5 -165q0 -105 -63.5 -167t-170.5 -62zM601 1359q59 0 93.5 36.5t34.5 98.5t-34.5 98t-93.5 36t-94 -36t-35 -98t35 -98.5t94 -36.5z" />
    <glyph glyph-name="tilde" unicode="&#x2dc;" 
d="M750 1293q-70 0 -110 31t-66.5 72t-52.5 72t-67 31q-52 0 -73.5 -46.5t-9.5 -159.5h-111q-24 155 32 227t158 72q70 0 110 -31t66.5 -72t52.5 -72t67 -31q52 0 73 46.5t9 159.5h113q24 -155 -32 -227t-159 -72z" />
    <glyph glyph-name="macron" unicode="&#xaf;" 
d="M344 1314v112h512l-3 -112h-509z" />
    <glyph glyph-name="cedilla" unicode="&#xb8;" 
d="M901 -407q-61 0 -98 8t-62 21l1 115q26 -11 57.5 -19.5t80.5 -8.5q57 0 74.5 26.5t17.5 63.5q0 52 -28.5 100.5t-102.5 100.5h107q51 -22 84.5 -59t50.5 -80t17 -83q0 -85 -49 -135t-150 -50z" />
    <glyph glyph-name="ogonek" unicode="&#x2db;" 
d="M906 -390q-86 0 -135.5 45.5t-49.5 117.5q0 82 52.5 141t169.5 86h95q-97 -52 -139.5 -97t-42.5 -99q0 -40 22.5 -58.5t62.5 -18.5q41 0 98 22l1 -116q-25 -10 -56.5 -16.5t-77.5 -6.5z" />
    <glyph glyph-name="uni0308.case" horiz-adv-x="0" 
d="M398 1590q-46 0 -76 38t-30 85q0 55 30 88.5t76 33.5q42 0 74 -33.5t32 -88.5q0 -47 -32 -85t-74 -38zM801 1590q-45 0 -75.5 37.5t-30.5 85.5q0 56 30.5 89t75.5 33q42 0 74.5 -33.5t32.5 -88.5q0 -48 -32.5 -85.5t-74.5 -37.5z" />
    <glyph glyph-name="uni0307.case" horiz-adv-x="0" 
d="M595 1590q-48 0 -79.5 35t-31.5 88t32 87.5t79 34.5q44 0 77 -34.5t33 -87.5t-33 -88t-77 -35z" />
    <glyph glyph-name="gravecomb.case" horiz-adv-x="0" 
d="M524 1591l-238 319h173l211 -319h-146z" />
    <glyph glyph-name="acutecomb.case" horiz-adv-x="0" 
d="M682 1591h-146l211 319h173z" />
    <glyph glyph-name="uni030B.case" horiz-adv-x="0" 
d="M680 1591l175 321h157l-198 -321h-134zM364 1591l176 321h156l-197 -321h-135z" />
    <glyph glyph-name="uni0302.case" horiz-adv-x="0" 
d="M308 1591l214 321h156l214 -321h-141l-151 226l-151 -226h-141z" />
    <glyph glyph-name="uni030C.case" horiz-adv-x="0" 
d="M522 1591l-214 321h141l151 -226l151 226h141l-214 -321h-156z" />
    <glyph glyph-name="uni0306.case" horiz-adv-x="0" 
d="M598 1591q-151 0 -221.5 92.5t-50.5 228.5h121q-12 -113 31.5 -163.5t119.5 -50.5q75 0 120 49.5t33 164.5h121q14 -90 -14 -163t-93.5 -115.5t-166.5 -42.5z" />
    <glyph glyph-name="uni030A.case" horiz-adv-x="0" 
d="M599 1581q-88 0 -147.5 63t-59.5 145q0 89 59.5 146.5t147.5 57.5q87 0 146 -57.5t59 -146.5q0 -54 -27 -101.5t-73.5 -77t-104.5 -29.5zM599 1678q43 0 69.5 34t26.5 77q0 53 -26.5 81.5t-69.5 28.5t-70 -28.5t-27 -81.5q0 -43 27 -77t70 -34z" />
    <glyph glyph-name="tildecomb.case" horiz-adv-x="0" 
d="M746 1580q-70 0 -110 31t-66.5 72t-52.5 72t-67 31q-52 0 -73.5 -46.5t-9.5 -159.5h-108q-24 155 31.5 227t155.5 72q70 0 110 -31t66.5 -72t52.5 -72t67 -31q52 0 73 46.5t9 159.5h109q24 -155 -31.5 -227t-155.5 -72z" />
    <glyph glyph-name="uni0304.case" horiz-adv-x="0" 
d="M301 1613v112h598l-3 -112h-595z" />
    <glyph glyph-name="uni0327.case" horiz-adv-x="0" 
d="M308 -406q-38 0 -73.5 8t-61.5 19l1 113q27 -14 56.5 -21.5t52.5 -7.5q45 0 66.5 26.5t21.5 66.5q0 59 -39.5 113.5t-103.5 88.5h116q80 -34 123.5 -90.5t43.5 -127.5q0 -78 -52 -133t-151 -55z" />
    <glyph glyph-name="uni0328.case" horiz-adv-x="0" 
d="M345 -390q-47 0 -92 20t-74 57.5t-29 90.5q0 67 57.5 132.5t136.5 90.5l123 -1q-97 -52 -139.5 -96t-42.5 -98q0 -40 20.5 -59.5t60.5 -19.5q41 0 98 22l1 -116q-25 -10 -53.5 -16.5t-66.5 -6.5z" />
    <glyph glyph-name="greaterarrow" horiz-adv-x="2400" 
d="M1915 293l-82 87l341 298l4 -36h-2038v115h2037l-4 -36l-340 298l82 87l432 -406z" />
    <glyph glyph-name="exclamequal" horiz-adv-x="2400" 
d="M805 -196l644 1886h144l-644 -1886h-144zM140 425v123h2120v-123h-2120zM140 878v123h2120v-123h-2120z" />
    <glyph glyph-name="Qtail_part." 
d="M953 -323l-188 369h96q18 0 36.5 -16t37.5 -49l173 -304h-155z" />
    <glyph glyph-name="zerodot_part." 
d="M600 617q-42 0 -60.5 28.5t-18.5 85.5q0 56 18.5 84.5t60.5 28.5t60.5 -28.5t18.5 -84.5q0 -57 -18.5 -85.5t-60.5 -28.5z" />
    <glyph glyph-name="ringcomba_part." 
d="M601 1434q-109 0 -172.5 62t-63.5 167q0 104 63.5 165t172.5 61q108 0 171 -60.5t63 -165.5t-63.5 -167t-170.5 -62zM601 1527q59 0 93.5 36.5t34.5 98.5t-34.5 98t-93.5 36t-94 -36t-35 -98t35 -98.5t94 -36.5z" />
    <glyph glyph-name="Bar_part." 
d="M110 604v114h574l-3 -114h-571z" />
    <glyph glyph-name="ringacutecomb" 
d="M587 1709l130 203h152l-183 -226zM601 1266q-109 0 -172.5 62t-63.5 167q0 104 63.5 165t172.5 61q107 0 170.5 -61t63.5 -165q0 -105 -63.5 -167t-170.5 -62zM601 1359q59 0 93.5 36.5t34.5 98.5t-34.5 98t-93.5 36t-94 -36t-35 -98t35 -98.5t94 -36.5z" />
    <glyph glyph-name="Barmid_part." 
d="M150 607v114h746l-4 -114h-742z" />
    <glyph glyph-name="slashl_part." 
d="M150 579v144l476 368l-4 -144z" />
    <glyph glyph-name="oSlash_part." 
d="M52 138l144 228l32 34l431 713l7 35l104 168h122l-123 -197l-36 -38l-439 -730l-5 -31l-115 -182h-122z" />
    <glyph glyph-name="OSlash_part." 
d="M-10 -77l119 236l42 42l549 1107l8 44l86 172h166l-105 -209l-44 -47l-559 -1128l-6 -40l-90 -177h-166z" />
    <glyph glyph-name="slashL_part." 
d="M178 677l-2 138l194 97l95 -13q-1 24 8.5 47t52.5 45l210 110l-4 -141l-285 -148l-76 -30z" />
    <glyph glyph-name="zeroSlash_part." 
d="M880 201l-101 -61l-559 1128l111 40z" />
    <glyph glyph-name="ringacutecomb.case" 
d="M601 1384q-109 0 -172.5 62t-63.5 167q0 104 63.5 165t172.5 61q108 0 171 -60.5t63 -165.5t-63.5 -167t-170.5 -62zM601 1477q59 0 93.5 36.5t34.5 98.5t-34.5 98t-93.5 36t-94 -36t-35 -98t35 -98.5t94 -36.5zM653 1744l118 169h150l-176 -219z" />
    <glyph glyph-name="lessergreater" horiz-adv-x="2400" 
d="M1199 90l-769 559l1 132l768 577l766 -573v-140zM1199 257l640 461l-640 473l-639 -473z" />
    <glyph glyph-name="greatergreaterarrow" horiz-adv-x="2400" 
d="M1915 293l-82 87l341 298l4 -36h-2038v115h2037l-4 -36l-340 298l82 87l432 -406zM1483 293l-82 87l341 298l4 -36l-1 115l-4 -36l-340 298l82 87l432 -406z" />
    <glyph glyph-name="equalequalarrow" horiz-adv-x="2400" 
d="M140 487v123h1999l-130 -123h-1869zM140 790v123h1869l130 -123h-1999zM1915 293l-82 87l331 308l-1 23l-330 308l82 87l432 -406z" />
    <glyph glyph-name="equalarrow" 
d="M140 487v123h799l-130 -123h-669zM140 790v123h669l130 -123h-799zM715 293l-82 87l331 308l-1 23l-330 308l82 87l432 -406z" />
  </font>
</defs>
</svg>
