<?xml version="1.0" standalone="no"?>
<!DOCTYPE svg PUBLIC "-//W3C//DTD SVG 1.1//EN" "http://www.w3.org/Graphics/SVG/1.1/DTD/svg11.dtd" >
<svg xmlns="http://www.w3.org/2000/svg" xmlns:xlink="http://www.w3.org/1999/xlink" version="1.1">
<metadata>
Created by FontForge 20230101 at Wed May 18 19:30:18 2022
 By Webmaster
Copyright 2022 The Spline Sans Mono Project Authors (https://github.com/SorkinType/SplineSansMono)
</metadata>
<defs>
<font id="SplineSansMono-SemiBold" horiz-adv-x="1200" >
  <font-face 
    font-family="Spline Sans Mono SemiBold"
    font-weight="600"
    font-stretch="normal"
    units-per-em="2000"
    panose-1="2 6 6 9 3 5 2 8 1 4"
    ascent="1600"
    descent="-400"
    x-height="1091"
    cap-height="1454"
    bbox="-63 -587 2350 2009"
    underline-thickness="50"
    underline-position="-125"
    unicode-range="U+000D-FB02"
  />
<missing-glyph 
d="M59 -241v1769h1083v-1769h-1083zM169 -129h863v1557h-863v-1557z" />
    <glyph glyph-name=".notdef" 
d="M59 -241v1769h1083v-1769h-1083zM169 -129h863v1557h-863v-1557z" />
    <glyph glyph-name="A" unicode="A" 
d="M-10 0l405 1454h411l404 -1454h-294l-115 455l157 -115h-667l37 227h566l-94 -109l-118 491l-74 311h-16l-73 -311l-235 -949h-294z" />
    <glyph glyph-name="Aacute" unicode="&#xc1;" 
d="M-10 0l405 1454h411l404 -1454h-294l-115 455l157 -115h-667l37 227h566l-94 -109l-118 491l-74 311h-16l-73 -311l-235 -949h-294zM734 1591h-274l210 321h306z" />
    <glyph glyph-name="Abreve" unicode="&#x102;" 
d="M-10 0l405 1454h411l404 -1454h-294l-115 455l157 -115h-667l37 227h566l-94 -109l-118 491l-74 311h-16l-73 -311l-235 -949h-294zM601 1585q-162 0 -251 78t-82 249h210q-8 -80 22.5 -119.5t100.5 -39.5q68 0 99 39t23 120h210q5 -114 -34 -186.5t-115 -106.5t-183 -34
z" />
    <glyph glyph-name="Acircumflex" unicode="&#xc2;" 
d="M-10 0l405 1454h411l404 -1454h-294l-115 455l157 -115h-667l37 227h566l-94 -109l-118 491l-74 311h-16l-73 -311l-235 -949h-294zM222 1587l258 325h241l257 -325h-228l-149 175l-150 -175h-229z" />
    <glyph glyph-name="Adieresis" unicode="&#xc4;" 
d="M-10 0l405 1454h411l404 -1454h-294l-115 455l157 -115h-667l37 227h566l-94 -109l-118 491l-74 311h-16l-73 -311l-235 -949h-294zM370 1573q-61 0 -108.5 46t-47.5 123q0 71 47.5 119t108.5 48q63 0 110.5 -47.5t47.5 -119.5q0 -77 -48 -123t-110 -46zM830 1573
q-62 0 -109.5 46t-47.5 123q0 72 47.5 119.5t109.5 47.5t109 -48t47 -119q0 -77 -47 -123t-109 -46z" />
    <glyph glyph-name="Agrave" unicode="&#xc0;" 
d="M-10 0l405 1454h411l404 -1454h-294l-115 455l157 -115h-667l37 227h566l-94 -109l-118 491l-74 311h-16l-73 -311l-235 -949h-294zM463 1591l-242 321h305l210 -321h-273z" />
    <glyph glyph-name="Amacron" unicode="&#x100;" 
d="M-10 0l405 1454h411l404 -1454h-294l-115 455l157 -115h-667l37 227h566l-94 -109l-118 491l-74 311h-16l-73 -311l-235 -949h-294zM273 1605v227h654l-3 -227h-651z" />
    <glyph glyph-name="Aogonek" unicode="&#x104;" 
d="M-10 0l405 1454h411l404 -1454h-294l-115 455l157 -115h-667l37 227h566l-94 -109l-118 491l-74 311h-16l-73 -311l-235 -949h-294zM1029 -460q-72 0 -131.5 25t-94 72t-34.5 109q0 82 55 155.5t166 98.5h212q-100 -51 -147.5 -90.5t-47.5 -99.5q0 -37 23.5 -58.5
t60.5 -21.5q57 0 107 27l2 -181q-42 -18 -82 -27t-89 -9z" />
    <glyph glyph-name="Aring" unicode="&#xc5;" 
d="M-10 0l405 1454h411l404 -1454h-294l-115 455l157 -115h-667l37 227h566l-94 -109l-118 491l-74 311h-16l-73 -311l-235 -949h-294zM600 1432q-122 0 -191.5 68.5t-69.5 179.5t69.5 178.5t191.5 67.5q123 0 191.5 -67.5t68.5 -178.5t-68.5 -179.5t-191.5 -68.5zM600 1573
q47 0 75.5 28t28.5 79q0 50 -28.5 78.5t-75.5 28.5t-75 -28.5t-28 -78.5q0 -51 28 -79t75 -28z" />
    <glyph glyph-name="Aringacute" unicode="&#x1fa;" 
d="M-10 0l405 1454h411l404 -1454h-294l-115 455l157 -115h-667l37 227h566l-94 -109l-118 491l-74 311h-16l-73 -311l-235 -949h-294zM600 1308q-122 0 -191.5 68t-69.5 179t69.5 178.5t191.5 67.5q123 0 191.5 -67.5t68.5 -178.5t-68.5 -179t-191.5 -68zM600 1448
q47 0 75.5 28t28.5 79q0 50 -28.5 78.5t-75.5 28.5t-75 -28.5t-28 -78.5q0 -51 28 -79t75 -28zM629 1713l124 199h228l-200 -219z" />
    <glyph glyph-name="Atilde" unicode="&#xc3;" 
d="M-10 0l405 1454h411l404 -1454h-294l-115 455l157 -115h-667l37 227h566l-94 -109l-118 491l-74 311h-16l-73 -311l-235 -949h-294zM751 1563q-67 0 -109.5 23.5t-71 55t-52.5 55t-53 23.5q-42 0 -62 -44t-6 -115h-184q-19 163 47.5 248.5t189.5 85.5q67 0 109 -23.5
t70 -55t51.5 -55t52.5 -23.5q43 0 64 42t8 115h183q19 -164 -47.5 -248t-189.5 -84z" />
    <glyph glyph-name="AE" unicode="&#xc6;" 
d="M-37 0l491 1454h150l64 -27l-61 -203h-9l-37 -126l-351 -1098h-247zM604 0v1454h571v-256h-411l66 90v-478l-66 65h361v-254h-357l62 69v-523l-66 91h407v-258h-567zM177 363l91 234h363v-234h-454z" />
    <glyph glyph-name="AEacute" unicode="&#x1fc;" 
d="M-37 0l491 1454h150l64 -27l-61 -203h-9l-37 -126l-351 -1098h-247zM604 0v1454h571v-256h-411l66 90v-478l-66 65h361v-254h-357l62 69v-523l-66 91h407v-258h-567zM177 363l91 234h363v-234h-454zM849 1591h-274l210 321h306z" />
    <glyph glyph-name="B" unicode="B" 
d="M151 0v1454h446q169 0 271.5 -46t149 -126.5t46.5 -184.5q0 -133 -70.5 -218.5t-185.5 -100.5q96 -8 168.5 -47.5t114.5 -110.5t42 -176q0 -144 -65 -243.5t-181 -150t-273 -50.5h-463zM424 216h167q105 0 175.5 51.5t70.5 175.5q0 88 -36 131t-93 56.5t-119 13.5h-165
v-428zM424 846h141q73 0 123 24t76.5 71.5t26.5 117.5q0 96 -58 138.5t-173 42.5h-136v-394z" />
    <glyph glyph-name="C" unicode="C" 
d="M609 -29q-169 0 -287.5 92t-180.5 262.5t-62 406.5q0 238 64 405.5t187 255.5t299 88q144 0 248.5 -64t160 -188.5t52.5 -304.5h-268q-5 98 -26.5 164.5t-64 100t-113.5 33.5q-85 0 -143 -51.5t-87 -160.5t-28 -282q1 -239 65.5 -368.5t186.5 -129.5q72 0 114.5 23
t62 67.5t21.5 108.5h276q-2 -112 -38.5 -197.5t-101 -143.5t-150.5 -87.5t-187 -29.5z" />
    <glyph glyph-name="Cacute" unicode="&#x106;" 
d="M609 -29q-169 0 -287.5 92t-180.5 262.5t-62 406.5q0 238 64 405.5t187 255.5t299 88q144 0 248.5 -64t160 -188.5t52.5 -304.5h-268q-5 98 -26.5 164.5t-64 100t-113.5 33.5q-85 0 -143 -51.5t-87 -160.5t-28 -282q1 -239 65.5 -368.5t186.5 -129.5q72 0 114.5 23
t62 67.5t21.5 108.5h276q-2 -112 -38.5 -197.5t-101 -143.5t-150.5 -87.5t-187 -29.5zM778 1591h-274l210 321h306z" />
    <glyph glyph-name="Ccaron" unicode="&#x10c;" 
d="M609 -29q-169 0 -287.5 92t-180.5 262.5t-62 406.5q0 238 64 405.5t187 255.5t299 88q144 0 248.5 -64t160 -188.5t52.5 -304.5h-268q-5 98 -26.5 164.5t-64 100t-113.5 33.5q-85 0 -143 -51.5t-87 -160.5t-28 -282q1 -239 65.5 -368.5t186.5 -129.5q72 0 114.5 23
t62 67.5t21.5 108.5h276q-2 -112 -38.5 -197.5t-101 -143.5t-150.5 -87.5t-187 -29.5zM524 1585l-258 325h229l150 -175l149 175h228l-257 -325h-241z" />
    <glyph glyph-name="Ccedilla" unicode="&#xc7;" 
d="M609 -29q-169 0 -287.5 92t-180.5 262.5t-62 406.5q0 238 64 405.5t187 255.5t299 88q144 0 248.5 -64t160 -188.5t52.5 -304.5h-268q-5 98 -26.5 164.5t-64 100t-113.5 33.5q-85 0 -143 -51.5t-87 -160.5t-28 -282q1 -239 65.5 -368.5t186.5 -129.5q72 0 114.5 23
t62 67.5t21.5 108.5h276q-2 -112 -38.5 -197.5t-101 -143.5t-150.5 -87.5t-187 -29.5zM647 -488q-52 0 -103 10t-101 33l1 184q27 -14 58.5 -22t59.5 -8q42 0 65 22t23 64q0 56 -50.5 107.5t-151.5 97.5h245q109 -39 156 -106.5t47 -146.5q0 -108 -68.5 -171.5t-180.5 -63.5
z" />
    <glyph glyph-name="Cdotaccent" unicode="&#x10a;" 
d="M609 -29q-169 0 -287.5 92t-180.5 262.5t-62 406.5q0 238 64 405.5t187 255.5t299 88q144 0 248.5 -64t160 -188.5t52.5 -304.5h-268q-5 98 -26.5 164.5t-64 100t-113.5 33.5q-85 0 -143 -51.5t-87 -160.5t-28 -282q1 -239 65.5 -368.5t186.5 -129.5q72 0 114.5 23
t62 67.5t21.5 108.5h276q-2 -112 -38.5 -197.5t-101 -143.5t-150.5 -87.5t-187 -29.5zM644 1578q-67 0 -117 46.5t-50 121.5q0 71 50 119t117 48q69 0 118 -48.5t49 -118.5q0 -75 -49.5 -121.5t-117.5 -46.5z" />
    <glyph glyph-name="D" unicode="D" 
d="M392 0l-70 254h167q118 0 200.5 48.5t126 155.5t43.5 280q0 175 -40 276t-124 143t-218 42h-162l77 255h103q315 0 482 -175t167 -538q0 -241 -80 -406t-225.5 -250t-343.5 -85h-103zM115 0v1454h277v-1454h-277z" />
    <glyph glyph-name="Eth" unicode="&#xd0;" 
d="M392 0l-70 254h167q118 0 200.5 48.5t126 155.5t43.5 280q0 175 -40 276t-124 143t-218 42h-162l77 255h103q315 0 482 -175t167 -538q0 -241 -80 -406t-225.5 -250t-343.5 -85h-103zM115 0v1454h277v-1454h-277zM7 613v232h610l-3 -232h-607z" />
    <glyph glyph-name="Dcaron" unicode="&#x10e;" 
d="M392 0l-70 254h167q118 0 200.5 48.5t126 155.5t43.5 280q0 175 -40 276t-124 143t-218 42h-162l77 255h103q315 0 482 -175t167 -538q0 -241 -80 -406t-225.5 -250t-343.5 -85h-103zM115 0v1454h277v-1454h-277zM455 1585l-258 325h229l150 -175l149 175h228l-257 -325
h-241z" />
    <glyph glyph-name="Dcroat" unicode="&#x110;" 
d="M392 0l-70 254h167q118 0 200.5 48.5t126 155.5t43.5 280q0 175 -40 276t-124 143t-218 42h-162l77 255h103q315 0 482 -175t167 -538q0 -241 -80 -406t-225.5 -250t-343.5 -85h-103zM115 0v1454h277v-1454h-277zM7 613v232h610l-3 -232h-607z" />
    <glyph glyph-name="E" unicode="E" 
d="M145 0v1454h899v-242h-725l99 82v-488l-99 66h654v-234h-628l73 68v-549l-99 92h759v-249h-933z" />
    <glyph glyph-name="Eacute" unicode="&#xc9;" 
d="M145 0v1454h899v-242h-725l99 82v-488l-99 66h654v-234h-628l73 68v-549l-99 92h759v-249h-933zM746 1591h-274l210 321h306z" />
    <glyph glyph-name="Ebreve" unicode="&#x114;" 
d="M145 0v1454h899v-242h-725l99 82v-488l-99 66h654v-234h-628l73 68v-549l-99 92h759v-249h-933zM613 1585q-162 0 -251 78t-82 249h210q-8 -80 22.5 -119.5t100.5 -39.5q68 0 99 39t23 120h210q5 -114 -34 -186.5t-115 -106.5t-183 -34z" />
    <glyph glyph-name="Ecaron" unicode="&#x11a;" 
d="M145 0v1454h899v-242h-725l99 82v-488l-99 66h654v-234h-628l73 68v-549l-99 92h759v-249h-933zM492 1585l-258 325h229l150 -175l149 175h228l-257 -325h-241z" />
    <glyph glyph-name="Ecircumflex" unicode="&#xca;" 
d="M145 0v1454h899v-242h-725l99 82v-488l-99 66h654v-234h-628l73 68v-549l-99 92h759v-249h-933zM234 1587l258 325h241l257 -325h-228l-149 175l-150 -175h-229z" />
    <glyph glyph-name="Edieresis" unicode="&#xcb;" 
d="M145 0v1454h899v-242h-725l99 82v-488l-99 66h654v-234h-628l73 68v-549l-99 92h759v-249h-933zM382 1573q-61 0 -108.5 46t-47.5 123q0 71 47.5 119t108.5 48q63 0 110.5 -47.5t47.5 -119.5q0 -77 -48 -123t-110 -46zM842 1573q-62 0 -109.5 46t-47.5 123
q0 72 47.5 119.5t109.5 47.5t109 -48t47 -119q0 -77 -47 -123t-109 -46z" />
    <glyph glyph-name="Edotaccent" unicode="&#x116;" 
d="M145 0v1454h899v-242h-725l99 82v-488l-99 66h654v-234h-628l73 68v-549l-99 92h759v-249h-933zM612 1578q-67 0 -117 46.5t-50 121.5q0 71 50 119t117 48q69 0 118 -48.5t49 -118.5q0 -75 -49.5 -121.5t-117.5 -46.5z" />
    <glyph glyph-name="Egrave" unicode="&#xc8;" 
d="M145 0v1454h899v-242h-725l99 82v-488l-99 66h654v-234h-628l73 68v-549l-99 92h759v-249h-933zM475 1591l-242 321h305l210 -321h-273z" />
    <glyph glyph-name="Emacron" unicode="&#x112;" 
d="M145 0v1454h899v-242h-725l99 82v-488l-99 66h654v-234h-628l73 68v-549l-99 92h759v-249h-933zM285 1605v227h654l-3 -227h-651z" />
    <glyph glyph-name="Eogonek" unicode="&#x118;" 
d="M145 0v1454h899v-242h-725l99 82v-488l-99 66h654v-234h-628l73 68v-549l-99 92h759v-249h-933zM904 -460q-72 0 -131.5 25t-94 72t-34.5 109q0 82 55 155.5t166 98.5h212q-100 -51 -147.5 -90.5t-47.5 -99.5q0 -37 23.5 -58.5t60.5 -21.5q57 0 107 27l2 -181
q-42 -18 -82 -27t-89 -9z" />
    <glyph glyph-name="F" unicode="F" 
d="M155 0v1454h920l1 -244h-795l153 149v-620l-152 101h715l-1 -239h-643l81 79v-680h-279z" />
    <glyph glyph-name="G" unicode="G" 
d="M639 -28q-180 0 -307 91.5t-194.5 262.5t-67.5 407q0 235 67.5 402t195.5 256t308 90q134 1 233.5 -48.5t158 -155t67.5 -272.5h-260q-8 61 -28.5 110t-62.5 78t-114 29q-102 0 -164 -59.5t-90 -169t-28 -260.5q0 -154 30.5 -267t92 -174t154.5 -61q69 0 122 19.5
t86 51.5v249h-214v244h467l-1 -625q-48 -54 -115 -99t-151.5 -72t-184.5 -27z" />
    <glyph glyph-name="uni01F4" unicode="&#x1f4;" 
d="M639 -28q-180 0 -307 91.5t-194.5 262.5t-67.5 407q0 235 67.5 402t195.5 256t308 90q134 1 233.5 -48.5t158 -155t67.5 -272.5h-260q-8 61 -28.5 110t-62.5 78t-114 29q-102 0 -164 -59.5t-90 -169t-28 -260.5q0 -154 30.5 -267t92 -174t154.5 -61q69 0 122 19.5
t86 51.5v249h-214v244h467l-1 -625q-48 -54 -115 -99t-151.5 -72t-184.5 -27zM738 1591h-274l210 321h306z" />
    <glyph glyph-name="Gbreve" unicode="&#x11e;" 
d="M639 -28q-180 0 -307 91.5t-194.5 262.5t-67.5 407q0 235 67.5 402t195.5 256t308 90q134 1 233.5 -48.5t158 -155t67.5 -272.5h-260q-8 61 -28.5 110t-62.5 78t-114 29q-102 0 -164 -59.5t-90 -169t-28 -260.5q0 -154 30.5 -267t92 -174t154.5 -61q69 0 122 19.5
t86 51.5v249h-214v244h467l-1 -625q-48 -54 -115 -99t-151.5 -72t-184.5 -27zM605 1585q-162 0 -251 78t-82 249h210q-8 -80 22.5 -119.5t100.5 -39.5q68 0 99 39t23 120h210q5 -114 -34 -186.5t-115 -106.5t-183 -34z" />
    <glyph glyph-name="Gcaron" unicode="&#x1e6;" 
d="M639 -28q-180 0 -307 91.5t-194.5 262.5t-67.5 407q0 235 67.5 402t195.5 256t308 90q134 1 233.5 -48.5t158 -155t67.5 -272.5h-260q-8 61 -28.5 110t-62.5 78t-114 29q-102 0 -164 -59.5t-90 -169t-28 -260.5q0 -154 30.5 -267t92 -174t154.5 -61q69 0 122 19.5
t86 51.5v249h-214v244h467l-1 -625q-48 -54 -115 -99t-151.5 -72t-184.5 -27zM484 1585l-258 325h229l150 -175l149 175h228l-257 -325h-241z" />
    <glyph glyph-name="uni0122" unicode="&#x122;" 
d="M639 -28q-180 0 -307 91.5t-194.5 262.5t-67.5 407q0 235 67.5 402t195.5 256t308 90q134 1 233.5 -48.5t158 -155t67.5 -272.5h-260q-8 61 -28.5 110t-62.5 78t-114 29q-102 0 -164 -59.5t-90 -169t-28 -260.5q0 -154 30.5 -267t92 -174t154.5 -61q69 0 122 19.5
t86 51.5v249h-214v244h467l-1 -625q-48 -54 -115 -99t-151.5 -72t-184.5 -27zM492 -526q6 36 12 94.5t10 125t4 122.5v65h255v-78q0 -65 -7 -127t-18 -113.5t-23 -88.5h-233z" />
    <glyph glyph-name="Gdotaccent" unicode="&#x120;" 
d="M639 -28q-180 0 -307 91.5t-194.5 262.5t-67.5 407q0 235 67.5 402t195.5 256t308 90q134 1 233.5 -48.5t158 -155t67.5 -272.5h-260q-8 61 -28.5 110t-62.5 78t-114 29q-102 0 -164 -59.5t-90 -169t-28 -260.5q0 -154 30.5 -267t92 -174t154.5 -61q69 0 122 19.5
t86 51.5v249h-214v244h467l-1 -625q-48 -54 -115 -99t-151.5 -72t-184.5 -27zM604 1578q-67 0 -117 46.5t-50 121.5q0 71 50 119t117 48q69 0 118 -48.5t49 -118.5q0 -75 -49.5 -121.5t-117.5 -46.5z" />
    <glyph glyph-name="H" unicode="H" 
d="M817 0v1454h278v-1454h-278zM105 0v1454h278v-1454h-278zM301 624v248h561l-1 -248h-560z" />
    <glyph glyph-name="Hbar" unicode="&#x126;" 
d="M817 0v1454h278v-1454h-278zM105 0v1454h278v-1454h-278zM279 436v232h626l-3 -232h-623zM-26 859v233h1252l-3 -233h-1249z" />
    <glyph glyph-name="I" unicode="I" 
d="M143 0v243h317v862q0 49 19 73.5t55 32.5h-391v243h914v-243h-318v-862q0 -49 -18.5 -73.5t-55.5 -32.5h392v-243h-914z" />
    <glyph glyph-name="IJ" unicode="&#x132;" 
d="M33 554v251h170v292q0 49 18.5 74t55.5 32h-244v251h614v-251h-169v-293q0 -48 -18.5 -72.5t-55.5 -32.5h239v-251h-610zM638 -30q-216 0 -343.5 114t-132.5 364h273q6 -124 51.5 -174.5t146.5 -50.5q66 0 110 19t66.5 73t22.5 158v981h281v-972q0 -264 -118.5 -388
t-356.5 -124z" />
    <glyph glyph-name="Iacute" unicode="&#xcd;" 
d="M143 0v243h317v862q0 49 19 73.5t55 32.5h-391v243h914v-243h-318v-862q0 -49 -18.5 -73.5t-55.5 -32.5h392v-243h-914zM734 1591h-274l210 321h306z" />
    <glyph glyph-name="Ibreve" unicode="&#x12c;" 
d="M143 0v243h317v862q0 49 19 73.5t55 32.5h-391v243h914v-243h-318v-862q0 -49 -18.5 -73.5t-55.5 -32.5h392v-243h-914zM601 1585q-162 0 -251 78t-82 249h210q-8 -80 22.5 -119.5t100.5 -39.5q68 0 99 39t23 120h210q5 -114 -34 -186.5t-115 -106.5t-183 -34z" />
    <glyph glyph-name="Icircumflex" unicode="&#xce;" 
d="M143 0v243h317v862q0 49 19 73.5t55 32.5h-391v243h914v-243h-318v-862q0 -49 -18.5 -73.5t-55.5 -32.5h392v-243h-914zM222 1587l258 325h241l257 -325h-228l-149 175l-150 -175h-229z" />
    <glyph glyph-name="Idieresis" unicode="&#xcf;" 
d="M143 0v243h317v862q0 49 19 73.5t55 32.5h-391v243h914v-243h-318v-862q0 -49 -18.5 -73.5t-55.5 -32.5h392v-243h-914zM370 1573q-61 0 -108.5 46t-47.5 123q0 71 47.5 119t108.5 48q63 0 110.5 -47.5t47.5 -119.5q0 -77 -48 -123t-110 -46zM830 1573q-62 0 -109.5 46
t-47.5 123q0 72 47.5 119.5t109.5 47.5t109 -48t47 -119q0 -77 -47 -123t-109 -46z" />
    <glyph glyph-name="Idotaccent" unicode="&#x130;" 
d="M143 0v243h317v862q0 49 19 73.5t55 32.5h-391v243h914v-243h-318v-862q0 -49 -18.5 -73.5t-55.5 -32.5h392v-243h-914zM600 1578q-67 0 -117 46.5t-50 121.5q0 71 50 119t117 48q69 0 118 -48.5t49 -118.5q0 -75 -49.5 -121.5t-117.5 -46.5z" />
    <glyph glyph-name="uni1ECA" unicode="&#x1eca;" 
d="M143 0v243h317v862q0 49 19 73.5t55 32.5h-391v243h914v-243h-318v-862q0 -49 -18.5 -73.5t-55.5 -32.5h392v-243h-914zM600 -529q-76 0 -128.5 50.5t-52.5 132.5q0 84 52.5 134t128.5 50t128.5 -50t52.5 -134q0 -82 -53 -132.5t-128 -50.5z" />
    <glyph glyph-name="Igrave" unicode="&#xcc;" 
d="M143 0v243h317v862q0 49 19 73.5t55 32.5h-391v243h914v-243h-318v-862q0 -49 -18.5 -73.5t-55.5 -32.5h392v-243h-914zM463 1591l-242 321h305l210 -321h-273z" />
    <glyph glyph-name="Imacron" unicode="&#x12a;" 
d="M143 0v243h317v862q0 49 19 73.5t55 32.5h-391v243h914v-243h-318v-862q0 -49 -18.5 -73.5t-55.5 -32.5h392v-243h-914zM273 1605v227h654l-3 -227h-651z" />
    <glyph glyph-name="Iogonek" unicode="&#x12e;" 
d="M143 0v243h317v862q0 49 19 73.5t55 32.5h-391v243h914v-243h-318v-862q0 -49 -18.5 -73.5t-55.5 -32.5h392v-243h-914zM883 -460q-72 0 -131.5 25t-94 72t-34.5 109q0 82 55 155.5t166 98.5h212q-100 -51 -147.5 -90.5t-47.5 -99.5q0 -37 23.5 -58.5t60.5 -21.5
q57 0 107 27l2 -181q-42 -18 -82 -27t-89 -9z" />
    <glyph glyph-name="Itilde" unicode="&#x128;" 
d="M143 0v243h317v862q0 49 19 73.5t55 32.5h-391v243h914v-243h-318v-862q0 -49 -18.5 -73.5t-55.5 -32.5h392v-243h-914zM751 1563q-67 0 -109.5 23.5t-71 55t-52.5 55t-53 23.5q-42 0 -62 -44t-6 -115h-184q-19 163 47.5 248.5t189.5 85.5q67 0 109 -23.5t70 -55
t51.5 -55t52.5 -23.5q43 0 64 42t8 115h183q19 -164 -47.5 -248t-189.5 -84z" />
    <glyph glyph-name="J" unicode="J" 
d="M558 -30q-118 0 -215 31.5t-166.5 99.5t-104.5 176.5t-30 261.5h276q0 -95 17 -156.5t49 -96.5t75.5 -49t93.5 -14q70 0 121 25t79 87t28 170v949h287v-925q0 -201 -60.5 -324.5t-174.5 -179t-275 -55.5z" />
    <glyph glyph-name="uni004A0301" 
d="M558 -30q-118 0 -215 31.5t-166.5 99.5t-104.5 176.5t-30 261.5h276q0 -95 17 -156.5t49 -96.5t75.5 -49t93.5 -14q70 0 121 25t79 87t28 170v949h287v-925q0 -201 -60.5 -324.5t-174.5 -179t-275 -55.5zM1043 1591h-274l210 321h306z" />
    <glyph glyph-name="K" unicode="K" 
d="M381 356l-10 329l203 304l294 465h322l-462 -664l-90 -98zM128 0v1454h278v-1454h-278zM903 0l-395 755l202 152l507 -907h-314z" />
    <glyph glyph-name="uni0136" unicode="&#x136;" 
d="M381 356l-10 329l203 304l294 465h322l-462 -664l-90 -98zM128 0v1454h278v-1454h-278zM903 0l-395 755l202 152l507 -907h-314zM483 -526q6 36 12 94.5t10 125t4 122.5v65h255v-78q0 -65 -7 -127t-18 -113.5t-23 -88.5h-233z" />
    <glyph glyph-name="L" unicode="L" 
d="M191 0v1454h283v-1356l-158 153h765v-251h-890z" />
    <glyph glyph-name="Lacute" unicode="&#x139;" 
d="M191 0v1454h283v-1356l-158 153h765v-251h-890zM447 1591h-274l210 321h306z" />
    <glyph glyph-name="Lcaron" unicode="&#x13d;" 
d="M191 0v1454h283v-1356l-158 153h765v-251h-890zM657 1183l11 376h228l-35 -376h-204z" />
    <glyph glyph-name="uni013B" unicode="&#x13b;" 
d="M191 0v1454h283v-1356l-158 153h765v-251h-890zM475 -526q6 36 12 94.5t10 125t4 122.5v65h255v-78q0 -65 -7 -127t-18 -113.5t-23 -88.5h-233z" />
    <glyph glyph-name="Ldot" unicode="&#x13f;" 
d="M191 0v1454h283v-1356l-158 153h765v-251h-890zM947 537q-79 0 -134 56.5t-55 149.5q0 92 55 148.5t134 56.5q78 0 132.5 -56.5t54.5 -148.5q0 -93 -54.5 -149.5t-132.5 -56.5z" />
    <glyph glyph-name="Lslash" unicode="&#x141;" 
d="M191 0v1454h283v-1356l-158 153h765v-251h-890zM63 545v235l280 135l131 -22q-1 27 10 56.5t62 54.5l196 97l-4 -243l-372 -185l-134 -49z" />
    <glyph glyph-name="M" unicode="M" 
d="M49 0l35 1454h376l113 -611l25 -182h6l23 182l112 611h377l35 -1454h-238l-5 604l9 665h-16l-76 -352l-120 -548h-210l-122 548l-75 352h-17l12 -665l-6 -604h-238z" />
    <glyph glyph-name="N" unicode="N" 
d="M106 0v1454h345l308 -836l113 -340h7l-49 427v749h264v-1454h-347l-306 832l-108 322h-9l46 -424v-730h-264z" />
    <glyph glyph-name="Nacute" unicode="&#x143;" 
d="M106 0v1454h345l308 -836l113 -340h7l-49 427v749h264v-1454h-347l-306 832l-108 322h-9l46 -424v-730h-264zM729 1591h-274l210 321h306z" />
    <glyph glyph-name="Ncaron" unicode="&#x147;" 
d="M106 0v1454h345l308 -836l113 -340h7l-49 427v749h264v-1454h-347l-306 832l-108 322h-9l46 -424v-730h-264zM475 1585l-258 325h229l150 -175l149 175h228l-257 -325h-241z" />
    <glyph glyph-name="uni0145" unicode="&#x145;" 
d="M106 0v1454h345l308 -836l113 -340h7l-49 427v749h264v-1454h-347l-306 832l-108 322h-9l46 -424v-730h-264zM458 -526q6 36 12 94.5t10 125t4 122.5v65h255v-78q0 -65 -7 -127t-18 -113.5t-23 -88.5h-233z" />
    <glyph glyph-name="Eng" unicode="&#x14a;" 
d="M667 -493q-31 0 -57.5 3.5t-45.5 6.5v237q17 -3 41 -6t56 -3q40 0 64 22t34 59t7 81.5t-18 90.5l-307 832l-107 324h-9l45 -424v-730h-264v1454h344l311 -837l127 -403h8l-65 451v789h263v-1454q-1 -248 -106.5 -370.5t-320.5 -122.5z" />
    <glyph glyph-name="Ntilde" unicode="&#xd1;" 
d="M106 0v1454h345l308 -836l113 -340h7l-49 427v749h264v-1454h-347l-306 832l-108 322h-9l46 -424v-730h-264zM746 1563q-67 0 -109.5 23.5t-71 55t-52.5 55t-53 23.5q-42 0 -62 -44t-6 -115h-184q-19 163 47.5 248.5t189.5 85.5q67 0 109 -23.5t70 -55t51.5 -55
t52.5 -23.5q43 0 64 42t8 115h183q19 -164 -47.5 -248t-189.5 -84z" />
    <glyph glyph-name="O" unicode="O" 
d="M600 -30q-170 0 -288.5 89t-180 259.5t-61.5 416.5q0 360 137.5 554t392.5 194q256 0 393 -194t137 -554q0 -246 -61 -416.5t-179.5 -259.5t-289.5 -89zM600 227q121 0 184 120.5t63 387.5q0 261 -63 376t-184 115q-119 0 -183 -115t-64 -376q0 -267 64 -387.5
t183 -120.5z" />
    <glyph glyph-name="Oacute" unicode="&#xd3;" 
d="M600 -30q-170 0 -288.5 89t-180 259.5t-61.5 416.5q0 360 137.5 554t392.5 194q256 0 393 -194t137 -554q0 -246 -61 -416.5t-179.5 -259.5t-289.5 -89zM600 227q121 0 184 120.5t63 387.5q0 261 -63 376t-184 115q-119 0 -183 -115t-64 -376q0 -267 64 -387.5
t183 -120.5zM735 1591h-274l210 321h306z" />
    <glyph glyph-name="Obreve" unicode="&#x14e;" 
d="M600 -30q-170 0 -288.5 89t-180 259.5t-61.5 416.5q0 360 137.5 554t392.5 194q256 0 393 -194t137 -554q0 -246 -61 -416.5t-179.5 -259.5t-289.5 -89zM600 227q121 0 184 120.5t63 387.5q0 261 -63 376t-184 115q-119 0 -183 -115t-64 -376q0 -267 64 -387.5
t183 -120.5zM602 1585q-162 0 -251 78t-82 249h210q-8 -80 22.5 -119.5t100.5 -39.5q68 0 99 39t23 120h210q5 -114 -34 -186.5t-115 -106.5t-183 -34z" />
    <glyph glyph-name="Ocircumflex" unicode="&#xd4;" 
d="M600 -30q-170 0 -288.5 89t-180 259.5t-61.5 416.5q0 360 137.5 554t392.5 194q256 0 393 -194t137 -554q0 -246 -61 -416.5t-179.5 -259.5t-289.5 -89zM600 227q121 0 184 120.5t63 387.5q0 261 -63 376t-184 115q-119 0 -183 -115t-64 -376q0 -267 64 -387.5
t183 -120.5zM223 1587l258 325h241l257 -325h-228l-149 175l-150 -175h-229z" />
    <glyph glyph-name="Odieresis" unicode="&#xd6;" 
d="M600 -30q-170 0 -288.5 89t-180 259.5t-61.5 416.5q0 360 137.5 554t392.5 194q256 0 393 -194t137 -554q0 -246 -61 -416.5t-179.5 -259.5t-289.5 -89zM600 227q121 0 184 120.5t63 387.5q0 261 -63 376t-184 115q-119 0 -183 -115t-64 -376q0 -267 64 -387.5
t183 -120.5zM371 1573q-61 0 -108.5 46t-47.5 123q0 71 47.5 119t108.5 48q63 0 110.5 -47.5t47.5 -119.5q0 -77 -48 -123t-110 -46zM831 1573q-62 0 -109.5 46t-47.5 123q0 72 47.5 119.5t109.5 47.5t109 -48t47 -119q0 -77 -47 -123t-109 -46z" />
    <glyph glyph-name="uni1ECC" unicode="&#x1ecc;" 
d="M600 -30q-170 0 -288.5 89t-180 259.5t-61.5 416.5q0 360 137.5 554t392.5 194q256 0 393 -194t137 -554q0 -246 -61 -416.5t-179.5 -259.5t-289.5 -89zM600 227q121 0 184 120.5t63 387.5q0 261 -63 376t-184 115q-119 0 -183 -115t-64 -376q0 -267 64 -387.5
t183 -120.5zM601 -529q-76 0 -128.5 50.5t-52.5 132.5q0 84 52.5 134t128.5 50t128.5 -50t52.5 -134q0 -82 -53 -132.5t-128 -50.5z" />
    <glyph glyph-name="Ograve" unicode="&#xd2;" 
d="M600 -30q-170 0 -288.5 89t-180 259.5t-61.5 416.5q0 360 137.5 554t392.5 194q256 0 393 -194t137 -554q0 -246 -61 -416.5t-179.5 -259.5t-289.5 -89zM600 227q121 0 184 120.5t63 387.5q0 261 -63 376t-184 115q-119 0 -183 -115t-64 -376q0 -267 64 -387.5
t183 -120.5zM464 1591l-242 321h305l210 -321h-273z" />
    <glyph glyph-name="Ohungarumlaut" unicode="&#x150;" 
d="M600 -30q-170 0 -288.5 89t-180 259.5t-61.5 416.5q0 360 137.5 554t392.5 194q256 0 393 -194t137 -554q0 -246 -61 -416.5t-179.5 -259.5t-289.5 -89zM600 227q121 0 184 120.5t63 387.5q0 261 -63 376t-184 115q-119 0 -183 -115t-64 -376q0 -267 64 -387.5
t183 -120.5zM687 1591l170 321h274l-207 -321h-237zM266 1591l158 321h272l-195 -321h-235z" />
    <glyph glyph-name="Omacron" unicode="&#x14c;" 
d="M600 -30q-170 0 -288.5 89t-180 259.5t-61.5 416.5q0 360 137.5 554t392.5 194q256 0 393 -194t137 -554q0 -246 -61 -416.5t-179.5 -259.5t-289.5 -89zM600 227q121 0 184 120.5t63 387.5q0 261 -63 376t-184 115q-119 0 -183 -115t-64 -376q0 -267 64 -387.5
t183 -120.5zM274 1605v227h654l-3 -227h-651z" />
    <glyph glyph-name="Oslash" unicode="&#xd8;" 
d="M600 -30q-170 0 -288.5 89t-180 259.5t-61.5 416.5q0 360 137.5 554t392.5 194q256 0 393 -194t137 -554q0 -246 -61 -416.5t-179.5 -259.5t-289.5 -89zM600 227q121 0 184 120.5t63 387.5q0 261 -63 376t-184 115q-119 0 -183 -115t-64 -376q0 -267 64 -387.5
t183 -120.5zM84 -83l125 242l41 42l554 1107l4 44l95 182h224l-114 -219l-43 -47l-564 -1128l-2 -40l-95 -183h-225z" />
    <glyph glyph-name="Oslashacute" unicode="&#x1fe;" 
d="M600 -30q-170 0 -288.5 89t-180 259.5t-61.5 416.5q0 360 137.5 554t392.5 194q256 0 393 -194t137 -554q0 -246 -61 -416.5t-179.5 -259.5t-289.5 -89zM600 227q121 0 184 120.5t63 387.5q0 261 -63 376t-184 115q-119 0 -183 -115t-64 -376q0 -267 64 -387.5
t183 -120.5zM84 -83l125 242l41 42l554 1107l4 44l95 182h224l-114 -219l-43 -47l-564 -1128l-2 -40l-95 -183h-225zM735 1591h-274l210 321h306z" />
    <glyph glyph-name="Otilde" unicode="&#xd5;" 
d="M600 -30q-170 0 -288.5 89t-180 259.5t-61.5 416.5q0 360 137.5 554t392.5 194q256 0 393 -194t137 -554q0 -246 -61 -416.5t-179.5 -259.5t-289.5 -89zM600 227q121 0 184 120.5t63 387.5q0 261 -63 376t-184 115q-119 0 -183 -115t-64 -376q0 -267 64 -387.5
t183 -120.5zM752 1563q-67 0 -109.5 23.5t-71 55t-52.5 55t-53 23.5q-42 0 -62 -44t-6 -115h-184q-19 163 47.5 248.5t189.5 85.5q67 0 109 -23.5t70 -55t51.5 -55t52.5 -23.5q43 0 64 42t8 115h183q19 -164 -47.5 -248t-189.5 -84z" />
    <glyph glyph-name="OE" unicode="&#x152;" 
d="M389 -20q-125 0 -207.5 93.5t-123.5 264t-41 401.5q0 230 40 396.5t122 257t210 90.5q61 0 106 -28.5t76 -77.5t49 -113.5t23 -135.5l-47 -17l1 343h571v-250h-369v-335h326v-242h-326v-375h381v-252h-583l-1 338l32 -23q1 -109 -30.5 -183.5t-86 -113t-122.5 -38.5z
M414 229q57 0 95.5 53.5t58 165.5t19.5 288q0 161 -17.5 269t-55.5 162.5t-99 54.5q-68 0 -106 -51t-53 -159.5t-15 -282.5q0 -161 16 -273t53.5 -169.5t103.5 -57.5z" />
    <glyph glyph-name="P" unicode="P" 
d="M484 489q-30 0 -51.5 22.5t-21.5 60.5l-70 97l70 57h219q85 0 139 26.5t80.5 82.5t26.5 144q0 85 -29.5 137t-86.5 75t-139 23h-216l-86 240h75.5h90.5h88.5h69.5q253 0 386 -110.5t133 -353.5q0 -97 -27 -187t-87 -160.5t-158 -112t-240 -41.5h-166zM132 0v1454h279
v-1454h-279z" />
    <glyph glyph-name="Thorn" unicode="&#xde;" 
d="M511 254q-55 0 -81 26.5t-33 75.5l-55 87l69 57h204q92 0 149 26t84.5 79t27.5 135q0 129 -67 177t-203 48h-201l-85 249h75h88.5h86.5h70q258 0 390 -110t132 -352q0 -96 -27 -185t-87 -160t-158.5 -112t-240.5 -41h-138zM132 0v1454h279v-1454h-279z" />
    <glyph glyph-name="Q" unicode="Q" 
d="M600 -30q-170 0 -288.5 89t-180 259.5t-61.5 416.5q0 360 137.5 554t392.5 194q256 0 393 -194t137 -554q0 -246 -61 -416.5t-179.5 -259.5t-289.5 -89zM600 227q121 0 184 120.5t63 387.5q0 261 -63 376t-184 115q-119 0 -183 -115t-64 -376q0 -267 64 -387.5
t183 -120.5zM785 -316l-157 365h219q20 0 47 -13t46 -48l163 -304h-318z" />
    <glyph glyph-name="R" unicode="R" 
d="M895 0l-307 583h-180l-66 15l29 181v32h219q82 0 132.5 27.5t74 77.5t23.5 117q0 80 -30 122t-80 59t-113 17l-171 1l-44 91l-41 131h84h90h100q227 0 353.5 -103t126.5 -318q0 -71 -20.5 -141t-65.5 -129.5t-117.5 -98.5t-174.5 -48l16 22q44 0 75 -7t55.5 -27.5
t45.5 -60.5l284 -543h-298zM152 0v1454h277v-1454h-277z" />
    <glyph glyph-name="Racute" unicode="&#x154;" 
d="M895 0l-307 583h-180l-66 15l29 181v32h219q82 0 132.5 27.5t74 77.5t23.5 117q0 80 -30 122t-80 59t-113 17l-171 1l-44 91l-41 131h84h90h100q227 0 353.5 -103t126.5 -318q0 -71 -20.5 -141t-65.5 -129.5t-117.5 -98.5t-174.5 -48l16 22q44 0 75 -7t55.5 -27.5
t45.5 -60.5l284 -543h-298zM152 0v1454h277v-1454h-277zM691 1591h-274l210 321h306z" />
    <glyph glyph-name="Rcaron" unicode="&#x158;" 
d="M895 0l-307 583h-180l-66 15l29 181v32h219q82 0 132.5 27.5t74 77.5t23.5 117q0 80 -30 122t-80 59t-113 17l-171 1l-44 91l-41 131h84h90h100q227 0 353.5 -103t126.5 -318q0 -71 -20.5 -141t-65.5 -129.5t-117.5 -98.5t-174.5 -48l16 22q44 0 75 -7t55.5 -27.5
t45.5 -60.5l284 -543h-298zM152 0v1454h277v-1454h-277zM437 1585l-258 325h229l150 -175l149 175h228l-257 -325h-241z" />
    <glyph glyph-name="uni0156" unicode="&#x156;" 
d="M895 0l-307 583h-180l-66 15l29 181v32h219q82 0 132.5 27.5t74 77.5t23.5 117q0 80 -30 122t-80 59t-113 17l-171 1l-44 91l-41 131h84h90h100q227 0 353.5 -103t126.5 -318q0 -71 -20.5 -141t-65.5 -129.5t-117.5 -98.5t-174.5 -48l16 22q44 0 75 -7t55.5 -27.5
t45.5 -60.5l284 -543h-298zM152 0v1454h277v-1454h-277zM459 -526q6 36 12 94.5t10 125t4 122.5v65h255v-78q0 -65 -7 -127t-18 -113.5t-23 -88.5h-233z" />
    <glyph glyph-name="S" unicode="S" 
d="M609 -20q-156 0 -277 50t-189.5 157.5t-66.5 277.5h270q2 -85 34.5 -139.5t92.5 -79.5t144 -25q74 0 125.5 21.5t78 60t26.5 86.5q0 60 -32 96.5t-98.5 65.5t-170.5 68q-121 46 -218 106.5t-152 146.5t-55 206q0 132 63 221t173 133.5t248 44.5q211 0 332.5 -109
t140.5 -327h-263q-4 62 -31.5 105.5t-73 66.5t-109.5 23q-93 0 -152 -37t-59 -114q0 -57 23 -96.5t81.5 -74t163.5 -76.5q89 -35 172 -68.5t148.5 -78t104.5 -113t39 -174.5q1 -134 -65.5 -229.5t-182 -145t-265.5 -49.5z" />
    <glyph glyph-name="Sacute" unicode="&#x15a;" 
d="M609 -20q-156 0 -277 50t-189.5 157.5t-66.5 277.5h270q2 -85 34.5 -139.5t92.5 -79.5t144 -25q74 0 125.5 21.5t78 60t26.5 86.5q0 60 -32 96.5t-98.5 65.5t-170.5 68q-121 46 -218 106.5t-152 146.5t-55 206q0 132 63 221t173 133.5t248 44.5q211 0 332.5 -109
t140.5 -327h-263q-4 62 -31.5 105.5t-73 66.5t-109.5 23q-93 0 -152 -37t-59 -114q0 -57 23 -96.5t81.5 -74t163.5 -76.5q89 -35 172 -68.5t148.5 -78t104.5 -113t39 -174.5q1 -134 -65.5 -229.5t-182 -145t-265.5 -49.5zM722 1591h-274l210 321h306z" />
    <glyph glyph-name="Scaron" unicode="&#x160;" 
d="M609 -20q-156 0 -277 50t-189.5 157.5t-66.5 277.5h270q2 -85 34.5 -139.5t92.5 -79.5t144 -25q74 0 125.5 21.5t78 60t26.5 86.5q0 60 -32 96.5t-98.5 65.5t-170.5 68q-121 46 -218 106.5t-152 146.5t-55 206q0 132 63 221t173 133.5t248 44.5q211 0 332.5 -109
t140.5 -327h-263q-4 62 -31.5 105.5t-73 66.5t-109.5 23q-93 0 -152 -37t-59 -114q0 -57 23 -96.5t81.5 -74t163.5 -76.5q89 -35 172 -68.5t148.5 -78t104.5 -113t39 -174.5q1 -134 -65.5 -229.5t-182 -145t-265.5 -49.5zM468 1585l-258 325h229l150 -175l149 175h228
l-257 -325h-241z" />
    <glyph glyph-name="Scedilla" unicode="&#x15e;" 
d="M609 -20q-156 0 -277 50t-189.5 157.5t-66.5 277.5h270q2 -85 34.5 -139.5t92.5 -79.5t144 -25q74 0 125.5 21.5t78 60t26.5 86.5q0 60 -32 96.5t-98.5 65.5t-170.5 68q-121 46 -218 106.5t-152 146.5t-55 206q0 132 63 221t173 133.5t248 44.5q211 0 332.5 -109
t140.5 -327h-263q-4 62 -31.5 105.5t-73 66.5t-109.5 23q-93 0 -152 -37t-59 -114q0 -57 23 -96.5t81.5 -74t163.5 -76.5q89 -35 172 -68.5t148.5 -78t104.5 -113t39 -174.5q1 -134 -65.5 -229.5t-182 -145t-265.5 -49.5zM671 -493q-52 0 -103 10t-101 33l1 184
q27 -14 58.5 -22t59.5 -8q42 0 65 22t23 64q0 56 -50.5 107.5t-151.5 97.5h245q109 -39 156 -106.5t47 -146.5q0 -108 -68.5 -171.5t-180.5 -63.5z" />
    <glyph glyph-name="uni0218" unicode="&#x218;" 
d="M609 -20q-156 0 -277 50t-189.5 157.5t-66.5 277.5h270q2 -85 34.5 -139.5t92.5 -79.5t144 -25q74 0 125.5 21.5t78 60t26.5 86.5q0 60 -32 96.5t-98.5 65.5t-170.5 68q-121 46 -218 106.5t-152 146.5t-55 206q0 132 63 221t173 133.5t248 44.5q211 0 332.5 -109
t140.5 -327h-263q-4 62 -31.5 105.5t-73 66.5t-109.5 23q-93 0 -152 -37t-59 -114q0 -57 23 -96.5t81.5 -74t163.5 -76.5q89 -35 172 -68.5t148.5 -78t104.5 -113t39 -174.5q1 -134 -65.5 -229.5t-182 -145t-265.5 -49.5zM457 -531q6 36 12 94.5t10 125t4 122.5v65h255v-78
q0 -65 -7 -127t-18 -113.5t-23 -88.5h-233z" />
    <glyph glyph-name="uni1E9E" unicode="&#x1e9e;" 
d="M482 -1l-1 257q33 -6 72 -10.5t91 -4.5q75 0 119.5 31t64 81t19.5 107q0 64 -25 108t-83 66.5t-157 22.5h-89l225 489l44 76l-55 -12h-323v-1210h-278v1454h1047l-227 -486q-20 -42 -46.5 -79t-76.5 -44q88 -12 151 -47.5t102.5 -88.5t58.5 -116.5t19 -132.5
q0 -146 -52.5 -252t-158 -163t-265.5 -57q-62 0 -104 3t-72 8z" />
    <glyph glyph-name="uni018F" unicode="&#x18f;" 
d="M602 -28q-105 0 -201 39t-171 123t-118 215.5t-42 316.5l-2 131l282 -91v-115q2 -176 67 -269.5t190 -93.5q90 0 143 51t76 162.5t23 290.5q0 170 -23 279t-76 161.5t-142 52.5q-70 0 -116 -22t-72.5 -65t-39.5 -108h-287q7 93 44 175t101.5 144t154 97t202.5 35
q260 0 399 -194t139 -552q0 -177 -34.5 -318.5t-102 -241t-166.5 -151.5t-228 -52zM113 585l-45 212h872v-212h-827z" />
    <glyph glyph-name="T" unicode="T" 
d="M460 0v1098q0 45 19.5 73t60.5 35h-455v248h1030v-248h-375v-1206h-280z" />
    <glyph glyph-name="Tbar" unicode="&#x166;" 
d="M460 0v1098q0 45 19.5 73t60.5 35h-455v248h1030v-248h-375v-1206h-280zM205 607v244h794l-4 -244h-790z" />
    <glyph glyph-name="Tcaron" unicode="&#x164;" 
d="M460 0v1098q0 45 19.5 73t60.5 35h-455v248h1030v-248h-375v-1206h-280zM480 1585l-258 325h229l150 -175l149 175h228l-257 -325h-241z" />
    <glyph glyph-name="uni0162" unicode="&#x162;" 
d="M460 0v1098q0 45 19.5 73t60.5 35h-455v248h1030v-248h-375v-1206h-280zM670 -488q-52 0 -103 10t-101 33l1 184q27 -14 58.5 -22t59.5 -8q42 0 65 22t23 64q0 56 -50.5 107.5t-151.5 97.5h245q109 -39 156 -106.5t47 -146.5q0 -108 -68.5 -171.5t-180.5 -63.5z" />
    <glyph glyph-name="uni021A" unicode="&#x21a;" 
d="M460 0v1098q0 45 19.5 73t60.5 35h-455v248h1030v-248h-375v-1206h-280zM456 -526q6 36 12 94.5t10 125t4 122.5v65h255v-78q0 -65 -7 -127t-18 -113.5t-23 -88.5h-233z" />
    <glyph glyph-name="U" unicode="U" 
d="M602 -20q-151 0 -266 59t-179 181t-64 309v927h277v-885q0 -92 16.5 -155.5t46.5 -103t73.5 -57.5t97.5 -18q51 0 93 18t71.5 57.5t45.5 103t16 155.5v883h277v-925q0 -185 -64 -307.5t-178 -182t-263 -59.5z" />
    <glyph glyph-name="Uacute" unicode="&#xda;" 
d="M602 -20q-151 0 -266 59t-179 181t-64 309v927h277v-885q0 -92 16.5 -155.5t46.5 -103t73.5 -57.5t97.5 -18q51 0 93 18t71.5 57.5t45.5 103t16 155.5v883h277v-925q0 -185 -64 -307.5t-178 -182t-263 -59.5zM735 1591h-274l210 321h306z" />
    <glyph glyph-name="Ubreve" unicode="&#x16c;" 
d="M602 -20q-151 0 -266 59t-179 181t-64 309v927h277v-885q0 -92 16.5 -155.5t46.5 -103t73.5 -57.5t97.5 -18q51 0 93 18t71.5 57.5t45.5 103t16 155.5v883h277v-925q0 -185 -64 -307.5t-178 -182t-263 -59.5zM602 1585q-162 0 -251 78t-82 249h210q-8 -80 22.5 -119.5
t100.5 -39.5q68 0 99 39t23 120h210q5 -114 -34 -186.5t-115 -106.5t-183 -34z" />
    <glyph glyph-name="Ucircumflex" unicode="&#xdb;" 
d="M602 -20q-151 0 -266 59t-179 181t-64 309v927h277v-885q0 -92 16.5 -155.5t46.5 -103t73.5 -57.5t97.5 -18q51 0 93 18t71.5 57.5t45.5 103t16 155.5v883h277v-925q0 -185 -64 -307.5t-178 -182t-263 -59.5zM223 1587l258 325h241l257 -325h-228l-149 175l-150 -175
h-229z" />
    <glyph glyph-name="Udieresis" unicode="&#xdc;" 
d="M602 -20q-151 0 -266 59t-179 181t-64 309v927h277v-885q0 -92 16.5 -155.5t46.5 -103t73.5 -57.5t97.5 -18q51 0 93 18t71.5 57.5t45.5 103t16 155.5v883h277v-925q0 -185 -64 -307.5t-178 -182t-263 -59.5zM371 1573q-61 0 -108.5 46t-47.5 123q0 71 47.5 119t108.5 48
q63 0 110.5 -47.5t47.5 -119.5q0 -77 -48 -123t-110 -46zM831 1573q-62 0 -109.5 46t-47.5 123q0 72 47.5 119.5t109.5 47.5t109 -48t47 -119q0 -77 -47 -123t-109 -46z" />
    <glyph glyph-name="uni1EE4" unicode="&#x1ee4;" 
d="M602 -20q-151 0 -266 59t-179 181t-64 309v927h277v-885q0 -92 16.5 -155.5t46.5 -103t73.5 -57.5t97.5 -18q51 0 93 18t71.5 57.5t45.5 103t16 155.5v883h277v-925q0 -185 -64 -307.5t-178 -182t-263 -59.5zM600 -529q-76 0 -128.5 50.5t-52.5 132.5q0 84 52.5 134
t128.5 50t128.5 -50t52.5 -134q0 -82 -53 -132.5t-128 -50.5z" />
    <glyph glyph-name="Ugrave" unicode="&#xd9;" 
d="M602 -20q-151 0 -266 59t-179 181t-64 309v927h277v-885q0 -92 16.5 -155.5t46.5 -103t73.5 -57.5t97.5 -18q51 0 93 18t71.5 57.5t45.5 103t16 155.5v883h277v-925q0 -185 -64 -307.5t-178 -182t-263 -59.5zM464 1591l-242 321h305l210 -321h-273z" />
    <glyph glyph-name="Uhungarumlaut" unicode="&#x170;" 
d="M602 -20q-151 0 -266 59t-179 181t-64 309v927h277v-885q0 -92 16.5 -155.5t46.5 -103t73.5 -57.5t97.5 -18q51 0 93 18t71.5 57.5t45.5 103t16 155.5v883h277v-925q0 -185 -64 -307.5t-178 -182t-263 -59.5zM687 1591l170 321h274l-207 -321h-237zM266 1591l158 321h272
l-195 -321h-235z" />
    <glyph glyph-name="Umacron" unicode="&#x16a;" 
d="M602 -20q-151 0 -266 59t-179 181t-64 309v927h277v-885q0 -92 16.5 -155.5t46.5 -103t73.5 -57.5t97.5 -18q51 0 93 18t71.5 57.5t45.5 103t16 155.5v883h277v-925q0 -185 -64 -307.5t-178 -182t-263 -59.5zM274 1605v227h654l-3 -227h-651z" />
    <glyph glyph-name="Uogonek" unicode="&#x172;" 
d="M681 -20q-167 0 -292 66.5t-193.5 196.5t-68.5 318v895h284v-874q0 -93 18 -159.5t53.5 -108.5t85.5 -61.5t114 -19.5q61 0 109.5 19.5t82.5 61.5t52.5 108.5t18.5 159.5v872h284v-893q0 -186 -69 -316t-192.5 -197.5t-286.5 -67.5zM698 -407q-100 0 -160 51.5t-60 137.5
q0 47 28 97t96 89t187 52l85 -10q-88 -43 -131 -83t-43 -93q0 -69 73 -69q51 0 98 23l1 -160q-41 -18 -83 -26.5t-91 -8.5z" />
    <glyph glyph-name="Uring" unicode="&#x16e;" 
d="M602 -20q-151 0 -266 59t-179 181t-64 309v927h277v-885q0 -92 16.5 -155.5t46.5 -103t73.5 -57.5t97.5 -18q51 0 93 18t71.5 57.5t45.5 103t16 155.5v883h277v-925q0 -185 -64 -307.5t-178 -182t-263 -59.5zM601 1562q-109 0 -170.5 63t-61.5 162q0 97 61.5 159.5
t170.5 62.5q110 0 171 -62.5t61 -159.5q0 -65 -27.5 -116t-79 -80t-125.5 -29zM601 1684q36 0 62 26t26 77t-26 76t-62 25q-35 0 -60.5 -25t-25.5 -76t25.5 -77t60.5 -26z" />
    <glyph glyph-name="Utilde" unicode="&#x168;" 
d="M602 -20q-151 0 -266 59t-179 181t-64 309v927h277v-885q0 -92 16.5 -155.5t46.5 -103t73.5 -57.5t97.5 -18q51 0 93 18t71.5 57.5t45.5 103t16 155.5v883h277v-925q0 -185 -64 -307.5t-178 -182t-263 -59.5zM752 1563q-67 0 -109.5 23.5t-71 55t-52.5 55t-53 23.5
q-42 0 -62 -44t-6 -115h-184q-19 163 47.5 248.5t189.5 85.5q67 0 109 -23.5t70 -55t51.5 -55t52.5 -23.5q43 0 64 42t8 115h183q19 -164 -47.5 -248t-189.5 -84z" />
    <glyph glyph-name="V" unicode="V" 
d="M411 0l-395 1454h303l212 -912l65 -298h10l62 298l213 912h303l-394 -1454h-379z" />
    <glyph glyph-name="W" unicode="W" 
d="M188 0l-210 1454h271l84 -1052q4 -53 11 -101.5t11 -109.5h7l31 337l73 576h269l72 -576l31 -337h8q4 61 10.5 109.5t10.5 101.5l85 1052h270l-208 -1454h-294l-67 447q-18 120 -28.5 224.5t-21.5 224.5h-6q-11 -120 -22 -225t-28 -224l-65 -447h-294z" />
    <glyph glyph-name="Wacute" unicode="&#x1e82;" 
d="M188 0l-210 1454h271l84 -1052q4 -53 11 -101.5t11 -109.5h7l31 337l73 576h269l72 -576l31 -337h8q4 61 10.5 109.5t10.5 101.5l85 1052h270l-208 -1454h-294l-67 447q-18 120 -28.5 224.5t-21.5 224.5h-6q-11 -120 -22 -225t-28 -224l-65 -447h-294zM734 1591h-274
l210 321h306z" />
    <glyph glyph-name="Wcircumflex" unicode="&#x174;" 
d="M188 0l-210 1454h271l84 -1052q4 -53 11 -101.5t11 -109.5h7l31 337l73 576h269l72 -576l31 -337h8q4 61 10.5 109.5t10.5 101.5l85 1052h270l-208 -1454h-294l-67 447q-18 120 -28.5 224.5t-21.5 224.5h-6q-11 -120 -22 -225t-28 -224l-65 -447h-294zM222 1587l258 325
h241l257 -325h-228l-149 175l-150 -175h-229z" />
    <glyph glyph-name="Wdieresis" unicode="&#x1e84;" 
d="M188 0l-210 1454h271l84 -1052q4 -53 11 -101.5t11 -109.5h7l31 337l73 576h269l72 -576l31 -337h8q4 61 10.5 109.5t10.5 101.5l85 1052h270l-208 -1454h-294l-67 447q-18 120 -28.5 224.5t-21.5 224.5h-6q-11 -120 -22 -225t-28 -224l-65 -447h-294zM370 1573
q-61 0 -108.5 46t-47.5 123q0 71 47.5 119t108.5 48q63 0 110.5 -47.5t47.5 -119.5q0 -77 -48 -123t-110 -46zM830 1573q-62 0 -109.5 46t-47.5 123q0 72 47.5 119.5t109.5 47.5t109 -48t47 -119q0 -77 -47 -123t-109 -46z" />
    <glyph glyph-name="Wgrave" unicode="&#x1e80;" 
d="M188 0l-210 1454h271l84 -1052q4 -53 11 -101.5t11 -109.5h7l31 337l73 576h269l72 -576l31 -337h8q4 61 10.5 109.5t10.5 101.5l85 1052h270l-208 -1454h-294l-67 447q-18 120 -28.5 224.5t-21.5 224.5h-6q-11 -120 -22 -225t-28 -224l-65 -447h-294zM463 1591l-242 321
h305l210 -321h-273z" />
    <glyph glyph-name="X" unicode="X" 
d="M17 0l407 724l-402 730h315l142 -304l124 -253l121 251l137 306h318l-400 -730l404 -724h-317l-150 308l-117 247l-113 -249l-153 -306h-316z" />
    <glyph glyph-name="Y" unicode="Y" 
d="M473 459l-464 995h302l165 -410l116 -293h14l118 292l166 411h301l-464 -995h-254zM463 0v623h274v-623h-274z" />
    <glyph glyph-name="Yacute" unicode="&#xdd;" 
d="M473 459l-464 995h302l165 -410l116 -293h14l118 292l166 411h301l-464 -995h-254zM463 0v623h274v-623h-274zM734 1591h-274l210 321h306z" />
    <glyph glyph-name="Ycircumflex" unicode="&#x176;" 
d="M473 459l-464 995h302l165 -410l116 -293h14l118 292l166 411h301l-464 -995h-254zM463 0v623h274v-623h-274zM222 1587l258 325h241l257 -325h-228l-149 175l-150 -175h-229z" />
    <glyph glyph-name="Ydieresis" unicode="&#x178;" 
d="M473 459l-464 995h302l165 -410l116 -293h14l118 292l166 411h301l-464 -995h-254zM463 0v623h274v-623h-274zM370 1573q-61 0 -108.5 46t-47.5 123q0 71 47.5 119t108.5 48q63 0 110.5 -47.5t47.5 -119.5q0 -77 -48 -123t-110 -46zM830 1573q-62 0 -109.5 46t-47.5 123
q0 72 47.5 119.5t109.5 47.5t109 -48t47 -119q0 -77 -47 -123t-109 -46z" />
    <glyph glyph-name="Ygrave" unicode="&#x1ef2;" 
d="M473 459l-464 995h302l165 -410l116 -293h14l118 292l166 411h301l-464 -995h-254zM463 0v623h274v-623h-274zM463 1591l-242 321h305l210 -321h-273z" />
    <glyph glyph-name="uni0232" unicode="&#x232;" 
d="M473 459l-464 995h302l165 -410l116 -293h14l118 292l166 411h301l-464 -995h-254zM463 0v623h274v-623h-274zM273 1605v227h654l-3 -227h-651z" />
    <glyph glyph-name="uni1EF8" unicode="&#x1ef8;" 
d="M473 459l-464 995h302l165 -410l116 -293h14l118 292l166 411h301l-464 -995h-254zM463 0v623h274v-623h-274zM751 1563q-67 0 -109.5 23.5t-71 55t-52.5 55t-53 23.5q-42 0 -62 -44t-6 -115h-184q-19 163 47.5 248.5t189.5 85.5q67 0 109 -23.5t70 -55t51.5 -55
t52.5 -23.5q43 0 64 42t8 115h183q19 -164 -47.5 -248t-189.5 -84z" />
    <glyph glyph-name="Z" unicode="Z" 
d="M82 0l595 1112l89 105l-129 -7h-495v244h997l-601 -1125l-68 -94l141 9h474v-244h-1003z" />
    <glyph glyph-name="Zacute" unicode="&#x179;" 
d="M82 0l595 1112l89 105l-129 -7h-495v244h997l-601 -1125l-68 -94l141 9h474v-244h-1003zM751 1591h-274l210 321h306z" />
    <glyph glyph-name="Zcaron" unicode="&#x17d;" 
d="M82 0l595 1112l89 105l-129 -7h-495v244h997l-601 -1125l-68 -94l141 9h474v-244h-1003zM497 1585l-258 325h229l150 -175l149 175h228l-257 -325h-241z" />
    <glyph glyph-name="Zdotaccent" unicode="&#x17b;" 
d="M82 0l595 1112l89 105l-129 -7h-495v244h997l-601 -1125l-68 -94l141 9h474v-244h-1003zM617 1578q-67 0 -117 46.5t-50 121.5q0 71 50 119t117 48q69 0 118 -48.5t49 -118.5q0 -75 -49.5 -121.5t-117.5 -46.5z" />
    <glyph glyph-name="G.ss06" 
d="M897 199l194 596v-795h-150zM613 -28q-172 0 -293.5 93t-185.5 264t-64 404t67 400t194.5 257t309.5 91q134 1 234 -48.5t158 -155t67 -272.5h-260q-12 81 -38 128t-67.5 68t-99.5 21q-100 0 -162 -58t-91 -167t-29 -264q0 -160 31.5 -272t94 -171t151.5 -59q79 0 134 17
t92 54v249h-232v244h467l-194 -596q-20 -99 -94 -163t-190 -64z" />
    <glyph glyph-name="uni01F4.ss06" 
d="M897 199l194 596v-795h-150zM613 -28q-172 0 -293.5 93t-185.5 264t-64 404t67 400t194.5 257t309.5 91q134 1 234 -48.5t158 -155t67 -272.5h-260q-12 81 -38 128t-67.5 68t-99.5 21q-100 0 -162 -58t-91 -167t-29 -264q0 -160 31.5 -272t94 -171t151.5 -59q79 0 134 17
t92 54v249h-232v244h467l-194 -596q-20 -99 -94 -163t-190 -64zM776 1591h-274l210 321h306z" />
    <glyph glyph-name="Gbreve.ss06" 
d="M897 199l194 596v-795h-150zM613 -28q-172 0 -293.5 93t-185.5 264t-64 404t67 400t194.5 257t309.5 91q134 1 234 -48.5t158 -155t67 -272.5h-260q-12 81 -38 128t-67.5 68t-99.5 21q-100 0 -162 -58t-91 -167t-29 -264q0 -160 31.5 -272t94 -171t151.5 -59q79 0 134 17
t92 54v249h-232v244h467l-194 -596q-20 -99 -94 -163t-190 -64zM643 1585q-162 0 -251 78t-82 249h210q-8 -80 22.5 -119.5t100.5 -39.5q68 0 99 39t23 120h210q5 -114 -34 -186.5t-115 -106.5t-183 -34z" />
    <glyph glyph-name="Gcaron.ss06" 
d="M897 199l194 596v-795h-150zM613 -28q-172 0 -293.5 93t-185.5 264t-64 404t67 400t194.5 257t309.5 91q134 1 234 -48.5t158 -155t67 -272.5h-260q-12 81 -38 128t-67.5 68t-99.5 21q-100 0 -162 -58t-91 -167t-29 -264q0 -160 31.5 -272t94 -171t151.5 -59q79 0 134 17
t92 54v249h-232v244h467l-194 -596q-20 -99 -94 -163t-190 -64zM522 1585l-258 325h229l150 -175l149 175h228l-257 -325h-241z" />
    <glyph glyph-name="uni0122.ss06" 
d="M897 199l194 596v-795h-150zM613 -28q-172 0 -293.5 93t-185.5 264t-64 404t67 400t194.5 257t309.5 91q134 1 234 -48.5t158 -155t67 -272.5h-260q-12 81 -38 128t-67.5 68t-99.5 21q-100 0 -162 -58t-91 -167t-29 -264q0 -160 31.5 -272t94 -171t151.5 -59q79 0 134 17
t92 54v249h-232v244h467l-194 -596q-20 -99 -94 -163t-190 -64zM484 -526q6 36 12 94.5t10 125t4 122.5v65h255v-78q0 -65 -7 -127t-18 -113.5t-23 -88.5h-233z" />
    <glyph glyph-name="Gdotaccent.ss06" 
d="M897 199l194 596v-795h-150zM613 -28q-172 0 -293.5 93t-185.5 264t-64 404t67 400t194.5 257t309.5 91q134 1 234 -48.5t158 -155t67 -272.5h-260q-12 81 -38 128t-67.5 68t-99.5 21q-100 0 -162 -58t-91 -167t-29 -264q0 -160 31.5 -272t94 -171t151.5 -59q79 0 134 17
t92 54v249h-232v244h467l-194 -596q-20 -99 -94 -163t-190 -64zM642 1578q-67 0 -117 46.5t-50 121.5q0 71 50 119t117 48q69 0 118 -48.5t49 -118.5q0 -75 -49.5 -121.5t-117.5 -46.5z" />
    <glyph glyph-name="J.ss07" 
d="M566 -30q-115 0 -210.5 31t-163.5 98t-103.5 176t-30.5 264h276q0 -95 17 -156.5t48.5 -96.5t73 -49t88.5 -14q66 0 115.5 25t77 87t27.5 170v702h-346v247h633v-925q0 -201 -60 -324.5t-172.5 -179t-269.5 -55.5z" />
    <glyph glyph-name="uni004A0301.ss07" 
d="M566 -30q-115 0 -210.5 31t-163.5 98t-103.5 176t-30.5 264h276q0 -95 17 -156.5t48.5 -96.5t73 -49t88.5 -14q66 0 115.5 25t77 87t27.5 170v702h-346v247h633v-925q0 -201 -60 -324.5t-172.5 -179t-269.5 -55.5zM884 1591h-274l210 321h306z" />
    <glyph glyph-name="IJ.ss08" 
d="M369 0h-282v1454h282v-1454zM729 -31q-75 0 -136.5 12.5t-115.5 32.5v245q45 -13 98.5 -24.5t97.5 -11.5t79.5 12.5t57.5 49.5t22 110v638q0 78 27 121.5t80 49.5l-110 110v98l284 42v-1052q0 -132 -35 -229t-118.5 -150.5t-230.5 -53.5zM524 1204v250h589l-49 -250h-540
z" />
    <glyph glyph-name="J.ss08" 
d="M562 -31q-96 0 -165 10t-122 27t-105 36v251q45 -17 98 -33t121.5 -26.5t155.5 -10.5q55 0 100.5 17.5t72.5 66t27 141.5v585q0 78 27 121.5t81 49.5l-119 110l6 98l283 42v-999q0 -152 -38 -261t-138 -167t-285 -58zM416 1204v250h607l-51 -250h-556z" />
    <glyph glyph-name="uni004A0301.ss08" 
d="M562 -31q-96 0 -165 10t-122 27t-105 36v251q45 -17 98 -33t121.5 -26.5t155.5 -10.5q55 0 100.5 17.5t72.5 66t27 141.5v585q0 78 27 121.5t81 49.5l-119 110l6 98l283 42v-999q0 -152 -38 -261t-138 -167t-285 -58zM416 1204v250h607l-51 -250h-556zM862 1591h-274
l210 321h306z" />
    <glyph glyph-name="M.ss09" 
d="M49 0l29 1454h382l112 -880l26 -246h6l24 246l111 880h383l29 -1454h-238l-5 604l9 665h-10l-76 -496l-126 -773h-210l-128 773l-75 496h-11l12 -665l-6 -604h-238z" />
    <glyph glyph-name="W.ss10" 
d="M188 0l-210 1454h271l84 -979q6 -72 12 -142.5t10 -141.5h7l31 454l84 809h246l84 -809l31 -454h8q4 71 9.5 142t11.5 142l85 979h270l-208 -1454h-294l-67 568q-19 162 -29 331.5t-21 331.5h-6q-11 -162 -21.5 -331.5t-28.5 -331.5l-65 -568h-294z" />
    <glyph glyph-name="Wacute.ss10" 
d="M188 0l-210 1454h271l84 -979q6 -72 12 -142.5t10 -141.5h7l31 454l84 809h246l84 -809l31 -454h8q4 71 9.5 142t11.5 142l85 979h270l-208 -1454h-294l-67 568q-19 162 -29 331.5t-21 331.5h-6q-11 -162 -21.5 -331.5t-28.5 -331.5l-65 -568h-294zM734 1591h-274
l210 321h306z" />
    <glyph glyph-name="Wcircumflex.ss10" 
d="M188 0l-210 1454h271l84 -979q6 -72 12 -142.5t10 -141.5h7l31 454l84 809h246l84 -809l31 -454h8q4 71 9.5 142t11.5 142l85 979h270l-208 -1454h-294l-67 568q-19 162 -29 331.5t-21 331.5h-6q-11 -162 -21.5 -331.5t-28.5 -331.5l-65 -568h-294zM222 1587l258 325h241
l257 -325h-228l-149 175l-150 -175h-229z" />
    <glyph glyph-name="Wdieresis.ss10" 
d="M188 0l-210 1454h271l84 -979q6 -72 12 -142.5t10 -141.5h7l31 454l84 809h246l84 -809l31 -454h8q4 71 9.5 142t11.5 142l85 979h270l-208 -1454h-294l-67 568q-19 162 -29 331.5t-21 331.5h-6q-11 -162 -21.5 -331.5t-28.5 -331.5l-65 -568h-294zM370 1573
q-61 0 -108.5 46t-47.5 123q0 71 47.5 119t108.5 48q63 0 110.5 -47.5t47.5 -119.5q0 -77 -48 -123t-110 -46zM830 1573q-62 0 -109.5 46t-47.5 123q0 72 47.5 119.5t109.5 47.5t109 -48t47 -119q0 -77 -47 -123t-109 -46z" />
    <glyph glyph-name="Wgrave.ss10" 
d="M188 0l-210 1454h271l84 -979q6 -72 12 -142.5t10 -141.5h7l31 454l84 809h246l84 -809l31 -454h8q4 71 9.5 142t11.5 142l85 979h270l-208 -1454h-294l-67 568q-19 162 -29 331.5t-21 331.5h-6q-11 -162 -21.5 -331.5t-28.5 -331.5l-65 -568h-294zM463 1591l-242 321
h305l210 -321h-273z" />
    <glyph glyph-name="a" unicode="a" 
d="M462 -12q-150 0 -237 84t-87 228q0 123 76 198t243 109q53 10 108.5 18t111.5 14.5t108 10.5v67q0 97 -39.5 137.5t-132.5 40.5q-91 0 -139.5 -41t-44.5 -143h-257q-11 123 39.5 213.5t154.5 139t252 48.5q214 0 325 -101.5t111 -299.5v-711h-270l1 250
q-16 -81 -61.5 -140t-112.5 -90.5t-149 -31.5zM563 181q47 0 95.5 20.5t83.5 53.5t43 72v185q-21 -4 -52.5 -9t-62.5 -10.5t-53 -10.5q-103 -23 -150 -60.5t-47 -105.5q0 -64 39 -99.5t104 -35.5z" />
    <glyph glyph-name="aacute" unicode="&#xe1;" 
d="M462 -12q-150 0 -237 84t-87 228q0 123 76 198t243 109q53 10 108.5 18t111.5 14.5t108 10.5v67q0 97 -39.5 137.5t-132.5 40.5q-91 0 -139.5 -41t-44.5 -143h-257q-11 123 39.5 213.5t154.5 139t252 48.5q214 0 325 -101.5t111 -299.5v-711h-270l1 250
q-16 -81 -61.5 -140t-112.5 -90.5t-149 -31.5zM563 181q47 0 95.5 20.5t83.5 53.5t43 72v185q-21 -4 -52.5 -9t-62.5 -10.5t-53 -10.5q-103 -23 -150 -60.5t-47 -105.5q0 -64 39 -99.5t104 -35.5zM497 1284l209 335h302l-242 -335h-269z" />
    <glyph glyph-name="abreve" unicode="&#x103;" 
d="M462 -12q-150 0 -237 84t-87 228q0 123 76 198t243 109q53 10 108.5 18t111.5 14.5t108 10.5v67q0 97 -39.5 137.5t-132.5 40.5q-91 0 -139.5 -41t-44.5 -143h-257q-11 123 39.5 213.5t154.5 139t252 48.5q214 0 325 -101.5t111 -299.5v-711h-270l1 250
q-16 -81 -61.5 -140t-112.5 -90.5t-149 -31.5zM563 181q47 0 95.5 20.5t83.5 53.5t43 72v185q-21 -4 -52.5 -9t-62.5 -10.5t-53 -10.5q-103 -23 -150 -60.5t-47 -105.5q0 -64 39 -99.5t104 -35.5zM618 1266q-154 0 -245 83t-79 245h200q-5 -58 9.5 -93.5t44.5 -51.5t70 -16
t70 16t45 51.5t9 93.5h200q12 -162 -79 -245t-245 -83z" />
    <glyph glyph-name="acircumflex" unicode="&#xe2;" 
d="M462 -12q-150 0 -237 84t-87 228q0 123 76 198t243 109q53 10 108.5 18t111.5 14.5t108 10.5v67q0 97 -39.5 137.5t-132.5 40.5q-91 0 -139.5 -41t-44.5 -143h-257q-11 123 39.5 213.5t154.5 139t252 48.5q214 0 325 -101.5t111 -299.5v-711h-270l1 250
q-16 -81 -61.5 -140t-112.5 -90.5t-149 -31.5zM563 181q47 0 95.5 20.5t83.5 53.5t43 72v185q-21 -4 -52.5 -9t-62.5 -10.5t-53 -10.5q-103 -23 -150 -60.5t-47 -105.5q0 -64 39 -99.5t104 -35.5zM252 1282l231 338h270l231 -338h-220l-146 187l-147 -187h-219z" />
    <glyph glyph-name="adieresis" unicode="&#xe4;" 
d="M462 -12q-150 0 -237 84t-87 228q0 123 76 198t243 109q53 10 108.5 18t111.5 14.5t108 10.5v67q0 97 -39.5 137.5t-132.5 40.5q-91 0 -139.5 -41t-44.5 -143h-257q-11 123 39.5 213.5t154.5 139t252 48.5q214 0 325 -101.5t111 -299.5v-711h-270l1 250
q-16 -81 -61.5 -140t-112.5 -90.5t-149 -31.5zM563 181q47 0 95.5 20.5t83.5 53.5t43 72v185q-21 -4 -52.5 -9t-62.5 -10.5t-53 -10.5q-103 -23 -150 -60.5t-47 -105.5q0 -64 39 -99.5t104 -35.5zM394 1268q-61 0 -108.5 46t-47.5 123q0 71 47.5 119t108.5 48
q63 0 110.5 -47.5t47.5 -119.5q0 -77 -48 -123t-110 -46zM842 1268q-62 0 -109.5 46t-47.5 123q0 72 47.5 119.5t109.5 47.5q63 0 109.5 -48t46.5 -119q0 -77 -47 -123t-109 -46z" />
    <glyph glyph-name="agrave" unicode="&#xe0;" 
d="M462 -12q-150 0 -237 84t-87 228q0 123 76 198t243 109q53 10 108.5 18t111.5 14.5t108 10.5v67q0 97 -39.5 137.5t-132.5 40.5q-91 0 -139.5 -41t-44.5 -143h-257q-11 123 39.5 213.5t154.5 139t252 48.5q214 0 325 -101.5t111 -299.5v-711h-270l1 250
q-16 -81 -61.5 -140t-112.5 -90.5t-149 -31.5zM563 181q47 0 95.5 20.5t83.5 53.5t43 72v185q-21 -4 -52.5 -9t-62.5 -10.5t-53 -10.5q-103 -23 -150 -60.5t-47 -105.5q0 -64 39 -99.5t104 -35.5zM765 1284h-267l-242 335h300z" />
    <glyph glyph-name="amacron" unicode="&#x101;" 
d="M462 -12q-150 0 -237 84t-87 228q0 123 76 198t243 109q53 10 108.5 18t111.5 14.5t108 10.5v67q0 97 -39.5 137.5t-132.5 40.5q-91 0 -139.5 -41t-44.5 -143h-257q-11 123 39.5 213.5t154.5 139t252 48.5q214 0 325 -101.5t111 -299.5v-711h-270l1 250
q-16 -81 -61.5 -140t-112.5 -90.5t-149 -31.5zM563 181q47 0 95.5 20.5t83.5 53.5t43 72v185q-21 -4 -52.5 -9t-62.5 -10.5t-53 -10.5q-103 -23 -150 -60.5t-47 -105.5q0 -64 39 -99.5t104 -35.5zM324 1294v216h588l-3 -216h-585z" />
    <glyph glyph-name="aogonek" unicode="&#x105;" 
d="M462 -12q-150 0 -237 84t-87 228q0 123 76 198t243 109q53 10 108.5 18t111.5 14.5t108 10.5v67q0 97 -39.5 137.5t-132.5 40.5q-91 0 -139.5 -41t-44.5 -143h-257q-11 123 39.5 213.5t154.5 139t252 48.5q214 0 325 -101.5t111 -299.5v-711h-270l1 250
q-16 -81 -61.5 -140t-112.5 -90.5t-149 -31.5zM563 181q47 0 95.5 20.5t83.5 53.5t43 72v185q-21 -4 -52.5 -9t-62.5 -10.5t-53 -10.5q-103 -23 -150 -60.5t-47 -105.5q0 -64 39 -99.5t104 -35.5zM869 -460q-115 0 -182 56t-67 150q0 82 68 155.5t208 98.5h158
q-100 -51 -146 -92t-46 -98q0 -37 21.5 -58.5t59.5 -21.5q56 0 107 27l2 -179q-36 -17 -81 -27.5t-102 -10.5z" />
    <glyph glyph-name="aring" unicode="&#xe5;" 
d="M462 -12q-150 0 -237 84t-87 228q0 123 76 198t243 109q53 10 108.5 18t111.5 14.5t108 10.5v67q0 97 -39.5 137.5t-132.5 40.5q-91 0 -139.5 -41t-44.5 -143h-257q-11 123 39.5 213.5t154.5 139t252 48.5q214 0 325 -101.5t111 -299.5v-711h-270l1 250
q-16 -81 -61.5 -140t-112.5 -90.5t-149 -31.5zM563 181q47 0 95.5 20.5t83.5 53.5t43 72v185q-21 -4 -52.5 -9t-62.5 -10.5t-53 -10.5q-103 -23 -150 -60.5t-47 -105.5q0 -64 39 -99.5t104 -35.5zM618 1255q-122 0 -191.5 68t-69.5 179t69.5 178.5t191.5 67.5
q123 0 191.5 -67.5t68.5 -178.5t-68.5 -179t-191.5 -68zM618 1395q47 0 75.5 28t28.5 80q0 49 -28.5 77.5t-75.5 28.5t-75 -28.5t-28 -78.5q0 -51 28 -79t75 -28z" />
    <glyph glyph-name="aringacute" unicode="&#x1fb;" 
d="M462 -12q-150 0 -237 84t-87 228q0 123 76 198t243 109q53 10 108.5 18t111.5 14.5t108 10.5v67q0 97 -39.5 137.5t-132.5 40.5q-91 0 -139.5 -41t-44.5 -143h-257q-11 123 39.5 213.5t154.5 139t252 48.5q214 0 325 -101.5t111 -299.5v-711h-270l1 250
q-16 -81 -61.5 -140t-112.5 -90.5t-149 -31.5zM563 181q47 0 95.5 20.5t83.5 53.5t43 72v185q-21 -4 -52.5 -9t-62.5 -10.5t-53 -10.5q-103 -23 -150 -60.5t-47 -105.5q0 -64 39 -99.5t104 -35.5zM551 1712l129 200h231l-182 -200h-178zM618 1255q-122 0 -191.5 68
t-69.5 179t69.5 178.5t191.5 67.5q123 0 191.5 -67.5t68.5 -178.5t-68.5 -179t-191.5 -68zM618 1395q47 0 75.5 28t28.5 80q0 49 -28.5 77.5t-75.5 28.5t-75 -28.5t-28 -78.5q0 -51 28 -79t75 -28z" />
    <glyph glyph-name="atilde" unicode="&#xe3;" 
d="M462 -12q-150 0 -237 84t-87 228q0 123 76 198t243 109q53 10 108.5 18t111.5 14.5t108 10.5v67q0 97 -39.5 137.5t-132.5 40.5q-91 0 -139.5 -41t-44.5 -143h-257q-11 123 39.5 213.5t154.5 139t252 48.5q214 0 325 -101.5t111 -299.5v-711h-270l1 250
q-16 -81 -61.5 -140t-112.5 -90.5t-149 -31.5zM563 181q47 0 95.5 20.5t83.5 53.5t43 72v185q-21 -4 -52.5 -9t-62.5 -10.5t-53 -10.5q-103 -23 -150 -60.5t-47 -105.5q0 -64 39 -99.5t104 -35.5zM769 1267q-67 0 -109.5 23.5t-71 55t-51.5 55t-52 23.5q-43 0 -63.5 -44
t-6.5 -115h-191q-19 163 47.5 250.5t196.5 87.5q67 0 109 -23.5t70 -55t50.5 -55t51.5 -23.5q44 0 65.5 41.5t8.5 115.5h188q19 -168 -47.5 -252t-194.5 -84z" />
    <glyph glyph-name="ae" unicode="&#xe6;" 
d="M291 -14q-114 0 -182 80t-68 231q0 125 52.5 199t163.5 112q55 19 110.5 27.5t112.5 14.5v37q0 119 -18.5 161.5t-70.5 42.5q-33 0 -53.5 -15.5t-29 -52t-8.5 -98.5h-241q-9 123 30.5 209.5t114.5 132t171 45.5q85 0 150 -40t83 -132q25 91 94 132t151 41q154 0 236 -133
t82 -382q0 -29 -1 -51.5t-3 -47.5h-469q1 -111 15.5 -176t41 -92.5t62.5 -27.5q50 0 80 38t28 96h240q-3 -103 -45.5 -182t-113 -124t-158.5 -45q-62 0 -128.5 28t-118.5 90.5t-74 164.5q-19 -137 -72.5 -210t-163.5 -73zM363 181q27 0 54.5 19t47.5 52t25 75v185
q-25 -5 -44 -12t-47 -18q-56 -23 -82 -59t-26 -111q0 -62 18.5 -96.5t53.5 -34.5zM695 578q5 50 31 69.5t76 19.5h124q1 117 -26 170t-79 53q-67 0 -96.5 -79t-29.5 -233z" />
    <glyph glyph-name="aeacute" unicode="&#x1fd;" 
d="M291 -14q-114 0 -182 80t-68 231q0 125 52.5 199t163.5 112q55 19 110.5 27.5t112.5 14.5v37q0 119 -18.5 161.5t-70.5 42.5q-33 0 -53.5 -15.5t-29 -52t-8.5 -98.5h-241q-9 123 30.5 209.5t114.5 132t171 45.5q85 0 150 -40t83 -132q25 91 94 132t151 41q154 0 236 -133
t82 -382q0 -29 -1 -51.5t-3 -47.5h-469q1 -111 15.5 -176t41 -92.5t62.5 -27.5q50 0 80 38t28 96h240q-3 -103 -45.5 -182t-113 -124t-158.5 -45q-62 0 -128.5 28t-118.5 90.5t-74 164.5q-19 -137 -72.5 -210t-163.5 -73zM363 181q27 0 54.5 19t47.5 52t25 75v185
q-25 -5 -44 -12t-47 -18q-56 -23 -82 -59t-26 -111q0 -62 18.5 -96.5t53.5 -34.5zM695 578q5 50 31 69.5t76 19.5h124q1 117 -26 170t-79 53q-67 0 -96.5 -79t-29.5 -233zM484 1284l209 335h302l-242 -335h-269z" />
    <glyph glyph-name="b" unicode="b" 
d="M687 -13q-68 0 -123.5 28.5t-93 80t-52.5 120.5l-50 68l58 75q11 -48 37.5 -80t62.5 -48t76 -16q70 0 124 39.5t84.5 117.5t30.5 193q0 166 -54.5 242.5t-153.5 76.5q-38 0 -82 -19.5t-78 -55.5t-44 -86l-11 61l10 57q17 81 58 141.5t105 95t151 34.5q106 0 191 -62.5
t134.5 -184t49.5 -300.5q0 -180 -58 -309.5t-155.5 -199t-216.5 -69.5zM156 0l-1 1559h274v-522v-755l2 -47l-9 -52l-12 -183h-254z" />
    <glyph glyph-name="c" unicode="c" 
d="M636 -19q-162 0 -275 71.5t-171.5 200t-58.5 297.5q0 176 60 301.5t171 193t261 67.5q154 0 255 -59.5t151 -159.5t48 -224h-269q0 54 -12 95t-35.5 69.5t-57.5 43t-79 14.5q-115 0 -168 -87.5t-53 -248.5q0 -181 60 -266.5t177 -85.5q45 0 83.5 14t63 44t24.5 76h263
q3 -108 -53 -188t-155.5 -124t-229.5 -44z" />
    <glyph glyph-name="cacute" unicode="&#x107;" 
d="M636 -19q-162 0 -275 71.5t-171.5 200t-58.5 297.5q0 176 60 301.5t171 193t261 67.5q154 0 255 -59.5t151 -159.5t48 -224h-269q0 54 -12 95t-35.5 69.5t-57.5 43t-79 14.5q-115 0 -168 -87.5t-53 -248.5q0 -181 60 -266.5t177 -85.5q45 0 83.5 14t63 44t24.5 76h263
q3 -108 -53 -188t-155.5 -124t-229.5 -44zM485 1284l209 335h302l-242 -335h-269z" />
    <glyph glyph-name="ccaron" unicode="&#x10d;" 
d="M636 -19q-162 0 -275 71.5t-171.5 200t-58.5 297.5q0 176 60 301.5t171 193t261 67.5q154 0 255 -59.5t151 -159.5t48 -224h-269q0 54 -12 95t-35.5 69.5t-57.5 43t-79 14.5q-115 0 -168 -87.5t-53 -248.5q0 -181 60 -266.5t177 -85.5q45 0 83.5 14t63 44t24.5 76h263
q3 -108 -53 -188t-155.5 -124t-229.5 -44zM471 1275l-231 337h219l147 -187l146 187h220l-231 -337h-270z" />
    <glyph glyph-name="ccedilla" unicode="&#xe7;" 
d="M636 -19q-162 0 -275 71.5t-171.5 200t-58.5 297.5q0 176 60 301.5t171 193t261 67.5q154 0 255 -59.5t151 -159.5t48 -224h-269q0 54 -12 95t-35.5 69.5t-57.5 43t-79 14.5q-115 0 -168 -87.5t-53 -248.5q0 -181 60 -266.5t177 -85.5q45 0 83.5 14t63 44t24.5 76h263
q3 -108 -53 -188t-155.5 -124t-229.5 -44zM602 -479q-68 0 -122 11.5t-99 31.5l1 174q30 -13 64 -21.5t77 -8.5q57 0 79 23.5t22 77.5q0 57 -26.5 100.5t-94.5 90.5h178q48 -25 89.5 -60.5t67 -85t25.5 -114.5q0 -101 -75 -160t-186 -59z" />
    <glyph glyph-name="cdotaccent" unicode="&#x10b;" 
d="M636 -19q-162 0 -275 71.5t-171.5 200t-58.5 297.5q0 176 60 301.5t171 193t261 67.5q154 0 255 -59.5t151 -159.5t48 -224h-269q0 54 -12 95t-35.5 69.5t-57.5 43t-79 14.5q-115 0 -168 -87.5t-53 -248.5q0 -181 60 -266.5t177 -85.5q45 0 83.5 14t63 44t24.5 76h263
q3 -108 -53 -188t-155.5 -124t-229.5 -44zM606 1278q-76 0 -130 50.5t-54 135.5q0 88 54 139t130 51t130 -51t54 -139q0 -85 -54.5 -135.5t-129.5 -50.5z" />
    <glyph glyph-name="d" unicode="d" 
d="M504 -13q-117 0 -208 67.5t-142.5 193.5t-51.5 301q0 173 57.5 299.5t156 195t220.5 68.5q73 0 127 -28t89 -79.5t51 -121.5l50 -68l-58 -78q-11 48 -37 80t-60.5 49t-73.5 17q-108 0 -177 -86.5t-69 -247.5q0 -108 27.5 -183t79 -114t123.5 -39q40 0 78.5 19t67 54.5
t38.5 84.5l11 -56l-11 -57q-17 -80 -56.5 -141t-98 -95.5t-133.5 -34.5zM795 0l-3 349v1210h273v-1559h-270z" />
    <glyph glyph-name="eth" unicode="&#xf0;" 
d="M607 -15q-149 0 -262 69t-176 194.5t-63 292.5t59.5 280.5t155.5 172t204 58.5q104 0 167 -44.5t98 -103.5q-18 81 -60 174t-103 187l-204 -113l-35 220l123 53q-45 56 -94 106t-100 91l329 24q27 -25 54 -54t53 -61l209 103l27 -216l-120 -47q96 -151 158.5 -340.5
t62.5 -413.5q0 -170 -38 -290.5t-105 -196t-154 -110.5t-186 -35zM607 220q65 0 111.5 34t71 108t24.5 194q0 36 -2.5 73.5t-7.5 69t-12 49.5q-20 25 -46 44.5t-59.5 30.5t-77.5 11q-66 0 -116 -28.5t-77.5 -93.5t-27.5 -176q0 -164 57 -240t162 -76z" />
    <glyph glyph-name="dcaron" unicode="&#x10f;" 
d="M504 -13q-117 0 -208 67.5t-142.5 193.5t-51.5 301q0 173 57.5 299.5t156 195t220.5 68.5q73 0 127 -28t89 -79.5t51 -121.5l50 -68l-58 -78q-11 48 -37 80t-60.5 49t-73.5 17q-108 0 -177 -86.5t-69 -247.5q0 -108 27.5 -183t79 -114t123.5 -39q40 0 78.5 19t67 54.5
t38.5 84.5l11 -56l-11 -57q-17 -80 -56.5 -141t-98 -95.5t-133.5 -34.5zM795 0l-3 349v1210h273v-1559h-270zM1162 1183l11 376h228l-35 -376h-204z" />
    <glyph glyph-name="dcroat" unicode="&#x111;" 
d="M555 1208v208h609l2 -208h-611zM504 -13q-117 0 -208 67.5t-142.5 193.5t-51.5 301q0 173 57.5 299.5t156 195t220.5 68.5q73 0 127 -28t89 -79.5t51 -121.5l50 -68l-58 -78q-11 48 -37 80t-60.5 49t-73.5 17q-108 0 -177 -86.5t-69 -247.5q0 -108 27.5 -183t79 -114
t123.5 -39q40 0 78.5 19t67 54.5t38.5 84.5l11 -56l-11 -57q-17 -80 -56.5 -141t-98 -95.5t-133.5 -34.5zM795 0l-3 349v1207h273v-1556h-270z" />
    <glyph glyph-name="e" unicode="e" 
d="M636 -15q-156 0 -270 65.5t-176 191t-62 304.5q0 183 63 309.5t175 192t258 65.5q216 0 335 -132t119 -375q0 -30 -1.5 -55t-3.5 -56h-674q5 -103 34 -167t79.5 -93.5t120.5 -29.5q68 0 111 31.5t57 100.5h261q-9 -108 -65.5 -187.5t-149 -122t-211.5 -42.5zM395 572
q8 52 39.5 71t82.5 19h290q-1 114 -44.5 172t-141.5 58q-114 0 -170.5 -80t-55.5 -240z" />
    <glyph glyph-name="eacute" unicode="&#xe9;" 
d="M636 -15q-156 0 -270 65.5t-176 191t-62 304.5q0 183 63 309.5t175 192t258 65.5q216 0 335 -132t119 -375q0 -30 -1.5 -55t-3.5 -56h-674q5 -103 34 -167t79.5 -93.5t120.5 -29.5q68 0 111 31.5t57 100.5h261q-9 -108 -65.5 -187.5t-149 -122t-211.5 -42.5zM395 572
q8 52 39.5 71t82.5 19h290q-1 114 -44.5 172t-141.5 58q-114 0 -170.5 -80t-55.5 -240zM505 1284l209 335h302l-242 -335h-269z" />
    <glyph glyph-name="ebreve" unicode="&#x115;" 
d="M636 -15q-156 0 -270 65.5t-176 191t-62 304.5q0 183 63 309.5t175 192t258 65.5q216 0 335 -132t119 -375q0 -30 -1.5 -55t-3.5 -56h-674q5 -103 34 -167t79.5 -93.5t120.5 -29.5q68 0 111 31.5t57 100.5h261q-9 -108 -65.5 -187.5t-149 -122t-211.5 -42.5zM395 572
q8 52 39.5 71t82.5 19h290q-1 114 -44.5 172t-141.5 58q-114 0 -170.5 -80t-55.5 -240zM626 1266q-154 0 -245 83t-79 245h200q-5 -58 9.5 -93.5t44.5 -51.5t70 -16t70 16t45 51.5t9 93.5h200q12 -162 -79 -245t-245 -83z" />
    <glyph glyph-name="ecaron" unicode="&#x11b;" 
d="M636 -15q-156 0 -270 65.5t-176 191t-62 304.5q0 183 63 309.5t175 192t258 65.5q216 0 335 -132t119 -375q0 -30 -1.5 -55t-3.5 -56h-674q5 -103 34 -167t79.5 -93.5t120.5 -29.5q68 0 111 31.5t57 100.5h261q-9 -108 -65.5 -187.5t-149 -122t-211.5 -42.5zM395 572
q8 52 39.5 71t82.5 19h290q-1 114 -44.5 172t-141.5 58q-114 0 -170.5 -80t-55.5 -240zM491 1275l-231 337h219l147 -187l146 187h220l-231 -337h-270z" />
    <glyph glyph-name="ecircumflex" unicode="&#xea;" 
d="M636 -15q-156 0 -270 65.5t-176 191t-62 304.5q0 183 63 309.5t175 192t258 65.5q216 0 335 -132t119 -375q0 -30 -1.5 -55t-3.5 -56h-674q5 -103 34 -167t79.5 -93.5t120.5 -29.5q68 0 111 31.5t57 100.5h261q-9 -108 -65.5 -187.5t-149 -122t-211.5 -42.5zM395 572
q8 52 39.5 71t82.5 19h290q-1 114 -44.5 172t-141.5 58q-114 0 -170.5 -80t-55.5 -240zM260 1282l231 338h270l231 -338h-220l-146 187l-147 -187h-219z" />
    <glyph glyph-name="edieresis" unicode="&#xeb;" 
d="M636 -15q-156 0 -270 65.5t-176 191t-62 304.5q0 183 63 309.5t175 192t258 65.5q216 0 335 -132t119 -375q0 -30 -1.5 -55t-3.5 -56h-674q5 -103 34 -167t79.5 -93.5t120.5 -29.5q68 0 111 31.5t57 100.5h261q-9 -108 -65.5 -187.5t-149 -122t-211.5 -42.5zM395 572
q8 52 39.5 71t82.5 19h290q-1 114 -44.5 172t-141.5 58q-114 0 -170.5 -80t-55.5 -240zM402 1268q-61 0 -108.5 46t-47.5 123q0 71 47.5 119t108.5 48q63 0 110.5 -47.5t47.5 -119.5q0 -77 -48 -123t-110 -46zM850 1268q-62 0 -109.5 46t-47.5 123q0 72 47.5 119.5
t109.5 47.5q63 0 109.5 -48t46.5 -119q0 -77 -47 -123t-109 -46z" />
    <glyph glyph-name="edotaccent" unicode="&#x117;" 
d="M636 -15q-156 0 -270 65.5t-176 191t-62 304.5q0 183 63 309.5t175 192t258 65.5q216 0 335 -132t119 -375q0 -30 -1.5 -55t-3.5 -56h-674q5 -103 34 -167t79.5 -93.5t120.5 -29.5q68 0 111 31.5t57 100.5h261q-9 -108 -65.5 -187.5t-149 -122t-211.5 -42.5zM395 572
q8 52 39.5 71t82.5 19h290q-1 114 -44.5 172t-141.5 58q-114 0 -170.5 -80t-55.5 -240zM626 1278q-76 0 -130 50.5t-54 135.5q0 88 54 139t130 51t130 -51t54 -139q0 -85 -54.5 -135.5t-129.5 -50.5z" />
    <glyph glyph-name="egrave" unicode="&#xe8;" 
d="M636 -15q-156 0 -270 65.5t-176 191t-62 304.5q0 183 63 309.5t175 192t258 65.5q216 0 335 -132t119 -375q0 -30 -1.5 -55t-3.5 -56h-674q5 -103 34 -167t79.5 -93.5t120.5 -29.5q68 0 111 31.5t57 100.5h261q-9 -108 -65.5 -187.5t-149 -122t-211.5 -42.5zM395 572
q8 52 39.5 71t82.5 19h290q-1 114 -44.5 172t-141.5 58q-114 0 -170.5 -80t-55.5 -240zM773 1284h-267l-242 335h300z" />
    <glyph glyph-name="emacron" unicode="&#x113;" 
d="M636 -15q-156 0 -270 65.5t-176 191t-62 304.5q0 183 63 309.5t175 192t258 65.5q216 0 335 -132t119 -375q0 -30 -1.5 -55t-3.5 -56h-674q5 -103 34 -167t79.5 -93.5t120.5 -29.5q68 0 111 31.5t57 100.5h261q-9 -108 -65.5 -187.5t-149 -122t-211.5 -42.5zM395 572
q8 52 39.5 71t82.5 19h290q-1 114 -44.5 172t-141.5 58q-114 0 -170.5 -80t-55.5 -240zM332 1294v216h588l-3 -216h-585z" />
    <glyph glyph-name="eogonek" unicode="&#x119;" 
d="M738 -438q-102 0 -163 53.5t-61 124.5q0 80 35.5 137.5t93.5 97.5t123 65l89 15q-45 -40 -74 -79t-42.5 -78.5t-13.5 -81.5q0 -46 30 -64t65 -18q21 0 47 5.5t50 17.5l1 -160q-41 -18 -84.5 -26.5t-95.5 -8.5zM583 -15q-162 0 -278 65.5t-178 191t-62 305.5
q0 182 65.5 308t183 192t273.5 66q152 0 257.5 -58.5t160.5 -173t55 -280.5q0 -25 -1.5 -51t-3.5 -51l-267 162q-3 115 -52.5 172t-159.5 57q-123 0 -179 -89t-57 -247q0 -182 63.5 -266.5t172.5 -84.5q90 0 137 39t59 95h265q-9 -109 -67.5 -188.5t-157 -121.5t-229.5 -42z
M320 499l24 92q6 41 37 58.5t79 17.5h532l63 -168h-735z" />
    <glyph glyph-name="uni0259" unicode="&#x259;" 
d="M564 1106q156 0 270 -65.5t176 -190.5t62 -305q0 -183 -63 -309.5t-175 -192t-258 -65.5q-215 0 -334.5 132.5t-119.5 374.5q0 30 1.5 55t3.5 56h674q-4 103 -33.5 167t-80 93.5t-120.5 29.5q-67 0 -110.5 -31.5t-57.5 -100.5h-261q10 109 66 188t149 121.5t211 42.5z
M805 519q-8 -52 -39.5 -71t-82.5 -19h-290q1 -114 45 -172t141 -58q115 0 171 80.5t55 239.5z" />
    <glyph glyph-name="f" unicode="f" 
d="M421 34v672q0 74 25.5 118t88.5 52l-114 171v209q0 139 59 228.5t160.5 132.5t229.5 43q50 0 93 -2.5t78.5 -6t59.5 -8.5v-244q-21 7 -55.5 12t-74.5 8t-81 3q-61 0 -105.5 -15.5t-69 -53.5t-24.5 -107v-1212h-270zM217 0v202h797v-202h-797zM184 876v216h833v-216h-833z
" />
    <glyph glyph-name="g" unicode="g" 
d="M614 -456q-168 0 -287.5 38.5t-183 109t-63.5 164.5q0 67 35.5 113t92.5 70t121 24l46 1q-14 -13 -26.5 -31t-20 -41.5t-7.5 -54.5q0 -55 29.5 -94t92.5 -59.5t164 -20.5q131 0 195.5 32.5t63.5 98.5q0 48 -34 70t-127 33l-259 33q-132 18 -198 52.5t-87.5 77t-21.5 81.5
q0 57 33.5 95.5t82 61.5t96 32.5t75.5 6.5q-28 -14 -49 -34.5t-21 -63.5q0 -39 28 -58t108 -29l271 -35q150 -19 229 -64t108 -108t29 -136q0 -88 -39.5 -156t-109.5 -114.5t-164 -70.5t-202 -24zM616 384q-209 0 -328 98.5t-119 265.5q0 168 120 266t329 96
q136 -1 236 -45.5t155 -125.5t55 -195q0 -166 -119 -263t-329 -97zM617 579q95 0 141 41.5t46 124.5q0 85 -46.5 127.5t-142.5 42.5q-90 0 -138 -41.5t-48 -123.5q0 -85 48.5 -128t139.5 -43zM741 1076l-13 10q9 103 50 159.5t101.5 79t124.5 22.5q20 0 40 -2t32 -7v-243
q-39 8 -75.5 12.5t-74.5 4.5q-20 0 -52 0.5t-67 -7t-66 -29.5z" />
    <glyph glyph-name="uni01F5" unicode="&#x1f5;" 
d="M614 -456q-171 0 -290.5 38.5t-181.5 109t-62 164.5q0 67 35.5 113t92.5 70t121 24l46 1q-14 -13 -26.5 -31t-20 -41.5t-7.5 -54.5q0 -55 30.5 -94t94 -59.5t161.5 -20.5q131 0 195.5 32.5t63.5 98.5q0 48 -34 70t-127 33l-259 33q-132 18 -198 52.5t-87.5 77t-21.5 81.5
q0 57 33.5 95.5t82 61.5t96 32.5t75.5 6.5q-28 -14 -49 -34.5t-21 -63.5q0 -39 28 -58t108 -29l271 -35q150 -19 229 -63.5t108 -108t29 -136.5q0 -88 -39.5 -156t-109.5 -114.5t-164 -70.5t-202 -24zM616 384q-209 0 -328 98.5t-119 265.5q0 168 120 266t329 96
q127 -1 228 -45.5t159.5 -125.5t58.5 -195q0 -166 -119 -263t-329 -97zM617 579q95 0 141 41.5t46 124.5q0 85 -46.5 127.5t-142.5 42.5q-90 0 -138 -41.5t-48 -123.5q0 -85 48.5 -128t139.5 -43zM819 1056l-20 10q9 108 51.5 169.5t102 86.5t116.5 25q20 0 40.5 -2t32.5 -7
v-243q-39 8 -70 12.5t-68 4.5q-26 0 -57.5 -4.5t-64 -17t-63.5 -34.5zM464 1284l209 335h302l-242 -335h-269z" />
    <glyph glyph-name="gbreve" unicode="&#x11f;" 
d="M600 1266q-154 0 -245 83t-79 245h200q-5 -58 9.5 -93.5t44.5 -51.5t70 -16t70 16t45 51.5t9 93.5h200q12 -162 -79 -245t-245 -83zM614 -456q-171 0 -290.5 38.5t-181.5 109t-62 164.5q0 67 35.5 113t92.5 70t121 24l46 1q-14 -13 -26.5 -31t-20 -41.5t-7.5 -54.5
q0 -55 30.5 -94t94 -59.5t161.5 -20.5q131 0 195.5 32.5t63.5 98.5q0 48 -34 70t-127 33l-259 33q-132 18 -198 52.5t-87.5 77t-21.5 81.5q0 57 33.5 95.5t82 61.5t96 32.5t75.5 6.5q-28 -14 -49 -34.5t-21 -63.5q0 -39 28 -58t108 -29l271 -35q150 -19 229 -63.5t108 -108
t29 -136.5q0 -88 -39.5 -156t-109.5 -114.5t-164 -70.5t-202 -24zM616 384q-209 0 -328 98.5t-119 265.5q0 168 120 266t329 96q127 -1 228 -45.5t159.5 -125.5t58.5 -195q0 -166 -119 -263t-329 -97zM617 579q95 0 141 41.5t46 124.5q0 85 -46.5 127.5t-142.5 42.5
q-90 0 -138 -41.5t-48 -123.5q0 -85 48.5 -128t139.5 -43zM819 1056l-20 10q9 108 51.5 169.5t102 86.5t116.5 25q20 0 40.5 -2t32.5 -7v-243q-39 8 -70 12.5t-68 4.5q-26 0 -57.5 -4.5t-64 -17t-63.5 -34.5z" />
    <glyph glyph-name="gcaron" unicode="&#x1e7;" 
d="M614 -456q-171 0 -290.5 38.5t-181.5 109t-62 164.5q0 67 35.5 113t92.5 70t121 24l46 1q-14 -13 -26.5 -31t-20 -41.5t-7.5 -54.5q0 -55 30.5 -94t94 -59.5t161.5 -20.5q131 0 195.5 32.5t63.5 98.5q0 48 -34 70t-127 33l-259 33q-132 18 -198 52.5t-87.5 77t-21.5 81.5
q0 57 33.5 95.5t82 61.5t96 32.5t75.5 6.5q-28 -14 -49 -34.5t-21 -63.5q0 -39 28 -58t108 -29l271 -35q150 -19 229 -63.5t108 -108t29 -136.5q0 -88 -39.5 -156t-109.5 -114.5t-164 -70.5t-202 -24zM616 384q-209 0 -328 98.5t-119 265.5q0 168 120 266t329 96
q127 -1 228 -45.5t159.5 -125.5t58.5 -195q0 -166 -119 -263t-329 -97zM617 579q95 0 141 41.5t46 124.5q0 85 -46.5 127.5t-142.5 42.5q-90 0 -138 -41.5t-48 -123.5q0 -85 48.5 -128t139.5 -43zM819 1056l-20 10q9 108 51.5 169.5t102 86.5t116.5 25q20 0 40.5 -2t32.5 -7
v-243q-39 8 -70 12.5t-68 4.5q-26 0 -57.5 -4.5t-64 -17t-63.5 -34.5zM450 1275l-231 337h219l147 -187l146 187h220l-231 -337h-270z" />
    <glyph glyph-name="uni0123" unicode="&#x123;" 
d="M614 -456q-171 0 -290.5 38.5t-181.5 109t-62 164.5q0 67 35.5 113t92.5 70t121 24l46 1q-14 -13 -26.5 -31t-20 -41.5t-7.5 -54.5q0 -55 30.5 -94t94 -59.5t161.5 -20.5q131 0 195.5 32.5t63.5 98.5q0 48 -34 70t-127 33l-259 33q-132 18 -198 52.5t-87.5 77t-21.5 81.5
q0 57 33.5 95.5t82 61.5t96 32.5t75.5 6.5q-28 -14 -49 -34.5t-21 -63.5q0 -39 28 -58t108 -29l271 -35q150 -19 229 -63.5t108 -108t29 -136.5q0 -88 -39.5 -156t-109.5 -114.5t-164 -70.5t-202 -24zM616 384q-209 0 -328 98.5t-119 265.5q0 168 120 266t329 96
q127 -1 228 -45.5t159.5 -125.5t58.5 -195q0 -166 -119 -263t-329 -97zM617 579q95 0 141 41.5t46 124.5q0 85 -46.5 127.5t-142.5 42.5q-90 0 -138 -41.5t-48 -123.5q0 -85 48.5 -128t139.5 -43zM819 1056l-20 10q9 108 51.5 169.5t102 86.5t116.5 25q20 0 40.5 -2t32.5 -7
v-243q-39 8 -70 12.5t-68 4.5q-26 0 -57.5 -4.5t-64 -17t-63.5 -34.5zM446 1274v51q0 49 11 107t29 110t39 79h225q-22 -55 -32.5 -132.5t-10.5 -169.5v-45h-261z" />
    <glyph glyph-name="gdotaccent" unicode="&#x121;" 
d="M614 -456q-171 0 -290.5 38.5t-181.5 109t-62 164.5q0 67 35.5 113t92.5 70t121 24l46 1q-14 -13 -26.5 -31t-20 -41.5t-7.5 -54.5q0 -55 30.5 -94t94 -59.5t161.5 -20.5q131 0 195.5 32.5t63.5 98.5q0 48 -34 70t-127 33l-259 33q-132 18 -198 52.5t-87.5 77t-21.5 81.5
q0 57 33.5 95.5t82 61.5t96 32.5t75.5 6.5q-28 -14 -49 -34.5t-21 -63.5q0 -39 28 -58t108 -29l271 -35q150 -19 229 -63.5t108 -108t29 -136.5q0 -88 -39.5 -156t-109.5 -114.5t-164 -70.5t-202 -24zM616 384q-209 0 -328 98.5t-119 265.5q0 168 120 266t329 96
q127 -1 228 -45.5t159.5 -125.5t58.5 -195q0 -166 -119 -263t-329 -97zM617 579q95 0 141 41.5t46 124.5q0 85 -46.5 127.5t-142.5 42.5q-90 0 -138 -41.5t-48 -123.5q0 -85 48.5 -128t139.5 -43zM819 1056l-20 10q9 108 51.5 169.5t102 86.5t116.5 25q20 0 40.5 -2t32.5 -7
v-243q-39 8 -70 12.5t-68 4.5q-26 0 -57.5 -4.5t-64 -17t-63.5 -34.5zM585 1278q-76 0 -130 50.5t-54 135.5q0 88 54 139t130 51t130 -51t54 -139q0 -85 -54.5 -135.5t-129.5 -50.5z" />
    <glyph glyph-name="h" unicode="h" 
d="M144 0v1559h269v-468l-20 -318l13 -81l-15 71q12 90 48 170.5t107 130.5t185 50q148 0 232 -97.5t84 -293.5v-723h-274v623q0 139 -36 197.5t-121 58.5q-64 0 -116.5 -39t-81.5 -101v-739h-274z" />
    <glyph glyph-name="hbar" unicode="&#x127;" 
d="M134 0v1559h270v-468l-16 -311l9 -88l-11 71q12 90 45.5 170.5t102 130.5t184.5 50q151 0 238.5 -96.5t87.5 -294.5v-723h-275v623q0 138 -36.5 197t-124.5 59q-66 0 -117.5 -43.5t-81.5 -103.5v-732h-275zM38 1208v208h641v-208h-641z" />
    <glyph glyph-name="i" unicode="i" 
d="M527 30v684q0 73 23.5 106.5t82.5 40.5l-106 65l-5 67l274 98l-3 -1061h-266zM197 0v201h907v-201h-907zM157 861v230h639l-58 -230h-581zM656 1278q-76 0 -129.5 50.5t-53.5 135.5q0 87 54 138.5t129 51.5q77 0 130.5 -51t53.5 -139q0 -85 -54.5 -135.5t-129.5 -50.5z
" />
    <glyph glyph-name="dotlessi" unicode="&#x131;" 
d="M527 30v684q0 73 23.5 106.5t82.5 40.5l-106 65l-5 67l274 98l-3 -1061h-266zM197 0v201h907v-201h-907zM157 861v230h639l-58 -230h-581z" />
    <glyph glyph-name="iacute" unicode="&#xed;" 
d="M527 30v684q0 73 23.5 106.5t82.5 40.5l-106 65l-5 67l274 98l-3 -1061h-266zM197 0v201h907v-201h-907zM157 861v230h639l-58 -230h-581zM536 1284l209 335h302l-242 -335h-269z" />
    <glyph glyph-name="ibreve" unicode="&#x12d;" 
d="M527 30v684q0 73 23.5 106.5t82.5 40.5l-106 65l-5 67l274 98l-3 -1061h-266zM197 0v201h907v-201h-907zM157 861v230h639l-58 -230h-581zM657 1266q-154 0 -245 83t-79 245h200q-5 -58 9.5 -93.5t44.5 -51.5t70 -16t70 16t45 51.5t9 93.5h200q12 -162 -79 -245t-245 -83
z" />
    <glyph glyph-name="icircumflex" unicode="&#xee;" 
d="M527 30v684q0 73 23.5 106.5t82.5 40.5l-106 65l-5 67l274 98l-3 -1061h-266zM197 0v201h907v-201h-907zM157 861v230h639l-58 -230h-581zM291 1282l231 338h270l231 -338h-220l-146 187l-147 -187h-219z" />
    <glyph glyph-name="idieresis" unicode="&#xef;" 
d="M527 30v684q0 73 23.5 106.5t82.5 40.5l-106 65l-5 67l274 98l-3 -1061h-266zM197 0v201h907v-201h-907zM157 861v230h639l-58 -230h-581zM433 1268q-61 0 -108.5 46t-47.5 123q0 71 47.5 119t108.5 48q63 0 110.5 -47.5t47.5 -119.5q0 -77 -48 -123t-110 -46zM881 1268
q-62 0 -109.5 46t-47.5 123q0 72 47.5 119.5t109.5 47.5q63 0 109.5 -48t46.5 -119q0 -77 -47 -123t-109 -46z" />
    <glyph glyph-name="i.loclTRK" 
d="M527 30v684q0 73 23.5 106.5t82.5 40.5l-106 65l-5 67l274 98l-3 -1061h-266zM197 0v201h907v-201h-907zM157 861v230h639l-58 -230h-581zM657 1278q-76 0 -130 50.5t-54 135.5q0 88 54 139t130 51t130 -51t54 -139q0 -85 -54.5 -135.5t-129.5 -50.5z" />
    <glyph glyph-name="uni1ECB" unicode="&#x1ecb;" 
d="M527 30v684q0 73 23.5 106.5t82.5 40.5l-106 65l-5 67l274 98l-3 -1061h-266zM197 0v201h907v-201h-907zM157 861v230h639l-58 -230h-581zM656 1278q-76 0 -129.5 50.5t-53.5 135.5q0 87 54 138.5t129 51.5q77 0 130.5 -51t53.5 -139q0 -85 -54.5 -135.5t-129.5 -50.5z
M663 -529q-76 0 -128.5 50.5t-52.5 132.5q0 84 52.5 134t128.5 50t128.5 -50t52.5 -134q0 -82 -53 -132.5t-128 -50.5z" />
    <glyph glyph-name="igrave" unicode="&#xec;" 
d="M527 30v684q0 73 23.5 106.5t82.5 40.5l-106 65l-5 67l274 98l-3 -1061h-266zM197 0v201h907v-201h-907zM157 861v230h639l-58 -230h-581zM804 1284h-267l-242 335h300z" />
    <glyph glyph-name="ij" unicode="&#x133;" 
d="M216 0v1064l268 28l-1 -1092h-267zM-47 1091l530 1l-24 -230h-506v229zM-46 214h770v-214h-770v214zM868 -453q-69 0 -131 6.5t-118 24.5v243q22 -9 62.5 -15.5t95.5 -6.5q27 0 47 22t20 82v1150l265 39l-3 -1137q0 -24 0.5 -48.5t0.5 -46.5q0 -90 -23 -160.5
t-75.5 -111.5t-140.5 -41zM622 1092h487l-57 -229h-430v229zM352 1234q-76 0 -130.5 52t-54.5 137q0 89 54 141t131 52q76 0 130 -52t54 -141q0 -85 -54.5 -137t-129.5 -52zM976 1234q-76 0 -130.5 52t-54.5 137q0 89 54.5 141t130.5 52t130.5 -52t54.5 -141q0 -85 -55 -137
t-130 -52z" />
    <glyph glyph-name="imacron" unicode="&#x12b;" 
d="M527 30v684q0 73 23.5 106.5t82.5 40.5l-106 65l-5 67l274 98l-3 -1061h-266zM197 0v201h907v-201h-907zM157 861v230h639l-58 -230h-581zM363 1294v216h588l-3 -216h-585z" />
    <glyph glyph-name="iogonek" unicode="&#x12f;" 
d="M527 30v684q0 73 23.5 106.5t82.5 40.5l-106 65l-5 67l274 98l-3 -1061h-266zM197 0v201h907v-201h-907zM157 861v230h639l-58 -230h-581zM657 1278q-76 0 -130 50.5t-54 135.5q0 88 54 139t130 51t130 -51t54 -139q0 -85 -54.5 -135.5t-129.5 -50.5zM911 -460
q-115 0 -182 56t-67 150q0 82 68 155.5t208 98.5h158q-100 -51 -146 -92t-46 -98q0 -37 21.5 -58.5t59.5 -21.5q56 0 107 27l2 -179q-36 -17 -81 -27.5t-102 -10.5z" />
    <glyph glyph-name="itilde" unicode="&#x129;" 
d="M527 30v684q0 73 23.5 106.5t82.5 40.5l-106 65l-5 67l274 98l-3 -1061h-266zM197 0v201h907v-201h-907zM157 861v230h639l-58 -230h-581zM808 1267q-67 0 -109.5 23.5t-71 55t-51.5 55t-52 23.5q-43 0 -63.5 -44t-6.5 -115h-191q-19 163 47.5 250.5t196.5 87.5
q67 0 109 -23.5t70 -55t50.5 -55t51.5 -23.5q44 0 65.5 41.5t8.5 115.5h188q19 -168 -47.5 -252t-194.5 -84z" />
    <glyph glyph-name="j" unicode="j" 
d="M504 -453q-100 0 -175 12.5t-129 32.5v232q46 -14 113 -26t136 -12q62 0 102.5 13.5t60.5 52t20 113.5v728q0 77 25 120.5t74 49.5l-100 81v106l283 42v-1107q0 -134 -38 -232t-128 -152t-244 -54zM265 863v229h649l-49 -229h-600zM764 1278q-76 0 -129.5 50.5
t-53.5 135.5q0 88 54 139t129 51q77 0 130.5 -51t53.5 -139q0 -85 -54 -135.5t-130 -50.5z" />
    <glyph glyph-name="uni0237" unicode="&#x237;" 
d="M504 -453q-96 0 -171 12.5t-129 32.5v238q46 -14 112.5 -25t132.5 -11q62 0 102 12.5t60 49.5t20 110v727q0 77 25.5 120.5t74.5 49.5l-100 81v106l283 42v-1111q0 -133 -38 -230t-128 -150.5t-244 -53.5zM265 863v229h649l-49 -229h-600z" />
    <glyph glyph-name="uni006A0301" 
d="M504 -453q-96 0 -171 12.5t-129 32.5v238q46 -14 112.5 -25t132.5 -11q62 0 102 12.5t60 49.5t20 110v727q0 77 25.5 120.5t74.5 49.5l-100 81v106l283 42v-1111q0 -133 -38 -230t-128 -150.5t-244 -53.5zM265 863v229h649l-49 -229h-600zM649 1284l209 335h302
l-242 -335h-269z" />
    <glyph glyph-name="k" unicode="k" 
d="M816 0l-408 595l238 35l123 -122l393 -508h-346zM158 0v1559h272v-801l-17 -160v-8l17 -166v-424h-272zM646 562l-238 33l178 243l186 253h354l-360 -414z" />
    <glyph glyph-name="uni0137" unicode="&#x137;" 
d="M816 0l-408 595l238 35l123 -122l393 -508h-346zM158 0v1559h272v-801l-17 -160v-8l17 -166v-424h-272zM646 562l-238 33l178 243l186 253h354l-360 -414zM467 -526q6 36 12 94.5t10 125t4 122.5v65h255v-78q0 -65 -7 -127t-18 -113.5t-23 -88.5h-233z" />
    <glyph glyph-name="l" unicode="l" 
d="M770 -16q-117 0 -199 33t-124 104t-42 183v921q0 39 20.5 64.5t57.5 31.5h-368v238h564l-3 -1170q0 -100 35 -132t131 -32q62 0 128 10.5t121 30.5v-235q-66 -21 -153 -34t-168 -13z" />
    <glyph glyph-name="lacute" unicode="&#x13a;" 
d="M777 1673h-274l210 321h306zM770 -16q-117 0 -199 33t-124 104t-42 183v921q0 39 20.5 64.5t57.5 31.5h-368v238h564l-3 -1170q0 -100 35 -132t131 -32q62 0 128 10.5t121 30.5v-235q-66 -21 -153 -34t-168 -13z" />
    <glyph glyph-name="lcaron" unicode="&#x13e;" 
d="M879 1183l11 376h228l-35 -376h-204zM770 -16q-117 0 -199 33t-124 104t-42 183v921q0 39 20.5 64.5t57.5 31.5h-368v238h564l-3 -1170q0 -100 35 -132t131 -32q62 0 128 10.5t121 30.5v-235q-66 -21 -153 -34t-168 -13z" />
    <glyph glyph-name="uni013C" unicode="&#x13c;" 
d="M770 -16q-117 0 -199 33t-124 104t-42 183v921q0 39 20.5 64.5t57.5 31.5h-368v238h564l-3 -1170q0 -100 35 -132t131 -32q62 0 128 10.5t121 30.5v-235q-66 -21 -153 -34t-168 -13zM558 -526q6 36 12 94.5t10 125t4 122.5v65h255v-78q0 -65 -7 -127t-18 -113.5
t-23 -88.5h-233z" />
    <glyph glyph-name="ldot" unicode="&#x140;" 
d="M1037 537q-79 0 -134 56.5t-55 149.5q0 92 55 148.5t134 56.5q78 0 132.5 -56.5t54.5 -148.5q0 -93 -54.5 -149.5t-132.5 -56.5zM770 -16q-117 0 -199 33t-124 104t-42 183v921q0 39 20.5 64.5t57.5 31.5h-368v238h564l-3 -1170q0 -100 35 -132t131 -32q62 0 128 10.5
t121 30.5v-235q-66 -21 -153 -34t-168 -13z" />
    <glyph glyph-name="lslash" unicode="&#x142;" 
d="M256 542v247l582 306l-4 -246zM763 -16q-117 0 -199 33t-124 104t-42 183v921q0 39 20.5 64.5t57.5 31.5h-368v238h564l-3 -1170q0 -100 35 -132t131 -32q62 0 128 10.5t121 30.5v-235q-66 -21 -153 -34t-168 -13z" />
    <glyph glyph-name="m" unicode="m" 
d="M61 0v1092h213l19 -316l-10 19q13 148 82.5 233.5t176.5 85.5q57 0 96.5 -27.5t60 -90.5t14.5 -169l-3 -62v-765h-205v755q0 65 -17.5 94.5t-56.5 29.5q-44 0 -80 -31.5t-56 -105.5v-742h-234zM918 0v755q0 61 -17.5 92.5t-59.5 31.5q-47 0 -81.5 -33t-49.5 -104l-38 -41
l31 77q12 155 83 245.5t188 90.5q87 0 132.5 -67.5t45.5 -210.5v-836h-234z" />
    <glyph glyph-name="n" unicode="n" 
d="M166 0v1093h241l26 -412l-15 83q22 174 102.5 262t225.5 88q156 0 234 -101t78 -290v-723h-274v635q0 128 -34 184t-115 56q-65 0 -115.5 -36t-79.5 -98v-741h-274z" />
    <glyph glyph-name="nacute" unicode="&#x144;" 
d="M166 0v1093h241l26 -412l-15 83q22 174 102.5 262t225.5 88q156 0 234 -101t78 -290v-723h-274v635q0 128 -34 184t-115 56q-65 0 -115.5 -36t-79.5 -98v-741h-274zM495 1284l209 335h302l-242 -335h-269z" />
    <glyph glyph-name="ncaron" unicode="&#x148;" 
d="M166 0v1093h241l26 -412l-15 83q22 174 102.5 262t225.5 88q156 0 234 -101t78 -290v-723h-274v635q0 128 -34 184t-115 56q-65 0 -115.5 -36t-79.5 -98v-741h-274zM481 1275l-231 337h219l147 -187l146 187h220l-231 -337h-270z" />
    <glyph glyph-name="uni0146" unicode="&#x146;" 
d="M166 0v1093h241l26 -412l-15 83q22 174 102.5 262t225.5 88q156 0 234 -101t78 -290v-723h-274v635q0 128 -34 184t-115 56q-65 0 -115.5 -36t-79.5 -98v-741h-274zM464 -526q6 36 12 94.5t10 125t4 122.5v65h255v-78q0 -65 -7 -127t-18 -113.5t-23 -88.5h-233z" />
    <glyph glyph-name="eng" unicode="&#x14b;" 
d="M788 -453q-64 0 -105.5 8t-79.5 20v242q15 -6 40 -12t51 -6q29 0 50.5 22t21.5 82l-1 720q0 99 -18 154.5t-53 78.5t-87 23q-69 0 -122 -42t-79 -97v-740h-275v1092h241l18 -289q16 82 50.5 153t100.5 114.5t172 43.5q156 0 240.5 -99t84.5 -292l1 -768q0 -24 0.5 -48.5
t0.5 -46.5q0 -90 -24.5 -160.5t-79.5 -111.5t-148 -41z" />
    <glyph glyph-name="ntilde" unicode="&#xf1;" 
d="M166 0v1093h241l26 -412l-15 83q22 174 102.5 262t225.5 88q156 0 234 -101t78 -290v-723h-274v635q0 128 -34 184t-115 56q-65 0 -115.5 -36t-79.5 -98v-741h-274zM767 1267q-67 0 -109.5 23.5t-71 55t-51.5 55t-52 23.5q-43 0 -63.5 -44t-6.5 -115h-191
q-19 163 47.5 250.5t196.5 87.5q67 0 109 -23.5t70 -55t50.5 -55t51.5 -23.5q44 0 65.5 41.5t8.5 115.5h188q19 -168 -47.5 -252t-194.5 -84z" />
    <glyph glyph-name="o" unicode="o" 
d="M596 -15q-148 0 -258 66.5t-171 192.5t-61 303t64.5 303.5t177.5 194.5t257 68q151 0 260.5 -68.5t169 -194.5t59.5 -298q0 -182 -65.5 -308.5t-178 -192.5t-254.5 -66zM601 216q92 0 153.5 77t61.5 258q0 176 -61 253.5t-156 77.5q-93 0 -153.5 -76.5t-60.5 -251.5
q0 -180 63 -259t153 -79z" />
    <glyph glyph-name="oacute" unicode="&#xf3;" 
d="M596 -15q-148 0 -258 66.5t-171 192.5t-61 303t64.5 303.5t177.5 194.5t257 68q151 0 260.5 -68.5t169 -194.5t59.5 -298q0 -182 -65.5 -308.5t-178 -192.5t-254.5 -66zM601 216q92 0 153.5 77t61.5 258q0 176 -61 253.5t-156 77.5q-93 0 -153.5 -76.5t-60.5 -251.5
q0 -180 63 -259t153 -79zM480 1284l209 335h302l-242 -335h-269z" />
    <glyph glyph-name="obreve" unicode="&#x14f;" 
d="M596 -15q-148 0 -258 66.5t-171 192.5t-61 303t64.5 303.5t177.5 194.5t257 68q151 0 260.5 -68.5t169 -194.5t59.5 -298q0 -182 -65.5 -308.5t-178 -192.5t-254.5 -66zM601 216q92 0 153.5 77t61.5 258q0 176 -61 253.5t-156 77.5q-93 0 -153.5 -76.5t-60.5 -251.5
q0 -180 63 -259t153 -79zM601 1266q-154 0 -245 83t-79 245h200q-5 -58 9.5 -93.5t44.5 -51.5t70 -16t70 16t45 51.5t9 93.5h200q12 -162 -79 -245t-245 -83z" />
    <glyph glyph-name="ocircumflex" unicode="&#xf4;" 
d="M596 -15q-148 0 -258 66.5t-171 192.5t-61 303t64.5 303.5t177.5 194.5t257 68q151 0 260.5 -68.5t169 -194.5t59.5 -298q0 -182 -65.5 -308.5t-178 -192.5t-254.5 -66zM601 216q92 0 153.5 77t61.5 258q0 176 -61 253.5t-156 77.5q-93 0 -153.5 -76.5t-60.5 -251.5
q0 -180 63 -259t153 -79zM235 1282l231 338h270l231 -338h-220l-146 187l-147 -187h-219z" />
    <glyph glyph-name="odieresis" unicode="&#xf6;" 
d="M596 -15q-148 0 -258 66.5t-171 192.5t-61 303t64.5 303.5t177.5 194.5t257 68q151 0 260.5 -68.5t169 -194.5t59.5 -298q0 -182 -65.5 -308.5t-178 -192.5t-254.5 -66zM601 216q92 0 153.5 77t61.5 258q0 176 -61 253.5t-156 77.5q-93 0 -153.5 -76.5t-60.5 -251.5
q0 -180 63 -259t153 -79zM377 1268q-61 0 -108.5 46t-47.5 123q0 71 47.5 119t108.5 48q63 0 110.5 -47.5t47.5 -119.5q0 -77 -48 -123t-110 -46zM825 1268q-62 0 -109.5 46t-47.5 123q0 72 47.5 119.5t109.5 47.5q63 0 109.5 -48t46.5 -119q0 -77 -47 -123t-109 -46z" />
    <glyph glyph-name="uni1ECD" unicode="&#x1ecd;" 
d="M596 -15q-148 0 -258 66.5t-171 192.5t-61 303t64.5 303.5t177.5 194.5t257 68q151 0 260.5 -68.5t169 -194.5t59.5 -298q0 -182 -65.5 -308.5t-178 -192.5t-254.5 -66zM601 216q92 0 153.5 77t61.5 258q0 176 -61 253.5t-156 77.5q-93 0 -153.5 -76.5t-60.5 -251.5
q0 -180 63 -259t153 -79zM601 -529q-76 0 -128.5 50.5t-52.5 132.5q0 84 52.5 134t128.5 50t128.5 -50t52.5 -134q0 -82 -53 -132.5t-128 -50.5z" />
    <glyph glyph-name="ograve" unicode="&#xf2;" 
d="M596 -15q-148 0 -258 66.5t-171 192.5t-61 303t64.5 303.5t177.5 194.5t257 68q151 0 260.5 -68.5t169 -194.5t59.5 -298q0 -182 -65.5 -308.5t-178 -192.5t-254.5 -66zM601 216q92 0 153.5 77t61.5 258q0 176 -61 253.5t-156 77.5q-93 0 -153.5 -76.5t-60.5 -251.5
q0 -180 63 -259t153 -79zM748 1284h-267l-242 335h300z" />
    <glyph glyph-name="ohungarumlaut" unicode="&#x151;" 
d="M596 -15q-148 0 -258 66.5t-171 192.5t-61 303t64.5 303.5t177.5 194.5t257 68q151 0 260.5 -68.5t169 -194.5t59.5 -298q0 -182 -65.5 -308.5t-178 -192.5t-254.5 -66zM601 216q92 0 153.5 77t61.5 258q0 176 -61 253.5t-156 77.5q-93 0 -153.5 -76.5t-60.5 -251.5
q0 -180 63 -259t153 -79zM687 1284l212 340h263l-229 -340h-246zM277 1284l173 340h267l-202 -340h-238z" />
    <glyph glyph-name="omacron" unicode="&#x14d;" 
d="M596 -15q-148 0 -258 66.5t-171 192.5t-61 303t64.5 303.5t177.5 194.5t257 68q151 0 260.5 -68.5t169 -194.5t59.5 -298q0 -182 -65.5 -308.5t-178 -192.5t-254.5 -66zM601 216q92 0 153.5 77t61.5 258q0 176 -61 253.5t-156 77.5q-93 0 -153.5 -76.5t-60.5 -251.5
q0 -180 63 -259t153 -79zM307 1294v216h588l-3 -216h-585z" />
    <glyph glyph-name="oslash" unicode="&#xf8;" 
d="M596 -15q-148 0 -258 66.5t-171 192.5t-61 303t64.5 303.5t177.5 194.5t257 68q151 0 260.5 -68.5t169 -194.5t59.5 -298q0 -182 -65.5 -308.5t-178 -192.5t-254.5 -66zM601 216q92 0 153.5 77t61.5 258q0 176 -61 253.5t-156 77.5q-93 0 -153.5 -76.5t-60.5 -251.5
q0 -180 63 -259t153 -79zM154 -50l147 234l44 34l412 713l8 35l108 174h175l-128 -203l-44 -38l-422 -730l-8 -31l-118 -188h-174z" />
    <glyph glyph-name="oslashacute" unicode="&#x1ff;" 
d="M596 -15q-148 0 -258 66.5t-171 192.5t-61 303t64.5 303.5t177.5 194.5t257 68q151 0 260.5 -68.5t169 -194.5t59.5 -298q0 -182 -65.5 -308.5t-178 -192.5t-254.5 -66zM601 216q92 0 153.5 77t61.5 258q0 176 -61 253.5t-156 77.5q-93 0 -153.5 -76.5t-60.5 -251.5
q0 -180 63 -259t153 -79zM154 -50l147 234l44 34l412 713l8 35l108 174h175l-128 -203l-44 -38l-422 -730l-8 -31l-118 -188h-174zM480 1284l209 335h302l-242 -335h-269z" />
    <glyph glyph-name="otilde" unicode="&#xf5;" 
d="M596 -15q-148 0 -258 66.5t-171 192.5t-61 303t64.5 303.5t177.5 194.5t257 68q151 0 260.5 -68.5t169 -194.5t59.5 -298q0 -182 -65.5 -308.5t-178 -192.5t-254.5 -66zM601 216q92 0 153.5 77t61.5 258q0 176 -61 253.5t-156 77.5q-93 0 -153.5 -76.5t-60.5 -251.5
q0 -180 63 -259t153 -79zM752 1267q-67 0 -109.5 23.5t-71 55t-51.5 55t-52 23.5q-43 0 -63.5 -44t-6.5 -115h-191q-19 163 47.5 250.5t196.5 87.5q67 0 109 -23.5t70 -55t50.5 -55t51.5 -23.5q44 0 65.5 41.5t8.5 115.5h188q19 -168 -47.5 -252t-194.5 -84z" />
    <glyph glyph-name="oe" unicode="&#x153;" 
d="M333 -15q-180 0 -288 145.5t-108 412.5q0 181 50.5 308.5t141 194.5t210.5 67q102 0 169 -49.5t106 -132.5q48 87 122.5 134.5t174.5 47.5q117 0 198.5 -59t124 -172.5t42.5 -277.5q0 -32 -1 -56t-3 -49h-551q10 -155 55.5 -225.5t118.5 -70.5q60 0 94 40t33 94h245
q-9 -162 -106.5 -257t-260.5 -95q-101 0 -173 47.5t-118 133.5q-42 -85 -110 -133t-166 -48zM346 216q63 0 111 76t48 257q0 173 -44 253t-113 80q-64 0 -111 -78t-47 -254q0 -173 44 -253.5t112 -80.5zM720 581q5 49 38.5 67.5t85.5 18.5h182q-3 109 -36.5 166t-98.5 57
q-84 0 -127.5 -80.5t-43.5 -228.5z" />
    <glyph glyph-name="p" unicode="p" 
d="M155 -403v1494h269l5 -162v-657l-13 -78l13 -195v-402h-274zM742 1112q106 0 191 -62.5t134.5 -184t49.5 -300.5q0 -180 -58 -309.5t-155.5 -199t-216.5 -69.5q-68 0 -123.5 28.5t-93 80t-52.5 120.5l-50 68l58 75q11 -48 37.5 -80t62.5 -48t76 -16q70 0 124 39.5
t84.5 117.5t30.5 193q0 166 -55 242.5t-157 76.5q-36 0 -79 -19.5t-77 -55.5t-44 -86l-11 61l10 57q17 81 58 141.5t105 95t151 34.5z" />
    <glyph glyph-name="thorn" unicode="&#xfe;" 
d="M688 -13q-68 0 -124.5 29.5t-94.5 82.5t-52 125l-104 -33l115 155q19 -61 66 -96t108 -35q71 0 124.5 39.5t84 117t30.5 191.5q0 167 -54.5 244t-154.5 77q-38 0 -82 -20t-77.5 -56.5t-44.5 -88.5v116q18 86 58.5 148t104.5 95.5t150 33.5q106 0 191.5 -62.5
t135.5 -184.5t50 -301t-58 -308.5t-155.5 -199t-216.5 -69.5zM155 -403v1962h273v-594v-670l-11 -71l11 -225v-402h-273z" />
    <glyph glyph-name="q" unicode="q" 
d="M792 -403v1274l9 220h264v-1494h-273zM514 -13q-117 0 -205.5 67.5t-137.5 193.5t-49 301q0 173 52.5 299.5t146 195t215.5 68.5q73 0 127 -28t89 -79.5t51 -121.5l50 -68l-58 -78q-11 48 -37 80t-60.5 49t-73.5 17q-108 0 -167 -86.5t-59 -247.5t55 -248.5t159 -87.5
q60 0 112.5 36.5t67.5 109.5l11 -56l-11 -57q-17 -74 -55.5 -132.5t-94.5 -92.5t-128 -34z" />
    <glyph glyph-name="r" unicode="r" 
d="M97 0v201h826v-201h-826zM80 861v232h369v-232h-369zM280 20v705q0 68 21.5 98.5t76.5 37.5l-98 73v159h230l19 -297q21 101 71 172t121.5 108.5t154.5 37.5q140 0 215 -113t66 -334h-245q-1 109 -35 157.5t-108 48.5q-68 0 -132 -40.5t-94 -99.5v-414q0 -49 -17.5 -79
t-51.5 -39l69 -50l2 -131h-265z" />
    <glyph glyph-name="racute" unicode="&#x155;" 
d="M97 0v201h826v-201h-826zM80 861v232h369v-232h-369zM280 20v705q0 68 21.5 98.5t76.5 37.5l-98 73v159h230l19 -297q21 101 71 172t121.5 108.5t154.5 37.5q140 0 215 -113t66 -334h-245q-1 109 -35 157.5t-108 48.5q-68 0 -132 -40.5t-94 -99.5v-414q0 -49 -17.5 -79
t-51.5 -39l69 -50l2 -131h-265zM516 1284l209 335h302l-242 -335h-269z" />
    <glyph glyph-name="rcaron" unicode="&#x159;" 
d="M97 0v201h826v-201h-826zM80 861v232h369v-232h-369zM280 20v705q0 68 21.5 98.5t76.5 37.5l-98 73v159h230l19 -297q21 101 71 172t121.5 108.5t154.5 37.5q140 0 215 -113t66 -334h-245q-1 109 -35 157.5t-108 48.5q-68 0 -132 -40.5t-94 -99.5v-414q0 -49 -17.5 -79
t-51.5 -39l69 -50l2 -131h-265zM502 1275l-231 337h219l147 -187l146 187h220l-231 -337h-270z" />
    <glyph glyph-name="uni0157" unicode="&#x157;" 
d="M97 0v201h826v-201h-826zM80 861v232h369v-232h-369zM280 20v705q0 68 21.5 98.5t76.5 37.5l-98 73v159h230l19 -297q21 101 71 172t121.5 108.5t154.5 37.5q140 0 215 -113t66 -334h-245q-1 109 -35 157.5t-108 48.5q-68 0 -132 -40.5t-94 -99.5v-414q0 -49 -17.5 -79
t-51.5 -39l69 -50l2 -131h-265zM297 -526q6 36 12 94.5t10 125t4 122.5v65h255v-78q0 -65 -7 -127t-18 -113.5t-23 -88.5h-233z" />
    <glyph glyph-name="s" unicode="s" 
d="M610 -17q-98 0 -181 19.5t-145.5 62.5t-100 112t-44.5 167h272q9 -81 68.5 -118t133.5 -37q83 0 134.5 23t51.5 87q0 43 -28 68.5t-82.5 43.5t-134.5 40q-74 20 -141.5 44t-120.5 60.5t-83.5 93.5t-30.5 142q0 108 53.5 179t149.5 106t225 35q111 0 204.5 -31t154.5 -106
t73 -208l-268 1q-9 58 -33 89t-59 42.5t-77 11.5q-53 0 -89 -12t-54.5 -35.5t-18.5 -59.5q0 -37 26.5 -63.5t82 -47.5t138.5 -43q62 -16 129 -36t124.5 -53.5t94 -90t36.5 -144.5q0 -167 -118.5 -254.5t-341.5 -87.5z" />
    <glyph glyph-name="sacute" unicode="&#x15b;" 
d="M610 -17q-98 0 -181 19.5t-145.5 62.5t-100 112t-44.5 167h272q9 -81 68.5 -118t133.5 -37q83 0 134.5 23t51.5 87q0 43 -28 68.5t-82.5 43.5t-134.5 40q-74 20 -141.5 44t-120.5 60.5t-83.5 93.5t-30.5 142q0 108 53.5 179t149.5 106t225 35q111 0 204.5 -31t154.5 -106
t73 -208l-268 1q-9 58 -33 89t-59 42.5t-77 11.5q-53 0 -89 -12t-54.5 -35.5t-18.5 -59.5q0 -37 26.5 -63.5t82 -47.5t138.5 -43q62 -16 129 -36t124.5 -53.5t94 -90t36.5 -144.5q0 -167 -118.5 -254.5t-341.5 -87.5zM484 1284l209 335h302l-242 -335h-269z" />
    <glyph glyph-name="scaron" unicode="&#x161;" 
d="M610 -17q-98 0 -181 19.5t-145.5 62.5t-100 112t-44.5 167h272q9 -81 68.5 -118t133.5 -37q83 0 134.5 23t51.5 87q0 43 -28 68.5t-82.5 43.5t-134.5 40q-74 20 -141.5 44t-120.5 60.5t-83.5 93.5t-30.5 142q0 108 53.5 179t149.5 106t225 35q111 0 204.5 -31t154.5 -106
t73 -208l-268 1q-9 58 -33 89t-59 42.5t-77 11.5q-53 0 -89 -12t-54.5 -35.5t-18.5 -59.5q0 -37 26.5 -63.5t82 -47.5t138.5 -43q62 -16 129 -36t124.5 -53.5t94 -90t36.5 -144.5q0 -167 -118.5 -254.5t-341.5 -87.5zM470 1275l-231 337h219l147 -187l146 187h220l-231 -337
h-270z" />
    <glyph glyph-name="scedilla" unicode="&#x15f;" 
d="M610 -17q-98 0 -181 19.5t-145.5 62.5t-100 112t-44.5 167h272q9 -81 68.5 -118t133.5 -37q83 0 134.5 23t51.5 87q0 43 -28 68.5t-82.5 43.5t-134.5 40q-74 20 -141.5 44t-120.5 60.5t-83.5 93.5t-30.5 142q0 108 53.5 179t149.5 106t225 35q111 0 204.5 -31t154.5 -106
t73 -208l-268 1q-9 58 -33 89t-59 42.5t-77 11.5q-53 0 -89 -12t-54.5 -35.5t-18.5 -59.5q0 -37 26.5 -63.5t82 -47.5t138.5 -43q62 -16 129 -36t124.5 -53.5t94 -90t36.5 -144.5q0 -167 -118.5 -254.5t-341.5 -87.5zM581 -479q-68 0 -122 11.5t-99 31.5l1 174
q30 -13 64 -21.5t77 -8.5q57 0 79 23.5t22 77.5q0 57 -26.5 100.5t-94.5 90.5h178q48 -25 89.5 -60.5t67 -85t25.5 -114.5q0 -101 -75 -160t-186 -59z" />
    <glyph glyph-name="uni0219" unicode="&#x219;" 
d="M610 -17q-98 0 -181 19.5t-145.5 62.5t-100 112t-44.5 167h272q9 -81 68.5 -118t133.5 -37q83 0 134.5 23t51.5 87q0 43 -28 68.5t-82.5 43.5t-134.5 40q-74 20 -141.5 44t-120.5 60.5t-83.5 93.5t-30.5 142q0 108 53.5 179t149.5 106t225 35q111 0 204.5 -31t154.5 -106
t73 -208l-268 1q-9 58 -33 89t-59 42.5t-77 11.5q-53 0 -89 -12t-54.5 -35.5t-18.5 -59.5q0 -37 26.5 -63.5t82 -47.5t138.5 -43q62 -16 129 -36t124.5 -53.5t94 -90t36.5 -144.5q0 -167 -118.5 -254.5t-341.5 -87.5zM441 -526q6 36 12 94.5t10 125t4 122.5v65h255v-78
q0 -65 -7 -127t-18 -113.5t-23 -88.5h-233z" />
    <glyph glyph-name="germandbls" unicode="&#xdf;" 
d="M112 0v1114q0 168 61 272.5t168.5 153.5t247.5 49q121 0 219 -45t156.5 -129t58.5 -203q0 -71 -31 -142t-102.5 -122.5t-195.5 -63.5q120 -7 202 -44t131.5 -93.5t71.5 -122t22 -132.5q0 -142 -59.5 -255.5t-173 -179.5t-277.5 -66q-31 0 -65 1.5t-68 4.5v233
q16 -7 47.5 -10t62.5 -3q132 0 189.5 72t57.5 198q0 141 -68.5 199.5t-201.5 58.5h-66v208h57q105 0 155 63t50 162q0 100 -41.5 146.5t-135.5 46.5q-71 0 -115.5 -26.5t-64.5 -83t-20 -145.5v-1116h-272z" />
    <glyph glyph-name="t" unicode="t" 
d="M702 -17q-103 0 -180.5 33t-121 104t-44.5 186l-1 450q0 23 11.5 49t36.5 45.5t64 24.5l-112 173l2 31l63 395h208v-1087q0 -98 36 -130.5t128 -32.5q43 0 86.5 5t85.5 14.5t78 22.5v-235q-69 -23 -158 -35.5t-182 -12.5zM133 875v217h855v-217h-855z" />
    <glyph glyph-name="tbar" unicode="&#x167;" 
d="M133 451l-1 226h853l1 -226h-853zM698 -14q-104 0 -181 31.5t-119.5 102t-43.5 184.5l-1 452q0 23 11.5 49t36 45.5t63.5 24.5l-111 173l2 31l63 395h209v-1085q0 -100 35 -131t126 -31q61 0 128 9t125 27v-237q-72 -23 -163 -31.5t-180 -8.5zM131 875v217h855v-217h-855
z" />
    <glyph glyph-name="tcaron" unicode="&#x165;" 
d="M702 -17q-103 0 -180.5 33t-121 104t-44.5 186l-1 450q0 23 11.5 49t36.5 45.5t64 24.5l-112 173l2 31l63 395h208v-1087q0 -98 36 -130.5t128 -32.5q43 0 86.5 5t85.5 14.5t78 22.5v-235q-69 -23 -158 -35.5t-182 -12.5zM133 875v217h855v-217h-855zM771 1183l11 376
h228l-35 -376h-204z" />
    <glyph glyph-name="uni0163" unicode="&#x163;" 
d="M702 -17q-103 0 -180.5 33t-121 104t-44.5 186l-1 450q0 23 11.5 49t36.5 45.5t64 24.5l-112 173l2 31l63 395h208v-1087q0 -98 36 -130.5t128 -32.5q43 0 86.5 5t85.5 14.5t78 22.5v-235q-69 -23 -158 -35.5t-182 -12.5zM133 875v217h855v-217h-855zM687 -479
q-68 0 -122 11.5t-99 31.5l1 174q30 -13 64 -21.5t77 -8.5q57 0 79 23.5t22 77.5q0 57 -26.5 100.5t-94.5 90.5h178q48 -25 89.5 -60.5t67 -85t25.5 -114.5q0 -101 -75 -160t-186 -59z" />
    <glyph glyph-name="uni021B" unicode="&#x21b;" 
d="M702 -17q-103 0 -180.5 33t-121 104t-44.5 186l-1 450q0 23 11.5 49t36.5 45.5t64 24.5l-112 173l2 31l63 395h208v-1087q0 -98 36 -130.5t128 -32.5q43 0 86.5 5t85.5 14.5t78 22.5v-235q-69 -23 -158 -35.5t-182 -12.5zM133 875v217h855v-217h-855zM547 -526
q6 36 12 94.5t10 125t4 122.5v65h255v-78q0 -65 -7 -127t-18 -113.5t-23 -88.5h-233z" />
    <glyph glyph-name="u" unicode="u" 
d="M463 -22q-143 0 -225.5 99t-82.5 291v724h273v-683q0 -117 37.5 -156.5t109.5 -39.5q70 0 123.5 42t78.5 97v740h275v-1092h-240l-27 412l14 -83q-13 -104 -52.5 -183t-108.5 -123.5t-175 -44.5z" />
    <glyph glyph-name="uacute" unicode="&#xfa;" 
d="M463 -22q-143 0 -225.5 99t-82.5 291v724h273v-683q0 -117 37.5 -156.5t109.5 -39.5q70 0 123.5 42t78.5 97v740h275v-1092h-240l-27 412l14 -83q-13 -104 -52.5 -183t-108.5 -123.5t-175 -44.5zM481 1284l209 335h302l-242 -335h-269z" />
    <glyph glyph-name="ubreve" unicode="&#x16d;" 
d="M463 -22q-143 0 -225.5 99t-82.5 291v724h273v-683q0 -117 37.5 -156.5t109.5 -39.5q70 0 123.5 42t78.5 97v740h275v-1092h-240l-27 412l14 -83q-13 -104 -52.5 -183t-108.5 -123.5t-175 -44.5zM602 1266q-154 0 -245 83t-79 245h200q-5 -58 9.5 -93.5t44.5 -51.5
t70 -16t70 16t45 51.5t9 93.5h200q12 -162 -79 -245t-245 -83z" />
    <glyph glyph-name="ucircumflex" unicode="&#xfb;" 
d="M463 -22q-143 0 -225.5 99t-82.5 291v724h273v-683q0 -117 37.5 -156.5t109.5 -39.5q70 0 123.5 42t78.5 97v740h275v-1092h-240l-27 412l14 -83q-13 -104 -52.5 -183t-108.5 -123.5t-175 -44.5zM236 1282l231 338h270l231 -338h-220l-146 187l-147 -187h-219z" />
    <glyph glyph-name="udieresis" unicode="&#xfc;" 
d="M463 -22q-143 0 -225.5 99t-82.5 291v724h273v-683q0 -117 37.5 -156.5t109.5 -39.5q70 0 123.5 42t78.5 97v740h275v-1092h-240l-27 412l14 -83q-13 -104 -52.5 -183t-108.5 -123.5t-175 -44.5zM378 1268q-61 0 -108.5 46t-47.5 123q0 71 47.5 119t108.5 48
q63 0 110.5 -47.5t47.5 -119.5q0 -77 -48 -123t-110 -46zM826 1268q-62 0 -109.5 46t-47.5 123q0 72 47.5 119.5t109.5 47.5q63 0 109.5 -48t46.5 -119q0 -77 -47 -123t-109 -46z" />
    <glyph glyph-name="uni1EE5" unicode="&#x1ee5;" 
d="M463 -22q-143 0 -225.5 99t-82.5 291v724h273v-683q0 -117 37.5 -156.5t109.5 -39.5q70 0 123.5 42t78.5 97v740h275v-1092h-240l-27 412l14 -83q-13 -104 -52.5 -183t-108.5 -123.5t-175 -44.5zM609 -529q-76 0 -128.5 50.5t-52.5 132.5q0 84 52.5 134t128.5 50
t128.5 -50t52.5 -134q0 -82 -53 -132.5t-128 -50.5z" />
    <glyph glyph-name="ugrave" unicode="&#xf9;" 
d="M463 -22q-143 0 -225.5 99t-82.5 291v724h273v-683q0 -117 37.5 -156.5t109.5 -39.5q70 0 123.5 42t78.5 97v740h275v-1092h-240l-27 412l14 -83q-13 -104 -52.5 -183t-108.5 -123.5t-175 -44.5zM749 1284h-267l-242 335h300z" />
    <glyph glyph-name="uhungarumlaut" unicode="&#x171;" 
d="M463 -22q-143 0 -225.5 99t-82.5 291v724h273v-683q0 -117 37.5 -156.5t109.5 -39.5q70 0 123.5 42t78.5 97v740h275v-1092h-240l-27 412l14 -83q-13 -104 -52.5 -183t-108.5 -123.5t-175 -44.5zM688 1284l212 340h263l-229 -340h-246zM278 1284l173 340h267l-202 -340
h-238z" />
    <glyph glyph-name="umacron" unicode="&#x16b;" 
d="M463 -22q-143 0 -225.5 99t-82.5 291v724h273v-683q0 -117 37.5 -156.5t109.5 -39.5q70 0 123.5 42t78.5 97v740h275v-1092h-240l-27 412l14 -83q-13 -104 -52.5 -183t-108.5 -123.5t-175 -44.5zM308 1294v216h588l-3 -216h-585z" />
    <glyph glyph-name="uogonek" unicode="&#x173;" 
d="M463 -22q-143 0 -225.5 99t-82.5 291v724h273v-683q0 -117 37.5 -156.5t109.5 -39.5q70 0 123.5 42t78.5 97v740h275v-1092h-240l-27 412l14 -83q-13 -104 -52.5 -183t-108.5 -123.5t-175 -44.5zM867 -460q-115 0 -182 56t-67 150q0 82 68 155.5t208 98.5h158
q-100 -51 -146 -92t-46 -98q0 -37 21.5 -58.5t59.5 -21.5q56 0 107 27l2 -179q-36 -17 -81 -27.5t-102 -10.5z" />
    <glyph glyph-name="uring" unicode="&#x16f;" 
d="M463 -22q-143 0 -225.5 99t-82.5 291v724h273v-683q0 -117 37.5 -156.5t109.5 -39.5q70 0 123.5 42t78.5 97v740h275v-1092h-240l-27 412l14 -83q-13 -104 -52.5 -183t-108.5 -123.5t-175 -44.5zM603 1255q-122 0 -191.5 68t-69.5 179t69.5 178.5t191.5 67.5
q123 0 191.5 -67.5t68.5 -178.5t-68.5 -179t-191.5 -68zM603 1395q47 0 75.5 28t28.5 80q0 49 -28.5 77.5t-75.5 28.5t-75 -28.5t-28 -78.5q0 -51 28 -79t75 -28z" />
    <glyph glyph-name="utilde" unicode="&#x169;" 
d="M463 -22q-143 0 -225.5 99t-82.5 291v724h273v-683q0 -117 37.5 -156.5t109.5 -39.5q70 0 123.5 42t78.5 97v740h275v-1092h-240l-27 412l14 -83q-13 -104 -52.5 -183t-108.5 -123.5t-175 -44.5zM753 1267q-67 0 -109.5 23.5t-71 55t-51.5 55t-52 23.5q-43 0 -63.5 -44
t-6.5 -115h-191q-19 163 47.5 250.5t196.5 87.5q67 0 109 -23.5t70 -55t50.5 -55t51.5 -23.5q44 0 65.5 41.5t8.5 115.5h188q19 -168 -47.5 -252t-194.5 -84z" />
    <glyph glyph-name="v" unicode="v" 
d="M441 0l-380 1091h303l164 -596l61 -238h23l61 239l164 595h302l-379 -1091h-319z" />
    <glyph glyph-name="w" unicode="w" 
d="M205 0l-215 1091h252l62 -531l38 -334h8l43 334l60 373h294l59 -374l45 -340l7 1l34 339l67 532h251l-215 -1091h-270l-83 488l-37 310h-9l-39 -311l-81 -487h-271z" />
    <glyph glyph-name="wacute" unicode="&#x1e83;" 
d="M205 0l-215 1091h252l62 -531l38 -334h8l43 334l60 373h294l59 -374l45 -340l7 1l34 339l67 532h251l-215 -1091h-270l-83 488l-37 310h-9l-39 -311l-81 -487h-271zM480 1284l209 335h302l-242 -335h-269z" />
    <glyph glyph-name="wcircumflex" unicode="&#x175;" 
d="M205 0l-215 1091h252l62 -531l38 -334h8l43 334l60 373h294l59 -374l45 -340l7 1l34 339l67 532h251l-215 -1091h-270l-83 488l-37 310h-9l-39 -311l-81 -487h-271zM235 1282l231 338h270l231 -338h-220l-146 187l-147 -187h-219z" />
    <glyph glyph-name="wdieresis" unicode="&#x1e85;" 
d="M205 0l-215 1091h252l62 -531l38 -334h8l43 334l60 373h294l59 -374l45 -340l7 1l34 339l67 532h251l-215 -1091h-270l-83 488l-37 310h-9l-39 -311l-81 -487h-271zM377 1268q-61 0 -108.5 46t-47.5 123q0 71 47.5 119t108.5 48q63 0 110.5 -47.5t47.5 -119.5
q0 -77 -48 -123t-110 -46zM825 1268q-62 0 -109.5 46t-47.5 123q0 72 47.5 119.5t109.5 47.5q63 0 109.5 -48t46.5 -119q0 -77 -47 -123t-109 -46z" />
    <glyph glyph-name="wgrave" unicode="&#x1e81;" 
d="M205 0l-215 1091h252l62 -531l38 -334h8l43 334l60 373h294l59 -374l45 -340l7 1l34 339l67 532h251l-215 -1091h-270l-83 488l-37 310h-9l-39 -311l-81 -487h-271zM748 1284h-267l-242 335h300z" />
    <glyph glyph-name="x" unicode="x" 
d="M81 0l397 634l3 -191l-391 648h308l141 -267l63 -137l59 135l138 269h313l-395 -648l1 192l401 -635h-316l-143 261l-63 132l-62 -134l-136 -259h-318z" />
    <glyph glyph-name="y" unicode="y" 
d="M193 -438v244h94q72 0 113.5 13.5t62.5 39t32 58.5q13 36 27 55.5t48 27.5h-119l-376 1091h305l142 -531l82 -282h9l76 281l139 532h303l-366 -1091q-35 -108 -75.5 -190t-94.5 -137t-131.5 -83t-188.5 -28h-82z" />
    <glyph glyph-name="yacute" unicode="&#xfd;" 
d="M193 -438v244h94q72 0 113.5 13.5t62.5 39t32 58.5q13 36 27 55.5t48 27.5h-119l-376 1091h305l142 -531l82 -282h9l76 281l139 532h303l-366 -1091q-35 -108 -75.5 -190t-94.5 -137t-131.5 -83t-188.5 -28h-82zM482 1284l209 335h302l-242 -335h-269z" />
    <glyph glyph-name="ycircumflex" unicode="&#x177;" 
d="M193 -438v244h94q72 0 113.5 13.5t62.5 39t32 58.5q13 36 27 55.5t48 27.5h-119l-376 1091h305l142 -531l82 -282h9l76 281l139 532h303l-366 -1091q-35 -108 -75.5 -190t-94.5 -137t-131.5 -83t-188.5 -28h-82zM237 1282l231 338h270l231 -338h-220l-146 187l-147 -187
h-219z" />
    <glyph glyph-name="ydieresis" unicode="&#xff;" 
d="M193 -438v244h94q72 0 113.5 13.5t62.5 39t32 58.5q13 36 27 55.5t48 27.5h-119l-376 1091h305l142 -531l82 -282h9l76 281l139 532h303l-366 -1091q-35 -108 -75.5 -190t-94.5 -137t-131.5 -83t-188.5 -28h-82zM379 1268q-61 0 -108.5 46t-47.5 123q0 71 47.5 119
t108.5 48q63 0 110.5 -47.5t47.5 -119.5q0 -77 -48 -123t-110 -46zM827 1268q-62 0 -109.5 46t-47.5 123q0 72 47.5 119.5t109.5 47.5q63 0 109.5 -48t46.5 -119q0 -77 -47 -123t-109 -46z" />
    <glyph glyph-name="ygrave" unicode="&#x1ef3;" 
d="M193 -438v244h94q72 0 113.5 13.5t62.5 39t32 58.5q13 36 27 55.5t48 27.5h-119l-376 1091h305l142 -531l82 -282h9l76 281l139 532h303l-366 -1091q-35 -108 -75.5 -190t-94.5 -137t-131.5 -83t-188.5 -28h-82zM750 1284h-267l-242 335h300z" />
    <glyph glyph-name="uni0233" unicode="&#x233;" 
d="M193 -438v244h94q72 0 113.5 13.5t62.5 39t32 58.5q13 36 27 55.5t48 27.5h-119l-376 1091h305l142 -531l82 -282h9l76 281l139 532h303l-366 -1091q-35 -108 -75.5 -190t-94.5 -137t-131.5 -83t-188.5 -28h-82zM309 1294v216h588l-3 -216h-585z" />
    <glyph glyph-name="uni1EF9" unicode="&#x1ef9;" 
d="M193 -438v244h94q72 0 113.5 13.5t62.5 39t32 58.5q13 36 27 55.5t48 27.5h-119l-376 1091h305l142 -531l82 -282h9l76 281l139 532h303l-366 -1091q-35 -108 -75.5 -190t-94.5 -137t-131.5 -83t-188.5 -28h-82zM754 1267q-67 0 -109.5 23.5t-71 55t-51.5 55t-52 23.5
q-43 0 -63.5 -44t-6.5 -115h-191q-19 163 47.5 250.5t196.5 87.5q67 0 109 -23.5t70 -55t50.5 -55t51.5 -23.5q44 0 65.5 41.5t8.5 115.5h188q19 -168 -47.5 -252t-194.5 -84z" />
    <glyph glyph-name="z" unicode="z" 
d="M123 0l508 767q36 53 74 85.5t87 51.5l29 -12q-64 -7 -132 -15.5t-125 -8.5h-390v223h948l-477 -755q-41 -66 -91.5 -105t-108.5 -66l-7 39q61 4 127.5 11.5t116.5 7.5h408v-223h-967z" />
    <glyph glyph-name="zacute" unicode="&#x17a;" 
d="M123 0l508 767q36 53 74 85.5t87 51.5l29 -12q-64 -7 -132 -15.5t-125 -8.5h-390v223h948l-477 -755q-41 -66 -91.5 -105t-108.5 -66l-7 39q61 4 127.5 11.5t116.5 7.5h408v-223h-967zM508 1284l209 335h302l-242 -335h-269z" />
    <glyph glyph-name="zcaron" unicode="&#x17e;" 
d="M123 0l508 767q36 53 74 85.5t87 51.5l29 -12q-64 -7 -132 -15.5t-125 -8.5h-390v223h948l-477 -755q-41 -66 -91.5 -105t-108.5 -66l-7 39q61 4 127.5 11.5t116.5 7.5h408v-223h-967zM494 1275l-231 337h219l147 -187l146 187h220l-231 -337h-270z" />
    <glyph glyph-name="zdotaccent" unicode="&#x17c;" 
d="M123 0l508 767q36 53 74 85.5t87 51.5l29 -12q-64 -7 -132 -15.5t-125 -8.5h-390v223h948l-477 -755q-41 -66 -91.5 -105t-108.5 -66l-7 39q61 4 127.5 11.5t116.5 7.5h408v-223h-967zM629 1278q-76 0 -130 50.5t-54 135.5q0 88 54 139t130 51t130 -51t54 -139
q0 -85 -54.5 -135.5t-129.5 -50.5z" />
    <glyph glyph-name="g.alt" 
d="M614 -456q-171 0 -290.5 38.5t-181.5 109t-62 164.5q0 67 35.5 113t92.5 70t121 24l46 1q-14 -13 -26.5 -31t-20 -41.5t-7.5 -54.5q0 -55 30.5 -94t94 -59.5t161.5 -20.5q131 0 195.5 32.5t63.5 98.5q0 48 -34 70t-127 33l-259 33q-132 18 -198 52.5t-87.5 77t-21.5 81.5
q0 57 33.5 95.5t82 61.5t96 32.5t75.5 6.5q-28 -14 -49 -34.5t-21 -63.5q0 -39 28 -58t108 -29l271 -35q150 -19 229 -63.5t108 -108t29 -136.5q0 -88 -39.5 -156t-109.5 -114.5t-164 -70.5t-202 -24zM616 384q-209 0 -328 98.5t-119 265.5q0 168 120 266t329 96
q127 -1 228 -45.5t159.5 -125.5t58.5 -195q0 -166 -119 -263t-329 -97zM617 579q95 0 141 41.5t46 124.5q0 85 -46.5 127.5t-142.5 42.5q-90 0 -138 -41.5t-48 -123.5q0 -85 48.5 -128t139.5 -43zM819 1056l-20 10q9 108 51.5 169.5t102 86.5t116.5 25q20 0 40.5 -2t32.5 -7
v-243q-39 8 -70 12.5t-68 4.5q-26 0 -57.5 -4.5t-64 -17t-63.5 -34.5z" />
    <glyph glyph-name="r.ss01" 
d="M111 0v201h826v-201h-826zM96 873v220h393v-220h-393zM1090 1091v-302q-34 19 -92.5 28.5t-94.5 9.5q-75 0 -140.5 -12.5t-112 -38.5t-67.5 -65v-385q0 -50 -18.5 -83t-56.5 -42l75 -50l2 -131h-265v717q0 68 20 94.5t78 41.5l-98 73v147h230l26 -442l-14 83
q14 107 72 192.5t145 135.5t185 50q39 0 70.5 -5.5t55.5 -15.5z" />
    <glyph glyph-name="racute.ss01" 
d="M111 0v201h826v-201h-826zM96 873v220h393v-220h-393zM1090 1091v-302q-34 19 -92.5 28.5t-94.5 9.5q-75 0 -140.5 -12.5t-112 -38.5t-67.5 -65v-385q0 -50 -18.5 -83t-56.5 -42l75 -50l2 -131h-265v717q0 68 20 94.5t78 41.5l-98 73v147h230l26 -442l-14 83
q14 107 72 192.5t145 135.5t185 50q39 0 70.5 -5.5t55.5 -15.5zM516 1284l209 335h302l-242 -335h-269z" />
    <glyph glyph-name="rcaron.ss01" 
d="M111 0v201h826v-201h-826zM96 873v220h393v-220h-393zM1090 1091v-302q-34 19 -92.5 28.5t-94.5 9.5q-75 0 -140.5 -12.5t-112 -38.5t-67.5 -65v-385q0 -50 -18.5 -83t-56.5 -42l75 -50l2 -131h-265v717q0 68 20 94.5t78 41.5l-98 73v147h230l26 -442l-14 83
q14 107 72 192.5t145 135.5t185 50q39 0 70.5 -5.5t55.5 -15.5zM502 1275l-231 337h219l147 -187l146 187h220l-231 -337h-270z" />
    <glyph glyph-name="uni0157.ss01" 
d="M111 0v201h826v-201h-826zM96 873v220h393v-220h-393zM1090 1091v-302q-34 19 -92.5 28.5t-94.5 9.5q-75 0 -140.5 -12.5t-112 -38.5t-67.5 -65v-385q0 -50 -18.5 -83t-56.5 -42l75 -50l2 -131h-265v717q0 68 20 94.5t78 41.5l-98 73v147h230l26 -442l-14 83
q14 107 72 192.5t145 135.5t185 50q39 0 70.5 -5.5t55.5 -15.5zM297 -526q6 36 12 94.5t10 125t4 122.5v65h255v-78q0 -65 -7 -127t-18 -113.5t-23 -88.5h-233z" />
    <glyph glyph-name="i.ss02" 
d="M811 -14q-103 0 -177.5 31t-114.5 101t-40 186v421q0 63 30.5 95t92.5 42h-468v229l635 1l-2 -703q-1 -99 25.5 -130.5t100.5 -31.5q42 0 81.5 3.5t76.5 12t73 20.5v-237q-62 -21 -150 -30.5t-163 -9.5zM631 1263q-78 0 -133 52t-55 139q0 90 55.5 141.5t132.5 51.5
q78 0 133 -51.5t55 -141.5q0 -87 -55.5 -139t-132.5 -52z" />
    <glyph glyph-name="dotlessi.ss02" 
d="M811 -14q-103 0 -177.5 31t-114.5 101t-40 186v421q0 63 30.5 95t92.5 42h-468v229l635 1l-2 -703q-1 -99 25.5 -130.5t100.5 -31.5q42 0 81.5 3.5t76.5 12t73 20.5v-237q-62 -21 -150 -30.5t-163 -9.5z" />
    <glyph glyph-name="iacute.ss02" 
d="M811 -14q-103 0 -177.5 31t-114.5 101t-40 186v421q0 63 30.5 95t92.5 42h-468v229l635 1l-2 -703q-1 -99 25.5 -130.5t100.5 -31.5q42 0 81.5 3.5t76.5 12t73 20.5v-237q-62 -21 -150 -30.5t-163 -9.5zM509 1284l209 335h302l-242 -335h-269z" />
    <glyph glyph-name="ibreve.ss02" 
d="M811 -14q-103 0 -177.5 31t-114.5 101t-40 186v421q0 63 30.5 95t92.5 42h-468v229l635 1l-2 -703q-1 -99 25.5 -130.5t100.5 -31.5q42 0 81.5 3.5t76.5 12t73 20.5v-237q-62 -21 -150 -30.5t-163 -9.5zM630 1266q-154 0 -245 83t-79 245h200q-5 -58 9.5 -93.5
t44.5 -51.5t70 -16t70 16t45 51.5t9 93.5h200q12 -162 -79 -245t-245 -83z" />
    <glyph glyph-name="icircumflex.ss02" 
d="M811 -14q-103 0 -177.5 31t-114.5 101t-40 186v421q0 63 30.5 95t92.5 42h-468v229l635 1l-2 -703q-1 -99 25.5 -130.5t100.5 -31.5q42 0 81.5 3.5t76.5 12t73 20.5v-237q-62 -21 -150 -30.5t-163 -9.5zM264 1282l231 338h270l231 -338h-220l-146 187l-147 -187h-219z
" />
    <glyph glyph-name="idieresis.ss02" 
d="M811 -14q-103 0 -177.5 31t-114.5 101t-40 186v421q0 63 30.5 95t92.5 42h-468v229l635 1l-2 -703q-1 -99 25.5 -130.5t100.5 -31.5q42 0 81.5 3.5t76.5 12t73 20.5v-237q-62 -21 -150 -30.5t-163 -9.5zM406 1268q-61 0 -108.5 46t-47.5 123q0 71 47.5 119t108.5 48
q63 0 110.5 -47.5t47.5 -119.5q0 -77 -48 -123t-110 -46zM854 1268q-62 0 -109.5 46t-47.5 123q0 72 47.5 119.5t109.5 47.5q63 0 109.5 -48t46.5 -119q0 -77 -47 -123t-109 -46z" />
    <glyph glyph-name="i.loclTRK.ss02" 
d="M811 -14q-103 0 -177.5 31t-114.5 101t-40 186v421q0 63 30.5 95t92.5 42h-468v229l635 1l-2 -703q-1 -99 25.5 -130.5t100.5 -31.5q42 0 81.5 3.5t76.5 12t73 20.5v-237q-62 -21 -150 -30.5t-163 -9.5zM630 1278q-76 0 -130 50.5t-54 135.5q0 88 54 139t130 51t130 -51
t54 -139q0 -85 -54.5 -135.5t-129.5 -50.5z" />
    <glyph glyph-name="uni1ECB.ss02" 
d="M527 30v684q0 73 23.5 106.5t82.5 40.5l-106 65l-5 67l274 98l-3 -1061h-266zM197 0v201h907v-201h-907zM157 861v230h639l-58 -230h-581zM656 1278q-76 0 -129.5 50.5t-53.5 135.5q0 87 54 138.5t129 51.5q77 0 130.5 -51t53.5 -139q0 -85 -54.5 -135.5t-129.5 -50.5z
M663 -529q-76 0 -128.5 50.5t-52.5 132.5q0 84 52.5 134t128.5 50t128.5 -50t52.5 -134q0 -82 -53 -132.5t-128 -50.5z" />
    <glyph glyph-name="igrave.ss02" 
d="M811 -14q-103 0 -177.5 31t-114.5 101t-40 186v421q0 63 30.5 95t92.5 42h-468v229l635 1l-2 -703q-1 -99 25.5 -130.5t100.5 -31.5q42 0 81.5 3.5t76.5 12t73 20.5v-237q-62 -21 -150 -30.5t-163 -9.5zM777 1284h-267l-242 335h300z" />
    <glyph glyph-name="imacron.ss02" 
d="M811 -14q-103 0 -177.5 31t-114.5 101t-40 186v421q0 63 30.5 95t92.5 42h-468v229l635 1l-2 -703q-1 -99 25.5 -130.5t100.5 -31.5q42 0 81.5 3.5t76.5 12t73 20.5v-237q-62 -21 -150 -30.5t-163 -9.5zM336 1294v216h588l-3 -216h-585z" />
    <glyph glyph-name="iogonek.ss02" 
d="M811 -14q-103 0 -177.5 31t-114.5 101t-40 186v421q0 63 30.5 95t92.5 42h-468v229l635 1l-2 -703q-1 -99 25.5 -130.5t100.5 -31.5q42 0 81.5 3.5t76.5 12t73 20.5v-237q-62 -21 -150 -30.5t-163 -9.5zM630 1278q-76 0 -130 50.5t-54 135.5q0 88 54 139t130 51t130 -51
t54 -139q0 -85 -54.5 -135.5t-129.5 -50.5zM794 -460q-115 0 -182 56t-67 150q0 82 68 155.5t208 98.5h158q-100 -51 -146 -92t-46 -98q0 -37 21.5 -58.5t59.5 -21.5q56 0 107 27l2 -179q-36 -17 -81 -27.5t-102 -10.5z" />
    <glyph glyph-name="itilde.ss02" 
d="M811 -14q-103 0 -177.5 31t-114.5 101t-40 186v421q0 63 30.5 95t92.5 42h-468v229l635 1l-2 -703q-1 -99 25.5 -130.5t100.5 -31.5q42 0 81.5 3.5t76.5 12t73 20.5v-237q-62 -21 -150 -30.5t-163 -9.5zM781 1267q-67 0 -109.5 23.5t-71 55t-51.5 55t-52 23.5
q-43 0 -63.5 -44t-6.5 -115h-191q-19 163 47.5 250.5t196.5 87.5q67 0 109 -23.5t70 -55t50.5 -55t51.5 -23.5q44 0 65.5 41.5t8.5 115.5h188q19 -168 -47.5 -252t-194.5 -84z" />
    <glyph glyph-name="l.ss03" 
d="M506 30v1195q0 45 24 67t54 27l-78 91v149h265l-3 -1529h-262zM165 0v201h905v-201h-905zM128 1319v240h643l-45 -240h-598z" />
    <glyph glyph-name="lacute.ss03" 
d="M777 1673h-274l210 321h306zM506 30v1195q0 45 24 67t54 27l-78 91v149h265l-3 -1529h-262zM165 0v201h905v-201h-905zM128 1319v240h643l-45 -240h-598z" />
    <glyph glyph-name="lcaron.ss03" 
d="M879 1183l11 376h228l-35 -376h-204zM506 30v1195q0 45 24 67t54 27l-78 91v149h265l-3 -1529h-262zM165 0v201h905v-201h-905zM128 1319v240h643l-45 -240h-598z" />
    <glyph glyph-name="uni013C.ss03" 
d="M506 30v1195q0 45 24 67t54 27l-78 91v149h265l-3 -1529h-262zM165 0v201h905v-201h-905zM128 1319v240h643l-45 -240h-598zM498 -526q6 36 12 94.5t10 125t4 122.5v65h255v-78q0 -65 -7 -127t-18 -113.5t-23 -88.5h-233z" />
    <glyph glyph-name="ldot.ss03" 
d="M1037 537q-79 0 -134 56.5t-55 149.5q0 92 55 148.5t134 56.5q78 0 132.5 -56.5t54.5 -148.5q0 -93 -54.5 -149.5t-132.5 -56.5zM506 30v1195q0 45 24 67t54 27l-78 91v149h265l-3 -1529h-262zM165 0v201h905v-201h-905zM128 1319v240h643l-45 -240h-598z" />
    <glyph glyph-name="lslash.ss03" 
d="M349 554v247l582 306l-4 -246zM499 30v1195q0 45 24 67t54 27l-78 91v149h265l-3 -1529h-262zM158 0v201h905v-201h-905zM121 1319v240h643l-45 -240h-598z" />
    <glyph glyph-name="r.ss04" 
d="M120 0v201h187v536q0 68 20 94.5t79 41.5h-303v220h438l12 -311q25 95 94 169t160.5 116t188.5 42q38 0 69.5 -3.5t55.5 -12.5v-618h-220v372q-43 0 -95 -10t-101.5 -28.5t-87 -43t-52.5 -54.5v-385q0 -50 -18.5 -83t-57.5 -42h254v-201h-623z" />
    <glyph glyph-name="racute.ss04" 
d="M120 0v201h187v536q0 68 20 94.5t79 41.5h-303v220h438l12 -311q25 95 94 169t160.5 116t188.5 42q38 0 69.5 -3.5t55.5 -12.5v-618h-220v372q-43 0 -95 -10t-101.5 -28.5t-87 -43t-52.5 -54.5v-385q0 -50 -18.5 -83t-57.5 -42h254v-201h-623zM516 1284l209 335h302
l-242 -335h-269z" />
    <glyph glyph-name="rcaron.ss04" 
d="M513 1275l-231 337h219l147 -187l146 187h220l-231 -337h-270zM120 0v201h187v536q0 68 20 94.5t79 41.5h-303v220h438l12 -311q25 95 94 169t160.5 116t188.5 42q38 0 69.5 -3.5t55.5 -12.5v-618h-220v372q-43 0 -95 -10t-101.5 -28.5t-87 -43t-52.5 -54.5v-385
q0 -50 -18.5 -83t-57.5 -42h254v-201h-623z" />
    <glyph glyph-name="uni0157.ss04" 
d="M120 0v201h187v536q0 68 20 94.5t79 41.5h-303v220h438l12 -311q25 95 94 169t160.5 116t188.5 42q38 0 69.5 -3.5t55.5 -12.5v-618h-220v372q-43 0 -95 -10t-101.5 -28.5t-87 -43t-52.5 -54.5v-385q0 -50 -18.5 -83t-57.5 -42h254v-201h-623zM297 -526q6 36 12 94.5
t10 125t4 122.5v65h255v-78q0 -65 -7 -127t-18 -113.5t-23 -88.5h-233z" />
    <glyph glyph-name="g.ss05" 
d="M596 -500q-143 -1 -244 47.5t-150 138t-38 206.5h263q-2 -84 44.5 -127t132.5 -43q90 0 131.5 58.5t41.5 213.5l3 913l6 184h263v-1114q0 -154 -50.5 -259.5t-150.5 -160.5t-252 -57zM501 29q-117 0 -207.5 64.5t-141.5 184t-51 284.5q0 167 58 290.5t156 191.5t218 68
q74 0 129 -28t90 -79.5t51 -121.5l51 -67l-59 -79q-11 48 -37.5 80t-61.5 49t-72 17q-108 0 -177 -84.5t-69 -236.5q0 -146 61.5 -227.5t167.5 -81.5q57 0 107 36.5t65 109.5l11 -56l-2 -46q-14 -79 -54.5 -139.5t-100.5 -94.5t-132 -34z" />
    <glyph glyph-name="uni01F5.ss05" 
d="M596 -500q-143 -1 -244 47.5t-150 138t-38 206.5h263q-2 -84 44.5 -127t132.5 -43q90 0 131.5 58.5t41.5 213.5l3 913l6 184h263v-1114q0 -154 -50.5 -259.5t-150.5 -160.5t-252 -57zM501 29q-117 0 -207.5 64.5t-141.5 184t-51 284.5q0 167 58 290.5t156 191.5t218 68
q74 0 129 -28t90 -79.5t51 -121.5l51 -67l-59 -79q-11 48 -37.5 80t-61.5 49t-72 17q-108 0 -177 -84.5t-69 -236.5q0 -146 61.5 -227.5t167.5 -81.5q57 0 107 36.5t65 109.5l11 -56l-2 -46q-14 -79 -54.5 -139.5t-100.5 -94.5t-132 -34zM484 1284l209 335h302l-242 -335
h-269z" />
    <glyph glyph-name="gbreve.ss05" 
d="M596 -500q-143 -1 -244 47.5t-150 138t-38 206.5h263q-2 -84 44.5 -127t132.5 -43q90 0 131.5 58.5t41.5 213.5l3 913l6 184h263v-1114q0 -154 -50.5 -259.5t-150.5 -160.5t-252 -57zM501 29q-117 0 -207.5 64.5t-141.5 184t-51 284.5q0 167 58 290.5t156 191.5t218 68
q74 0 129 -28t90 -79.5t51 -121.5l51 -67l-59 -79q-11 48 -37.5 80t-61.5 49t-72 17q-108 0 -177 -84.5t-69 -236.5q0 -146 61.5 -227.5t167.5 -81.5q57 0 107 36.5t65 109.5l11 -56l-2 -46q-14 -79 -54.5 -139.5t-100.5 -94.5t-132 -34zM605 1266q-154 0 -245 83t-79 245
h200q-5 -58 9.5 -93.5t44.5 -51.5t70 -16t70 16t45 51.5t9 93.5h200q12 -162 -79 -245t-245 -83z" />
    <glyph glyph-name="gcaron.ss05" 
d="M596 -500q-143 -1 -244 47.5t-150 138t-38 206.5h263q-2 -84 44.5 -127t132.5 -43q90 0 131.5 58.5t41.5 213.5l3 913l6 184h263v-1114q0 -154 -50.5 -259.5t-150.5 -160.5t-252 -57zM501 29q-117 0 -207.5 64.5t-141.5 184t-51 284.5q0 167 58 290.5t156 191.5t218 68
q74 0 129 -28t90 -79.5t51 -121.5l51 -67l-59 -79q-11 48 -37.5 80t-61.5 49t-72 17q-108 0 -177 -84.5t-69 -236.5q0 -146 61.5 -227.5t167.5 -81.5q57 0 107 36.5t65 109.5l11 -56l-2 -46q-14 -79 -54.5 -139.5t-100.5 -94.5t-132 -34zM470 1275l-231 337h219l147 -187
l146 187h220l-231 -337h-270z" />
    <glyph glyph-name="uni0123.ss05" 
d="M596 -500q-143 -1 -244 47.5t-150 138t-38 206.5h263q-2 -84 44.5 -127t132.5 -43q90 0 131.5 58.5t41.5 213.5l3 913l6 184h263v-1114q0 -154 -50.5 -259.5t-150.5 -160.5t-252 -57zM501 29q-117 0 -207.5 64.5t-141.5 184t-51 284.5q0 167 58 290.5t156 191.5t218 68
q74 0 129 -28t90 -79.5t51 -121.5l51 -67l-59 -79q-11 48 -37.5 80t-61.5 49t-72 17q-108 0 -177 -84.5t-69 -236.5q0 -146 61.5 -227.5t167.5 -81.5q57 0 107 36.5t65 109.5l11 -56l-2 -46q-14 -79 -54.5 -139.5t-100.5 -94.5t-132 -34zM465 1274v51q0 49 11 107t29 110
t39 79h225q-22 -55 -32.5 -132.5t-10.5 -169.5v-45h-261z" />
    <glyph glyph-name="gdotaccent.ss05" 
d="M596 -500q-143 -1 -244 47.5t-150 138t-38 206.5h263q-2 -84 44.5 -127t132.5 -43q90 0 131.5 58.5t41.5 213.5l3 913l6 184h263v-1114q0 -154 -50.5 -259.5t-150.5 -160.5t-252 -57zM501 29q-117 0 -207.5 64.5t-141.5 184t-51 284.5q0 167 58 290.5t156 191.5t218 68
q74 0 129 -28t90 -79.5t51 -121.5l51 -67l-59 -79q-11 48 -37.5 80t-61.5 49t-72 17q-108 0 -177 -84.5t-69 -236.5q0 -146 61.5 -227.5t167.5 -81.5q57 0 107 36.5t65 109.5l11 -56l-2 -46q-14 -79 -54.5 -139.5t-100.5 -94.5t-132 -34zM605 1278q-76 0 -130 50.5
t-54 135.5q0 88 54 139t130 51t130 -51t54 -139q0 -85 -54.5 -135.5t-129.5 -50.5z" />
    <glyph glyph-name="fi" unicode="&#xfb01;" 
d="M75 0v768q0 42 14.5 66.5t42.5 32.5l-57 180v174q0 128 46 213t122.5 127t168.5 42q58 0 90 -3.5t62 -8.5v-246q-19 8 -49.5 13t-68.5 5q-36 0 -61.5 -15t-39 -52t-13.5 -105v-1191h-257zM-53 867v225h579v-225h-579zM836 0v1088l258 4v-1092h-258zM590 1091h479v-214
h-479v214zM588 214h734v-214h-734v214zM950 1278q-76 0 -130 50.5t-54 135.5q0 87 54 138.5t130 51.5t129.5 -51t53.5 -139q0 -85 -54 -135.5t-129 -50.5z" />
    <glyph glyph-name="fl" unicode="&#xfb02;" 
d="M1040 -14q-92 0 -155 17t-102 54.5t-56.5 98.5t-17.5 148v921q0 45 24 67t54 27h-83q-42 0 -76 11t-75 22t-104 11q-39 0 -67 -14.5t-42.5 -52t-14.5 -105.5v-1191h-256v768q0 42 14.5 66.5t40.5 32.5l-55 180v174q0 128 45.5 213t122 127t168.5 42q67 0 109.5 -4.5
t74 -11t63.5 -13t76.5 -11t115.5 -4.5h137l-2 -1170q0 -99 20 -130.5t76 -31.5q33 0 65.5 7t59.5 25v-237q-33 -19 -76.5 -27.5t-83.5 -8.5zM-59 867v225h577v-225h-577z" />
    <glyph glyph-name="ordfeminine" unicode="&#xaa;" 
d="M483 583q-126 0 -209 62.5t-83 181.5q0 121 74 178t186 78q51 9 109 15.5t110.5 10.5t84.5 6v22q0 81 -33 114.5t-111 33.5q-48 0 -83 -12t-54 -41.5t-19 -86.5h-238q-10 117 38.5 191.5t143 110.5t222.5 36q100 0 187.5 -27.5t141.5 -97t54 -195.5v-570h-251l2 204
q-15 -87 -81 -150.5t-191 -63.5zM568 751q40 0 80 14t70 39t37 58v137q-28 -5 -69.5 -11t-72.5 -12q-84 -17 -122.5 -47.5t-38.5 -80.5q0 -46 33 -71.5t83 -25.5z" />
    <glyph glyph-name="ordmasculine" unicode="&#xba;" 
d="M598 581q-203 0 -319.5 116.5t-116.5 337.5q0 139 55.5 239.5t155 154.5t229.5 54q210 0 324 -119.5t114 -328.5q0 -147 -57 -248.5t-156.5 -153.5t-228.5 -52zM602 790q82 0 133 53t51 192q0 129 -50 184t-137 55q-83 0 -133 -55.5t-50 -183.5q0 -133 50.5 -189
t135.5 -56z" />
    <glyph glyph-name="zero" unicode="0" 
d="M600 -30q-173 0 -288.5 76t-173.5 243t-58 441q0 268 58 434t174 242.5t288 76.5q173 0 288.5 -76.5t173.5 -242.5t58 -434q0 -274 -58 -441t-173.5 -243t-288.5 -76zM600 219q63 0 110.5 20.5t79.5 74.5t48 155t16 261q0 158 -16 257t-48 152.5t-79.5 73.5t-110.5 20
t-110.5 -20t-79.5 -73.5t-48 -152.5t-16 -257q0 -160 16 -261t48 -155t79.5 -74.5t110.5 -20.5zM600 578q-57 0 -81.5 35.5t-24.5 115.5q0 79 24.5 114t81.5 35q58 0 82 -35t24 -114q0 -80 -24 -115.5t-82 -35.5z" />
    <glyph glyph-name="one" unicode="1" 
d="M504 74l1 886q0 87 8.5 150t18.5 117l13 227h250v-1380h-291zM146 0v240h965v-240h-965zM71 1021v272q70 -22 145.5 -19t144 27t118 63.5t66.5 89.5l-13 -227q-20 -79 -70.5 -129t-117.5 -74t-138.5 -24t-134.5 21z" />
    <glyph glyph-name="two" unicode="2" 
d="M40 0q49 60 85 104t66.5 81t61.5 74t67.5 80.5t85.5 100.5t117 135q99 117 161 194.5t91.5 142t29.5 137.5q0 91 -50 142.5t-156 51.5q-65 0 -118.5 -26.5t-85.5 -80.5t-32 -137q0 -16 1.5 -33t4.5 -35h-261q-5 26 -7.5 51.5t-2.5 48.5q0 112 36 197t103 142t160 85.5
t207 28.5q225 0 352.5 -106.5t127.5 -303.5q0 -116 -34.5 -203.5t-92.5 -164.5t-128 -161q-64 -77 -108.5 -128t-77.5 -88.5t-62.5 -72t-62.5 -77.5q41 43 91 52t138 9h352v-240h-1059z" />
    <glyph glyph-name="three" unicode="3" 
d="M611 -25q-111 0 -208.5 28.5t-171.5 87.5t-112.5 150t-30.5 216h267q-5 -119 62.5 -181.5t195.5 -62.5q104 0 180.5 50.5t76.5 154.5q0 116 -74.5 168.5t-184.5 52.5h-159l1 225h152q74 0 121 28.5t70 73.5t23 95q0 95 -59 141t-145 46q-92 0 -151 -49.5t-53 -165.5h-271
q1 150 53 250t157.5 150.5t265.5 50.5q162 0 265.5 -48.5t152.5 -137.5t49 -209q0 -75 -32 -146t-95.5 -122t-157.5 -67q155 -10 249 -96t94 -254q0 -132 -64 -228.5t-182.5 -148.5t-283.5 -52z" />
    <glyph glyph-name="four" unicode="4" 
d="M38 225l436 1229h320l-365 -934l-31 -55h766l-1 -240h-1125zM719 0l1 391l83 74q-41 0 -58.5 27t-21 66t-3.5 75l-1 264l266 5v-902h-266z" />
    <glyph glyph-name="five" unicode="5" 
d="M591 -25q-164 0 -282.5 62.5t-178 169t-49.5 240.5h269q3 -62 30 -111t81 -76.5t137 -27.5q72 0 127.5 25.5t87.5 81.5t32 147q0 129 -65.5 185t-179.5 56q-91 0 -154 -32t-106 -71l-231 75l95 755h845v-252h-617l-94 -452q37 92 125 146t236 54q82 0 159 -23.5t139 -76
t98 -139t36 -211.5q0 -160 -66.5 -278t-187.5 -182.5t-286 -64.5z" />
    <glyph glyph-name="six" unicode="6" 
d="M621 -25q-152 0 -272 70t-190 206t-70 331q0 164 47.5 303.5t119 252t146.5 193t129 123.5h379q-58 -44 -129 -104.5t-142.5 -134t-132 -158.5t-99.5 -179.5t-44 -195.5l-6 18q14 41 40.5 90t70.5 92.5t108.5 72t154.5 28.5q123 0 216 -56.5t144.5 -165t51.5 -265.5
q0 -112 -40.5 -207t-112.5 -165.5t-166.5 -109.5t-202.5 -39zM620 222q81 0 135.5 36.5t82.5 98t28 136.5q0 85 -23 146.5t-73 94.5t-132 33q-68 0 -118 -14.5t-86 -38t-61 -51.5q-8 -14 -9 -58t-1 -66q0 -79 25.5 -152t82 -119t149.5 -46z" />
    <glyph glyph-name="seven" unicode="7" 
d="M281 0l454 1071q36 91 109.5 123t161.5 22l15 -11h-937v249h953h109l-558 -1454h-307z" />
    <glyph glyph-name="eight" unicode="8" 
d="M601 -25q-150 0 -268.5 48t-187.5 141t-69 228q0 173 92.5 262t248.5 103q-92 13 -156 62t-97.5 118t-33.5 143q0 186 117.5 295t353.5 109t352.5 -110t116.5 -294q0 -75 -33.5 -144.5t-97 -118.5t-154.5 -62q157 -12 248 -103t91 -260q0 -135 -69 -228t-187.5 -141
t-266.5 -48zM601 216q105 0 182 50t77 153q0 115 -74 166.5t-185 51.5q-113 0 -187 -50t-74 -168q0 -103 76.5 -153t184.5 -50zM601 866q70 0 116 28t69 73t23 94q0 93 -59 140t-149 47q-94 0 -152 -47t-58 -140q0 -50 21.5 -94.5t68 -72.5t120.5 -28z" />
    <glyph glyph-name="nine" unicode="9" 
d="M292 0q52 39 121.5 99t142.5 135.5t136 163t104 183t44 194.5l12 1q-16 -46 -41 -99t-66 -100t-101.5 -76.5t-147.5 -29.5q-125 0 -224.5 58t-158 168t-58.5 265q0 119 41 214.5t113.5 163.5t168 103.5t204.5 35.5q149 0 269.5 -68t191.5 -202.5t71 -336.5
q0 -163 -47.5 -305t-118 -255.5t-144.5 -193t-127 -118.5h-385zM573 689q61 0 109 15t84.5 41t62.5 61q7 15 8 52.5t1 63.5q0 83 -28.5 153t-85 113t-142.5 43q-83 0 -138 -34t-83 -92.5t-28 -131.5q0 -131 63 -207.5t177 -76.5z" />
    <glyph glyph-name="zero.zero" 
d="M600 -30q-173 0 -288.5 76t-173.5 243t-58 441q0 268 58 434t174 242.5t288 76.5q173 0 288.5 -76.5t173.5 -242.5t58 -434q0 -274 -58 -441t-173.5 -243t-288.5 -76zM600 219q63 0 110.5 20.5t79.5 74.5t48 155t16 261q0 158 -16 257t-48 152.5t-79.5 73.5t-110.5 20
t-110.5 -20t-79.5 -73.5t-48 -152.5t-16 -257q0 -160 16 -261t48 -155t79.5 -74.5t110.5 -20.5zM969 202l-156 -61l-564 1128l166 40z" />
    <glyph glyph-name="zero.ss01" 
d="M600 -30q-173 0 -288.5 76t-173.5 243t-58 441q0 268 58 434t174 242.5t288 76.5q173 0 288.5 -76.5t173.5 -242.5t58 -434q0 -274 -58 -441t-173.5 -243t-288.5 -76zM600 219q63 0 110.5 20.5t79.5 74.5t48 155t16 261q0 158 -16 257t-48 152.5t-79.5 73.5t-110.5 20
t-110.5 -20t-79.5 -73.5t-48 -152.5t-16 -257q0 -160 16 -261t48 -155t79.5 -74.5t110.5 -20.5z" />
    <glyph glyph-name="one.ss11" 
d="M481 62l1 1003l7 389h279v-1392h-287zM116 0v249h995v-249h-995zM490 1414l59 -389h-335v243h128q36 0 70 8.5t56 39t22 98.5z" />
    <glyph glyph-name="two.ss12" 
d="M129 0v116q0 113 40 203.5t135 180.5t262 199q120 80 189 163t69 189q0 62 -26 106t-72.5 67t-107.5 23q-83 0 -141.5 -35.5t-83.5 -106t-11 -174.5h-257q-22 177 30 300.5t170 188t295 64.5q227 0 346.5 -111.5t119.5 -309.5q0 -112 -42 -203.5t-117 -168.5t-173 -146
q-112 -78 -179 -129t-101 -87t-45 -67t-11 -68v-98q0 89 33.5 121.5t118.5 32.5h520v-250h-961z" />
    <glyph glyph-name="four.ss14" 
d="M720 0v264h-720l573 1190h401l-5 -4l4 -954h191v-232h-191l1 -264h-254zM330 440q34 33 60 44.5t63 11.5h376q-62 0 -85.5 27.5t-23.5 102.5v444l8 169l-59 -167l-259 -492z" />
    <glyph glyph-name="seven.ss17" 
d="M320 0q-11 281 40.5 515t144 402t203.5 249q23 16 61 29t77 16h-765v243h898l56 -165q-156 -141 -248.5 -336t-131.5 -435t-35 -518h-300z" />
    <glyph glyph-name="uni2080" unicode="&#x2080;" 
d="M602 -453q-226 0 -342.5 116t-116.5 365q0 250 116 364.5t343 114.5q226 0 340.5 -115t114.5 -364q0 -250 -114.5 -365.5t-340.5 -115.5zM602 -275q123 0 179 74t56 229q0 161 -55.5 231t-179.5 70q-123 0 -181 -70.5t-58 -230.5q0 -156 58 -229.5t181 -73.5z" />
    <glyph glyph-name="uni2081" unicode="&#x2081;" 
d="M550 -413l1 560q0 47 4.5 87.5t16.5 100.5l9 162h197v-910h-228zM201 -444v179h866v-179h-866zM163 167v214q63 -16 129 -15t126 17t103.5 45.5t59.5 68.5l-9 -165q-19 -70 -84.5 -116.5t-153 -60.5t-171.5 12z" />
    <glyph glyph-name="uni2082" unicode="&#x2082;" 
d="M157 -444q32 48 70.5 91t85.5 85.5t103.5 90t121.5 102.5q63 53 110.5 91t79.5 68t48.5 60t16.5 69q0 53 -46.5 82t-131.5 29q-110 0 -164.5 -49t-38.5 -136h-205q-26 174 80.5 271t328.5 97q182 0 288 -68.5t106 -207.5q0 -65 -22.5 -116.5t-69 -100.5t-120.5 -109
q-72 -57 -117 -93.5t-71.5 -58.5t-41 -35.5t-24.5 -26.5q26 23 66 33.5t120 10.5h289v-179h-862z" />
    <glyph glyph-name="uni2083" unicode="&#x2083;" 
d="M605 -453q-236 0 -348 84.5t-102 227.5h216q-4 -69 53 -102.5t173 -33.5q107 0 169 30t62 93q0 66 -56 91t-175 25h-137v155h134q92 0 140.5 30.5t48.5 88.5q0 53 -48.5 77t-135.5 24q-94 0 -141.5 -30t-43.5 -88h-216q-1 143 98 216t302 73q185 0 291.5 -62.5
t106.5 -180.5q0 -91 -63.5 -144t-179.5 -69q141 -7 216.5 -64t75.5 -163q0 -127 -120 -202.5t-320 -75.5z" />
    <glyph glyph-name="uni2084" unicode="&#x2084;" 
d="M156 -302l359 809h256l-297 -602l-27 -36h655l-1 -171h-945zM736 -444l1 265l69 48q-37 0 -53.5 26t-16.5 86v170l215 3v-598h-215z" />
    <glyph glyph-name="uni2085" unicode="&#x2085;" 
d="M602 -453q-137 0 -237.5 38.5t-151.5 107.5t-42 160h216q1 -62 57.5 -95t164.5 -33q107 0 166 37t59 120q0 76 -56 110t-172 34q-59 0 -115.5 -16.5t-113.5 -50.5l-182 50l82 488h710v-179h-526l-81 -276q44 72 117 105t189 33q173 0 270 -76t97 -216
q0 -156 -121.5 -248.5t-329.5 -92.5z" />
    <glyph glyph-name="uni2086" unicode="&#x2086;" 
d="M608 -453q-139 0 -239.5 48.5t-154.5 137t-54 207.5q0 74 29 154t80 156.5t118.5 141t144.5 105.5h310q-97 -51 -180 -112t-145.5 -127t-98.5 -129.5t-40 -120.5l-6 6q43 88 126 136.5t191 48.5q170 0 265.5 -85t95.5 -225q0 -98 -57.5 -175.5t-157.5 -122t-227 -44.5z
M608 -277q103 0 162.5 45t59.5 120q0 78 -52 120t-155 42q-77 0 -138 -14t-100 -44q-2 -7 -3.5 -31.5t-1.5 -49.5q0 -92 60.5 -140t167.5 -48z" />
    <glyph glyph-name="uni2087" unicode="&#x2087;" 
d="M327 -443l382 660q37 64 91.5 90.5t140.5 19.5l14 -6h-798v176h898l-476 -940h-252z" />
    <glyph glyph-name="uni2088" unicode="&#x2088;" 
d="M599 -453q-207 0 -330 71t-123 200q0 95 78 156t221 68q-115 13 -183.5 70.5t-68.5 146.5q0 75 49.5 131t141 87t216.5 31q126 0 217 -31t140.5 -87t49.5 -131q0 -89 -68 -147.5t-184 -70.5q144 -6 221.5 -67t77.5 -157q0 -85 -55.5 -145.5t-157.5 -92.5t-242 -32z
M600 -288q114 0 174.5 32.5t60.5 93.5q0 57 -59 90.5t-176 33.5t-176 -33.5t-59 -89.5q0 -62 61 -94.5t174 -32.5zM599 115q84 0 137.5 33.5t53.5 90.5q0 47 -49 77t-142 30t-141.5 -30t-48.5 -77q0 -58 52.5 -91t137.5 -33z" />
    <glyph glyph-name="uni2089" unicode="&#x2089;" 
d="M360 -443q97 50 180 111.5t145.5 127t99 129.5t39.5 120l7 -6q-44 -87 -127 -136t-192 -49q-170 0 -265 85.5t-95 225.5q0 98 57.5 175t157 122t226.5 45q140 0 240.5 -48.5t154 -137t53.5 -207.5q0 -74 -28.5 -154t-80 -157t-119 -141t-144.5 -105h-309zM579 3
q77 0 138 15t99 43q3 8 4.5 32t1.5 50q0 91 -61 139.5t-167 48.5q-103 0 -162.5 -45t-59.5 -121q0 -77 52 -119.5t155 -42.5z" />
    <glyph glyph-name="zero.dnom" 
d="M602 -274q-213 0 -323 109.5t-110 344.5t109.5 343.5t323.5 108.5q213 0 321 -109t108 -343q0 -236 -108 -345t-321 -109zM602 -106q116 0 169 69.5t53 216.5q0 152 -52.5 218t-169.5 66q-116 0 -171 -66.5t-55 -217.5q0 -148 54.5 -217t171.5 -69z" />
    <glyph glyph-name="one.dnom" 
d="M549 -236l1 529q0 44 4.5 82.5t14.5 94.5l9 153h186v-859h-215zM224 -265v169h817v-169h-817zM189 312v202q78 -22 160 -13.5t145.5 40.5t83.5 82l-9 -153q-17 -67 -77.5 -111t-142 -57.5t-160.5 10.5z" />
    <glyph glyph-name="two.dnom" 
d="M174 -265q30 45 67.5 85.5t82.5 81t99 85t118 97.5q60 50 106 85.5t77 63.5t46.5 57t15.5 65q0 52 -45.5 80.5t-126.5 28.5q-106 0 -159 -46.5t-36 -132.5h-197q-26 164 77 256t316 92q175 0 277 -65.5t102 -195.5q0 -62 -22 -110.5t-67.5 -94.5t-117.5 -102
q-69 -55 -112.5 -89.5t-69 -55t-39.5 -33.5t-24 -24q25 21 63 31t116 10h282v-169h-829z" />
    <glyph glyph-name="three.dnom" 
d="M605 -273q-223 0 -328.5 79.5t-95.5 214.5h203q-4 -65 50 -96.5t163 -31.5q101 0 159.5 28.5t58.5 86.5q0 64 -53 87.5t-165 23.5h-129v145h126q86 0 132.5 29.5t46.5 83.5q0 50 -46 72.5t-128 22.5q-89 0 -134 -28t-40 -83h-205q0 135 93.5 204t284.5 69
q174 0 275 -59.5t101 -170.5q0 -86 -60 -136t-170 -65q133 -6 204.5 -60t71.5 -154q0 -120 -113.5 -191t-301.5 -71z" />
    <glyph glyph-name="four.dnom" 
d="M182 -130l359 764h241l-299 -569l-26 -34h618l-1 -161h-892zM731 -264l1 249l63 46q-34 0 -49 24.5t-15 81.5v160l202 3v-564h-202z" />
    <glyph glyph-name="five.dnom" 
d="M602 -273q-130 0 -224 36.5t-142 101.5t-40 151h204q1 -59 54 -90t155 -31q101 0 157 34.5t56 113.5q0 72 -53 104t-163 32q-55 0 -108.5 -15.5t-106.5 -48.5l-172 48l76 461h671v-169h-497l-75 -261q41 68 110 99t178 31q162 0 254.5 -72t92.5 -203q0 -147 -115 -234.5
t-312 -87.5z" />
    <glyph glyph-name="six.dnom" 
d="M608 -273q-197 0 -309.5 101.5t-112.5 269.5q0 69 27 145t75 148.5t112 133t137 98.5h291q-122 -63 -219 -143.5t-155 -163.5t-63 -154l-6 6q41 83 119 129t180 46q161 0 250.5 -80.5t89.5 -212.5q0 -93 -54 -166t-148 -115t-214 -42zM608 -107q97 0 153 42.5t56 113.5
q0 74 -49.5 113.5t-145.5 39.5q-73 0 -130.5 -13.5t-93.5 -41.5q-3 -6 -4.5 -29.5t-1.5 -47.5q0 -86 57.5 -131.5t158.5 -45.5z" />
    <glyph glyph-name="seven.dnom" 
d="M343 -263l360 623q35 60 86.5 84.5t132.5 18.5l13 -5h-753v166h848l-449 -887h-238z" />
    <glyph glyph-name="eight.dnom" 
d="M599 -273q-195 0 -311.5 67t-116.5 189q0 90 73.5 147t209.5 64q-110 12 -174 66.5t-64 138.5q0 105 103.5 170t280.5 65q178 0 281 -65t103 -170q0 -85 -64 -139.5t-173 -66.5q135 -6 208.5 -63.5t73.5 -147.5q0 -121 -116 -188t-314 -67zM600 -117q108 0 165 30.5
t57 88.5q0 53 -56 84.5t-166 31.5q-111 0 -166.5 -31.5t-55.5 -84.5q0 -58 58 -88.5t164 -30.5zM599 263q80 0 130 31.5t50 85.5q0 45 -46 73t-134 28q-87 0 -133 -28.5t-46 -72.5q0 -54 49.5 -85.5t129.5 -31.5z" />
    <glyph glyph-name="nine.dnom" 
d="M374 -264q122 64 219 144t155.5 163.5t62.5 153.5l7 -6q-41 -82 -119.5 -128.5t-181.5 -46.5q-160 0 -249.5 81t-89.5 212q0 93 54 166t148 115t213 42q198 0 310.5 -101.5t112.5 -269.5q0 -69 -27 -145t-75.5 -148t-112 -132.5t-136.5 -99.5h-291zM580 157
q73 0 130.5 13.5t93.5 41.5q2 7 3.5 30t1.5 47q0 87 -57 132.5t-158 45.5q-97 0 -153 -42.5t-56 -114.5q0 -73 49 -113t146 -40z" />
    <glyph glyph-name="zero.numr" 
d="M602 817q-213 0 -323 109.5t-110 344.5t109.5 343.5t323.5 108.5q213 0 321 -109t108 -343q0 -236 -108 -345t-321 -109zM602 985q116 0 169 69.5t53 216.5q0 152 -52.5 218t-169.5 66q-116 0 -171 -66.5t-55 -217.5q0 -148 54.5 -217t171.5 -69z" />
    <glyph glyph-name="one.numr" 
d="M549 855l1 529q0 44 4.5 82.5t14.5 94.5l9 153h186v-859h-215zM224 826v169h817v-169h-817zM189 1403v202q78 -22 160 -13.5t145.5 40.5t83.5 82l-9 -153q-17 -67 -77.5 -111t-142 -57.5t-160.5 10.5z" />
    <glyph glyph-name="two.numr" 
d="M174 826q30 45 67.5 85.5t82.5 81t99 85t118 97.5q60 50 106 85.5t77 63.5t46.5 57t15.5 65q0 52 -45.5 80.5t-126.5 28.5q-106 0 -159 -46.5t-36 -132.5h-197q-26 164 77 256t316 92q175 0 277 -65.5t102 -195.5q0 -62 -22 -110.5t-67.5 -94.5t-117.5 -102
q-69 -55 -112.5 -89.5t-69 -55t-39.5 -33.5t-24 -24q25 21 63 31t116 10h282v-169h-829z" />
    <glyph glyph-name="three.numr" 
d="M605 817q-223 0 -328.5 79.5t-95.5 214.5h203q-4 -65 50 -96.5t163 -31.5q101 0 159.5 28.5t58.5 86.5q0 64 -53 87.5t-165 23.5h-129v145h126q86 0 132.5 29.5t46.5 83.5q0 50 -46 72.5t-128 22.5q-89 0 -134 -28t-40 -83h-205q0 135 93.5 204t284.5 69q174 0 275 -59.5
t101 -170.5q0 -86 -60 -136t-170 -65q133 -6 204.5 -60t71.5 -154q0 -120 -113.5 -191t-301.5 -71z" />
    <glyph glyph-name="four.numr" 
d="M182 960l359 764h241l-299 -569l-26 -34h618l-1 -161h-892zM731 826l1 249l63 46q-34 0 -49 24.5t-15 81.5v160l202 3v-564h-202z" />
    <glyph glyph-name="five.numr" 
d="M602 817q-130 0 -224 36.5t-142 101.5t-40 151h204q1 -59 54 -90t155 -31q101 0 157 34.5t56 113.5q0 72 -53 104t-163 32q-55 0 -108.5 -15.5t-106.5 -48.5l-172 48l76 461h671v-169h-497l-75 -261q41 68 110 99t178 31q162 0 254.5 -72t92.5 -203q0 -147 -115 -234.5
t-312 -87.5z" />
    <glyph glyph-name="six.numr" 
d="M608 817q-197 0 -309.5 101.5t-112.5 269.5q0 69 27 145t75 148.5t112 133t137 98.5h291q-122 -63 -219 -143.5t-155 -163.5t-63 -154l-6 6q41 83 119 129t180 46q161 0 250.5 -80.5t89.5 -212.5q0 -93 -54 -166t-148 -115t-214 -42zM608 983q97 0 153 42.5t56 113.5
q0 74 -49.5 113.5t-145.5 39.5q-73 0 -130.5 -13.5t-93.5 -41.5q-3 -6 -4.5 -29.5t-1.5 -47.5q0 -86 57.5 -131.5t158.5 -45.5z" />
    <glyph glyph-name="seven.numr" 
d="M343 827l360 623q35 60 86.5 84.5t132.5 18.5l13 -5h-753v166h848l-449 -887h-238z" />
    <glyph glyph-name="eight.numr" 
d="M599 817q-195 0 -311.5 67t-116.5 189q0 90 73.5 147t209.5 64q-110 12 -174 66.5t-64 138.5q0 105 103.5 170t280.5 65q178 0 281 -65t103 -170q0 -85 -64 -139.5t-173 -66.5q135 -6 208.5 -63.5t73.5 -147.5q0 -121 -116 -188t-314 -67zM600 973q108 0 165 30.5
t57 88.5q0 53 -56 84.5t-166 31.5q-111 0 -166.5 -31.5t-55.5 -84.5q0 -58 58 -88.5t164 -30.5zM599 1353q80 0 130 31.5t50 85.5q0 45 -46 73t-134 28q-87 0 -133 -28.5t-46 -72.5q0 -54 49.5 -85.5t129.5 -31.5z" />
    <glyph glyph-name="nine.numr" 
d="M374 827q122 64 219 144t155.5 163.5t62.5 153.5l7 -6q-41 -82 -119.5 -128.5t-181.5 -46.5q-160 0 -249.5 81t-89.5 212q0 93 54 166t148 115t213 42q198 0 310.5 -101.5t112.5 -269.5q0 -69 -27 -145t-75.5 -148t-112 -132.5t-136.5 -99.5h-291zM580 1248
q73 0 130.5 13.5t93.5 41.5q2 7 3.5 30t1.5 47q0 87 -57 132.5t-158 45.5q-97 0 -153 -42.5t-56 -114.5q0 -73 49 -113t146 -40z" />
    <glyph glyph-name="uni2070" unicode="&#x2070;" 
d="M602 847q-226 0 -342.5 116t-116.5 365q0 250 116 364.5t343 114.5q226 0 340.5 -115t114.5 -364q0 -250 -114.5 -365.5t-340.5 -115.5zM602 1025q123 0 179 74t56 229q0 161 -55.5 231t-179.5 70q-123 0 -181 -70.5t-58 -230.5q0 -156 58 -229.5t181 -73.5z" />
    <glyph glyph-name="uni00B9" unicode="&#xb9;" 
d="M550 887l1 560q0 47 4.5 87.5t16.5 100.5l9 162h197v-910h-228zM201 856v179h866v-179h-866zM163 1467v214q63 -16 129 -15t126 17t103.5 45.5t59.5 68.5l-9 -165q-19 -70 -84.5 -116.5t-153 -60.5t-171.5 12z" />
    <glyph glyph-name="uni00B2" unicode="&#xb2;" 
d="M157 856q32 48 70.5 91t85.5 85.5t103.5 90t121.5 102.5q63 53 110.5 91t79.5 68t48.5 60t16.5 69q0 53 -46.5 82t-131.5 29q-110 0 -164.5 -49t-38.5 -136h-205q-26 174 80.5 271t328.5 97q182 0 288 -68.5t106 -207.5q0 -65 -22.5 -116.5t-69 -100.5t-120.5 -109
q-72 -57 -117 -93.5t-71.5 -58.5t-41 -35.5t-24.5 -26.5q26 23 66 33.5t120 10.5h289v-179h-862z" />
    <glyph glyph-name="uni00B3" unicode="&#xb3;" 
d="M605 847q-236 0 -348 84.5t-102 227.5h216q-4 -69 53 -102.5t173 -33.5q107 0 169 30t62 93q0 66 -56 91t-175 25h-137v155h134q92 0 140.5 30.5t48.5 88.5q0 53 -48.5 77t-135.5 24q-94 0 -141.5 -30t-43.5 -88h-216q-1 143 98 216t302 73q185 0 291.5 -62.5
t106.5 -180.5q0 -91 -63.5 -144t-179.5 -69q141 -7 216.5 -64t75.5 -163q0 -127 -120 -202.5t-320 -75.5z" />
    <glyph glyph-name="uni2074" unicode="&#x2074;" 
d="M156 998l359 809h256l-297 -602l-27 -36h655l-1 -171h-945zM736 856l1 265l69 48q-37 0 -53.5 26t-16.5 86v170l215 3v-598h-215z" />
    <glyph glyph-name="uni2075" unicode="&#x2075;" 
d="M602 847q-137 0 -237.5 38.5t-151.5 107.5t-42 160h216q1 -62 57.5 -95t164.5 -33q107 0 166 37t59 120q0 76 -56 110t-172 34q-59 0 -115.5 -16.5t-113.5 -50.5l-182 50l82 488h710v-179h-526l-81 -276q44 72 117 105t189 33q173 0 270 -76t97 -216
q0 -156 -121.5 -248.5t-329.5 -92.5z" />
    <glyph glyph-name="uni2076" unicode="&#x2076;" 
d="M608 847q-139 0 -239.5 48.5t-154.5 137t-54 207.5q0 74 29 154t80 156.5t118.5 141t144.5 105.5h310q-97 -51 -180 -112t-145.5 -127t-98.5 -129.5t-40 -120.5l-6 6q43 88 126 136.5t191 48.5q170 0 265.5 -85t95.5 -225q0 -98 -57.5 -175.5t-157.5 -122t-227 -44.5z
M608 1023q103 0 162.5 45t59.5 120q0 78 -52 120t-155 42q-77 0 -138 -14t-100 -44q-2 -7 -3.5 -31.5t-1.5 -49.5q0 -92 60.5 -140t167.5 -48z" />
    <glyph glyph-name="uni2077" unicode="&#x2077;" 
d="M327 857l382 660q37 64 91.5 90.5t140.5 19.5l14 -6h-798v176h898l-476 -940h-252z" />
    <glyph glyph-name="uni2078" unicode="&#x2078;" 
d="M599 847q-207 0 -330 71t-123 200q0 95 78 156t221 68q-115 13 -183.5 70.5t-68.5 146.5q0 75 49.5 131t141 87t216.5 31q126 0 217 -31t140.5 -87t49.5 -131q0 -89 -68 -147.5t-184 -70.5q144 -6 221.5 -67t77.5 -157q0 -85 -55.5 -145.5t-157.5 -92.5t-242 -32z
M600 1012q114 0 174.5 32.5t60.5 93.5q0 57 -59 90.5t-176 33.5t-176 -33.5t-59 -89.5q0 -62 61 -94.5t174 -32.5zM599 1415q84 0 137.5 33.5t53.5 90.5q0 47 -49 77t-142 30t-141.5 -30t-48.5 -77q0 -58 52.5 -91t137.5 -33z" />
    <glyph glyph-name="uni2079" unicode="&#x2079;" 
d="M360 857q97 50 180 111.5t145.5 127t99 129.5t39.5 120l7 -6q-44 -87 -127 -136t-192 -49q-170 0 -265 85.5t-95 225.5q0 98 57.5 175t157 122t226.5 45q140 0 240.5 -48.5t154 -137t53.5 -207.5q0 -74 -28.5 -154t-80 -157t-119 -141t-144.5 -105h-309zM579 1303
q77 0 138 15t99 43q3 8 4.5 32t1.5 50q0 91 -61 139.5t-167 48.5q-103 0 -162.5 -45t-59.5 -121q0 -77 52 -119.5t155 -42.5z" />
    <glyph glyph-name="fraction" unicode="&#x2044;" 
d="M95 0l786 1454h224l-787 -1454h-223z" />
    <glyph glyph-name="onehalf" unicode="&#xbd;" 
d="M549 855l1 529q0 44 4.5 82.5t14.5 94.5l9 153h186v-859h-215zM224 826v169h817v-169h-817zM189 1403v202q78 -22 160 -13.5t145.5 40.5t83.5 82l-9 -153q-17 -67 -77.5 -111t-142 -57.5t-160.5 10.5zM174 -265q30 45 67.5 85.5t82.5 81t99 85t118 97.5q60 50 106 85.5
t77 63.5t46.5 57t15.5 65q0 52 -45.5 80.5t-126.5 28.5q-106 0 -159 -46.5t-36 -132.5h-197q-26 164 77 256t316 92q175 0 277 -65.5t102 -195.5q0 -62 -22 -110.5t-67.5 -94.5t-117.5 -102q-69 -55 -112.5 -89.5t-69 -55t-39.5 -33.5t-24 -24q25 21 63 31t116 10h282v-169
h-829z" />
    <glyph glyph-name="onequarter" unicode="&#xbc;" 
d="M549 855l1 529q0 44 4.5 82.5t14.5 94.5l9 153h186v-859h-215zM224 826v169h817v-169h-817zM189 1403v202q78 -22 160 -13.5t145.5 40.5t83.5 82l-9 -153q-17 -67 -77.5 -111t-142 -57.5t-160.5 10.5zM182 -130l359 764h241l-299 -569l-26 -34h618l-1 -161h-892z
M731 -264l1 249l63 46q-34 0 -49 24.5t-15 81.5v160l202 3v-564h-202z" />
    <glyph glyph-name="threequarters" unicode="&#xbe;" 
d="M605 817q-223 0 -328.5 79.5t-95.5 214.5h203q-4 -65 50 -96.5t163 -31.5q101 0 159.5 28.5t58.5 86.5q0 64 -53 87.5t-165 23.5h-129v145h126q86 0 132.5 29.5t46.5 83.5q0 50 -46 72.5t-128 22.5q-89 0 -134 -28t-40 -83h-205q0 135 93.5 204t284.5 69q174 0 275 -59.5
t101 -170.5q0 -86 -60 -136t-170 -65q133 -6 204.5 -60t71.5 -154q0 -120 -113.5 -191t-301.5 -71zM184 -130l359 764h241l-299 -569l-26 -34h618l-1 -161h-892zM733 -264l1 249l63 46q-34 0 -49 24.5t-15 81.5v160l202 3v-564h-202z" />
    <glyph glyph-name="onehalf.ss18" 
d="M549 855l1 529q0 44 4.5 82.5t14.5 94.5l9 153h186v-859h-215zM224 826v169h817v-169h-817zM189 1403v202q78 -22 160 -13.5t145.5 40.5t83.5 82l-9 -153q-17 -67 -77.5 -111t-142 -57.5t-160.5 10.5zM174 -265q30 45 67.5 85.5t82.5 81t99 85t118 97.5q60 50 106 85.5
t77 63.5t46.5 57t15.5 65q0 52 -45.5 80.5t-126.5 28.5q-106 0 -159 -46.5t-36 -132.5h-197q-26 164 77 256t316 92q175 0 277 -65.5t102 -195.5q0 -62 -22 -110.5t-67.5 -94.5t-117.5 -102q-69 -55 -112.5 -89.5t-69 -55t-39.5 -33.5t-24 -24q25 21 63 31t116 10h282v-169
h-829z" />
    <glyph glyph-name="uni2153.ss18" 
d="M549 855l1 529q0 44 4.5 82.5t14.5 94.5l9 153h186v-859h-215zM224 826v169h817v-169h-817zM189 1403v202q78 -22 160 -13.5t145.5 40.5t83.5 82l-9 -153q-17 -67 -77.5 -111t-142 -57.5t-160.5 10.5zM605 -273q-223 0 -328.5 79.5t-95.5 214.5h203q-4 -65 50 -96.5
t163 -31.5q101 0 159.5 28.5t58.5 86.5q0 64 -53 87.5t-165 23.5h-129v145h126q86 0 132.5 29.5t46.5 83.5q0 50 -46 72.5t-128 22.5q-89 0 -134 -28t-40 -83h-205q0 135 93.5 204t284.5 69q174 0 275 -59.5t101 -170.5q0 -86 -60 -136t-170 -65q133 -6 204.5 -60t71.5 -154
q0 -120 -113.5 -191t-301.5 -71z" />
    <glyph glyph-name="uni2154.ss18" 
d="M174 826q30 45 67.5 85.5t82.5 81t99 85t118 97.5q60 50 106 85.5t77 63.5t46.5 57t15.5 65q0 52 -45.5 80.5t-126.5 28.5q-106 0 -159 -46.5t-36 -132.5h-197q-26 164 77 256t316 92q175 0 277 -65.5t102 -195.5q0 -62 -22 -110.5t-67.5 -94.5t-117.5 -102
q-69 -55 -112.5 -89.5t-69 -55t-39.5 -33.5t-24 -24q25 21 63 31t116 10h282v-169h-829zM605 -273q-223 0 -328.5 79.5t-95.5 214.5h203q-4 -65 50 -96.5t163 -31.5q101 0 159.5 28.5t58.5 86.5q0 64 -53 87.5t-165 23.5h-129v145h126q86 0 132.5 29.5t46.5 83.5
q0 50 -46 72.5t-128 22.5q-89 0 -134 -28t-40 -83h-205q0 135 93.5 204t284.5 69q174 0 275 -59.5t101 -170.5q0 -86 -60 -136t-170 -65q133 -6 204.5 -60t71.5 -154q0 -120 -113.5 -191t-301.5 -71z" />
    <glyph glyph-name="onequarter.ss18" 
d="M549 855l1 529q0 44 4.5 82.5t14.5 94.5l9 153h186v-859h-215zM224 826v169h817v-169h-817zM189 1403v202q78 -22 160 -13.5t145.5 40.5t83.5 82l-9 -153q-17 -67 -77.5 -111t-142 -57.5t-160.5 10.5zM182 -130l359 764h241l-299 -569l-26 -34h618l-1 -161h-892z
M731 -264l1 249l63 46q-34 0 -49 24.5t-15 81.5v160l202 3v-564h-202z" />
    <glyph glyph-name="threequarters.ss18" 
d="M605 817q-223 0 -328.5 79.5t-95.5 214.5h203q-4 -65 50 -96.5t163 -31.5q101 0 159.5 28.5t58.5 86.5q0 64 -53 87.5t-165 23.5h-129v145h126q86 0 132.5 29.5t46.5 83.5q0 50 -46 72.5t-128 22.5q-89 0 -134 -28t-40 -83h-205q0 135 93.5 204t284.5 69q174 0 275 -59.5
t101 -170.5q0 -86 -60 -136t-170 -65q133 -6 204.5 -60t71.5 -154q0 -120 -113.5 -191t-301.5 -71zM184 -130l359 764h241l-299 -569l-26 -34h618l-1 -161h-892zM733 -264l1 249l63 46q-34 0 -49 24.5t-15 81.5v160l202 3v-564h-202z" />
    <glyph glyph-name="uni2155.ss18" 
d="M549 855l1 529q0 44 4.5 82.5t14.5 94.5l9 153h186v-859h-215zM224 826v169h817v-169h-817zM189 1403v202q78 -22 160 -13.5t145.5 40.5t83.5 82l-9 -153q-17 -67 -77.5 -111t-142 -57.5t-160.5 10.5zM602 -273q-130 0 -224 36.5t-142 101.5t-40 151h204q1 -59 54 -90
t155 -31q101 0 157 34.5t56 113.5q0 72 -53 104t-163 32q-55 0 -108.5 -15.5t-106.5 -48.5l-172 48l76 461h671v-169h-497l-75 -261q41 68 110 99t178 31q162 0 254.5 -72t92.5 -203q0 -147 -115 -234.5t-312 -87.5z" />
    <glyph glyph-name="uni2159.ss18" 
d="M549 855l1 529q0 44 4.5 82.5t14.5 94.5l9 153h186v-859h-215zM224 826v169h817v-169h-817zM189 1403v202q78 -22 160 -13.5t145.5 40.5t83.5 82l-9 -153q-17 -67 -77.5 -111t-142 -57.5t-160.5 10.5zM608 -273q-197 0 -309.5 101.5t-112.5 269.5q0 69 27 145t75 148.5
t112 133t137 98.5h291q-122 -63 -219 -143.5t-155 -163.5t-63 -154l-6 6q41 83 119 129t180 46q161 0 250.5 -80.5t89.5 -212.5q0 -93 -54 -166t-148 -115t-214 -42zM608 -107q97 0 153 42.5t56 113.5q0 74 -49.5 113.5t-145.5 39.5q-73 0 -130.5 -13.5t-93.5 -41.5
q-3 -6 -4.5 -29.5t-1.5 -47.5q0 -86 57.5 -131.5t158.5 -45.5z" />
    <glyph glyph-name="oneeighth.ss18" 
d="M549 855l1 529q0 44 4.5 82.5t14.5 94.5l9 153h186v-859h-215zM224 826v169h817v-169h-817zM189 1403v202q78 -22 160 -13.5t145.5 40.5t83.5 82l-9 -153q-17 -67 -77.5 -111t-142 -57.5t-160.5 10.5zM599 -273q-195 0 -311.5 67t-116.5 189q0 90 73.5 147t209.5 64
q-110 12 -174 66.5t-64 138.5q0 105 103.5 170t280.5 65q178 0 281 -65t103 -170q0 -85 -64 -139.5t-173 -66.5q135 -6 208.5 -63.5t73.5 -147.5q0 -121 -116 -188t-314 -67zM600 -117q108 0 165 30.5t57 88.5q0 53 -56 84.5t-166 31.5q-111 0 -166.5 -31.5t-55.5 -84.5
q0 -58 58 -88.5t164 -30.5zM599 263q80 0 130 31.5t50 85.5q0 45 -46 73t-134 28q-87 0 -133 -28.5t-46 -72.5q0 -54 49.5 -85.5t129.5 -31.5z" />
    <glyph glyph-name="threeeighths.ss18" 
d="M605 817q-223 0 -328.5 79.5t-95.5 214.5h203q-4 -65 50 -96.5t163 -31.5q101 0 159.5 28.5t58.5 86.5q0 64 -53 87.5t-165 23.5h-129v145h126q86 0 132.5 29.5t46.5 83.5q0 50 -46 72.5t-128 22.5q-89 0 -134 -28t-40 -83h-205q0 135 93.5 204t284.5 69q174 0 275 -59.5
t101 -170.5q0 -86 -60 -136t-170 -65q133 -6 204.5 -60t71.5 -154q0 -120 -113.5 -191t-301.5 -71zM599 -273q-195 0 -311.5 67t-116.5 189q0 90 73.5 147t209.5 64q-110 12 -174 66.5t-64 138.5q0 105 103.5 170t280.5 65q178 0 281 -65t103 -170q0 -85 -64 -139.5
t-173 -66.5q135 -6 208.5 -63.5t73.5 -147.5q0 -121 -116 -188t-314 -67zM600 -117q108 0 165 30.5t57 88.5q0 53 -56 84.5t-166 31.5q-111 0 -166.5 -31.5t-55.5 -84.5q0 -58 58 -88.5t164 -30.5zM599 263q80 0 130 31.5t50 85.5q0 45 -46 73t-134 28q-87 0 -133 -28.5
t-46 -72.5q0 -54 49.5 -85.5t129.5 -31.5z" />
    <glyph glyph-name="fiveeighths.ss18" 
d="M602 817q-130 0 -224 36.5t-142 101.5t-40 151h204q1 -59 54 -90t155 -31q101 0 157 34.5t56 113.5q0 72 -53 104t-163 32q-55 0 -108.5 -15.5t-106.5 -48.5l-172 48l76 461h671v-169h-497l-75 -261q41 68 110 99t178 31q162 0 254.5 -72t92.5 -203q0 -147 -115 -234.5
t-312 -87.5zM599 -273q-195 0 -311.5 67t-116.5 189q0 90 73.5 147t209.5 64q-110 12 -174 66.5t-64 138.5q0 105 103.5 170t280.5 65q178 0 281 -65t103 -170q0 -85 -64 -139.5t-173 -66.5q135 -6 208.5 -63.5t73.5 -147.5q0 -121 -116 -188t-314 -67zM600 -117
q108 0 165 30.5t57 88.5q0 53 -56 84.5t-166 31.5q-111 0 -166.5 -31.5t-55.5 -84.5q0 -58 58 -88.5t164 -30.5zM599 263q80 0 130 31.5t50 85.5q0 45 -46 73t-134 28q-87 0 -133 -28.5t-46 -72.5q0 -54 49.5 -85.5t129.5 -31.5z" />
    <glyph glyph-name="seveneighths.ss18" 
d="M343 827l360 623q35 60 86.5 84.5t132.5 18.5l13 -5h-753v166h848l-449 -887h-238zM599 -273q-195 0 -311.5 67t-116.5 189q0 90 73.5 147t209.5 64q-110 12 -174 66.5t-64 138.5q0 105 103.5 170t280.5 65q178 0 281 -65t103 -170q0 -85 -64 -139.5t-173 -66.5
q135 -6 208.5 -63.5t73.5 -147.5q0 -121 -116 -188t-314 -67zM600 -117q108 0 165 30.5t57 88.5q0 53 -56 84.5t-166 31.5q-111 0 -166.5 -31.5t-55.5 -84.5q0 -58 58 -88.5t164 -30.5zM599 263q80 0 130 31.5t50 85.5q0 45 -46 73t-134 28q-87 0 -133 -28.5t-46 -72.5
q0 -54 49.5 -85.5t129.5 -31.5z" />
    <glyph glyph-name="onehalf.ss19" 
d="M191 753l2 762l49 198h149v-960h-200zM46 1390v221q24 0 56.5 5t57.5 15q19 7 43.5 28t38.5 54l-49 -198q-3 -27 -8 -55.5t-34 -48.5q-19 -14 -41.5 -17.5t-63.5 -3.5zM117 0l437 949l298 772h157l-387 -819l-348 -902h-157zM626 0q19 34 49 86.5t63.5 111.5t64.5 112
t52 86q56 90 82.5 141t35 82t8.5 62q0 37 -12.5 70t-63.5 33q-44 0 -65.5 -47t0.5 -135h-176q-17 134 11.5 217t89.5 121.5t139 38.5q131 0 192 -76t61 -191q0 -110 -37.5 -194.5t-72.5 -148.5q-23 -44 -38.5 -76.5t-29.5 -61.5t-33 -62q17 21 35 29t52 8h121v-206h-528z
" />
    <glyph glyph-name="uni2153.ss19" 
d="M129 0l437 949l298 772h157l-387 -819l-348 -902h-157zM907 -24q-117 0 -192.5 81t-68.5 236h170q-2 -67 31 -92t66 -25q32 0 60.5 25.5t28.5 81.5t-27 82.5t-59 26.5h-74l1 183h63q49 0 62.5 31t13.5 65q0 55 -22.5 78.5t-47.5 23.5q-30 0 -49.5 -25t-18.5 -80h-175
q2 141 59 220.5t185 79.5q120 0 179.5 -72.5t59.5 -190.5q0 -77 -38.5 -140.5t-91.5 -78.5q63 -6 110 -64.5t47 -169.5q0 -77 -30 -139.5t-90 -99.5t-152 -37zM203 753l1 762l50 198h149v-960h-200zM58 1390v221q24 0 56.5 5t57.5 15q19 7 43.5 28t38.5 54l-49 -198
q-4 -27 -8.5 -55.5t-34.5 -48.5q-19 -14 -41 -17.5t-63 -3.5z" />
    <glyph glyph-name="uni2154.ss19" 
d="M200 0l437 949l298 772h157l-387 -819l-348 -902h-157zM931 -31q-117 0 -192 81t-69 236h170q-1 -67 31.5 -92t65.5 -25q32 0 60.5 25.5t28.5 81.5t-27 82.5t-59 26.5h-74l1 183h63q49 0 62.5 31t13.5 65q0 54 -22.5 78t-47.5 24q-30 0 -49.5 -25t-17.5 -80h-176
q2 141 59 220.5t186 79.5q119 0 178.5 -72.5t59.5 -190.5q0 -77 -38.5 -140.5t-91.5 -78.5q63 -6 110 -64.5t47 -169.5q0 -77 -30 -139.5t-90 -99.5t-152 -37zM-7 753q19 34 49 86.5t63.5 111.5t64.5 112t52 86q53 86 80 136t36.5 83t9.5 66q0 37 -12.5 70t-63.5 33
q-44 0 -65.5 -47t0.5 -135h-176q-17 134 11.5 217t89.5 121.5t139 38.5q131 0 192 -76t61 -191q0 -110 -37.5 -194.5t-72.5 -148.5q-24 -45 -41.5 -78.5t-32 -63t-33.5 -61.5q17 19 35.5 27t53.5 8h125v-201h-528z" />
    <glyph glyph-name="onequarter.ss19" 
d="M183 753l1 762l50 198h149v-960h-200zM38 1390v221q24 0 56.5 5t57.5 15q19 7 43.5 28t38.5 54l-49 -198q-4 -27 -8.5 -55.5t-34.5 -48.5q-19 -14 -41 -17.5t-63 -3.5zM881 0l1 166h-372l225 794h320l-3 -3l-1 -606h92v-185h-91v-166h-171zM737 321q11 19 23.5 24.5
t34.5 5.5h137q-30 0 -40 24t-10 72v150v235l-65 -249l-45 -149zM117 0l437 949l298 772h157l-387 -819l-348 -902h-157z" />
    <glyph glyph-name="threequarters.ss19" 
d="M279 725q-117 0 -192.5 81t-68.5 236h170q-2 -67 31 -92t66 -25q31 0 60 25.5t29 81.5t-27 82.5t-59 26.5h-75l1 183h64q49 0 62 31t13 65q0 55 -22 78.5t-47 23.5q-30 0 -49.5 -25t-18.5 -80h-175q2 141 59 220.5t185 79.5q119 0 179 -72.5t60 -190.5
q0 -77 -38.5 -140.5t-91.5 -78.5q63 -6 110 -64.5t47 -168.5q0 -77 -30 -140t-90 -100t-152 -37zM178 0l437 949l298 772h157l-387 -819l-348 -902h-157zM916 0l1 166h-372l226 794h319l-3 -3l-1 -606h92v-185h-91v-166h-171zM772 321q11 19 23.5 24.5t35.5 5.5h136
q-30 0 -40 24t-10 72v150v235l-65 -249l-45 -149z" />
    <glyph glyph-name="uni2155.ss19" 
d="M183 753l1 762l50 198h149v-960h-200zM38 1390v221q24 0 56.5 5t57.5 15q19 7 43.5 28t38.5 54l-49 -198q-4 -27 -8.5 -55.5t-34.5 -48.5q-19 -14 -41 -17.5t-63 -3.5zM910 0q-68 0 -129.5 36t-98 105t-31.5 171h175q2 -64 25 -90.5t58 -26.5q49 0 63 44t14 117
q0 70 -21.5 96.5t-47.5 26.5q-43 0 -60.5 -25t-21.5 -54l-173 60l41 512h421v-199h-281l-38 -280q10 45 30 78t51 53q19 13 42 19t47 6q47 0 93 -27.5t75.5 -90.5t29.5 -170q0 -166 -74 -263.5t-189 -97.5zM117 0l437 949l298 772h157l-387 -819l-348 -902h-157z" />
    <glyph glyph-name="uni2159.ss19" 
d="M112 0l437 949l298 772h157l-387 -819l-348 -902h-157zM888 172q53 0 80 37.5t27 104.5q0 63 -24.5 97.5t-73.5 34.5q-36 0 -69.5 -12.5t-52.5 -33.5q-2 -6 -3.5 -24t-1.5 -39q0 -78 30 -121.5t88 -43.5zM889 -10q-134 0 -214.5 104.5t-80.5 277.5q0 103 30 210t84.5 207
t129.5 181h220q-84 -74 -146 -161t-97.5 -180t-43.5 -186q21 78 69.5 119t117.5 41q98 0 157 -78.5t59 -208.5q0 -96 -36 -170t-100 -115t-149 -41zM179 753l2 760q-6 -48 -14.5 -68t-27.5 -34q-18 -13 -38 -17t-67 -4v221q27 0 60.5 6t54.5 14q25 10 47.5 32t33.5 50h149
v-960h-200z" />
    <glyph glyph-name="oneeighth.ss19" 
d="M117 0l437 949l298 772h157l-387 -819l-348 -902h-157zM904 178q37 0 67 29t30 86q0 63 -27.5 92.5t-69.5 29.5t-69.5 -28t-27.5 -94q0 -57 29 -86t68 -29zM183 753l1 760q-3 -27 -8 -54.5t-34 -47.5q-19 -14 -41 -17.5t-63 -3.5v221q24 0 56.5 5t57.5 15q19 7 43.5 28
t38.5 54h149v-960h-200zM904 -13q-114 0 -195.5 70.5t-81.5 202.5q0 111 49 171.5t131 68.5q-80 15 -116.5 77.5t-36.5 137.5q0 120 63.5 192t186.5 72t186 -72t63 -192q0 -78 -37 -140t-115 -77q77 -6 128.5 -65.5t51.5 -172.5q0 -88 -38 -149t-101 -92.5t-138 -31.5z
M904 577q42 0 58 33.5t16 80.5q0 55 -21.5 81t-52.5 26q-33 0 -53.5 -25t-20.5 -82q0 -46 16.5 -80t57.5 -34z" />
    <glyph glyph-name="threeeighths.ss19" 
d="M271 725q-117 0 -192 81t-69 236h170q-1 -67 31.5 -92t65.5 -25q32 0 60.5 25.5t28.5 81.5t-27 82.5t-59 26.5h-74l1 183h63q49 0 62.5 31t13.5 65q0 55 -22.5 78.5t-47.5 23.5q-30 0 -49.5 -25t-17.5 -80h-176q2 141 59 220.5t186 79.5q119 0 178.5 -72.5t59.5 -190.5
q0 -77 -38.5 -140.5t-91.5 -78.5q63 -6 110 -64.5t47 -168.5q0 -77 -29.5 -140t-90 -100t-152.5 -37zM169 0l437 949l298 772h157l-387 -819l-348 -902h-157zM927 -13q-114 0 -195 70.5t-81 202.5q0 111 49 171.5t131 68.5q-80 15 -116.5 77.5t-36.5 137.5q0 120 63.5 192
t185.5 72q123 0 186.5 -72t63.5 -192q0 -78 -37 -140t-115 -77q77 -6 128 -65.5t51 -172.5q0 -88 -38 -149t-100.5 -92.5t-138.5 -31.5zM927 178q38 0 68 29t30 86q0 63 -27.5 92.5t-70.5 29.5q-41 0 -69 -28t-28 -94q0 -57 29 -86t68 -29zM927 577q42 0 58.5 33.5
t16.5 80.5q0 55 -21.5 81t-53.5 26t-53 -25t-21 -82q0 -46 17 -80t57 -34z" />
    <glyph glyph-name="fiveeighths.ss19" 
d="M270 742q-68 0 -129.5 36t-98 105.5t-31.5 170.5h175q2 -64 25.5 -90.5t57.5 -26.5q49 0 63 44t14 117q0 70 -21.5 96.5t-47.5 26.5q-43 0 -60.5 -25t-20.5 -54l-174 60l41 512h421v-199h-281l-38 -280q10 45 30 78t51 53q19 13 42 19t47 6q48 0 93.5 -27.5t75 -90.5
t29.5 -170q0 -166 -74 -263.5t-189 -97.5zM143 0l437 949l298 772h157l-387 -819l-348 -902h-157zM913 -13q-114 0 -195.5 70.5t-81.5 202.5q0 111 49.5 171.5t130.5 68.5q-79 15 -115.5 77.5t-36.5 137.5q0 120 63 192t186 72t186.5 -72t63.5 -192q0 -78 -37.5 -140
t-114.5 -77q77 -6 128 -65.5t51 -172.5q0 -88 -38 -149t-101 -92.5t-138 -31.5zM913 178q38 0 68 29t30 86q0 63 -28 92.5t-70 29.5q-41 0 -69 -28t-28 -94q0 -57 29 -86t68 -29zM913 577q42 0 58 33.5t16 80.5q0 55 -21.5 81t-52.5 26q-32 0 -53 -25t-21 -82
q0 -46 16.5 -80t57.5 -34z" />
    <glyph glyph-name="seveneighths.ss19" 
d="M125 0l437 949l298 772h157l-387 -819l-348 -902h-157zM895 178q38 0 68 29t30 86q0 63 -27.5 92.5t-70.5 29.5q-41 0 -69 -28t-28 -94q0 -57 29 -86t68 -29zM895 -13q-114 0 -195 70.5t-81 202.5q0 111 49 171.5t131 68.5q-80 15 -116.5 77.5t-36.5 137.5q0 120 63 192
t186 72t186.5 -72t63.5 -192q0 -78 -37 -140t-115 -77q77 -6 128 -65.5t51 -172.5q0 -88 -38 -149t-100.5 -92.5t-138.5 -31.5zM164 754l183 663q11 37 29.5 59.5t41.5 34.5h-325v203h512l-233 -960h-208zM895 577q42 0 58.5 33.5t16.5 80.5q0 55 -21.5 81t-53.5 26t-53 -25
t-21 -82q0 -46 17 -80t57 -34z" />
    <glyph glyph-name="zero_part." 
d="M600 -30q-173 0 -288.5 76t-173.5 243t-58 441q0 268 58 434t174 242.5t288 76.5q173 0 288.5 -76.5t173.5 -242.5t58 -434q0 -274 -58 -441t-173.5 -243t-288.5 -76zM600 219q63 0 110.5 20.5t79.5 74.5t48 155t16 261q0 158 -16 257t-48 152.5t-79.5 73.5t-110.5 20
t-110.5 -20t-79.5 -73.5t-48 -152.5t-16 -257q0 -160 16 -261t48 -155t79.5 -74.5t110.5 -20.5z" />
    <glyph glyph-name="period" unicode="." 
d="M601 -20q-79 0 -134 56.5t-55 149.5q0 92 55 148.5t134 56.5q78 0 132.5 -56.5t54.5 -148.5q0 -93 -54.5 -149.5t-132.5 -56.5z" />
    <glyph glyph-name="comma" unicode="," 
d="M469 -587v216h39q26 0 43.5 24.5t26.5 77.5t9 138q0 63 17 94t71 37h-212v383h337v-489q0 -154 -28.5 -261.5t-91.5 -163.5t-165 -56h-46z" />
    <glyph glyph-name="colon" unicode=":" 
d="M601 -20q-79 0 -134 56.5t-55 149.5q0 92 55 148.5t134 56.5q78 0 132.5 -56.5t54.5 -148.5q0 -93 -54.5 -149.5t-132.5 -56.5zM601 717q-79 0 -134 56.5t-55 149.5q0 92 55 148.5t134 56.5q78 0 132.5 -56.5t54.5 -148.5q0 -93 -54.5 -149.5t-132.5 -56.5z" />
    <glyph glyph-name="semicolon" unicode=";" 
d="M611 717q-79 0 -134 56.5t-55 149.5q0 92 55 148.5t134 56.5q78 0 132.5 -56.5t54.5 -148.5q0 -93 -54.5 -149.5t-132.5 -56.5zM469 -587v216h39q26 0 43.5 24.5t26.5 77.5t9 138q0 63 17 94t71 37h-212v383h337v-489q0 -154 -28.5 -261.5t-91.5 -163.5t-165 -56h-46z
" />
    <glyph glyph-name="ellipsis" unicode="&#x2026;" 
d="M185 -20q-87 0 -125.5 50t-38.5 162t38.5 161.5t125.5 49.5q88 0 126.5 -49.5t38.5 -161.5t-38.5 -162t-126.5 -50zM1015 -20q-88 0 -126.5 50t-38.5 162t38.5 161.5t126.5 49.5t126 -49.5t38 -161.5t-38 -162t-126 -50zM598 -20q-87 0 -125.5 50t-38.5 162t38.5 161.5
t125.5 49.5q88 0 126.5 -49.5t37.5 -161.5q1 -112 -37.5 -162t-126.5 -50z" />
    <glyph glyph-name="exclam" unicode="!" 
d="M504 583l-42 651l-26 466h328l-26 -466l-42 -651h-192zM600 -20q-78 0 -133 56.5t-55 149.5q0 92 55 148.5t133 56.5q79 0 133.5 -56.5t54.5 -148.5q0 -93 -54.5 -149.5t-133.5 -56.5z" />
    <glyph glyph-name="exclamdown" unicode="&#xa1;" 
d="M504 1078h192l42 -651l26 -466h-328l26 466zM600 1681q79 0 133.5 -56.5t54.5 -149.5q0 -91 -54.5 -148t-133.5 -57q-78 0 -133 57t-55 148q0 93 55 149.5t133 56.5z" />
    <glyph glyph-name="question" unicode="?" 
d="M453 547q-7 24 -11 69t-4 100q0 70 29.5 121t75.5 90.5t98 74t98 71.5t75 82.5t29 107.5q0 53 -26 100.5t-78 78t-128 30.5q-101 0 -162 -41t-86 -113t-19 -166h-257q-15 108 6 208t83 179t168.5 125t263.5 46q138 0 236.5 -37.5t161 -100t92 -137.5t29.5 -151
q0 -99 -32 -167.5t-82 -116.5t-107 -84.5t-107 -71.5t-82 -76.5t-32 -101.5q0 -47 0.5 -71.5t2.5 -47.5h-235zM582 -20q-78 0 -132.5 56.5t-54.5 149.5q0 92 54.5 148.5t132.5 56.5q79 0 133.5 -56.5t54.5 -148.5q0 -93 -54.5 -149.5t-133.5 -56.5z" />
    <glyph glyph-name="questiondown" unicode="&#xbf;" 
d="M753 1104q7 -24 11 -69t4 -100q0 -70 -29.5 -121t-75.5 -90.5t-98 -74t-98 -71.5t-75 -82.5t-29 -107.5q0 -52 26 -100t78 -78.5t128 -30.5q102 0 162.5 41t86 113.5t18.5 165.5h257q15 -108 -6 -208t-83 -179t-168.5 -125t-263.5 -46q-138 0 -236.5 37.5t-161 100
t-92 137.5t-29.5 151q0 99 32 167.5t82 116.5t107 84.5t107 71.5t82 76.5t32 101.5v72t-3 47h235zM624 1671q79 0 133 -56.5t54 -149.5q0 -91 -54 -148t-133 -57q-78 0 -133 57t-55 148q0 93 55 149.5t133 56.5z" />
    <glyph glyph-name="periodcentered" unicode="&#xb7;" 
d="M601 537q-79 0 -134 56.5t-55 149.5q0 92 55 148.5t134 56.5q78 0 132.5 -56.5t54.5 -148.5q0 -93 -54.5 -149.5t-132.5 -56.5z" />
    <glyph glyph-name="bullet" unicode="&#x2022;" 
d="M600 503q-103 0 -170.5 70.5t-67.5 178.5q0 107 67.5 178t170.5 71q104 0 171.5 -71t67.5 -178q0 -108 -67.5 -178.5t-171.5 -70.5z" />
    <glyph glyph-name="asterisk" unicode="*" 
d="M405 417l-229 167l340 316l-462 54l88 270l406 -225l-89 455h284l-91 -455l406 225l88 -270l-462 -54l340 -316l-229 -167l-195 422z" />
    <glyph glyph-name="numbersign" unicode="#" 
d="M545 20l318 1404h203l-317 -1404h-204zM54 353v159h988v-159h-988zM134 20l317 1404h203l-317 -1404h-203zM139 902v159h1007v-159h-1007z" />
    <glyph glyph-name="slash" unicode="/" 
d="M161 -195l643 1886h235l-643 -1886h-235z" />
    <glyph glyph-name="backslash" unicode="\" 
d="M1039 -195h-235l-643 1886h235z" />
    <glyph glyph-name="asterisk.ss15" 
d="M459 382l88 443l-331 -282l-140 230l417 145l-415 157l138 222l332 -285l-89 442h280l-87 -443l332 284l140 -228l-415 -149l415 -145l-140 -230l-332 282l90 -443h-283z" />
    <glyph glyph-name="asterisk.ss16" 
d="M459 438l89 456l-406 -225l-88 269l462 55l-340 315l229 167l195 -422l195 422l229 -167l-340 -315l462 -55l-88 -269l-406 225l91 -456h-284z" />
    <glyph glyph-name="parenleft" unicode="(" 
d="M715 -250q-107 68 -189.5 174t-138 236t-83.5 271t-28 277q0 134 28 274t83.5 270.5t138 238t189.5 175.5h289q-111 -79 -197.5 -188.5t-146 -237t-90.5 -263.5t-31 -269q0 -187 54.5 -365t158.5 -330.5t252 -262.5h-289z" />
    <glyph glyph-name="parenright" unicode=")" 
d="M274 -250q148 110 252 262.5t158.5 330.5t54.5 365q0 133 -31 269t-90.5 263.5t-146 237t-197.5 188.5h289q107 -68 189.5 -175.5t138 -238t84 -270.5t28.5 -274q0 -136 -28.5 -277t-84 -271t-138 -236t-189.5 -174h-289z" />
    <glyph glyph-name="braceleft" unicode="{" 
d="M644 -254q-76 0 -142.5 21.5t-110.5 66t-57 112.5t16 162l100 317q20 65 5 102t-51 57q-21 10 -48 16.5t-67.5 9.5t-102.5 4v197q46 0 83 1.5t68.5 6.5t58.5 14q46 17 61.5 53t-8.5 111l-98 310q-29 92 -15.5 160.5t57.5 113.5t109.5 67t141.5 22h366v-224h-278
q-95 0 -132.5 -51t-0.5 -147l99 -264q26 -68 11 -122.5t-81.5 -92.5t-194.5 -58q128 -16 193.5 -54t80.5 -92t-9 -121l-99 -277q-23 -66 -13.5 -110.5t48 -65.5t98.5 -21h278v-224h-366z" />
    <glyph glyph-name="braceright" unicode="}" 
d="M556 -254h-366v224h278q61 0 99 21t48 65.5t-14 110.5l-99 277q-24 67 -9 121t80.5 92t193.5 54q-128 20 -194.5 58t-81.5 92.5t11 122.5l99 264q37 96 0 147t-133 51h-278v224h366q76 0 141.5 -22t109.5 -67t57.5 -113.5t-15.5 -160.5l-98 -310q-24 -75 -8.5 -111
t61.5 -53q27 -9 58.5 -14t69 -6.5t82.5 -1.5v-197q-61 -1 -102 -4t-68 -9.5t-48 -16.5q-36 -20 -51 -57t5 -102l100 -317q29 -94 16 -162t-57 -112.5t-110 -66t-143 -21.5z" />
    <glyph glyph-name="bracketleft" unicode="[" 
d="M247 -250v1916h692v-224h-541l100 133v-1728l-100 127h541v-224h-692z" />
    <glyph glyph-name="bracketright" unicode="]" 
d="M953 -250h-692v224h541l-100 -127v1728l100 -133h-541v224h692v-1916z" />
    <glyph glyph-name="hyphen" unicode="-" 
d="M196 598v244h808v-244h-808z" />
    <glyph glyph-name="uni00AD" unicode="&#xad;" 
d="M196 598v244h808v-244h-808z" />
    <glyph glyph-name="endash" unicode="&#x2013;" 
d="M125 598v244h950v-244h-950z" />
    <glyph glyph-name="emdash" unicode="&#x2014;" 
d="M0 598v244h1200l-2 -244h-1198z" />
    <glyph glyph-name="underscore" unicode="_" 
d="M-4 -255v204h1208v-204h-1208z" />
    <glyph glyph-name="quotesinglbase" unicode="&#x201a;" 
d="M474 -500v196h49q30 0 46.5 18t23 55.5t6.5 97.5q0 64 16.5 94.5t66.5 36.5h-214v352h332v-423q0 -207 -64.5 -317t-215.5 -110h-46z" />
    <glyph glyph-name="quotedblbase" unicode="&#x201e;" 
d="M209 -491v196h49q30 0 46.5 17.5t23 53.5t6.5 92q0 63 16.5 94t66.5 37h-214v352h332v-433q0 -129 -28 -220.5t-89.5 -140t-162.5 -48.5h-46zM672 -491v196h49q30 0 46.5 17.5t23 53.5t6.5 92q0 63 16.5 94t66.5 37h-214v352h332v-433q0 -129 -28 -220.5t-89.5 -140
t-162.5 -48.5h-46z" />
    <glyph glyph-name="quotedblleft" unicode="&#x201c;" 
d="M991 1558v-196h-49q-29 0 -45.5 -17t-23 -53t-6.5 -92q0 -63 -16.5 -94t-67.5 -37h215v-352h-332v433q0 129 27.5 220t89.5 139.5t163 48.5h45zM528 1558v-196h-49q-29 0 -45.5 -17t-23 -53t-6.5 -92q0 -63 -16.5 -94t-67.5 -37h215v-352h-332v433q0 129 27.5 220
t89.5 139.5t163 48.5h45z" />
    <glyph glyph-name="quotedblright" unicode="&#x201d;" 
d="M209 718v196h49q30 0 46.5 17.5t23 53.5t6.5 92q0 63 16.5 94t66.5 37h-214v352h332v-433q0 -129 -28 -220.5t-89.5 -140t-162.5 -48.5h-46zM672 718v196h49q30 0 46.5 17.5t23 53.5t6.5 92q0 63 16.5 94t66.5 37h-214v352h332v-433q0 -129 -28 -220.5t-89.5 -140
t-162.5 -48.5h-46z" />
    <glyph glyph-name="quoteleft" unicode="&#x2018;" 
d="M765 1559v-196h-49q-29 0 -46 -17.5t-23.5 -55.5t-6.5 -98q0 -63 -16 -94t-67 -37h215v-352h-332v424q0 207 64 316.5t216 109.5h45z" />
    <glyph glyph-name="quoteright" unicode="&#x2019;" 
d="M474 709v196h49q30 0 46.5 18t23 55.5t6.5 97.5q0 64 16.5 94.5t66.5 36.5h-214v352h332v-423q0 -207 -64.5 -317t-215.5 -110h-46z" />
    <glyph glyph-name="guillemotleft" unicode="&#xab;" 
d="M363 176l-248 373v8l248 373h257l-170 -265q-32 -52 -61.5 -75t-94.5 -37q66 -13 95 -36t61 -74l170 -267h-257zM825 177l-235 372v8l235 372h264l-170 -264q-32 -51 -59.5 -75t-91.5 -37q64 -13 92 -36.5t59 -73.5l170 -266h-264z" />
    <glyph glyph-name="guillemotright" unicode="&#xbb;" 
d="M108 177l170 266q31 50 59 73.5t91 36.5q-62 13 -90 37t-60 75l-170 264h264l235 -372v-8l-235 -372h-264zM579 176l170 267q32 51 61 74t96 36q-65 14 -94.5 37t-62.5 75l-170 265h258l247 -373v-8l-247 -373h-258z" />
    <glyph glyph-name="guilsinglleft" unicode="&#x2039;" 
d="M558 174l-237 375v8l237 375h277l-183 -286q-26 -39 -47.5 -60t-64.5 -33q44 -12 65.5 -32.5t46.5 -60.5l183 -286h-277z" />
    <glyph glyph-name="guilsinglright" unicode="&#x203a;" 
d="M365 174l183 286q25 40 46.5 60.5t65.5 32.5q-43 12 -64.5 33t-47.5 60l-183 286h277l237 -375v-8l-237 -375h-277z" />
    <glyph glyph-name="quotedbl" unicode="&#x22;" 
d="M259 713l-36 843h264l-36 -843h-192zM749 713l-36 843h264l-36 -843h-192z" />
    <glyph glyph-name="quotesingle" unicode="'" 
d="M504 713l-36 843h264l-36 -843h-192z" />
    <glyph glyph-name="space" unicode=" " 
 />
    <glyph glyph-name="uni00A0" unicode="&#xa0;" 
 />
    <glyph glyph-name="uni200B" unicode="&#x200b;" horiz-adv-x="0" 
 />
    <glyph glyph-name="CR" unicode="&#xd;" 
 />
    <glyph glyph-name="cent" unicode="&#xa2;" 
d="M636 -19q-162 0 -275 71.5t-171.5 200t-58.5 297.5q0 176 60 301.5t171 193t261 67.5q154 0 255 -59.5t151 -159.5t48 -224h-269q0 54 -12 95t-35.5 69.5t-57.5 43t-79 14.5q-115 0 -168 -87.5t-53 -248.5q0 -181 60 -266.5t177 -85.5q45 0 83.5 14t63 44t24.5 76h263
q3 -108 -53 -188t-155.5 -124t-229.5 -44zM518 1044v220h229v-220h-229zM518 -187v229h229v-229h-229z" />
    <glyph glyph-name="currency" unicode="&#xa4;" 
d="M599 309q-120 0 -218 59.5t-155.5 160t-57.5 223.5q0 127 57 226.5t154.5 156.5t219.5 57t220.5 -58t155.5 -158t57 -224q0 -127 -56 -227t-154 -158t-223 -58zM599 536q80 0 138 60t58 156t-59.5 155t-136.5 59q-82 0 -138.5 -58.5t-56.5 -155.5q0 -95 58 -155.5
t137 -60.5zM272 210l-163 165l264 268l162 -164zM929 210l-264 269l162 164l264 -268zM373 849l-264 268l163 165l263 -269zM827 849l-162 164l264 269l162 -165z" />
    <glyph glyph-name="dollar" unicode="$" 
d="M499 -183v218h229v-218h-229zM500 1419v220h228v-220h-228zM616 8q-141 0 -252 50.5t-176.5 153.5t-72.5 260h247q7 -77 40.5 -128.5t91.5 -77.5t133 -26q64 0 110.5 18.5t71 53.5t24.5 83q0 50 -26.5 85.5t-89 69t-169.5 73.5q-117 45 -204 102t-134.5 138t-47.5 198
q0 130 58 216.5t160 129.5t233 43q214 0 317 -106t121 -311h-247q-4 61 -25 102t-62.5 62t-108.5 21q-85 0 -138 -38t-53 -114q0 -45 19 -81.5t72.5 -71.5t156.5 -77q87 -36 164 -69.5t136.5 -77t93 -109t34.5 -166.5q1 -199 -126.5 -302.5t-350.5 -103.5z" />
    <glyph glyph-name="Euro" unicode="&#x20ac;" 
d="M669 -28q-170 0 -289.5 90.5t-183 263.5t-63.5 419q0 236 63 400.5t183 250t292 85.5q149 0 251 -54.5t158 -155t63 -239.5h-280q0 60 -23 104t-66.5 67.5t-106.5 23.5q-115 0 -183 -116t-68 -370q0 -188 31.5 -301.5t88.5 -164t135 -50.5q67 0 110 29.5t63 66.5t19 58
h282q1 -106 -56 -199t-164.5 -150.5t-255.5 -57.5zM10 448v196h700v-196h-700zM41 790v196h703v-196h-703z" />
    <glyph glyph-name="sterling" unicode="&#xa3;" 
d="M96 0v245q95 39 152 94t83 114.5t26 110.5q0 61 -18.5 108t-46 88t-54.5 86t-46 101.5t-19 134.5q0 119 56.5 209.5t164.5 141.5t263 51q144 0 245 -56.5t154 -153.5t53 -219q0 -27 -2 -51.5t-6 -46.5h-279q4 25 5 45.5t1 44.5q0 58 -18 101t-57.5 67t-103.5 24
q-62 0 -108.5 -17.5t-71.5 -55t-25 -99.5q0 -67 20 -119t46 -100t46.5 -101.5t20.5 -123.5q0 -105 -35 -169.5t-73 -99.5q-45 -42 -115.5 -73.5t-137.5 -35.5zM96 0v245h1005v-245h-1005zM165 552v189h747v-189h-747z" />
    <glyph glyph-name="yen" unicode="&#xa5;" 
d="M437 594l-421 860h309l159 -383l109 -262h14l109 262l158 383h310l-424 -860h-323zM461 0v705h277v-705h-277zM130 591v207h940v-207h-940zM130 185v206h940v-206h-940z" />
    <glyph glyph-name="uni2215" unicode="&#x2215;" 
d="M161 -195l643 1886h235l-643 -1886h-235z" />
    <glyph glyph-name="plus" unicode="+" 
d="M475 207v326q0 43 20 74t61 36l-81 70v153v445h253v-1104h-253zM73 643v234h1054v-234h-1054z" />
    <glyph glyph-name="minus" unicode="&#x2212;" 
d="M124 640v240h952v-240h-952z" />
    <glyph glyph-name="multiply" unicode="&#xd7;" 
d="M350 305l-177 182l303 291l96 92l282 319l177 -180l-313 -302l-81 -80zM854 305l-287 322l-93 95l-301 287l179 180l278 -319l93 -85l306 -297z" />
    <glyph glyph-name="divide" unicode="&#xf7;" 
d="M134 640v240h932v-240h-932zM601 966q-66 0 -113 46.5t-47 119.5t47 119t113 46t112.5 -46t46.5 -119t-46.5 -119.5t-112.5 -46.5zM601 222q-66 0 -113 47t-47 120q0 72 47 119t113 47t112.5 -47t46.5 -119q0 -73 -46.5 -120t-112.5 -47z" />
    <glyph glyph-name="equal" unicode="=" 
d="M161 400v234h878v-234h-878zM161 862v234h878v-234h-878z" />
    <glyph glyph-name="greater" unicode="&#x3e;" 
d="M215 131v286l378 225l201 109v5l-201 111l-378 223v286l827 -486v-266z" />
    <glyph glyph-name="less" unicode="&#x3c;" 
d="M985 131l-827 493v266l827 486v-286l-378 -223l-201 -111v-5l201 -109l378 -225v-286z" />
    <glyph glyph-name="plusminus" unicode="&#xb1;" 
d="M148 7v240h952v-240h-952zM487 207v326q0 43 20 74t61 36l-81 70v153v445h253v-1104h-253zM85 643v234h1054v-234h-1054z" />
    <glyph glyph-name="approxequal" unicode="&#x2248;" 
d="M805 244q-64 0 -111 22.5t-82.5 55.5t-66.5 66.5t-62.5 55.5t-70.5 22q-44 0 -67 -25t-28 -74.5t4 -121.5h-212q-17 121 1 206t61 138t101.5 77.5t121.5 24.5q71 0 121 -22.5t86 -55.5t65 -67t58 -56t64 -22q50 0 74 26.5t26.5 79t-15.5 127.5h215q28 -126 11.5 -213.5
t-62.5 -141t-108 -78t-124 -24.5zM805 747q-64 0 -111 22.5t-82.5 55.5t-66.5 66.5t-62.5 55.5t-70.5 22q-44 0 -67 -25t-28 -74.5t4 -121.5h-212q-17 121 1 206t61 138t101.5 77.5t121.5 24.5q71 0 121 -22.5t86 -55.5t65 -67t58 -56t64 -22q50 0 74 26.5t26.5 79
t-15.5 127.5h215q28 -126 11.5 -213.5t-62.5 -141t-108 -78t-124 -24.5z" />
    <glyph glyph-name="asciitilde" unicode="~" 
d="M805 494q-64 0 -111 22.5t-82.5 55.5t-66.5 66.5t-62.5 55.5t-70.5 22q-44 0 -67 -25t-28 -74.5t4 -121.5h-212q-17 121 1 206t61 138t101.5 77.5t121.5 24.5q71 0 121 -22.5t86 -55.5t65 -67t58 -56t64 -22q50 0 74 26.5t26.5 79t-15.5 127.5h215q28 -126 11.5 -213.5
t-62.5 -141t-108 -78t-124 -24.5z" />
    <glyph glyph-name="logicalnot" unicode="&#xac;" 
d="M798 297v226q0 58 33.5 87t94.5 34h-759v239h866v-586h-235z" />
    <glyph glyph-name="asciicircum" unicode="^" 
d="M136 545l310 909h303l316 -909h-278l-145 517l-40 153h-8l-40 -154l-141 -516h-277z" />
    <glyph glyph-name="infinity" unicode="&#x221e;" 
d="M286 418q-125 0 -205 92.5t-80 245.5q0 101 34.5 180t94.5 124.5t137 45.5q78 0 137 -31.5t105.5 -85.5t84.5 -120l20 -39q24 106 71 168.5t107 90.5t121 28q126 0 206 -92t80 -247q0 -101 -34.5 -177.5t-94.5 -119.5t-137 -43q-112 0 -191 56t-136 156l-20 44
q-24 -105 -71.5 -165t-107 -85.5t-121.5 -25.5zM347 608q34 0 74 12.5t75 41.5t53 79l-20 29q-49 72 -104.5 108.5t-114.5 36.5q-48 0 -79.5 -43t-31.5 -116q0 -80 45.5 -114t102.5 -34zM893 619q51 0 77.5 44t26.5 115q0 81 -41.5 115.5t-100.5 34.5q-38 0 -80 -13
t-76.5 -42t-50.5 -78l22 -30q51 -71 106 -108.5t117 -37.5z" />
    <glyph glyph-name="uni00B5" unicode="&#xb5;" 
d="M600 -15q-43 0 -72.5 12.5t-48 35.5t-30.5 54.5t-21 68.5l-274 212v724h275v-644q0 -60 10 -102.5t30 -69t52 -39t78 -12.5q42 0 77.5 15t61.5 47.5t38 84.5v720h276v-1092h-241l-27 314l14 -45q-11 -161 -58.5 -222.5t-139.5 -61.5zM154 -324v692l275 31l-1 -723h-274z
" />
    <glyph glyph-name="percent" unicode="%" 
d="M258 0l543 1454h135l-540 -1454h-138zM281 859q50 0 76.5 56.5t26.5 163.5q0 104 -27.5 159.5t-78.5 55.5q-48 0 -74 -55.5t-26 -160.5q0 -106 26.5 -162.5t76.5 -56.5zM278 688q-130 0 -199.5 102t-69.5 294q0 189 70 289t203 100q131 0 201 -100t70 -289
q0 -192 -71 -294t-204 -102zM921 154q50 0 76.5 56.5t26.5 163.5q0 105 -27.5 160.5t-79.5 55.5q-48 0 -74 -55.5t-26 -160.5q0 -107 27 -163.5t77 -56.5zM917 -17q-132 0 -201.5 102t-69.5 294q0 190 71 289.5t203 99.5t202 -99.5t70 -289.5q0 -192 -70.5 -294t-204.5 -102
z" />
    <glyph glyph-name="plus.alt" horiz-adv-x="2400" 
d="M1927 877h400v-234h-400v-436h-252l-1 326q0 42 20 73t60 37h-1026v-436h-253v326q0 42 20 73t60 37h-482v234h402v434h253v-434h946v434h253v-434z" />
    <glyph glyph-name="equal.alt" horiz-adv-x="2400" 
d="M2230 1090v-230h-2060v230h2060zM170 637h2060v-230h-2060v230z" />
    <glyph glyph-name="at" unicode="@" 
d="M607 -298q-305 0 -446.5 199t-141.5 614q0 443 149.5 655t472.5 212q281 0 410.5 -170t129.5 -513q0 -316 -75 -462t-243 -146q-91 0 -127 61.5t-20 189.5q2 19 6.5 50t9.5 78h-7q-38 -189 -89 -279.5t-120 -90.5q-109 0 -160.5 92t-51.5 284q0 268 87 396t247 128
q50 0 87 -14t59 -32h124q-25 -311 -37 -456.5t-12 -137.5q0 -80 26 -80q73 0 112 99t39 320q0 257 -98.5 389t-298.5 132q-238 0 -354.5 -173.5t-116.5 -537.5q0 -340 112.5 -492.5t341.5 -152.5q144 0 274 98l9 -166q-116 -94 -298 -94zM556 307q76 0 115 110.5t45 341.5
q-30 43 -74 43q-71 0 -105 -78t-34 -242q0 -175 53 -175z" />
    <glyph glyph-name="ampersand" unicode="&#x26;" 
d="M559 -19q-118 0 -209 34.5t-152.5 93.5t-93 133.5t-31.5 153.5q0 134 52.5 212t129.5 112.5t150 37.5l147 40q69 31 101 85t41 114.5t9 109.5q0 39 -12 73.5t-41 56.5t-81 22q-51 0 -83 -24t-46.5 -60t-14.5 -72q0 -84 42 -152t100 -138l23 -33l310 -408l59 -72l225 -300
h-265l-93 128l-62 86l-365 498l-24 33q-38 46 -79.5 99t-69.5 120t-28 153q0 107 47.5 188.5t133 127.5t198.5 46q96 0 176 -43.5t128.5 -122.5t48.5 -185q0 -86 -37.5 -156.5t-118.5 -121t-213 -78.5l-145 -35q-48 -18 -73.5 -60t-35 -97t-9.5 -116q0 -65 32 -123t94 -94.5
t151 -36.5q64 0 105.5 13.5t69.5 34t52 40.5l72 80q19 33 29.5 76t15 96.5t4.5 117.5l217 1q0 -94 -19 -183.5t-52.5 -161.5t-77.5 -115l-65 -55q-52 -88 -149.5 -130.5t-217.5 -42.5z" />
    <glyph glyph-name="paragraph" unicode="&#xb6;" 
d="M479 0v406q0 49 7.5 82.5t38 54t97.5 31.5h-153q-145 0 -236 58t-134 160.5t-43 236.5q0 213 113 319t313 106h231v-1454h-234zM852 0v1454h234v-1454h-234z" />
    <glyph glyph-name="section" unicode="&#xa7;" 
d="M600 -17q-143 0 -249 39.5t-166 120t-67 201.5h281q9 -69 57.5 -112t148.5 -43q55 0 100.5 10t73.5 34t28 66q0 43 -32 65t-89.5 38.5t-133.5 40.5q-84 27 -153.5 54.5t-120 60.5t-78.5 78.5t-28 108.5q0 105 89.5 166.5t276.5 61.5l29 -11q-36 1 -69 -18t-53.5 -52.5
t-20.5 -77.5q0 -43 30.5 -74t88.5 -54.5t138 -44.5q61 -16 130.5 -37.5t130 -56.5t99 -91t38.5 -141q0 -105 -59 -179.5t-166.5 -113.5t-253.5 -39zM666 628l-32 19q79 0 128 39.5t49 103.5q0 51 -31.5 76.5t-87.5 42t-131 37.5q-106 30 -192 73.5t-137 111t-51 165.5
q0 104 54 174.5t150 107t224 36.5q114 0 207.5 -32.5t153 -109t72.5 -207.5l-272 2q-9 37 -29 70.5t-53.5 55t-85.5 21.5q-75 0 -115 -28.5t-40 -80.5q0 -40 26.5 -67.5t81 -49t135.5 -44.5q72 -19 139.5 -42t121 -54t85.5 -75t32 -108q0 -88 -56.5 -139.5t-148 -74.5
t-197.5 -23z" />
    <glyph glyph-name="copyright" unicode="&#xa9;" 
d="M600 266q-273 0 -419 155.5t-146 448.5q0 288 146 441t420 153q273 0 419 -153t146 -441q0 -293 -146 -448.5t-420 -155.5zM600 362q222 0 341 130.5t119 375.5q0 243 -118.5 371.5t-340.5 128.5t-341 -128.5t-119 -371.5q0 -245 118.5 -375.5t340.5 -130.5zM607 505
q-161 0 -241.5 97.5t-80.5 267.5q0 167 80.5 259t239.5 92q153 0 228 -75t72 -191h-204q0 51 -23.5 75.5t-73.5 24.5q-62 0 -89.5 -42.5t-27.5 -139.5q0 -104 28 -148t91 -44q42 0 72 19t28 78h204q0 -127 -80 -200t-223 -73z" />
    <glyph glyph-name="registered" unicode="&#xae;" 
d="M343 524v682h189l-2 -682h-187zM702 524l-100 237h-78l-32 6l14 117v13h95q47 0 74 18t27 69q0 55 -29 66.5t-59 11.5h-91l-49 60l19 84h30.5h40.5h73q120 0 186.5 -52.5t66.5 -158.5q1 -57 -23 -105.5t-72.5 -78t-122.5 -31.5l-52 18q63 0 101 -4t58.5 -15t32.5 -34
l112 -221h-222zM600 266q-273 0 -419 155.5t-146 448.5q0 288 146 441t420 153q273 0 419 -153t146 -441q0 -293 -146 -448.5t-420 -155.5zM600 362q222 0 341 130.5t119 375.5q0 243 -118.5 371.5t-340.5 128.5t-341 -128.5t-119 -371.5q0 -245 118.5 -375.5t340.5 -130.5z
" />
    <glyph glyph-name="trademark" unicode="&#x2122;" 
d="M535 884v570h255l50 -218l13 -73l14 73l49 218h255v-570h-148v312l6 169h-2l-36 -153l-75 -218h-129l-72 218l-36 153h-2l7 -169v-312h-149zM153 884v539h154v-539h-154zM11 1304v150h437v-150h-437z" />
    <glyph glyph-name="degree" unicode="&#xb0;" 
d="M600 946q-143 0 -227.5 84.5t-84.5 228.5t85 227.5t229 83.5t227.5 -83.5t83.5 -227.5t-84.5 -228.5t-228.5 -84.5zM600 1097q71 0 110.5 43t39.5 119q0 77 -39.5 119.5t-110.5 41.5q-70 1 -109.5 -41.5t-39.5 -119.5q0 -76 39.5 -119t109.5 -43z" />
    <glyph glyph-name="bar" unicode="|" 
d="M481 -256v1956h239v-1956h-239z" />
    <glyph glyph-name="brokenbar" unicode="&#xa6;" 
d="M481 867v833h239v-833h-239zM481 -256v833h239v-833h-239z" />
    <glyph glyph-name="dagger" unicode="&#x2020;" 
d="M486 153l-12 1454h251l-12 -1454h-227zM209 1244h783v-240h-783v240z" />
    <glyph glyph-name="daggerdbl" unicode="&#x2021;" 
d="M486 153l-12 1454h251l-12 -1454h-227zM209 1282h783v-240h-783v240zM209 792h783v-240h-783v240z" />
    <glyph glyph-name="estimated" unicode="&#x212e;" 
d="M600 0q-163 0 -288.5 90t-197 253.5t-71.5 386.5q0 220 71.5 384.5t197 256.5t288.5 92q246 0 396 -193.5t160 -558.5h-885q-10 0 -16 -5.5t-6 -32.5v-358q0 -28 25 -71t71.5 -86t111 -72t143.5 -29q105 0 198.5 53t153.5 180h104q-66 -104 -131 -168t-143 -93t-182 -29z
M271 756h654q16 0 20 7.5t4 26.5v351q0 78 -54.5 139t-135.5 96.5t-161 35.5q-100 0 -179 -42.5t-124.5 -102t-45.5 -111.5v-381q0 -19 22 -19z" />
    <glyph glyph-name="uni0308" unicode="&#x308;" horiz-adv-x="0" 
d="M376 1268q-61 0 -108.5 46t-47.5 123q0 71 47.5 119t108.5 48q63 0 110.5 -47.5t47.5 -119.5q0 -77 -48 -123t-110 -46zM824 1268q-62 0 -109.5 46t-47.5 123q0 72 47.5 119.5t109.5 47.5q63 0 109.5 -48t46.5 -119q0 -77 -47 -123t-109 -46z" />
    <glyph glyph-name="uni0307" unicode="&#x307;" horiz-adv-x="0" 
d="M600 1278q-76 0 -130 50.5t-54 135.5q0 88 54 139t130 51t130 -51t54 -139q0 -85 -54.5 -135.5t-129.5 -50.5z" />
    <glyph glyph-name="gravecomb" unicode="&#x300;" horiz-adv-x="0" 
d="M725 1284h-267l-242 335h300z" />
    <glyph glyph-name="acutecomb" unicode="&#x301;" horiz-adv-x="0" 
d="M457 1284l209 335h302l-242 -335h-269z" />
    <glyph glyph-name="uni030B" unicode="&#x30b;" horiz-adv-x="0" 
d="M686 1284l212 340h263l-229 -340h-246zM276 1284l173 340h267l-202 -340h-238z" />
    <glyph glyph-name="uni030C.alt" horiz-adv-x="0" 
d="M145 1183l11 376h228l-35 -376h-204z" />
    <glyph glyph-name="uni0302" unicode="&#x302;" horiz-adv-x="0" 
d="M234 1282l231 338h270l231 -338h-220l-146 187l-147 -187h-219z" />
    <glyph glyph-name="uni030C" unicode="&#x30c;" horiz-adv-x="0" 
d="M465 1275l-231 337h219l147 -187l146 187h220l-231 -337h-270z" />
    <glyph glyph-name="uni0306" unicode="&#x306;" horiz-adv-x="0" 
d="M600 1266q-154 0 -245 83t-79 245h200q-5 -58 9.5 -93.5t44.5 -51.5t70 -16t70 16t45 51.5t9 93.5h200q12 -162 -79 -245t-245 -83z" />
    <glyph glyph-name="uni030A" unicode="&#x30a;" horiz-adv-x="0" 
d="M601 1255q-122 0 -191.5 68t-69.5 179t69.5 178.5t191.5 67.5q123 0 191.5 -67.5t68.5 -178.5t-68.5 -179t-191.5 -68zM601 1395q47 0 75.5 28t28.5 80q0 49 -28.5 77.5t-75.5 28.5t-75 -28.5t-28 -78.5q0 -51 28 -79t75 -28z" />
    <glyph glyph-name="tildecomb" unicode="&#x303;" horiz-adv-x="0" 
d="M751 1267q-67 0 -109.5 23.5t-71 55t-51.5 55t-52 23.5q-43 0 -63.5 -44t-6.5 -115h-191q-19 163 47.5 250.5t196.5 87.5q67 0 109 -23.5t70 -55t50.5 -55t51.5 -23.5q44 0 65.5 41.5t8.5 115.5h188q19 -168 -47.5 -252t-194.5 -84z" />
    <glyph glyph-name="uni0304" unicode="&#x304;" horiz-adv-x="0" 
d="M306 1294v216h588l-3 -216h-585z" />
    <glyph glyph-name="uni0312" unicode="&#x312;" horiz-adv-x="0" 
d="M181 1274v51q0 49 11 107t29 110t39 79h225q-22 -55 -32.5 -132.5t-10.5 -169.5v-45h-261z" />
    <glyph glyph-name="dotbelowcomb" unicode="&#x323;" horiz-adv-x="0" 
d="M600 -529q-76 0 -128.5 50.5t-52.5 132.5q0 84 52.5 134t128.5 50t128.5 -50t52.5 -134q0 -82 -53 -132.5t-128 -50.5z" />
    <glyph glyph-name="uni0326" unicode="&#x326;" horiz-adv-x="0" 
d="M453 -526q6 36 12 94.5t10 125t4 122.5v65h255v-78q0 -65 -7 -127t-18 -113.5t-23 -88.5h-233z" />
    <glyph glyph-name="uni0327" unicode="&#x327;" horiz-adv-x="0" 
d="M618 -479q-68 0 -122 11.5t-99 31.5l1 174q30 -13 64 -21.5t77 -8.5q57 0 79 23.5t22 77.5q0 57 -26.5 100.5t-94.5 90.5h178q48 -25 89.5 -60.5t67 -85t25.5 -114.5q0 -101 -75 -160t-186 -59z" />
    <glyph glyph-name="uni0328" unicode="&#x328;" horiz-adv-x="0" 
d="M621 -460q-115 0 -182 56t-67 150q0 82 68 155.5t208 98.5h158q-100 -51 -146 -92t-46 -98q0 -37 21.5 -58.5t59.5 -21.5q56 0 107 27l2 -179q-36 -17 -81 -27.5t-102 -10.5z" />
    <glyph glyph-name="uni032D" unicode="&#x32d;" horiz-adv-x="0" 
d="M253 -419l228 320h243l223 -320h-202l-143 193l-142 -193h-207z" />
    <glyph glyph-name="uni0331" unicode="&#x331;" horiz-adv-x="0" 
d="M323 -349v216h554l-3 -216h-551z" />
    <glyph glyph-name="dotaccent" unicode="&#x2d9;" 
d="M600 1278q-76 0 -130 50.5t-54 135.5q0 88 54 139t130 51t130 -51t54 -139q0 -85 -54.5 -135.5t-129.5 -50.5z" />
    <glyph glyph-name="dieresis" unicode="&#xa8;" 
d="M376 1268q-61 0 -108.5 46t-47.5 123q0 71 47.5 119t108.5 48q63 0 110.5 -47.5t47.5 -119.5q0 -77 -48 -123t-110 -46zM824 1268q-62 0 -109.5 46t-47.5 123q0 72 47.5 119.5t109.5 47.5q63 0 109.5 -48t46.5 -119q0 -77 -47 -123t-109 -46z" />
    <glyph glyph-name="grave" unicode="`" 
d="M626 1192l-334 631h265l310 -631h-241z" />
    <glyph glyph-name="acute" unicode="&#xb4;" 
d="M574 1192h-241l310 631h265z" />
    <glyph glyph-name="hungarumlaut" unicode="&#x2dd;" 
d="M721 1284l212 340h263l-229 -340h-246zM311 1284l173 340h267l-202 -340h-238z" />
    <glyph glyph-name="circumflex" unicode="&#x2c6;" 
d="M349 1282l231 338h270l231 -338h-220l-146 187l-147 -187h-219z" />
    <glyph glyph-name="caron" unicode="&#x2c7;" 
d="M619 1275l-231 337h219l147 -187l146 187h220l-231 -337h-270z" />
    <glyph glyph-name="breve" unicode="&#x2d8;" 
d="M800 1266q-154 0 -245 83t-79 245h200q-5 -58 9.5 -93.5t44.5 -51.5t70 -16t70 16t45 51.5t9 93.5h200q12 -162 -79 -245t-245 -83z" />
    <glyph glyph-name="ring" unicode="&#x2da;" 
d="M877 1255q-122 0 -191.5 68t-69.5 179t69.5 178.5t191.5 67.5q123 0 191.5 -67.5t68.5 -178.5t-68.5 -179t-191.5 -68zM877 1395q47 0 75.5 28t28.5 80q0 49 -28.5 77.5t-75.5 28.5t-75 -28.5t-28 -78.5q0 -51 28 -79t75 -28z" />
    <glyph glyph-name="tilde" unicode="&#x2dc;" 
d="M839 1267q-67 0 -109.5 23.5t-71 55t-51.5 55t-52 23.5q-43 0 -63.5 -44t-6.5 -115h-191q-19 163 47.5 250.5t196.5 87.5q67 0 109 -23.5t70 -55t50.5 -55t51.5 -23.5q44 0 65.5 41.5t8.5 115.5h188q19 -168 -47.5 -252t-194.5 -84z" />
    <glyph glyph-name="macron" unicode="&#xaf;" 
d="M524 1294v216h588l-3 -216h-585z" />
    <glyph glyph-name="cedilla" unicode="&#xb8;" 
d="M921 -479q-68 0 -122 11.5t-99 31.5l1 174q30 -13 64 -21.5t77 -8.5q57 0 79 23.5t22 77.5q0 57 -26.5 100.5t-94.5 90.5h178q48 -25 89.5 -60.5t67 -85t25.5 -114.5q0 -101 -75 -160t-186 -59z" />
    <glyph glyph-name="ogonek" unicode="&#x2db;" 
d="M977 -460q-115 0 -182 56t-67 150q0 82 68 155.5t208 98.5h158q-100 -51 -146 -92t-46 -98q0 -37 21.5 -58.5t59.5 -21.5q56 0 107 27l2 -179q-36 -17 -81 -27.5t-102 -10.5z" />
    <glyph glyph-name="uni0308.case" horiz-adv-x="0" 
d="M370 1573q-61 0 -108.5 46t-47.5 123q0 71 47.5 119t108.5 48q63 0 110.5 -47.5t47.5 -119.5q0 -77 -48 -123t-110 -46zM830 1573q-62 0 -109.5 46t-47.5 123q0 72 47.5 119.5t109.5 47.5t109 -48t47 -119q0 -77 -47 -123t-109 -46z" />
    <glyph glyph-name="uni0307.case" horiz-adv-x="0" 
d="M600 1578q-67 0 -117 46.5t-50 121.5q0 71 50 119t117 48q69 0 118 -48.5t49 -118.5q0 -75 -49.5 -121.5t-117.5 -46.5z" />
    <glyph glyph-name="gravecomb.case" horiz-adv-x="0" 
d="M463 1591l-242 321h305l210 -321h-273z" />
    <glyph glyph-name="acutecomb.case" horiz-adv-x="0" 
d="M734 1591h-274l210 321h306z" />
    <glyph glyph-name="uni030B.case" horiz-adv-x="0" 
d="M686 1591l170 321h274l-207 -321h-237zM265 1591l158 321h272l-195 -321h-235z" />
    <glyph glyph-name="uni0302.case" horiz-adv-x="0" 
d="M222 1587l258 325h241l257 -325h-228l-149 175l-150 -175h-229z" />
    <glyph glyph-name="uni030C.case" horiz-adv-x="0" 
d="M480 1585l-258 325h229l150 -175l149 175h228l-257 -325h-241z" />
    <glyph glyph-name="uni0306.case" horiz-adv-x="0" 
d="M601 1585q-162 0 -251 78t-82 249h210q-8 -80 22.5 -119.5t100.5 -39.5q68 0 99 39t23 120h210q5 -114 -34 -186.5t-115 -106.5t-183 -34z" />
    <glyph glyph-name="uni030A.case" horiz-adv-x="0" 
d="M600 1562q-109 0 -170.5 63t-61.5 162q0 97 61.5 159.5t170.5 62.5q110 0 171 -62.5t61 -159.5q0 -65 -27.5 -116t-79 -80t-125.5 -29zM600 1684q36 0 62 26t26 77t-26 76t-62 25q-35 0 -60.5 -25t-25.5 -76t25.5 -77t60.5 -26z" />
    <glyph glyph-name="tildecomb.case" horiz-adv-x="0" 
d="M751 1563q-67 0 -109.5 23.5t-71 55t-52.5 55t-53 23.5q-42 0 -62 -44t-6 -115h-184q-19 163 47.5 248.5t189.5 85.5q67 0 109 -23.5t70 -55t51.5 -55t52.5 -23.5q43 0 64 42t8 115h183q19 -164 -47.5 -248t-189.5 -84z" />
    <glyph glyph-name="uni0304.case" horiz-adv-x="0" 
d="M273 1605v227h654l-3 -227h-651z" />
    <glyph glyph-name="uni0327.case" horiz-adv-x="0" 
d="M250 -488q-52 0 -103 10t-101 33l1 184q27 -14 58.5 -22t59.5 -8q42 0 65 22t23 64q0 56 -50.5 107.5t-151.5 97.5h245q109 -39 156 -106.5t47 -146.5q0 -108 -68.5 -171.5t-180.5 -63.5z" />
    <glyph glyph-name="uni0328.case" horiz-adv-x="0" 
d="M313 -460q-72 0 -131.5 25t-94 72t-34.5 109q0 82 55 155.5t166 98.5h212q-100 -51 -147.5 -90.5t-47.5 -99.5q0 -37 23.5 -58.5t60.5 -21.5q57 0 107 27l2 -181q-42 -18 -82 -27t-89 -9z" />
    <glyph glyph-name="greaterarrow" horiz-adv-x="2400" 
d="M1859 240l-167 156l378 330l72 -112h-2002v210h2001l-72 -110l-367 332l166 151l482 -478z" />
    <glyph glyph-name="exclamequal" horiz-adv-x="2400" 
d="M761 -195l643 1886h234l-643 -1886h-234zM170 407v230h2060v-230h-2060zM170 860v230h2060v-230h-2060z" />
    <glyph glyph-name="Qtail_part." 
d="M814 -316l-157 365h219q20 0 47 -13t46 -48l163 -304h-318z" />
    <glyph glyph-name="zerodot_part." 
d="M600 578q-57 0 -81.5 35.5t-24.5 115.5q0 79 24.5 114t81.5 35q58 0 82 -35t24 -114q0 -80 -24 -115.5t-82 -35.5z" />
    <glyph glyph-name="ringcomba_part." 
d="M601 1432q-122 0 -191.5 68.5t-69.5 179.5t69.5 178.5t191.5 67.5q123 0 191.5 -67.5t68.5 -178.5t-68.5 -179.5t-191.5 -68.5zM601 1573q47 0 75.5 28t28.5 79q0 50 -28.5 78.5t-75.5 28.5t-75 -28.5t-28 -78.5q0 -51 28 -79t75 -28z" />
    <glyph glyph-name="Bar_part." 
d="M83 545v232h610l-3 -232h-607z" />
    <glyph glyph-name="ringacutecomb" 
d="M534 1712l129 200h231l-182 -200h-178zM601 1255q-122 0 -191.5 68t-69.5 179t69.5 178.5t191.5 67.5q123 0 191.5 -67.5t68.5 -178.5t-68.5 -179t-191.5 -68zM601 1395q47 0 75.5 28t28.5 80q0 49 -28.5 77.5t-75.5 28.5t-75 -28.5t-28 -78.5q0 -51 28 -79t75 -28z" />
    <glyph glyph-name="Barmid_part." 
d="M150 539v244h794l-4 -244h-790z" />
    <glyph glyph-name="slashl_part." 
d="M158 542v247l582 306l-4 -246z" />
    <glyph glyph-name="oSlash_part." 
d="M32 132l147 234l44 34l412 713l8 35l108 174h175l-128 -203l-44 -38l-422 -730l-8 -31l-118 -188h-174z" />
    <glyph glyph-name="OSlash_part." 
d="M-45 -83l125 242l41 42l554 1107l4 44l95 182h224l-114 -219l-43 -47l-564 -1128l-2 -40l-95 -183h-225z" />
    <glyph glyph-name="slashL_part." 
d="M190 545v235l280 135l131 -22q-1 27 10 56.5t62 54.5l196 97l-4 -243l-372 -185l-134 -49z" />
    <glyph glyph-name="zeroSlash_part." 
d="M879 201l-156 -61l-564 1128l166 40z" />
    <glyph glyph-name="ringacutecomb.case" 
d="M601 1308q-122 0 -191.5 68t-69.5 179t69.5 178.5t191.5 67.5q123 0 191.5 -67.5t68.5 -178.5t-68.5 -179t-191.5 -68zM601 1448q47 0 75.5 28t28.5 79q0 50 -28.5 78.5t-75.5 28.5t-75 -28.5t-28 -78.5q0 -51 28 -79t75 -28zM630 1713l124 199h228l-200 -219z" />
    <glyph glyph-name="lessergreater" horiz-adv-x="2400" 
d="M1199 74l-769 575l1 132l768 587l766 -583v-140zM1199 364l495 351l-495 363l-493 -363z" />
    <glyph glyph-name="greatergreaterarrow" horiz-adv-x="2400" 
d="M1859 240l-167 156l378 330l72 -112h-1996v210h1995l-72 -110l-367 332l166 151l482 -478zM1343 240l-167 156l378 330l72 -112l-1 210l-72 -110l-367 332l166 151l482 -478z" />
    <glyph glyph-name="equalequalarrow" horiz-adv-x="2400" 
d="M146 493v188h1961l-270 -188h-1691zM146 788v188h1691l267 -188h-1958zM1859 255l-167 157l378 329l-1 -12l-367 333l166 150l482 -478z" />
    <glyph glyph-name="equalarrow" 
d="M140 493v188h769l-269 -188h-500zM140 788v188h500l267 -188h-767zM661 255l-166 157l377 329l-1 -12l-367 333l166 150l482 -478z" />
  </font>
</defs>
</svg>
