<svg width="24" height="24" viewBox="0 0 24 24" fill="none" xmlns="http://www.w3.org/2000/svg">
<path d="M18.2192 6.37236L18.3574 6.31393C18.0944 5.6921 17.7247 5.14439 17.4226 4.75366C17.2713 4.55786 17.1361 4.40044 17.0385 4.29169C16.9897 4.2373 16.9502 4.19502 16.9228 4.16615C16.9091 4.15171 16.8983 4.14062 16.8909 4.13304L16.8824 4.12431L16.88 4.12196L16.8794 4.12129L16.8792 4.12108L16.8791 4.12101L16.773 4.22703L16.879 4.12096C16.3998 3.64174 15.8517 3.27272 15.4257 3.02414C15.2122 2.89958 15.0283 2.80462 14.8974 2.74064C14.8319 2.70864 14.7796 2.68436 14.7434 2.66797C14.7253 2.65977 14.7113 2.65354 14.7016 2.64931L14.6904 2.64446L14.6874 2.64315L14.6865 2.64279L14.6862 2.64267L14.6861 2.64263L14.6276 2.78073L14.6861 2.64261C14.0419 2.37014 13.3706 2.235 12.863 2.16765C12.6086 2.1339 12.3939 2.117 12.2425 2.10853C12.1667 2.10429 12.1067 2.10216 12.0653 2.10109C12.0446 2.10055 12.0286 2.10028 12.0176 2.10014L12.0049 2.10002L12.0015 2.1L12.0005 2.1L12.0002 2.1L12.0001 2.1L12 2.25V2.1C11.2956 2.1 10.6246 2.23595 10.1318 2.37069C9.88491 2.4382 9.68146 2.50576 9.53936 2.55659C9.46829 2.58202 9.41248 2.60329 9.37418 2.61831C9.35503 2.62582 9.34025 2.63178 9.33012 2.63591L9.31844 2.64072L9.31528 2.64204L9.31437 2.64242L9.3141 2.64254L9.314 2.64258L9.37237 2.78076L9.31393 2.64261C8.6921 2.90562 8.14439 3.27534 7.75366 3.57737C7.55786 3.72872 7.40044 3.86388 7.29169 3.96147C7.2373 4.01028 7.19502 4.04975 7.16615 4.07721C7.15171 4.09094 7.14062 4.10167 7.13304 4.10907L7.12431 4.11764L7.12196 4.11997L7.12129 4.12064L7.12108 4.12084L7.12101 4.12091L7.22703 4.22703L7.12096 4.12096C6.64175 4.60018 6.27272 5.14828 6.02414 5.5743C5.89958 5.78777 5.80462 5.9717 5.74064 6.10262C5.70864 6.16811 5.68436 6.2204 5.66797 6.25658C5.65977 6.27467 5.65355 6.28874 5.64931 6.29842L5.64446 6.3096L5.64316 6.31264L5.64279 6.31351L5.64267 6.31377L5.64263 6.31387L5.78076 6.37236L5.64261 6.31393C5.37014 6.95812 5.235 7.62939 5.16765 8.13702C5.1339 8.39141 5.117 8.60606 5.10853 8.75752C5.10429 8.83328 5.10216 8.8933 5.10109 8.93468C5.10055 8.95536 5.10028 8.97139 5.10014 8.9824L5.10002 8.9951L5.1 8.99854L5.1 8.99952L5.1 8.99982L5.1 8.99993L5.25 9H5.1C5.1 9.70439 5.23595 10.3754 5.37069 10.8682C5.4382 11.1151 5.50576 11.3185 5.55659 11.4606C5.58202 11.5317 5.60329 11.5875 5.61831 11.6258C5.62583 11.645 5.63178 11.6597 5.63591 11.6699L5.64072 11.6816L5.64204 11.6847L5.64242 11.6856L5.64254 11.6859L5.64258 11.686L5.78076 11.6276L5.64261 11.6861C5.90562 12.3079 6.27534 12.8556 6.57737 13.2463C6.72872 13.4421 6.86388 13.5996 6.96147 13.7083C7.01028 13.7627 7.04975 13.805 7.07721 13.8339C7.09094 13.8483 7.10167 13.8594 7.10908 13.867L7.11764 13.8757L7.11997 13.878L7.12064 13.8787L7.12084 13.8789L7.12091 13.879L7.22652 13.7735L7.12096 13.879C7.48486 14.2429 7.88848 14.5433 8.2482 14.7756C8.16506 14.8043 8.08402 14.8332 8.0052 14.8621C7.48498 15.0525 7.05979 15.243 6.76421 15.3861C6.61639 15.4577 6.50089 15.5175 6.42202 15.5595C6.38259 15.5806 6.35231 15.5972 6.33172 15.6086L6.30816 15.6218L6.30196 15.6254L6.30028 15.6263L6.29979 15.6266L6.29964 15.6267C6.29959 15.6267 6.29955 15.6267 6.37391 15.7555L6.29955 15.6267C4.97381 16.3922 3.9314 17.4357 3.2217 18.2847C2.86644 18.7097 2.59348 19.0872 2.40909 19.359C2.31687 19.4949 2.24673 19.6044 2.19948 19.6802C2.17584 19.7182 2.15793 19.7477 2.14582 19.7679L2.13203 19.7911L2.12842 19.7973L2.12745 19.7989L2.12717 19.7994L2.12708 19.7996C2.12705 19.7996 2.12703 19.7997 2.24259 19.8664L2.23769 19.8636L2.12702 19.7997L2.12702 19.7997C2.04811 19.9364 2.00625 20.092 2.00624 20.25L2.00626 20.2514L2.00637 20.2649L2.0064 20.2663C2.00772 20.3395 2.01798 20.4123 2.03694 20.483C2.09874 20.7136 2.2496 20.9101 2.45632 21.0295C2.59312 21.1084 2.74829 21.15 2.90625 21.15C2.92291 21.15 2.93956 21.1495 2.95619 21.1486C3.25951 21.1318 3.53385 20.963 3.68571 20.6999C4.32698 19.589 5.20521 18.7097 5.92624 18.1068C6.28625 17.8058 6.60579 17.5748 6.83491 17.4193C6.94943 17.3415 7.04128 17.2827 7.10417 17.2435C7.13561 17.2239 7.15981 17.2092 7.17598 17.1995L7.19412 17.1888L7.19848 17.1862L7.19946 17.1856L7.19962 17.1856C7.19963 17.1855 7.19964 17.1855 7.19966 17.1855C8.3105 16.5441 9.51073 16.2218 10.4366 16.0603C10.8989 15.9796 11.2911 15.9393 11.5673 15.9192C11.7054 15.9091 11.8143 15.9041 11.8884 15.9016C11.921 15.9005 11.9469 15.8999 11.9655 15.8996C11.972 15.8997 11.9777 15.8998 11.9824 15.8999L11.9951 15.9L11.9985 15.9L11.9995 15.9H11.9998H11.9999V15.8992H12L12 15.9C12.0243 15.9 12.0486 15.8998 12.0728 15.8995C13.3281 15.9113 14.5001 16.2263 15.3659 16.5433C15.8066 16.7046 16.1664 16.8658 16.4157 16.9865C16.5402 17.0468 16.6371 17.097 16.7025 17.1319C16.7352 17.1493 16.76 17.1629 16.7764 17.1721L16.7948 17.1824L16.7992 17.1849L16.8002 17.1855L16.8004 17.1856L16.8004 17.1856L16.8004 17.1856C17.9113 17.827 18.7904 18.7053 19.3932 19.4264C19.6942 19.7865 19.9251 20.1061 20.0806 20.3352C20.1584 20.4497 20.2172 20.5416 20.2563 20.6045C20.2759 20.6359 20.2906 20.6601 20.3003 20.6763L20.3111 20.6944L20.3136 20.6988L20.3142 20.6998L20.3143 20.6999C20.4336 20.9067 20.6302 21.0575 20.8607 21.1193C20.9367 21.1397 21.0151 21.15 21.0938 21.15C21.1032 21.15 21.1126 21.1499 21.122 21.1496C21.2703 21.1449 21.4152 21.1037 21.5437 21.0295C21.8222 20.8687 21.9937 20.5716 21.9937 20.25C21.9937 20.2361 21.9934 20.2222 21.9928 20.2083C21.9861 20.0647 21.9451 19.9247 21.8732 19.8001C21.1078 18.4741 20.0644 17.4315 19.2154 16.7217C18.7904 16.3663 18.4129 16.0933 18.1412 15.9089C18.0053 15.8166 17.8958 15.7465 17.8199 15.6992C17.782 15.6756 17.7524 15.6577 17.7322 15.6455L17.709 15.6318L17.7029 15.6281L17.7012 15.6272L17.7007 15.6269L17.7005 15.6268C17.7005 15.6268 17.7005 15.6267 17.6254 15.7566L17.7005 15.6267C17.0627 15.2585 16.402 14.9792 15.7667 14.7673C15.9444 14.6491 16.1056 14.5315 16.2463 14.4226C16.4421 14.2713 16.5996 14.1361 16.7083 14.0385C16.7627 13.9897 16.805 13.9502 16.8339 13.9228C16.8483 13.9091 16.8594 13.8983 16.867 13.8909L16.8757 13.8824L16.878 13.88L16.8787 13.8794L16.8789 13.8792L16.879 13.8791L16.773 13.773L16.879 13.879C17.3583 13.3998 17.7273 12.8517 17.9759 12.4257C18.1004 12.2122 18.1954 12.0283 18.2594 11.8974C18.2914 11.8319 18.3156 11.7796 18.332 11.7434C18.3402 11.7253 18.3465 11.7113 18.3507 11.7016L18.3555 11.6904L18.3568 11.6874L18.3572 11.6865L18.3573 11.6862L18.3574 11.6861L18.2192 11.6276L18.3574 11.6861C18.6299 11.0419 18.765 10.3706 18.8324 9.86298C18.8661 9.60859 18.883 9.39394 18.8915 9.24248C18.8957 9.16672 18.8978 9.1067 18.8989 9.06533C18.8994 9.04464 18.8997 9.02861 18.8999 9.0176L18.9 9.0049L18.9 9.00146L18.9 9.00048V9.00018V9.00007L18.75 9H18.9C18.9 8.29561 18.764 7.62463 18.6293 7.13183C18.5618 6.88491 18.4942 6.68146 18.4434 6.53936C18.418 6.46829 18.3967 6.41248 18.3817 6.37418C18.3742 6.35503 18.3682 6.34025 18.3641 6.33012L18.3593 6.31844L18.358 6.31527L18.3576 6.31437L18.3575 6.3141L18.3574 6.314L18.2192 6.37236ZM17.1 8.99926L17.1 9L17.1 9.00002L17.1 9.00008V9.00011C17.1 10.0522 16.7278 10.9539 16.3517 11.5958C16.164 11.9163 15.9763 12.1703 15.836 12.3437C15.7658 12.4304 15.7076 12.4968 15.6673 12.5411C15.6472 12.5633 15.6315 12.58 15.6211 12.5909L15.6095 12.603L15.6068 12.6057L15.6062 12.6062L15.6062 12.6063L15.6062 12.6063C14.8623 13.3502 13.9615 13.7246 13.2416 13.9127C12.8823 14.0065 12.57 14.0534 12.3481 14.0768C12.2372 14.0885 12.1491 14.0943 12.0892 14.0972C12.0641 14.0984 12.044 14.0991 12.0292 14.0995L12.0099 14.0992L12.0028 14.0992L12.0008 14.0992L12.0003 14.0992H12.0001C12.0001 14.0992 12.0001 14.0992 12.0001 14.1L12 14.1L12 14.0992C11.9765 14.0992 11.953 14.0993 11.9296 14.0994C10.9077 14.0833 10.0318 13.7194 9.40418 13.3517C9.08371 13.164 8.82972 12.9763 8.65629 12.836C8.56963 12.7658 8.50323 12.7076 8.45886 12.6673C8.43668 12.6472 8.42001 12.6315 8.40909 12.6211L8.39703 12.6095L8.39429 12.6068L8.39376 12.6062L8.39374 12.6062L8.39371 12.6062C7.6498 11.8623 7.27537 10.9615 7.08734 10.2416C6.99348 9.88226 6.94659 9.56996 6.9232 9.34808C6.91151 9.23721 6.90571 9.14911 6.90283 9.08924C6.90139 9.05931 6.90068 9.03645 6.90034 9.02134L6.90004 9.00459L6.9 9.00074L6.9 9C6.9 8.99999 6.9 8.99999 6.9 8.99998C6.9 8.99996 6.9 8.99994 6.9 8.99992C6.90002 7.94786 7.27222 7.04615 7.64827 6.40418C7.836 6.08371 8.02368 5.82972 8.16403 5.65629C8.23416 5.56963 8.29235 5.50323 8.33265 5.45886C8.3528 5.43668 8.36847 5.42001 8.3789 5.40909L8.39053 5.39703L8.39323 5.39428L8.39376 5.39375L8.39377 5.39374L8.3938 5.39371C9.13773 4.6498 10.0385 4.27537 10.7584 4.08734C11.1177 3.99348 11.43 3.94659 11.6519 3.9232C11.7628 3.91151 11.8509 3.90571 11.9108 3.90283C11.9407 3.90139 11.9636 3.90068 11.9787 3.90033L11.9954 3.90004L11.9993 3.9L12 3.9L12.0001 3.9H12.0001C13.0522 3.90002 13.9539 4.27222 14.5958 4.64827C14.9163 4.836 15.1703 5.02368 15.3437 5.16403C15.4304 5.23416 15.4968 5.29235 15.5411 5.33265C15.5633 5.3528 15.58 5.36846 15.5909 5.3789L15.603 5.39053L15.6057 5.39323L15.6062 5.39376L15.6063 5.39377L15.6063 5.39381C16.3502 6.13774 16.7246 7.03853 16.9127 7.75839C17.0065 8.11774 17.0534 8.43004 17.0768 8.65192C17.0885 8.76279 17.0943 8.85089 17.0972 8.91076C17.0986 8.94069 17.0993 8.96355 17.0997 8.97866L17.1 8.99541L17.1 8.99926Z" fill="#0099A1" stroke="#0099A1" stroke-width="0.3"/>
</svg>
