<svg width="180" height="51" viewBox="0 0 180 51" fill="none" xmlns="http://www.w3.org/2000/svg">
<g clip-path="url(#clip0_74_71)">
<path d="M158.754 13.9821H157.574V24.5982H158.754V13.9821Z" fill="#C8D4DB" stroke="#4D4D4D" stroke-width="2"/>
<path d="M156.689 38.0648V24.5982H159.639V38.0995C159.639 38.7018 159.465 39.2228 159.191 39.585C158.918 39.9457 158.562 40.1339 158.178 40.1339C157.797 40.1339 157.432 39.9397 157.15 39.5677C156.869 39.1953 156.689 38.6653 156.689 38.0648Z" fill="#DB9300" stroke="#4D4D4D" stroke-width="2"/>
<path d="M158.459 26.1518C158.459 26.0088 158.327 25.8929 158.164 25.8929C158.001 25.8929 157.869 26.0088 157.869 26.1518C157.869 26.2948 158.001 26.4107 158.164 26.4107C158.327 26.4107 158.459 26.2948 158.459 26.1518Z" fill="#4D4D4D"/>
<path d="M158.459 31.8482C158.459 31.7052 158.327 31.5893 158.164 31.5893C158.001 31.5893 157.869 31.7052 157.869 31.8482C157.869 31.9912 158.001 32.1071 158.164 32.1071C158.327 32.1071 158.459 31.9912 158.459 31.8482Z" fill="#4D4D4D"/>
<path d="M158.459 37.5446C158.459 37.4016 158.327 37.2857 158.164 37.2857C158.001 37.2857 157.869 37.4016 157.869 37.5446C157.869 37.6876 158.001 37.8036 158.164 37.8036C158.327 37.8036 158.459 37.6876 158.459 37.5446Z" fill="#4D4D4D"/>
<path d="M159.402 8.06265H159.697V7.80372V0.982403C159.697 0.854104 159.762 0.735313 159.86 0.645726C159.965 0.550474 160.074 0.517857 160.124 0.517857C160.176 0.517857 160.266 0.548231 160.356 0.643038C160.441 0.73421 160.497 0.857923 160.497 0.982403V10.1809V10.1813V10.1817V10.1821V10.1825V10.1829V10.1833V10.1837V10.1841V10.1845V10.1849V10.1852V10.1857V10.186V10.1864V10.1868V10.1872V10.1876V10.188V10.1884V10.1888V10.1892V10.1896V10.19V10.1903V10.1907V10.1911V10.1915V10.1919V10.1923V10.1926V10.193V10.1934V10.1938V10.1941V10.1945V10.1949V10.1953V10.1956V10.196V10.1964V10.1968V10.1972V10.1975V10.1979V10.1983V10.1987V10.199V10.1994V10.1998V10.2001V10.2005V10.2009V10.2012V10.2016V10.202V10.2023V10.2027V10.2031V10.2034V10.2038V10.2041V10.2045V10.2049V10.2052V10.2056V10.2059V10.2063V10.2067V10.207V10.2074V10.2077V10.2081V10.2084V10.2088V10.2091V10.2095V10.2098V10.2102V10.2105V10.2109V10.2112V10.2116V10.2119V10.2123V10.2126V10.213V10.2133V10.2137V10.214V10.2144V10.2147V10.2151V10.2154V10.2157V10.2161V10.2164V10.2168V10.2171V10.2175V10.2178V10.2181V10.2185V10.2188V10.2192V10.2195V10.2198V10.2202V10.2205V10.2208V10.2212V10.2215V10.2219V10.2222V10.2225V10.2229V10.2232V10.2235V10.2238V10.2242V10.2245V10.2249V10.2252V10.2255V10.2258V10.2262V10.2265V10.2268V10.2272V10.2275V10.2278V10.2281V10.2285V10.2288V10.2291V10.2294V10.2298V10.2301V10.2304V10.2307V10.2311V10.2314V10.2317V10.232V10.2324V10.2327V10.233V10.2333V10.2336V10.234V10.2343V10.2346V10.2349V10.2352V10.2355V10.2359V10.2362V10.2365V10.2368V10.2372V10.2375V10.2378V10.2381V10.2384V10.2387V10.239V10.2394V10.2397V10.24V10.2403V10.2406V10.2409V10.2412V10.2416V10.2419V10.2422V10.2425V10.2428V10.2431V10.2434V10.2438V10.2441V10.2444V10.2447V10.245V10.2453V10.2456V10.2459V10.2462V10.2466V10.2469V10.2472V10.2475V10.2478V10.2481V10.2484V10.2487V10.249V10.2493V10.2496V10.2499V10.2503V10.2505V10.2509V10.2512V10.2515V10.2518V10.2521V10.2524V10.2527V10.253V10.2533V10.2536V10.2539V10.2542V10.2545V10.2548V10.2551V10.2555V10.2557V10.2561V10.2564V10.2567V10.257V10.2573V10.2576V10.2579V10.2582V10.2585V10.2588V10.2591V10.2594V10.2597V10.26V10.2603V10.2606V10.2609V10.2612V10.2615V10.2618V10.2621V10.2625V10.2627V10.263V10.2634V10.2636V10.264V10.2643V10.2646V10.2649V10.2652V10.2655V10.2658V10.2661V10.2664V10.2667V10.267V10.2673V10.2676V10.2679V10.2682V10.2685V10.2688V10.2691V10.2694V10.2697V10.27V10.2703V10.2706V10.2709V10.2712V10.2715V10.2718V10.2721V10.2724V10.2727V10.273V10.2734V10.2737V10.2739V10.2743V10.2746V10.2749V10.2752V10.2755V10.2758V10.2761V10.2764V10.2767V10.277V10.2773V10.2776V10.2779V10.2782V10.2785V10.2788V10.2791V10.2794V10.2797V10.2801V10.2803V10.2807V10.281V10.2813V10.2816V10.2819V10.2822V10.2825V10.2828V10.2831V10.2834V10.2837V10.284V10.2843V10.2846V10.285V10.2853V10.2856V10.2859V10.2862V10.2865V10.2868V10.2871V10.2874V10.2877V10.2881V10.2883V10.2887V10.289V10.2893V10.2896V10.2899V10.2902V10.2905V10.2909V10.2912V10.2915V10.2918V10.2921V10.2924V10.2927V10.293V10.2933V10.2937V10.294V10.2943V10.2946V10.2949V10.2952V10.2956V10.2959V10.2962V10.2965V10.2968V10.2971V10.2975V10.2978V10.2981V10.2984V10.2987V10.2991V10.2994V10.2997V10.3V10.3003V10.3006V10.301V10.3013V10.3016V10.3019V10.3023V10.3026V10.3029V10.3032V10.3036V10.3039V10.3042V10.3045V10.3049V10.3052V10.3055V10.3058V10.3062V10.3065V10.3068V10.3071V10.3075V10.3078V10.3081V10.3085V10.3088V10.3091V10.3094V10.3098V10.3101V10.3105V10.3108V10.3111V10.3114V10.3118V10.3121V10.3125V10.3128V10.3131V10.3135V10.3138V10.3141V10.3145V10.3148V10.3151V10.3155V10.3158V10.3162V10.3165V10.3169V10.3172V10.3175V10.3179V10.3182V10.3186V10.3189V10.3193V10.3196V10.3199V10.3203V10.3206V10.321V10.3213V10.3217V10.322V10.3224V10.3227V10.3231V10.3234V10.3238V10.3241V10.3245V10.3248V10.3252V10.3256V10.3259V10.3263V10.3266V10.327V10.3273V10.3277V10.328V10.3284V10.3288V10.3291V10.3295V10.3298V10.3302V10.3306V10.3309V10.3313V10.3317V10.332V10.3324V10.3328V10.3331V10.3335V10.3338V10.3342V10.3346V10.335V10.3353V10.3357V10.3361V10.3365V10.3368V10.3372V10.3376V10.3379V10.3383V10.3387V10.3391V10.3394V10.3398V10.3402V10.3406V10.341V10.3413V10.3417V10.3421V10.3425V10.3429V10.3433V10.3437V10.344V10.3444V10.3448V10.3452V10.3456V10.346V10.3464V10.3468V10.3471V10.3475V10.3479V10.3483V10.3487V10.3491V10.3495V10.3499V10.3503V10.3507V10.3511V10.3515V10.3519V10.3523V10.3527V10.3531V10.3554L160.525 13.1092V13.1103C160.524 13.4078 160.428 13.6635 160.287 13.838C160.146 14.013 159.977 14.0905 159.818 14.0905H156.621C156.454 14.0905 156.253 14.0054 156.084 13.8239C155.918 13.6455 155.803 13.3931 155.803 13.1092V10.3876V10.3872V10.3868V10.3863V10.386V10.3855V10.3852V10.3848V10.3844V10.384V10.3836V10.3832V10.3828V10.3824V10.382V10.3816V10.3812V10.3808V10.3804V10.38V10.3796V10.3793V10.3789V10.3785V10.3781V10.3777V10.3773V10.377V10.3766V10.3762V10.3758V10.3754V10.375V10.3746V10.3743V10.3739V10.3735V10.3731V10.3728V10.3724V10.372V10.3716V10.3713V10.3709V10.3705V10.3701V10.3698V10.3694V10.369V10.3687V10.3683V10.3679V10.3676V10.3672V10.3668V10.3665V10.3661V10.3657V10.3654V10.365V10.3647V10.3643V10.3639V10.3636V10.3632V10.3628V10.3625V10.3621V10.3618V10.3614V10.3611V10.3607V10.3604V10.36V10.3597V10.3593V10.3589V10.3586V10.3582V10.3579V10.3575V10.3572V10.3568V10.3565V10.3561V10.3558V10.3554V10.3551V10.3547V10.3544V10.3541V10.3537V10.3534V10.353V10.3527V10.3523V10.352V10.3517V10.3513V10.351V10.3506V10.3503V10.3499V10.3496V10.3493V10.3489V10.3486V10.3483V10.3479V10.3476V10.3473V10.3469V10.3466V10.3462V10.3459V10.3456V10.3452V10.3449V10.3446V10.3442V10.3439V10.3436V10.3432V10.3429V10.3426V10.3423V10.3419V10.3416V10.3413V10.3409V10.3406V10.3403V10.34V10.3396V10.3393V10.339V10.3387V10.3383V10.338V10.3377V10.3374V10.337V10.3367V10.3364V10.3361V10.3358V10.3354V10.3351V10.3348V10.3345V10.3341V10.3338V10.3335V10.3332V10.3329V10.3325V10.3322V10.3319V10.3316V10.3313V10.331V10.3307V10.3303V10.33V10.3297V10.3294V10.3291V10.3287V10.3284V10.3281V10.3278V10.3275V10.3272V10.3269V10.3266V10.3262V10.3259V10.3256V10.3253V10.325V10.3247V10.3244V10.3241V10.3237V10.3234V10.3231V10.3228V10.3225V10.3222V10.3219V10.3216V10.3213V10.3209V10.3206V10.3203V10.32V10.3197V10.3194V10.3191V10.3188V10.3185V10.3182V10.3179V10.3176V10.3173V10.317V10.3166V10.3163V10.316V10.3157V10.3154V10.3151V10.3148V10.3145V10.3142V10.3139V10.3136V10.3133V10.313V10.3127V10.3124V10.3121V10.3118V10.3114V10.3112V10.3108V10.3105V10.3102V10.3099V10.3096V10.3093V10.309V10.3087V10.3084V10.3081V10.3078V10.3075V10.3072V10.3069V10.3066V10.3063V10.306V10.3057V10.3054V10.3051V10.3048V10.3045V10.3042V10.3039V10.3036V10.3033V10.3029V10.3026V10.3024V10.302V10.3017V10.3014V10.3011V10.3008V10.3005V10.3002V10.2999V10.2996V10.2993V10.299V10.2987V10.2984V10.2981V10.2978V10.2975V10.2972V10.2969V10.2966V10.2963V10.296V10.2957V10.2954V10.2951V10.2948V10.2945V10.2942V10.2939V10.2935V10.2933V10.293V10.2926V10.2923V10.292V10.2917V10.2914V10.2911V10.2908V10.2905V10.2902V10.2899V10.2896V10.2893V10.289V10.2887V10.2884V10.2881V10.2878V10.2875V10.2872V10.2868V10.2865V10.2862V10.2859V10.2856V10.2853V10.285V10.2847V10.2844V10.2841V10.2838V10.2835V10.2832V10.2829V10.2825V10.2822V10.2819V10.2816V10.2813V10.281V10.2807V10.2804V10.2801V10.2797V10.2794V10.2791V10.2788V10.2785V10.2782V10.2779V10.2776V10.2773V10.277V10.2766V10.2763V10.276V10.2757V10.2754V10.2751V10.2748V10.2744V10.2741V10.2738V10.2735V10.2732V10.2729V10.2726V10.2722V10.2719V10.2716V10.2713V10.271V10.2706V10.2703V10.27V10.2697V10.2694V10.2691V10.2687V10.2684V10.2681V10.2678V10.2674V10.2671V10.2668V10.2665V10.2662V10.2658V10.2655V10.2652V10.2649V10.2645V10.2642V10.2639V10.2636V10.2632V10.2629V10.2626V10.2623V10.2619V10.2616V10.2613V10.261V10.2606V10.2603V10.26V10.2596V10.2593V10.259V10.2586V10.2583V10.258V10.2576V10.2573V10.257V10.2566V10.2563V10.256V10.2556V10.2553V10.255V10.2546V10.2543V10.254V10.2536V10.2533V10.2529V10.2526V10.2522V10.2519V10.2516V10.2512V10.2509V10.2505V10.2502V10.2499V10.2495V10.2492V10.2488V10.2485V10.2481V10.2478V10.2474V10.2471V10.2467V10.2464V10.246V10.2457V10.2453V10.245V10.2446V10.2443V10.2439V10.2436V10.2432V10.2429V10.2425V10.2422V10.2418V10.2415V10.2411V10.2408V10.2404V10.24V10.2397V10.2393V10.2389V10.2386V10.2382V10.2379V10.2375V10.2371V10.2368V10.2364V10.236V10.2357V10.2353V10.235V10.2346V10.2342V10.2338V10.2335V10.2331V10.2327V10.2324V10.232V10.2316V10.2312V10.2309V10.2305V10.2301V10.2297V10.2294V10.229V10.2286V10.2282V10.2278V10.2275V10.2271V10.2267V10.2263V10.2259V10.2256V10.2252V10.2248V10.2244V10.224V10.2236V10.2232V10.2228V10.2224V10.2221V10.2217V10.2213V10.2209V10.2205V10.2201V10.2197V10.2193V10.2189V10.2185V10.2181V10.2177V10.2173V10.2169V10.2165V10.2161V10.2157V10.2153V0.982403C155.803 0.836929 155.862 0.714153 155.941 0.630573C156.024 0.542527 156.107 0.517857 156.148 0.517857C156.262 0.517857 156.375 0.547851 156.454 0.608919C156.526 0.663848 156.604 0.76866 156.604 0.982403V7.80372V8.06265H156.899H157.455H157.75V7.80372V0.989306C157.774 0.614333 158.012 0.517857 158.122 0.517857C158.163 0.517857 158.271 0.550803 158.383 0.655573C158.489 0.754396 158.55 0.87488 158.55 0.982403V7.80372V8.06265H158.845H159.402Z" fill="#C8D4DB" stroke="#4D4D4D" stroke-width="2"/>
<path d="M160.23 24.5982H156.098V23.5625H160.23V24.5982Z" fill="#EFE5C6" stroke="#4D4D4D" stroke-width="2"/>
<path d="M164.066 18.446L134.262 18.446C134.262 18.446 137.404 21.5504 144.72 21.6854C152.037 21.8429 154.595 21.6629 154.595 21.6629L158.724 19.5933H162.988L163.751 18.6934" fill="#C8D4DB"/>
<mask id="mask0_74_71" style="mask-type:luminance" maskUnits="userSpaceOnUse" x="134" y="18" width="31" height="4">
<path d="M164.066 18.446L134.262 18.446C134.262 18.446 137.404 21.5504 144.72 21.6854C152.037 21.8429 154.595 21.6629 154.595 21.6629L158.724 19.5933H162.988L163.751 18.6934" fill="#4D4D4D"/>
</mask>
<g mask="url(#mask0_74_71)">
<path d="M134.262 18.446L133.821 18.7899L132.949 17.9281H134.262V18.446ZM144.72 21.6854L144.733 21.1677L144.735 21.1677L144.72 21.6854ZM154.595 21.6629L154.888 22.1126L154.773 22.1699L154.642 22.1791L154.595 21.6629ZM158.724 19.5933L158.432 19.1436L158.568 19.0754H158.724V19.5933ZM162.988 19.5933L163.462 19.9024L163.285 20.1112H162.988V19.5933ZM164.066 18.9639L134.262 18.9638V17.9281L164.066 17.9282V18.9639ZM134.262 18.446C134.703 18.1021 134.703 18.1019 134.703 18.1017C134.703 18.1017 134.703 18.1015 134.703 18.1014C134.703 18.1012 134.703 18.1011 134.702 18.101C134.702 18.1008 134.702 18.1008 134.702 18.101C134.703 18.1013 134.704 18.1023 134.706 18.1041C134.709 18.1077 134.716 18.1141 134.726 18.1231C134.746 18.1412 134.778 18.1699 134.822 18.2076C134.911 18.2833 135.05 18.3953 135.241 18.5322C135.623 18.8059 136.212 19.1787 137.025 19.5578C138.648 20.3148 141.172 21.102 144.733 21.1677L144.708 22.2031C140.953 22.1339 138.248 21.3013 136.471 20.4723C135.583 20.0585 134.93 19.6468 134.494 19.3342C134.276 19.1779 134.112 19.0464 134.001 18.9517C133.945 18.9043 133.903 18.8661 133.873 18.8387C133.858 18.825 133.846 18.8139 133.837 18.8057C133.833 18.8016 133.83 18.7982 133.827 18.7956C133.826 18.7943 133.824 18.7931 133.823 18.7922C133.823 18.7917 133.822 18.7912 133.822 18.7909C133.822 18.7907 133.822 18.7904 133.821 18.7903C133.821 18.7901 133.821 18.7899 134.262 18.446ZM144.735 21.1677C148.386 21.2463 150.846 21.2406 152.39 21.2154C153.162 21.2029 153.705 21.1854 154.053 21.1713C154.228 21.1642 154.353 21.1579 154.434 21.1535C154.475 21.1513 154.504 21.1495 154.523 21.1483C154.532 21.1478 154.539 21.1473 154.543 21.147C154.545 21.1469 154.547 21.1468 154.547 21.1467C154.548 21.1467 154.548 21.1467 154.548 21.1467C154.548 21.1467 154.548 21.1467 154.595 21.6629C154.642 22.1791 154.642 22.1791 154.642 22.1791C154.642 22.1791 154.642 22.1791 154.642 22.1791C154.642 22.1791 154.641 22.1792 154.641 22.1792C154.64 22.1792 154.64 22.1793 154.639 22.1793C154.637 22.1795 154.635 22.1796 154.632 22.1798C154.626 22.1802 154.617 22.1808 154.606 22.1815C154.584 22.1828 154.551 22.1848 154.508 22.1872C154.42 22.192 154.288 22.1985 154.108 22.2059C153.748 22.2205 153.194 22.2382 152.412 22.251C150.848 22.2765 148.371 22.282 144.706 22.2031L144.735 21.1677ZM154.302 21.2132L158.432 19.1436L159.017 20.043L154.888 22.1126L154.302 21.2132ZM158.724 19.0754H162.988V20.1112H158.724V19.0754ZM162.515 19.2841L163.278 18.3843L164.225 19.0026L163.462 19.9024L162.515 19.2841Z" fill="#4D4D4D"/>
</g>
<path d="M177.347 20.4554H162V17.8661H177.386C178.073 17.8661 178.667 18.0188 179.079 18.2594C179.49 18.4989 179.705 18.8117 179.705 19.1487C179.705 19.4832 179.484 19.8028 179.06 20.05C178.635 20.2974 178.031 20.4554 177.347 20.4554Z" fill="#DB9300" stroke="#4D4D4D" stroke-width="2"/>
<path d="M162 17.3482V20.9732H160.82V17.3482H162Z" fill="#EFE5C6" stroke="#4D4D4D" stroke-width="2"/>
<path d="M154.483 19.8775L151.928 21.1721C151.787 21.2436 151.738 21.402 151.82 21.5258C151.901 21.6496 152.082 21.6921 152.223 21.6206L154.778 20.3259C154.919 20.2544 154.968 20.0961 154.886 19.9722C154.805 19.8484 154.624 19.806 154.483 19.8775Z" fill="#4D4D4D"/>
<path d="M151.532 19.8775L148.977 21.1721C148.836 21.2436 148.787 21.402 148.869 21.5258C148.95 21.6496 149.131 21.6921 149.272 21.6206L151.827 20.3259C151.969 20.2544 152.017 20.0961 151.935 19.9722C151.854 19.8484 151.673 19.806 151.532 19.8775Z" fill="#4D4D4D"/>
<path d="M148.582 19.8775L146.026 21.1721C145.885 21.2436 145.837 21.402 145.918 21.5258C146 21.6496 146.18 21.6921 146.321 21.6206L148.877 20.3259C149.018 20.2544 149.066 20.0961 148.985 19.9722C148.903 19.8484 148.723 19.806 148.582 19.8775Z" fill="#4D4D4D"/>
<path d="M163.77 18.9018C163.608 18.9018 163.475 19.0177 163.475 19.1607C163.475 19.3037 163.608 19.4196 163.77 19.4196C163.933 19.4196 164.066 19.3037 164.066 19.1607C164.066 19.0177 163.933 18.9018 163.77 18.9018Z" fill="#4D4D4D"/>
<path d="M170.262 18.9018C170.099 18.9018 169.967 19.0177 169.967 19.1607C169.967 19.3037 170.099 19.4196 170.262 19.4196C170.425 19.4196 170.557 19.3037 170.557 19.1607C170.557 19.0177 170.425 18.9018 170.262 18.9018Z" fill="#4D4D4D"/>
<path d="M176.754 18.9018C176.591 18.9018 176.459 19.0177 176.459 19.1607C176.459 19.3037 176.591 19.4196 176.754 19.4196C176.917 19.4196 177.049 19.3037 177.049 19.1607C177.049 19.0177 176.917 18.9018 176.754 18.9018Z" fill="#4D4D4D"/>
<path d="M137.243 48.9763C136.841 48.9763 136.478 48.8961 136.154 48.7355C135.829 48.5698 135.57 48.3342 135.375 48.0287C135.186 47.7179 135.091 47.3399 135.091 46.8946C135.091 46.4492 135.186 46.0737 135.375 45.7682C135.564 45.4575 135.82 45.2219 136.145 45.0613C136.47 44.9008 136.835 44.8205 137.243 44.8205C137.685 44.8205 138.081 44.9086 138.429 45.0846C138.783 45.2555 139.06 45.4989 139.261 45.8148C139.462 46.1255 139.562 46.4854 139.562 46.8946C139.562 47.3088 139.462 47.6713 139.261 47.9821C139.06 48.2928 138.783 48.5362 138.429 48.7122C138.081 48.8883 137.685 48.9763 137.243 48.9763ZM134.844 50.4445V44.8594H135.446V46.0867L135.384 46.9023L135.472 47.7257V50.4445H134.844ZM137.198 48.487C137.529 48.487 137.824 48.4222 138.084 48.2928C138.343 48.1581 138.55 47.9717 138.703 47.7335C138.857 47.4901 138.933 47.2104 138.933 46.8946C138.933 46.5787 138.857 46.3016 138.703 46.0634C138.55 45.8252 138.343 45.6388 138.084 45.5041C137.824 45.3695 137.529 45.3021 137.198 45.3021C136.868 45.3021 136.57 45.3695 136.304 45.5041C136.045 45.6388 135.838 45.8252 135.685 46.0634C135.537 46.3016 135.463 46.5787 135.463 46.8946C135.463 47.2104 135.537 47.4901 135.685 47.7335C135.838 47.9717 136.045 48.1581 136.304 48.2928C136.57 48.4222 136.868 48.487 137.198 48.487ZM140.843 48.9375V43.1738H141.472V48.9375H140.843ZM145.142 48.9763C144.746 48.9763 144.401 48.9116 144.106 48.7821C143.811 48.6527 143.581 48.4585 143.415 48.1996C143.256 47.9406 143.176 47.617 143.176 47.2286V44.8594H143.805V47.1664C143.805 47.6014 143.926 47.9303 144.168 48.1529C144.416 48.3704 144.761 48.4792 145.204 48.4792C145.528 48.4792 145.809 48.4222 146.045 48.3083C146.287 48.1892 146.47 48.0183 146.593 47.7956C146.723 47.5729 146.788 47.3063 146.788 46.9955V44.8594H147.417V48.9375H146.815V47.8189L146.912 48.0209C146.765 48.3213 146.534 48.5569 146.222 48.7278C145.915 48.8935 145.555 48.9763 145.142 48.9763ZM150.417 48.9763C150.033 48.9763 149.67 48.9297 149.328 48.8365C148.985 48.7381 148.717 48.6164 148.522 48.4714L148.805 48.0364C148.994 48.1607 149.236 48.2695 149.531 48.3627C149.826 48.4507 150.136 48.4947 150.461 48.4947C150.903 48.4947 151.222 48.4352 151.417 48.3161C151.612 48.1918 151.709 48.0287 151.709 47.8267C151.709 47.6765 151.653 47.56 151.541 47.4771C151.435 47.3891 151.293 47.3244 151.116 47.2829C150.939 47.2363 150.741 47.1975 150.523 47.1664C150.304 47.1354 150.086 47.0991 149.868 47.0577C149.655 47.0163 149.461 46.9567 149.283 46.879C149.106 46.7962 148.962 46.6848 148.85 46.545C148.743 46.4052 148.69 46.2188 148.69 45.9857C148.69 45.763 148.761 45.5637 148.903 45.3876C149.044 45.2115 149.251 45.0743 149.522 44.9759C149.8 44.8723 150.136 44.8205 150.532 44.8205C150.833 44.8205 151.134 44.8568 151.435 44.9293C151.736 44.9966 151.983 45.0872 152.178 45.2012L151.904 45.6439C151.697 45.5196 151.476 45.4316 151.24 45.3798C151.004 45.3229 150.768 45.2944 150.532 45.2944C150.113 45.2944 149.803 45.3591 149.602 45.4886C149.407 45.6129 149.31 45.7734 149.31 45.9702C149.31 46.1255 149.363 46.2472 149.469 46.3353C149.581 46.4233 149.726 46.4932 149.903 46.545C150.086 46.5916 150.284 46.6304 150.496 46.6615C150.715 46.6926 150.93 46.7314 151.142 46.778C151.361 46.8195 151.559 46.879 151.736 46.9567C151.919 47.0292 152.063 47.1354 152.169 47.2752C152.281 47.4098 152.338 47.5885 152.338 47.8112C152.338 48.0494 152.261 48.2565 152.107 48.4326C151.96 48.6035 151.741 48.7381 151.452 48.8365C151.169 48.9297 150.824 48.9763 150.417 48.9763Z" fill="#43AB66"/>
<path d="M59.2052 40.5482C57.2695 40.5482 55.5698 40.1961 54.1062 39.4918C52.6426 38.7668 51.4977 37.7829 50.6715 36.54C49.8452 35.2764 49.4321 33.8368 49.4321 32.2211C49.4321 30.6054 49.8216 29.1761 50.6007 27.9332C51.4033 26.6904 52.4892 25.7168 53.8584 25.0125C55.2511 24.2875 56.8092 23.925 58.5325 23.925C60.2793 23.925 61.8256 24.2771 63.1711 24.9814C64.5403 25.665 65.6144 26.6386 66.3934 27.9021C67.1725 29.145 67.562 30.5846 67.562 32.2211C67.562 32.3246 67.5502 32.4386 67.5266 32.5629C67.5266 32.6664 67.5266 32.7804 67.5266 32.9046H51.3443V31.2579H66.181L65.1895 31.9104C65.1895 30.7296 64.8944 29.6836 64.3043 28.7721C63.7377 27.84 62.9587 27.115 61.9672 26.5971C60.9757 26.0793 59.8308 25.8204 58.5325 25.8204C57.2577 25.8204 56.1128 26.0793 55.0977 26.5971C54.0826 27.115 53.2918 27.84 52.7252 28.7721C52.1587 29.7043 51.8754 30.7711 51.8754 31.9725V32.3143C51.8754 33.5571 52.1823 34.655 52.7961 35.6079C53.4334 36.54 54.3069 37.2754 55.4164 37.8139C56.5495 38.3318 57.8361 38.5907 59.2761 38.5907C60.4092 38.5907 61.4597 38.4146 62.4275 38.0625C63.419 37.7104 64.2688 37.1718 64.977 36.4468L66.3934 37.8761C65.5672 38.7461 64.5285 39.4089 63.2774 39.8646C62.0498 40.3204 60.6925 40.5482 59.2052 40.5482ZM78.9822 40.5482C77.1409 40.5482 75.4885 40.1961 74.0248 39.4918C72.5848 38.7668 71.4517 37.7829 70.6255 36.54C69.7993 35.2764 69.3862 33.8368 69.3862 32.2211C69.3862 30.5846 69.7993 29.145 70.6255 27.9021C71.4517 26.6593 72.5848 25.6857 74.0248 24.9814C75.4885 24.2771 77.1409 23.925 78.9822 23.925C80.5639 23.925 81.9921 24.1943 83.2668 24.7329C84.5416 25.2714 85.5448 26.0793 86.2766 27.1564L84.3999 28.275C83.7626 27.4464 82.9717 26.8354 82.0275 26.4418C81.0832 26.0482 80.0563 25.8514 78.9468 25.8514C77.6248 25.8514 76.4327 26.1207 75.3704 26.6593C74.3081 27.1771 73.4701 27.9125 72.8563 28.8654C72.2426 29.8182 71.9357 30.9368 71.9357 32.2211C71.9357 33.5054 72.2426 34.6239 72.8563 35.5768C73.4701 36.5296 74.3081 37.2754 75.3704 37.8139C76.4327 38.3318 77.6248 38.5907 78.9468 38.5907C80.0563 38.5907 81.0832 38.3939 82.0275 38.0004C82.9717 37.6068 83.7626 37.0061 84.3999 36.1982L86.2766 37.3168C85.5448 38.3732 84.5416 39.1811 83.2668 39.7404C81.9921 40.2789 80.5639 40.5482 78.9822 40.5482ZM89.5226 40.3929V24.0804H92.0367V40.3929H89.5226ZM90.7973 20.4761C90.278 20.4761 89.8412 20.3207 89.4871 20.01C89.133 19.6993 88.956 19.3264 88.956 18.8914C88.956 18.4564 89.133 18.0939 89.4871 17.8039C89.8412 17.4932 90.278 17.3379 90.7973 17.3379C91.3167 17.3379 91.7534 17.4829 92.1075 17.7729C92.4616 18.0629 92.6386 18.4254 92.6386 18.8604C92.6386 19.3161 92.4616 19.6993 92.1075 20.01C91.777 20.3207 91.3403 20.4761 90.7973 20.4761ZM107.212 40.5482C105.606 40.5482 104.154 40.2271 102.856 39.585C101.558 38.9221 100.519 37.9796 99.7401 36.7575C98.9847 35.5146 98.6069 34.0025 98.6069 32.2211C98.6069 30.4396 98.9847 28.9379 99.7401 27.7157C100.495 26.4729 101.522 25.5304 102.821 24.8882C104.119 24.2461 105.583 23.925 107.212 23.925C108.982 23.925 110.564 24.2771 111.956 24.9814C113.373 25.665 114.482 26.6386 115.285 27.9021C116.088 29.145 116.489 30.5846 116.489 32.2211C116.489 33.8782 116.088 35.3282 115.285 36.5711C114.482 37.8139 113.373 38.7875 111.956 39.4918C110.564 40.1961 108.982 40.5482 107.212 40.5482ZM97.6155 46.4207V24.0804H100.023V28.9896L99.7755 32.2521L100.13 35.5457V46.4207H97.6155ZM107.034 38.5907C108.356 38.5907 109.537 38.3318 110.575 37.8139C111.614 37.2754 112.44 36.5296 113.054 35.5768C113.668 34.6032 113.975 33.4846 113.975 32.2211C113.975 30.9575 113.668 29.8493 113.054 28.8964C112.44 27.9436 111.614 27.1979 110.575 26.6593C109.537 26.1207 108.356 25.8514 107.034 25.8514C105.713 25.8514 104.52 26.1207 103.458 26.6593C102.419 27.1979 101.593 27.9436 100.979 28.8964C100.389 29.8493 100.094 30.9575 100.094 32.2211C100.094 33.4846 100.389 34.6032 100.979 35.5768C101.593 36.5296 102.419 37.2754 103.458 37.8139C104.52 38.3318 105.713 38.5907 107.034 38.5907ZM128.094 40.5482C126.158 40.5482 124.458 40.1961 122.995 39.4918C121.531 38.7668 120.386 37.7829 119.56 36.54C118.734 35.2764 118.321 33.8368 118.321 32.2211C118.321 30.6054 118.71 29.1761 119.489 27.9332C120.292 26.6904 121.378 25.7168 122.747 25.0125C124.14 24.2875 125.698 23.925 127.421 23.925C129.168 23.925 130.714 24.2771 132.06 24.9814C133.429 25.665 134.503 26.6386 135.282 27.9021C136.061 29.145 136.451 30.5846 136.451 32.2211C136.451 32.3246 136.439 32.4386 136.415 32.5629C136.415 32.6664 136.415 32.7804 136.415 32.9046H120.233V31.2579H135.07L134.078 31.9104C134.078 30.7296 133.783 29.6836 133.193 28.7721C132.626 27.84 131.847 27.115 130.856 26.5971C129.864 26.0793 128.719 25.8204 127.421 25.8204C126.146 25.8204 125.001 26.0793 123.986 26.5971C122.971 27.115 122.18 27.84 121.614 28.7721C121.047 29.7043 120.764 30.7711 120.764 31.9725V32.3143C120.764 33.5571 121.071 34.655 121.685 35.6079C122.322 36.54 123.196 37.2754 124.305 37.8139C125.438 38.3318 126.725 38.5907 128.165 38.5907C129.298 38.5907 130.348 38.4146 131.316 38.0625C132.308 37.7104 133.158 37.1718 133.866 36.4468L135.282 37.8761C134.456 38.7461 133.417 39.4089 132.166 39.8646C130.938 40.3204 129.581 40.5482 128.094 40.5482ZM145.144 40.5482C143.61 40.5482 142.158 40.3618 140.789 39.9889C139.42 39.5954 138.346 39.1086 137.567 38.5286L138.7 36.7886C139.455 37.2857 140.423 37.7207 141.603 38.0936C142.784 38.4457 144.023 38.6218 145.321 38.6218C147.092 38.6218 148.367 38.3836 149.146 37.9071C149.925 37.41 150.314 36.7575 150.314 35.9496C150.314 35.3489 150.09 34.8829 149.641 34.5514C149.216 34.1993 148.65 33.9404 147.942 33.7746C147.234 33.5882 146.443 33.4329 145.569 33.3086C144.696 33.1843 143.822 33.0393 142.949 32.8736C142.099 32.7079 141.32 32.4696 140.612 32.1589C139.904 31.8275 139.325 31.3821 138.877 30.8229C138.452 30.2636 138.239 29.5179 138.239 28.5857C138.239 27.695 138.523 26.8975 139.089 26.1932C139.656 25.4889 140.482 24.94 141.568 24.5464C142.677 24.1321 144.023 23.925 145.605 23.925C146.809 23.925 148.013 24.07 149.216 24.36C150.42 24.6293 151.412 24.9918 152.191 25.4475L151.093 27.2186C150.267 26.7214 149.382 26.3693 148.437 26.1621C147.493 25.9343 146.549 25.8204 145.605 25.8204C143.929 25.8204 142.689 26.0793 141.887 26.5971C141.108 27.0943 140.718 27.7364 140.718 28.5236C140.718 29.145 140.931 29.6318 141.355 29.9839C141.804 30.3361 142.382 30.6157 143.091 30.8229C143.822 31.0093 144.613 31.1646 145.463 31.2889C146.336 31.4132 147.198 31.5686 148.048 31.755C148.921 31.9207 149.712 32.1589 150.42 32.4696C151.152 32.7596 151.731 33.1843 152.155 33.7436C152.604 34.2821 152.828 34.9968 152.828 35.8875C152.828 36.8404 152.521 37.6689 151.908 38.3732C151.317 39.0568 150.444 39.5954 149.287 39.9889C148.154 40.3618 146.773 40.5482 145.144 40.5482Z" fill="#4D4D4D"/>
<path d="M92.7148 18.9795C92.7148 18.0499 91.856 17.2964 90.7967 17.2964C89.7374 17.2964 88.8787 18.0499 88.8787 18.9795C88.8787 19.909 89.7374 20.6625 90.7967 20.6625C91.856 20.6625 92.7148 19.909 92.7148 18.9795Z" fill="#43AB66"/>
<path d="M27.3239 0.104683C33.0719 0.104683 37.4568 1.00402 40.4788 2.80269C43.5216 4.58283 45.0431 7.14177 45.0431 10.4795C45.0431 12.1113 44.8215 13.5113 44.3777 14.6795C43.9548 15.8292 43.3526 16.812 42.5709 17.6279C41.8099 18.4252 40.8907 19.0928 39.813 19.6305C38.7564 20.1497 37.6047 20.5948 36.3579 20.9656C37.2243 21.1696 38.0907 21.7166 38.957 22.6067C39.8446 23.4968 40.7429 24.6001 41.6514 25.9167C42.5603 27.2147 43.4794 28.6611 44.4092 30.2558C45.3391 31.8503 46.2689 33.4637 47.1987 35.0954C48.1497 36.7272 49.1005 38.3126 50.0515 39.8517C51.0235 41.3908 51.9852 42.7631 52.9362 43.9684C53.9082 45.1737 54.8802 46.138 55.8522 46.8609C56.8455 47.5841 57.8281 47.9458 58.8004 47.9458C59.223 47.9458 59.6349 47.8715 60.0365 47.7234C60.459 47.575 60.7866 47.4266 61.0191 47.2783L61.6848 48.3629C61.2623 48.567 60.7444 48.7894 60.1315 49.0305C59.5186 49.2902 58.8004 49.5312 57.9762 49.7536C57.1521 49.9763 56.2223 50.1617 55.1865 50.3101C54.1723 50.4768 53.0419 50.5605 51.7949 50.5605C49.7452 50.5605 47.8959 50.0597 46.2479 49.0584C44.5996 48.0755 43.1835 46.6848 42.0002 44.8863C40.7957 43.0319 39.6124 41.085 38.4501 39.0451C37.2877 37.0053 36.1254 34.9657 34.9631 32.9259C33.822 30.8863 32.6703 28.8928 31.508 26.9457C30.3669 24.9988 29.2152 23.1722 28.053 21.4663L28.3065 20.3259C29.5533 20.604 30.631 20.5391 31.5398 20.1312C32.4696 19.7232 33.2304 19.065 33.822 18.1564C34.4136 17.2292 34.8468 16.0981 35.1215 14.763C35.4175 13.4279 35.5653 11.9815 35.5653 10.4239C35.5653 9.3113 35.4281 8.2729 35.1534 7.30867C34.8787 6.32588 34.4877 5.47289 33.9805 4.74973C33.4945 4.00801 32.9028 3.43316 32.2055 3.02522C31.508 2.59874 30.7263 2.38548 29.8596 2.38548C29.1835 2.38548 28.6235 2.47819 28.1797 2.66362C27.7571 2.8305 27.419 3.05303 27.1654 3.33117C26.9118 3.59077 26.7322 3.8782 26.6265 4.19342C26.542 4.4901 26.4997 4.77754 26.4997 5.05568V38.0439C26.4997 39.4716 26.0665 40.5099 25.2001 41.159C24.3548 41.8079 23.0552 42.1326 21.3012 42.1326C19.5261 42.1326 18.2159 41.8079 17.3706 41.159C16.5254 40.5099 16.1027 39.4716 16.1027 38.0439V4.77754C16.1027 3.75767 15.2997 3.24774 13.6936 3.24774C12.5314 3.24774 11.348 3.40535 10.1434 3.72057C8.96005 4.01728 7.88229 4.43449 6.91023 4.97223C5.95927 5.49143 5.17739 6.1219 4.56456 6.86363C3.95171 7.58681 3.6453 8.37489 3.6453 9.22788C3.6453 9.82124 3.72984 10.2941 3.89889 10.6464C4.08907 10.9987 4.30041 11.2676 4.53284 11.453C4.76531 11.6199 4.99774 11.7312 5.23021 11.7868C5.4838 11.8239 5.66342 11.8424 5.76909 11.8424C6.29737 11.8424 6.73058 11.7683 7.06872 11.6199C7.40682 11.453 7.71324 11.2862 7.98796 11.1193C8.26268 10.9338 8.51627 10.7669 8.74871 10.6186C9.0023 10.4517 9.28759 10.3683 9.60456 10.3683C9.85816 10.3683 10.1223 10.4239 10.397 10.5352C10.6929 10.6279 10.957 10.7855 11.1895 11.008C11.4431 11.2305 11.6544 11.5272 11.8235 11.8981C11.9925 12.2504 12.077 12.6862 12.077 13.2054C12.077 13.9471 11.908 14.5868 11.5699 15.1246C11.2529 15.6623 10.8302 16.1166 10.3019 16.4875C9.79477 16.8398 9.20308 17.1087 8.52684 17.2941C7.87172 17.461 7.21664 17.5444 6.56153 17.5444C5.54719 17.5444 4.62795 17.3961 3.80378 17.0994C3.00078 16.7842 2.31397 16.3577 1.7434 15.8199C1.17284 15.2822 0.739626 14.6517 0.443777 13.9285C0.147925 13.2054 0 12.4358 0 11.6199C0 10.0808 0.32755 8.72721 0.982647 7.559C1.63774 6.37223 2.55699 5.35236 3.7404 4.4994C4.94492 3.64641 6.38192 2.94176 8.05137 2.38548C9.7208 1.81064 11.5699 1.35634 13.5986 1.02256C15.6272 0.68879 17.7933 0.457 20.0967 0.327199C22.4212 0.178855 24.8303 0.104683 27.3239 0.104683Z" fill="#43AB66"/>
</g>
<defs>
<clipPath id="clip0_74_71">
<rect width="180" height="50.75" fill="white"/>
</clipPath>
</defs>
</svg>
