<svg width="180" height="51" viewBox="0 0 180 51" fill="none" xmlns="http://www.w3.org/2000/svg">
<g clip-path="url(#clip0_86_2)">
<path d="M158.754 13.9819H157.574V24.598H158.754V13.9819Z" fill="#C8D4DB" stroke="#4D4D4D" stroke-width="2"/>
<path d="M156.689 38.0648V24.5981H159.639V38.0995C159.639 38.7017 159.465 39.2227 159.191 39.5849C158.918 39.9456 158.562 40.1339 158.178 40.1339C157.797 40.1339 157.432 39.9397 157.15 39.5676C156.869 39.1952 156.689 38.6652 156.689 38.0648Z" fill="#DB9300" stroke="#4D4D4D" stroke-width="2"/>
<path d="M158.459 26.152C158.459 26.009 158.327 25.8931 158.164 25.8931C158.001 25.8931 157.869 26.009 157.869 26.152C157.869 26.295 158.001 26.4109 158.164 26.4109C158.327 26.4109 158.459 26.295 158.459 26.152Z" fill="#4D4D4D"/>
<path d="M158.459 31.8483C158.459 31.7053 158.327 31.5894 158.164 31.5894C158.001 31.5894 157.869 31.7053 157.869 31.8483C157.869 31.9913 158.001 32.1072 158.164 32.1072C158.327 32.1072 158.459 31.9913 158.459 31.8483Z" fill="#4D4D4D"/>
<path d="M158.459 37.5446C158.459 37.4016 158.327 37.2856 158.164 37.2856C158.001 37.2856 157.869 37.4016 157.869 37.5446C157.869 37.6876 158.001 37.8035 158.164 37.8035C158.327 37.8035 158.459 37.6876 158.459 37.5446Z" fill="#4D4D4D"/>
<path d="M159.402 8.06286H159.697V7.80393V0.982613C159.697 0.854314 159.762 0.735522 159.86 0.645936C159.965 0.550684 160.074 0.518066 160.124 0.518066C160.176 0.518066 160.266 0.548441 160.356 0.643248C160.441 0.734419 160.497 0.858133 160.497 0.982613V10.1811V10.1815V10.1819V10.1823V10.1827V10.1831V10.1835V10.1839V10.1843V10.1847V10.1851V10.1854V10.1859V10.1863V10.1866V10.187V10.1874V10.1878V10.1882V10.1886V10.189V10.1894V10.1898V10.1902V10.1906V10.1909V10.1913V10.1917V10.1921V10.1925V10.1928V10.1932V10.1936V10.194V10.1944V10.1947V10.1951V10.1955V10.1959V10.1962V10.1966V10.197V10.1974V10.1977V10.1981V10.1985V10.1989V10.1992V10.1996V10.2V10.2003V10.2007V10.2011V10.2014V10.2018V10.2022V10.2025V10.2029V10.2033V10.2036V10.204V10.2044V10.2047V10.2051V10.2054V10.2058V10.2061V10.2065V10.2069V10.2072V10.2076V10.2079V10.2083V10.2086V10.209V10.2093V10.2097V10.21V10.2104V10.2107V10.2111V10.2114V10.2118V10.2121V10.2125V10.2128V10.2132V10.2135V10.2139V10.2142V10.2146V10.2149V10.2153V10.2156V10.216V10.2163V10.2167V10.217V10.2173V10.2177V10.218V10.2184V10.2187V10.219V10.2194V10.2197V10.22V10.2204V10.2207V10.2211V10.2214V10.2217V10.2221V10.2224V10.2227V10.2231V10.2234V10.2237V10.2241V10.2244V10.2247V10.2251V10.2254V10.2257V10.226V10.2264V10.2267V10.227V10.2274V10.2277V10.228V10.2284V10.2287V10.229V10.2293V10.2296V10.23V10.2303V10.2306V10.2309V10.2313V10.2316V10.2319V10.2322V10.2326V10.2329V10.2332V10.2335V10.2338V10.2342V10.2345V10.2348V10.2351V10.2354V10.2358V10.2361V10.2364V10.2367V10.237V10.2374V10.2377V10.238V10.2383V10.2386V10.2389V10.2393V10.2396V10.2399V10.2402V10.2405V10.2408V10.2411V10.2415V10.2418V10.2421V10.2424V10.2427V10.243V10.2433V10.2437V10.244V10.2443V10.2446V10.2449V10.2452V10.2455V10.2458V10.2461V10.2465V10.2468V10.2471V10.2474V10.2477V10.248V10.2483V10.2486V10.2489V10.2492V10.2495V10.2498V10.2502V10.2505V10.2508V10.2511V10.2514V10.2517V10.252V10.2523V10.2526V10.2529V10.2532V10.2535V10.2538V10.2541V10.2544V10.2547V10.255V10.2554V10.2557V10.256V10.2563V10.2566V10.2569V10.2572V10.2575V10.2578V10.2581V10.2584V10.2587V10.259V10.2593V10.2596V10.2599V10.2602V10.2605V10.2608V10.2611V10.2614V10.2617V10.262V10.2624V10.2627V10.2629V10.2633V10.2636V10.2639V10.2642V10.2645V10.2648V10.2651V10.2654V10.2657V10.266V10.2663V10.2666V10.2669V10.2672V10.2675V10.2678V10.2681V10.2684V10.2687V10.269V10.2693V10.2696V10.2699V10.2702V10.2705V10.2708V10.2711V10.2714V10.2718V10.272V10.2723V10.2727V10.2729V10.2733V10.2736V10.2739V10.2742V10.2745V10.2748V10.2751V10.2754V10.2757V10.276V10.2763V10.2766V10.2769V10.2772V10.2775V10.2778V10.2781V10.2784V10.2787V10.279V10.2793V10.2796V10.28V10.2803V10.2806V10.2809V10.2812V10.2815V10.2818V10.2821V10.2824V10.2827V10.283V10.2833V10.2836V10.2839V10.2842V10.2845V10.2849V10.2852V10.2855V10.2858V10.2861V10.2864V10.2867V10.287V10.2873V10.2876V10.288V10.2883V10.2886V10.2889V10.2892V10.2895V10.2898V10.2901V10.2904V10.2908V10.2911V10.2914V10.2917V10.292V10.2923V10.2926V10.2929V10.2932V10.2936V10.2939V10.2942V10.2945V10.2948V10.2951V10.2954V10.2958V10.2961V10.2964V10.2967V10.297V10.2974V10.2977V10.298V10.2983V10.2986V10.2989V10.2993V10.2996V10.2999V10.3002V10.3005V10.3009V10.3012V10.3015V10.3018V10.3021V10.3025V10.3028V10.3031V10.3034V10.3038V10.3041V10.3044V10.3047V10.3051V10.3054V10.3057V10.3061V10.3064V10.3067V10.307V10.3074V10.3077V10.308V10.3083V10.3087V10.309V10.3093V10.3097V10.31V10.3103V10.3107V10.311V10.3113V10.3117V10.312V10.3123V10.3127V10.313V10.3133V10.3137V10.314V10.3143V10.3147V10.315V10.3154V10.3157V10.3161V10.3164V10.3167V10.3171V10.3174V10.3177V10.3181V10.3184V10.3188V10.3191V10.3195V10.3198V10.3201V10.3205V10.3208V10.3212V10.3215V10.3219V10.3222V10.3226V10.3229V10.3233V10.3236V10.324V10.3243V10.3247V10.325V10.3254V10.3258V10.3261V10.3265V10.3268V10.3272V10.3275V10.3279V10.3282V10.3286V10.329V10.3293V10.3297V10.33V10.3304V10.3308V10.3311V10.3315V10.3319V10.3322V10.3326V10.333V10.3333V10.3337V10.334V10.3344V10.3348V10.3352V10.3355V10.3359V10.3363V10.3367V10.337V10.3374V10.3378V10.3381V10.3385V10.3389V10.3393V10.3396V10.34V10.3404V10.3408V10.3412V10.3416V10.3419V10.3423V10.3427V10.3431V10.3435V10.3439V10.3443V10.3446V10.345V10.3454V10.3458V10.3462V10.3466V10.347V10.3474V10.3477V10.3481V10.3485V10.3489V10.3493V10.3497V10.3501V10.3505V10.3509V10.3513V10.3517V10.3521V10.3525V10.3529V10.3533V10.3556L160.525 13.1094V13.1105C160.524 13.408 160.428 13.6637 160.287 13.8383C160.146 14.0132 159.977 14.0907 159.818 14.0907H156.621C156.454 14.0907 156.253 14.0057 156.084 13.8241C155.918 13.6457 155.803 13.3933 155.803 13.1094V10.3878V10.3874V10.387V10.3866V10.3862V10.3858V10.3854V10.385V10.3846V10.3842V10.3838V10.3834V10.383V10.3826V10.3822V10.3818V10.3814V10.381V10.3806V10.3802V10.3799V10.3795V10.3791V10.3787V10.3783V10.3779V10.3775V10.3772V10.3768V10.3764V10.376V10.3756V10.3752V10.3749V10.3745V10.3741V10.3737V10.3734V10.373V10.3726V10.3722V10.3719V10.3715V10.3711V10.3707V10.3704V10.37V10.3696V10.3692V10.3689V10.3685V10.3681V10.3678V10.3674V10.367V10.3667V10.3663V10.3659V10.3656V10.3652V10.3649V10.3645V10.3641V10.3638V10.3634V10.363V10.3627V10.3623V10.362V10.3616V10.3613V10.3609V10.3606V10.3602V10.3599V10.3595V10.3591V10.3588V10.3584V10.3581V10.3577V10.3574V10.357V10.3567V10.3563V10.356V10.3556V10.3553V10.3549V10.3546V10.3543V10.3539V10.3536V10.3532V10.3529V10.3525V10.3522V10.3519V10.3515V10.3512V10.3508V10.3505V10.3502V10.3498V10.3495V10.3491V10.3488V10.3485V10.3481V10.3478V10.3475V10.3471V10.3468V10.3465V10.3461V10.3458V10.3454V10.3451V10.3448V10.3445V10.3441V10.3438V10.3434V10.3431V10.3428V10.3425V10.3421V10.3418V10.3415V10.3411V10.3408V10.3405V10.3402V10.3398V10.3395V10.3392V10.3389V10.3386V10.3382V10.3379V10.3376V10.3373V10.3369V10.3366V10.3363V10.336V10.3356V10.3353V10.335V10.3347V10.3344V10.334V10.3337V10.3334V10.3331V10.3328V10.3324V10.3321V10.3318V10.3315V10.3312V10.3309V10.3305V10.3302V10.3299V10.3296V10.3293V10.3289V10.3286V10.3283V10.328V10.3277V10.3274V10.3271V10.3268V10.3264V10.3261V10.3258V10.3255V10.3252V10.3249V10.3246V10.3243V10.3239V10.3236V10.3233V10.323V10.3227V10.3224V10.3221V10.3218V10.3215V10.3212V10.3208V10.3205V10.3202V10.3199V10.3196V10.3193V10.319V10.3187V10.3184V10.3181V10.3178V10.3175V10.3172V10.3169V10.3165V10.3162V10.3159V10.3156V10.3153V10.315V10.3147V10.3144V10.3141V10.3138V10.3135V10.3132V10.3129V10.3126V10.3123V10.312V10.3117V10.3114V10.3111V10.3107V10.3104V10.3101V10.3098V10.3095V10.3092V10.3089V10.3086V10.3083V10.308V10.3077V10.3074V10.3071V10.3068V10.3065V10.3062V10.3059V10.3056V10.3053V10.305V10.3047V10.3044V10.3041V10.3038V10.3035V10.3032V10.3028V10.3026V10.3023V10.3019V10.3017V10.3013V10.301V10.3007V10.3004V10.3001V10.2998V10.2995V10.2992V10.2989V10.2986V10.2983V10.298V10.2977V10.2974V10.2971V10.2968V10.2965V10.2962V10.2959V10.2956V10.2953V10.295V10.2947V10.2944V10.2941V10.2938V10.2935V10.2932V10.2929V10.2925V10.2923V10.2919V10.2916V10.2913V10.291V10.2907V10.2904V10.2901V10.2898V10.2895V10.2892V10.2889V10.2886V10.2883V10.288V10.2877V10.2874V10.2871V10.2867V10.2864V10.2861V10.2858V10.2855V10.2852V10.2849V10.2846V10.2843V10.284V10.2837V10.2834V10.2831V10.2828V10.2824V10.2821V10.2818V10.2815V10.2812V10.2809V10.2806V10.2803V10.28V10.2796V10.2793V10.279V10.2787V10.2784V10.2781V10.2778V10.2775V10.2772V10.2769V10.2765V10.2762V10.2759V10.2756V10.2753V10.275V10.2746V10.2743V10.274V10.2737V10.2734V10.2731V10.2728V10.2724V10.2721V10.2718V10.2715V10.2712V10.2708V10.2705V10.2702V10.2699V10.2696V10.2693V10.2689V10.2686V10.2683V10.268V10.2677V10.2673V10.267V10.2667V10.2664V10.2661V10.2657V10.2654V10.2651V10.2648V10.2644V10.2641V10.2638V10.2634V10.2631V10.2628V10.2625V10.2621V10.2618V10.2615V10.2612V10.2608V10.2605V10.2602V10.2598V10.2595V10.2592V10.2589V10.2585V10.2582V10.2578V10.2575V10.2572V10.2568V10.2565V10.2562V10.2559V10.2555V10.2552V10.2548V10.2545V10.2542V10.2538V10.2535V10.2531V10.2528V10.2525V10.2521V10.2518V10.2515V10.2511V10.2508V10.2504V10.2501V10.2497V10.2494V10.249V10.2487V10.2483V10.248V10.2476V10.2473V10.2469V10.2466V10.2462V10.2459V10.2455V10.2452V10.2448V10.2445V10.2441V10.2438V10.2434V10.2431V10.2427V10.2424V10.242V10.2417V10.2413V10.241V10.2406V10.2402V10.2399V10.2395V10.2392V10.2388V10.2384V10.2381V10.2377V10.2373V10.237V10.2366V10.2363V10.2359V10.2355V10.2352V10.2348V10.2344V10.234V10.2337V10.2333V10.2329V10.2326V10.2322V10.2318V10.2314V10.2311V10.2307V10.2303V10.2299V10.2296V10.2292V10.2288V10.2284V10.228V10.2277V10.2273V10.2269V10.2265V10.2262V10.2258V10.2254V10.225V10.2246V10.2242V10.2238V10.2234V10.223V10.2227V10.2223V10.2219V10.2215V10.2211V10.2207V10.2203V10.2199V10.2195V10.2191V10.2187V10.2183V10.2179V10.2175V10.2171V10.2167V10.2163V10.2159V10.2155V0.982613C155.803 0.837139 155.862 0.714363 155.941 0.630783C156.024 0.542737 156.107 0.518066 156.148 0.518066C156.262 0.518066 156.375 0.548061 156.454 0.609129C156.526 0.664058 156.604 0.76887 156.604 0.982613V7.80393V8.06286H156.899H157.455H157.75V7.80393V0.989516C157.774 0.614543 158.012 0.518066 158.122 0.518066C158.163 0.518066 158.271 0.551012 158.383 0.655783C158.489 0.754605 158.55 0.87509 158.55 0.982613V7.80393V8.06286H158.845H159.402Z" fill="#C8D4DB" stroke="#4D4D4D" stroke-width="2"/>
<path d="M160.23 24.5982H156.098V23.5625H160.23V24.5982Z" fill="#EFE5C6" stroke="#4D4D4D" stroke-width="2"/>
<path d="M164.066 18.4458L134.262 18.4458C134.262 18.4458 137.404 21.5502 144.72 21.6852C152.037 21.8427 154.595 21.6627 154.595 21.6627L158.724 19.5931H162.988L163.751 18.6933" fill="#C8D4DB"/>
<mask id="mask0_86_2" style="mask-type:luminance" maskUnits="userSpaceOnUse" x="134" y="18" width="31" height="4">
<path d="M164.066 18.4458L134.262 18.4458C134.262 18.4458 137.404 21.5502 144.72 21.6852C152.037 21.8427 154.595 21.6627 154.595 21.6627L158.724 19.5931H162.988L163.751 18.6933" fill="#4D4D4D"/>
</mask>
<g mask="url(#mask0_86_2)">
<path d="M134.262 18.4456L133.821 18.7895L132.949 17.9277H134.262V18.4456ZM144.72 21.685L144.733 21.1673L144.735 21.1673L144.72 21.685ZM154.595 21.6625L154.888 22.1122L154.773 22.1695L154.642 22.1787L154.595 21.6625ZM158.724 19.5929L158.432 19.1432L158.568 19.075H158.724V19.5929ZM162.988 19.5929L163.462 19.902L163.285 20.1108H162.988V19.5929ZM164.066 18.9635L134.262 18.9634V17.9277L164.066 17.9278V18.9635ZM134.262 18.4456C134.703 18.1017 134.703 18.1015 134.703 18.1013C134.703 18.1013 134.703 18.1011 134.703 18.101C134.703 18.1008 134.703 18.1007 134.702 18.1006C134.702 18.1004 134.702 18.1004 134.702 18.1006C134.703 18.1009 134.704 18.1019 134.706 18.1037C134.709 18.1073 134.716 18.1137 134.726 18.1227C134.746 18.1408 134.778 18.1695 134.822 18.2072C134.911 18.2829 135.05 18.3949 135.241 18.5318C135.623 18.8055 136.212 19.1783 137.025 19.5574C138.648 20.3144 141.172 21.1016 144.733 21.1673L144.708 22.2027C140.953 22.1335 138.248 21.3009 136.471 20.4719C135.583 20.0581 134.93 19.6464 134.494 19.3338C134.276 19.1775 134.112 19.046 134.001 18.9513C133.945 18.9039 133.903 18.8657 133.873 18.8383C133.858 18.8246 133.846 18.8135 133.837 18.8053C133.833 18.8012 133.83 18.7978 133.827 18.7952C133.826 18.7938 133.824 18.7927 133.823 18.7918C133.823 18.7913 133.822 18.7908 133.822 18.7905C133.822 18.7903 133.822 18.79 133.821 18.7899C133.821 18.7897 133.821 18.7895 134.262 18.4456ZM144.735 21.1673C148.386 21.2459 150.846 21.2402 152.39 21.215C153.162 21.2025 153.705 21.185 154.053 21.1709C154.228 21.1638 154.353 21.1575 154.434 21.1531C154.475 21.1509 154.504 21.1491 154.523 21.1479C154.532 21.1474 154.539 21.1469 154.543 21.1466C154.545 21.1465 154.547 21.1464 154.547 21.1463C154.548 21.1463 154.548 21.1463 154.548 21.1463C154.548 21.1463 154.548 21.1463 154.595 21.6625C154.642 22.1787 154.642 22.1787 154.642 22.1787C154.642 22.1787 154.642 22.1787 154.642 22.1787C154.642 22.1787 154.641 22.1788 154.641 22.1788C154.64 22.1788 154.64 22.1789 154.639 22.1789C154.637 22.1791 154.635 22.1792 154.632 22.1794C154.626 22.1798 154.617 22.1804 154.606 22.181C154.584 22.1824 154.551 22.1844 154.508 22.1868C154.42 22.1916 154.288 22.1981 154.108 22.2055C153.748 22.2201 153.194 22.2378 152.412 22.2506C150.848 22.2761 148.371 22.2816 144.706 22.2027L144.735 21.1673ZM154.302 21.2128L158.432 19.1432L159.017 20.0426L154.888 22.1122L154.302 21.2128ZM158.724 19.075H162.988V20.1108H158.724V19.075ZM162.515 19.2837L163.278 18.3839L164.225 19.0022L163.462 19.902L162.515 19.2837Z" fill="#4D4D4D"/>
</g>
<path d="M177.347 20.4555H162V17.8662H177.386C178.073 17.8662 178.667 18.019 179.079 18.2595C179.49 18.499 179.705 18.8118 179.705 19.1488C179.705 19.4833 179.484 19.8029 179.06 20.0502C178.635 20.2975 178.031 20.4555 177.347 20.4555Z" fill="#DB9300" stroke="#4D4D4D" stroke-width="2"/>
<path d="M162 17.3481V20.9731H160.82V17.3481H162Z" fill="#EFE5C6" stroke="#4D4D4D" stroke-width="2"/>
<path d="M154.483 19.8777L151.928 21.1723C151.787 21.2438 151.738 21.4022 151.82 21.526C151.901 21.6498 152.082 21.6923 152.223 21.6208L154.778 20.3261C154.919 20.2546 154.968 20.0963 154.886 19.9724C154.805 19.8486 154.624 19.8061 154.483 19.8777Z" fill="#4D4D4D"/>
<path d="M151.532 19.8777L148.977 21.1723C148.836 21.2438 148.787 21.4022 148.869 21.526C148.95 21.6498 149.131 21.6923 149.272 21.6208L151.827 20.3261C151.969 20.2546 152.017 20.0963 151.935 19.9724C151.854 19.8486 151.673 19.8061 151.532 19.8777Z" fill="#4D4D4D"/>
<path d="M148.582 19.8777L146.026 21.1723C145.885 21.2438 145.837 21.4022 145.918 21.526C146 21.6498 146.18 21.6923 146.321 21.6208L148.877 20.3261C149.018 20.2546 149.066 20.0963 148.985 19.9724C148.903 19.8486 148.723 19.8061 148.582 19.8777Z" fill="#4D4D4D"/>
<path d="M163.77 18.9016C163.608 18.9016 163.475 19.0175 163.475 19.1605C163.475 19.3035 163.608 19.4194 163.77 19.4194C163.933 19.4194 164.066 19.3035 164.066 19.1605C164.066 19.0175 163.933 18.9016 163.77 18.9016Z" fill="#4D4D4D"/>
<path d="M170.262 18.9016C170.099 18.9016 169.967 19.0175 169.967 19.1605C169.967 19.3035 170.099 19.4194 170.262 19.4194C170.425 19.4194 170.557 19.3035 170.557 19.1605C170.557 19.0175 170.425 18.9016 170.262 18.9016Z" fill="#4D4D4D"/>
<path d="M176.754 18.9016C176.591 18.9016 176.459 19.0175 176.459 19.1605C176.459 19.3035 176.591 19.4194 176.754 19.4194C176.917 19.4194 177.049 19.3035 177.049 19.1605C177.049 19.0175 176.917 18.9016 176.754 18.9016Z" fill="#4D4D4D"/>
<path d="M137.243 48.9764C136.841 48.9764 136.478 48.8961 136.154 48.7356C135.829 48.5699 135.57 48.3343 135.375 48.0287C135.186 47.718 135.091 47.34 135.091 46.8946C135.091 46.4493 135.186 46.0738 135.375 45.7683C135.564 45.4576 135.82 45.222 136.145 45.0614C136.47 44.9009 136.835 44.8206 137.243 44.8206C137.685 44.8206 138.081 44.9086 138.429 45.0847C138.783 45.2556 139.06 45.499 139.261 45.8149C139.462 46.1256 139.562 46.4855 139.562 46.8946C139.562 47.3089 139.462 47.6714 139.261 47.9821C139.06 48.2928 138.783 48.5362 138.429 48.7123C138.081 48.8884 137.685 48.9764 137.243 48.9764ZM134.844 50.4445V44.8595H135.446V46.0868L135.384 46.9024L135.472 47.7258V50.4445H134.844ZM137.198 48.487C137.529 48.487 137.824 48.4223 138.084 48.2928C138.343 48.1582 138.55 47.9718 138.703 47.7336C138.857 47.4902 138.933 47.2105 138.933 46.8946C138.933 46.5787 138.857 46.3017 138.703 46.0635C138.55 45.8253 138.343 45.6388 138.084 45.5042C137.824 45.3695 137.529 45.3022 137.198 45.3022C136.868 45.3022 136.57 45.3695 136.304 45.5042C136.045 45.6388 135.838 45.8253 135.685 46.0635C135.537 46.3017 135.463 46.5787 135.463 46.8946C135.463 47.2105 135.537 47.4902 135.685 47.7336C135.838 47.9718 136.045 48.1582 136.304 48.2928C136.57 48.4223 136.868 48.487 137.198 48.487ZM140.843 48.9376V43.1738H141.472V48.9376H140.843ZM145.142 48.9764C144.746 48.9764 144.401 48.9117 144.106 48.7822C143.811 48.6528 143.581 48.4586 143.415 48.1996C143.256 47.9407 143.176 47.617 143.176 47.2286V44.8595H143.805V47.1665C143.805 47.6015 143.926 47.9303 144.168 48.153C144.416 48.3705 144.761 48.4793 145.204 48.4793C145.528 48.4793 145.809 48.4223 146.045 48.3084C146.287 48.1893 146.47 48.0184 146.593 47.7957C146.723 47.573 146.788 47.3063 146.788 46.9956V44.8595H147.417V48.9376H146.815V47.819L146.912 48.021C146.765 48.3213 146.534 48.557 146.222 48.7278C145.915 48.8936 145.555 48.9764 145.142 48.9764ZM150.417 48.9764C150.033 48.9764 149.67 48.9298 149.328 48.8366C148.985 48.7382 148.717 48.6165 148.522 48.4715L148.805 48.0365C148.994 48.1608 149.236 48.2695 149.531 48.3628C149.826 48.4508 150.136 48.4948 150.461 48.4948C150.903 48.4948 151.222 48.4353 151.417 48.3161C151.612 48.1919 151.709 48.0287 151.709 47.8268C151.709 47.6766 151.653 47.5601 151.541 47.4772C151.435 47.3892 151.293 47.3245 151.116 47.283C150.939 47.2364 150.741 47.1976 150.523 47.1665C150.304 47.1354 150.086 47.0992 149.868 47.0578C149.655 47.0163 149.461 46.9568 149.283 46.8791C149.106 46.7962 148.962 46.6849 148.85 46.5451C148.743 46.4053 148.69 46.2188 148.69 45.9858C148.69 45.7631 148.761 45.5637 148.903 45.3877C149.044 45.2116 149.251 45.0744 149.522 44.976C149.8 44.8724 150.136 44.8206 150.532 44.8206C150.833 44.8206 151.134 44.8569 151.435 44.9294C151.736 44.9967 151.983 45.0873 152.178 45.2012L151.904 45.644C151.697 45.5197 151.476 45.4317 151.24 45.3799C151.004 45.3229 150.768 45.2944 150.532 45.2944C150.113 45.2944 149.803 45.3592 149.602 45.4886C149.407 45.6129 149.31 45.7735 149.31 45.9703C149.31 46.1256 149.363 46.2473 149.469 46.3353C149.581 46.4234 149.726 46.4933 149.903 46.5451C150.086 46.5917 150.284 46.6305 150.496 46.6616C150.715 46.6927 150.93 46.7315 151.142 46.7781C151.361 46.8195 151.559 46.8791 151.736 46.9568C151.919 47.0293 152.063 47.1354 152.169 47.2753C152.281 47.4099 152.338 47.5886 152.338 47.8112C152.338 48.0494 152.261 48.2566 152.107 48.4327C151.96 48.6036 151.741 48.7382 151.452 48.8366C151.169 48.9298 150.824 48.9764 150.417 48.9764Z" fill="#43AB66"/>
<path d="M59.2052 40.5482C57.2695 40.5482 55.5698 40.1961 54.1062 39.4918C52.6426 38.7668 51.4977 37.7829 50.6715 36.54C49.8452 35.2765 49.4321 33.8368 49.4321 32.2211C49.4321 30.6054 49.8216 29.1761 50.6007 27.9332C51.4033 26.6904 52.4892 25.7168 53.8584 25.0125C55.2511 24.2875 56.8092 23.925 58.5325 23.925C60.2793 23.925 61.8256 24.2772 63.1711 24.9815C64.5403 25.665 65.6144 26.6386 66.3934 27.9022C67.1725 29.145 67.562 30.5847 67.562 32.2211C67.562 32.3247 67.5502 32.4386 67.5266 32.5629C67.5266 32.6665 67.5266 32.7804 67.5266 32.9047H51.3443V31.2579H66.181L65.1895 31.9104C65.1895 30.7297 64.8944 29.6836 64.3043 28.7722C63.7377 27.84 62.9587 27.115 61.9672 26.5972C60.9757 26.0793 59.8308 25.8204 58.5325 25.8204C57.2577 25.8204 56.1128 26.0793 55.0977 26.5972C54.0826 27.115 53.2918 27.84 52.7252 28.7722C52.1587 29.7043 51.8754 30.7711 51.8754 31.9725V32.3143C51.8754 33.5572 52.1823 34.655 52.7961 35.6079C53.4334 36.54 54.3069 37.2754 55.4164 37.814C56.5495 38.3318 57.8361 38.5907 59.2761 38.5907C60.4092 38.5907 61.4597 38.4147 62.4275 38.0625C63.419 37.7104 64.2688 37.1718 64.977 36.4468L66.3934 37.8761C65.5672 38.7461 64.5285 39.409 63.2774 39.8647C62.0498 40.3204 60.6925 40.5482 59.2052 40.5482ZM78.9822 40.5482C77.1409 40.5482 75.4885 40.1961 74.0248 39.4918C72.5848 38.7668 71.4517 37.7829 70.6255 36.54C69.7993 35.2765 69.3862 33.8368 69.3862 32.2211C69.3862 30.5847 69.7993 29.145 70.6255 27.9022C71.4517 26.6593 72.5848 25.6857 74.0248 24.9815C75.4885 24.2772 77.1409 23.925 78.9822 23.925C80.5639 23.925 81.9921 24.1943 83.2668 24.7329C84.5416 25.2715 85.5448 26.0793 86.2766 27.1565L84.3999 28.275C83.7626 27.4465 82.9717 26.8354 82.0275 26.4418C81.0832 26.0482 80.0563 25.8515 78.9468 25.8515C77.6248 25.8515 76.4327 26.1207 75.3704 26.6593C74.3081 27.1772 73.4701 27.9125 72.8563 28.8654C72.2426 29.8182 71.9357 30.9368 71.9357 32.2211C71.9357 33.5054 72.2426 34.624 72.8563 35.5768C73.4701 36.5297 74.3081 37.2754 75.3704 37.814C76.4327 38.3318 77.6248 38.5907 78.9468 38.5907C80.0563 38.5907 81.0832 38.394 82.0275 38.0004C82.9717 37.6068 83.7626 37.0061 84.3999 36.1982L86.2766 37.3168C85.5448 38.3732 84.5416 39.1811 83.2668 39.7404C81.9921 40.279 80.5639 40.5482 78.9822 40.5482ZM89.5226 40.3929V24.0804H92.0367V40.3929H89.5226ZM90.7973 20.4761C90.278 20.4761 89.8412 20.3207 89.4871 20.01C89.133 19.6993 88.956 19.3265 88.956 18.8915C88.956 18.4565 89.133 18.094 89.4871 17.804C89.8412 17.4932 90.278 17.3379 90.7973 17.3379C91.3167 17.3379 91.7534 17.4829 92.1075 17.7729C92.4616 18.0629 92.6386 18.4254 92.6386 18.8604C92.6386 19.3161 92.4616 19.6993 92.1075 20.01C91.777 20.3207 91.3403 20.4761 90.7973 20.4761ZM107.212 40.5482C105.606 40.5482 104.154 40.2272 102.856 39.585C101.558 38.9222 100.519 37.9797 99.7401 36.7575C98.9847 35.5147 98.6069 34.0025 98.6069 32.2211C98.6069 30.4397 98.9847 28.9379 99.7401 27.7157C100.495 26.4729 101.522 25.5304 102.821 24.8882C104.119 24.2461 105.583 23.925 107.212 23.925C108.982 23.925 110.564 24.2772 111.956 24.9815C113.373 25.665 114.482 26.6386 115.285 27.9022C116.088 29.145 116.489 30.5847 116.489 32.2211C116.489 33.8782 116.088 35.3282 115.285 36.5711C114.482 37.814 113.373 38.7875 111.956 39.4918C110.564 40.1961 108.982 40.5482 107.212 40.5482ZM97.6155 46.4207V24.0804H100.023V28.9897L99.7755 32.2522L100.13 35.5457V46.4207H97.6155ZM107.034 38.5907C108.356 38.5907 109.537 38.3318 110.575 37.814C111.614 37.2754 112.44 36.5297 113.054 35.5768C113.668 34.6032 113.975 33.4847 113.975 32.2211C113.975 30.9575 113.668 29.8493 113.054 28.8965C112.44 27.9436 111.614 27.1979 110.575 26.6593C109.537 26.1207 108.356 25.8515 107.034 25.8515C105.713 25.8515 104.52 26.1207 103.458 26.6593C102.419 27.1979 101.593 27.9436 100.979 28.8965C100.389 29.8493 100.094 30.9575 100.094 32.2211C100.094 33.4847 100.389 34.6032 100.979 35.5768C101.593 36.5297 102.419 37.2754 103.458 37.814C104.52 38.3318 105.713 38.5907 107.034 38.5907ZM128.094 40.5482C126.158 40.5482 124.458 40.1961 122.995 39.4918C121.531 38.7668 120.386 37.7829 119.56 36.54C118.734 35.2765 118.321 33.8368 118.321 32.2211C118.321 30.6054 118.71 29.1761 119.489 27.9332C120.292 26.6904 121.378 25.7168 122.747 25.0125C124.14 24.2875 125.698 23.925 127.421 23.925C129.168 23.925 130.714 24.2772 132.06 24.9815C133.429 25.665 134.503 26.6386 135.282 27.9022C136.061 29.145 136.451 30.5847 136.451 32.2211C136.451 32.3247 136.439 32.4386 136.415 32.5629C136.415 32.6665 136.415 32.7804 136.415 32.9047H120.233V31.2579H135.07L134.078 31.9104C134.078 30.7297 133.783 29.6836 133.193 28.7722C132.626 27.84 131.847 27.115 130.856 26.5972C129.864 26.0793 128.719 25.8204 127.421 25.8204C126.146 25.8204 125.001 26.0793 123.986 26.5972C122.971 27.115 122.18 27.84 121.614 28.7722C121.047 29.7043 120.764 30.7711 120.764 31.9725V32.3143C120.764 33.5572 121.071 34.655 121.685 35.6079C122.322 36.54 123.196 37.2754 124.305 37.814C125.438 38.3318 126.725 38.5907 128.165 38.5907C129.298 38.5907 130.348 38.4147 131.316 38.0625C132.308 37.7104 133.158 37.1718 133.866 36.4468L135.282 37.8761C134.456 38.7461 133.417 39.409 132.166 39.8647C130.938 40.3204 129.581 40.5482 128.094 40.5482ZM145.144 40.5482C143.61 40.5482 142.158 40.3618 140.789 39.989C139.42 39.5954 138.346 39.1086 137.567 38.5286L138.7 36.7886C139.455 37.2857 140.423 37.7207 141.603 38.0936C142.784 38.4457 144.023 38.6218 145.321 38.6218C147.092 38.6218 148.367 38.3836 149.146 37.9072C149.925 37.41 150.314 36.7575 150.314 35.9497C150.314 35.349 150.09 34.8829 149.641 34.5515C149.216 34.1993 148.65 33.9404 147.942 33.7747C147.234 33.5882 146.443 33.4329 145.569 33.3086C144.696 33.1843 143.822 33.0393 142.949 32.8736C142.099 32.7079 141.32 32.4697 140.612 32.159C139.904 31.8275 139.325 31.3822 138.877 30.8229C138.452 30.2636 138.239 29.5179 138.239 28.5857C138.239 27.695 138.523 26.8975 139.089 26.1932C139.656 25.489 140.482 24.94 141.568 24.5465C142.677 24.1322 144.023 23.925 145.605 23.925C146.809 23.925 148.013 24.07 149.216 24.36C150.42 24.6293 151.412 24.9918 152.191 25.4475L151.093 27.2186C150.267 26.7215 149.382 26.3693 148.437 26.1622C147.493 25.9343 146.549 25.8204 145.605 25.8204C143.929 25.8204 142.689 26.0793 141.887 26.5972C141.108 27.0943 140.718 27.7365 140.718 28.5236C140.718 29.145 140.931 29.6318 141.355 29.984C141.804 30.3361 142.382 30.6157 143.091 30.8229C143.822 31.0093 144.613 31.1647 145.463 31.289C146.336 31.4132 147.198 31.5686 148.048 31.755C148.921 31.9207 149.712 32.159 150.42 32.4697C151.152 32.7597 151.731 33.1843 152.155 33.7436C152.604 34.2822 152.828 34.9968 152.828 35.8875C152.828 36.8404 152.521 37.669 151.908 38.3732C151.317 39.0568 150.444 39.5954 149.287 39.989C148.154 40.3618 146.773 40.5482 145.144 40.5482Z" fill="#E8E8E8"/>
<path d="M92.7148 18.9794C92.7148 18.0499 91.856 17.2964 90.7967 17.2964C89.7374 17.2964 88.8787 18.0499 88.8787 18.9794C88.8787 19.9089 89.7374 20.6625 90.7967 20.6625C91.856 20.6625 92.7148 19.9089 92.7148 18.9794Z" fill="#43AB66"/>
<path d="M27.3239 0.104492C33.0719 0.104492 37.4568 1.00383 40.4788 2.8025C43.5216 4.58264 45.0431 7.14158 45.0431 10.4793C45.0431 12.1111 44.8215 13.5111 44.3777 14.6793C43.9548 15.829 43.3526 16.8118 42.5709 17.6277C41.8099 18.425 40.8907 19.0926 39.813 19.6303C38.7564 20.1496 37.6047 20.5946 36.3579 20.9654C37.2243 21.1694 38.0907 21.7164 38.957 22.6065C39.8446 23.4966 40.7429 24.5999 41.6514 25.9165C42.5603 27.2145 43.4794 28.6609 44.4092 30.2556C45.3391 31.8501 46.2689 33.4635 47.1987 35.0952C48.1497 36.727 49.1005 38.3124 50.0515 39.8515C51.0235 41.3906 51.9852 42.7629 52.9362 43.9682C53.9082 45.1735 54.8802 46.1378 55.8522 46.8607C56.8455 47.5839 57.8281 47.9456 58.8004 47.9456C59.223 47.9456 59.6349 47.8713 60.0365 47.7232C60.459 47.5748 60.7866 47.4265 61.0191 47.2781L61.6848 48.3627C61.2623 48.5668 60.7444 48.7892 60.1315 49.0303C59.5186 49.29 58.8004 49.531 57.9762 49.7534C57.1521 49.9761 56.2223 50.1615 55.1865 50.3099C54.1723 50.4766 53.0419 50.5603 51.7949 50.5603C49.7452 50.5603 47.8959 50.0595 46.2479 49.0582C44.5996 48.0753 43.1835 46.6846 42.0002 44.8861C40.7957 43.0317 39.6124 41.0848 38.4501 39.0449C37.2877 37.0051 36.1254 34.9655 34.9631 32.9257C33.822 30.8861 32.6703 28.8926 31.508 26.9455C30.3669 24.9986 29.2152 23.1721 28.053 21.4661L28.3065 20.3257C29.5533 20.6038 30.631 20.539 31.5398 20.131C32.4696 19.723 33.2304 19.0648 33.822 18.1562C34.4136 17.229 34.8468 16.0979 35.1215 14.7628C35.4175 13.4277 35.5653 11.9813 35.5653 10.4237C35.5653 9.31111 35.4281 8.27271 35.1534 7.30848C34.8787 6.32569 34.4877 5.4727 33.9805 4.74954C33.4945 4.00782 32.9028 3.43297 32.2055 3.02503C31.508 2.59854 30.7263 2.38529 29.8596 2.38529C29.1835 2.38529 28.6235 2.478 28.1797 2.66343C27.7571 2.83031 27.419 3.05283 27.1654 3.33098C26.9118 3.59058 26.7322 3.87801 26.6265 4.19323C26.542 4.48991 26.4997 4.77735 26.4997 5.05549V38.0437C26.4997 39.4714 26.0665 40.5097 25.2001 41.1588C24.3548 41.8077 23.0552 42.1324 21.3012 42.1324C19.5261 42.1324 18.2159 41.8077 17.3706 41.1588C16.5254 40.5097 16.1027 39.4714 16.1027 38.0437V4.77735C16.1027 3.75748 15.2997 3.24755 13.6936 3.24755C12.5314 3.24755 11.348 3.40516 10.1434 3.72038C8.96005 4.01708 7.88229 4.4343 6.91023 4.97204C5.95927 5.49124 5.17739 6.12171 4.56456 6.86343C3.95171 7.58662 3.6453 8.3747 3.6453 9.22768C3.6453 9.82105 3.72984 10.2939 3.89889 10.6462C4.08907 10.9985 4.30041 11.2674 4.53284 11.4528C4.76531 11.6197 4.99774 11.731 5.23021 11.7866C5.4838 11.8237 5.66342 11.8422 5.76909 11.8422C6.29737 11.8422 6.73058 11.7681 7.06872 11.6197C7.40682 11.4528 7.71324 11.286 7.98796 11.1191C8.26268 10.9336 8.51627 10.7668 8.74871 10.6184C9.0023 10.4515 9.28759 10.3681 9.60456 10.3681C9.85816 10.3681 10.1223 10.4237 10.397 10.535C10.6929 10.6277 10.957 10.7853 11.1895 11.0078C11.4431 11.2303 11.6544 11.527 11.8235 11.8979C11.9925 12.2502 12.077 12.686 12.077 13.2052C12.077 13.9469 11.908 14.5866 11.5699 15.1244C11.2529 15.6621 10.8302 16.1164 10.3019 16.4873C9.79477 16.8396 9.20308 17.1085 8.52684 17.2939C7.87172 17.4608 7.21664 17.5442 6.56153 17.5442C5.54719 17.5442 4.62795 17.3959 3.80378 17.0992C3.00078 16.784 2.31397 16.3575 1.7434 15.8197C1.17284 15.282 0.739626 14.6515 0.443777 13.9284C0.147925 13.2052 0 12.4356 0 11.6197C0 10.0806 0.32755 8.72702 0.982647 7.55881C1.63774 6.37204 2.55699 5.35217 3.7404 4.49921C4.94492 3.64622 6.38192 2.94157 8.05137 2.38529C9.7208 1.81045 11.5699 1.35615 13.5986 1.02237C15.6272 0.6886 17.7933 0.456809 20.0967 0.327008C22.4212 0.178664 24.8303 0.104492 27.3239 0.104492Z" fill="#43AB66"/>
</g>
<defs>
<clipPath id="clip0_86_2">
<rect width="180" height="50.75" fill="white"/>
</clipPath>
</defs>
</svg>
